<?xml version="1.0" standalone="no"?>
<!DOCTYPE svg PUBLIC "-//W3C//DTD SVG 20010904//EN"
 "http://www.w3.org/TR/2001/REC-SVG-20010904/DTD/svg10.dtd">
<svg version="1.0" xmlns="http://www.w3.org/2000/svg"
 width="585.000000pt" height="585.000000pt" viewBox="0 0 585.000000 585.000000"
 preserveAspectRatio="xMidYMid meet">
<metadata>
Created by potrace 1.11, written by Peter Selinger 2001-2013
</metadata>
<g transform="translate(0.000000,585.000000) scale(0.100000,-0.100000)"
fill="#000000" stroke="none">
<path d="M2229 5706 c-2 -2 -20 -6 -39 -9 -156 -21 -340 -111 -466 -227 -42
-39 -144 -148 -249 -269 -87 -99 -97 -106 -260 -175 -222 -94 -295 -129 -358
-170 -75 -47 -190 -157 -243 -232 -89 -125 -156 -305 -169 -454 -3 -36 -8 -81
-10 -100 -11 -81 -15 -119 -20 -180 -10 -112 -13 -121 -134 -325 -65 -110
-127 -221 -138 -246 -97 -211 -108 -475 -28 -693 22 -61 67 -148 139 -271 128
-220 136 -235 141 -293 2 -31 7 -82 10 -112 3 -30 8 -73 10 -95 2 -22 7 -76
10 -120 7 -81 37 -230 54 -262 4 -10 23 -49 41 -88 61 -132 168 -260 293 -349
52 -37 261 -146 281 -146 3 0 44 -18 93 -41 48 -23 104 -47 124 -55 25 -11 77
-63 180 -181 175 -202 252 -274 355 -334 145 -84 257 -117 424 -125 126 -7
161 -2 455 62 94 20 177 36 185 36 8 0 67 -12 130 -27 63 -14 126 -28 140 -31
14 -3 33 -7 42 -10 19 -6 39 -10 133 -29 101 -20 287 -13 395 15 106 28 230
87 312 149 86 66 96 75 300 302 36 41 79 88 95 105 20 23 85 56 243 123 257
109 329 151 432 249 161 153 261 359 283 577 3 39 8 84 10 100 2 17 7 55 10
85 13 139 23 218 29 229 2 3 56 95 120 203 184 309 212 394 211 638 -1 180
-35 293 -149 495 -41 72 -83 146 -94 165 -10 19 -33 58 -49 86 -30 50 -36 78
-48 219 -13 149 -15 173 -21 225 -14 145 -42 245 -97 355 -96 192 -246 335
-453 431 -55 25 -121 56 -149 69 -27 12 -89 39 -136 60 -79 34 -91 43 -160
123 -258 297 -324 360 -459 434 -52 28 -169 73 -220 84 -19 4 -42 9 -50 12
-34 9 -268 11 -305 2 -22 -5 -55 -12 -74 -15 -19 -3 -98 -20 -175 -36 -216
-47 -204 -45 -246 -35 -14 4 -43 10 -65 15 -47 10 -311 70 -340 78 -24 6 -271
14 -276 9z"/>
</g>
</svg>
