<?xml version="1.0" encoding="UTF-8"?> <svg xmlns="http://www.w3.org/2000/svg" viewBox="0 0 140 140"><defs><style>.cls-1{fill:#675de8;}.cls-2{fill:#c60e47;}.cls-3{fill:#f93168;}.cls-4{fill:none;stroke:#0f0140;stroke-miterlimit:10;stroke-width:2px;}</style></defs><g id="Layer_3" data-name="Layer 3"><path class="cls-1" d="M117.71,95.41h0l.11-.06a.6.6,0,0,1,.6-.57l.14.07a3,3,0,0,0,1-2.19v-.48a.6.6,0,0,1-.26-.14.71.71,0,0,1,0-.21l0-.1h0l.23-.2h0v-.65a.41.41,0,0,1-.17.12l-.26-.11,0-.09c0-.22.16-.35.37-.35l.08.08V89.05l0,.08a.54.54,0,0,1-.53.2.4.4,0,0,1-.33-.21l-.08,0,0-.22a.68.68,0,0,1,0-.35l.32-.17.14.07.09,0,.06,0,0,.09a0,0,0,0,0,0,0l.06-.08a.69.69,0,0,1,.28.34V86.73l-.19,0a.29.29,0,0,1-.24.22l-.18-.06a1.08,1.08,0,0,1-.13-.32l.1-.2.14,0,0-.13a1.69,1.69,0,0,1,.41-.29.18.18,0,0,1,.07.05v-.29h-1.13l1.13-.25v-8h0c0,.11,0,.21-.07.3l-.19.09c-.07,0-.3-.13-.34-.22l-.12,0,0-.1a1.15,1.15,0,0,1,0-.19c.08-.15.24-.17.4-.18l.05.07a.31.31,0,0,1,.17.15l.09,0V73.61h-.17a1,1,0,0,1-.16.13l-.24-.06c-.19-.26,0-.64.35-.5a1.39,1.39,0,0,0,.22.23V67.83a.29.29,0,0,1-.2-.19.46.46,0,0,1-.12.29,2.71,2.71,0,0,1-.3.13l-.23,0c-.31-.32-.07-.56.12-.81l.36,0,.06.08.06-.1v-.49l.17.34s0,0,.08,0V61.16a.27.27,0,0,1-.15-.11l-.07-.25.09-.15,0-.07.16-.18V50a.17.17,0,0,1,0-.12h0c-.06-.13.06-.24,0-.36h0V40.33a.48.48,0,0,1,0-.24V36.71h-.17a.53.53,0,0,1-.18-.4,1.22,1.22,0,0,0,.2-.32l.15,0v-.72l-.06,0-.08-.23a.44.44,0,0,1,.14-.3V33.5a3,3,0,0,0-.29-1.27h0a.61.61,0,0,1-.07-.14,3,3,0,0,0-2.61-1.59l-.07,0h0a.31.31,0,0,1-.44,0H82.7l0,0a.38.38,0,0,1-.12.29l-.17,0a.64.64,0,0,1-.18-.1.37.37,0,0,1-.25.17l-.11.06-.35-.26a.81.81,0,0,1,.07-.22H59.07l-.1.12-.4-.1v0h-20v0l0,0,0,.28,0,.06-.16-.09.14.11a.33.33,0,0,1-.46.05l-.09-.07a1.18,1.18,0,0,1-.06-.27l.09-.12H35.74c.12.27.08.59-.33.51h0a.36.36,0,0,1-.37-.4h0s0-.07,0-.11H27.53a.44.44,0,0,1-.09.11l-.26,0,0,0h-.05A.53.53,0,0,1,27,30.5h-3.5a3,3,0,0,0-3,3V69.38a.46.46,0,0,1,.49.15,1.08,1.08,0,0,1,0,.4.5.5,0,0,1-.46,0v6.29a2,2,0,0,1,.23.14,1,1,0,0,0,0,.29l-.16.4-.11,0V88.65a.54.54,0,0,0,.08-.22.48.48,0,0,1,.69,0l.14.26a.56.56,0,0,0,0,.12l0,0a.33.33,0,0,1-.22.43l-.33,0c0-.06-.09-.15-.11-.2L20.52,89l-.07-.18v3.86a3,3,0,0,0,3,3h5.13l0,0a.31.31,0,0,1,.14-.53l.26.11.05.22-.08.2-.06,0H55.36a.32.32,0,0,1,.1-.22l.17,0a.61.61,0,0,1,.18.09.35.35,0,0,1,.25-.17l.11-.06.35.25,0,.14H78.87l.22-.27.4.09,0,.11,0,0v0h31l-.14-.12c0-.16,0-.34.18-.5l.26-.05,0,0h0a.43.43,0,0,1,.21.23.31.31,0,0,1,0,.41h5.32a2.87,2.87,0,0,0,1.09-.22ZM49.57,32c0-.2.26-.25.41-.24.62.2.57.52.24,1a1,1,0,0,0-.3,0l-.39-.16C49.5,32.44,49.4,32.27,49.57,32Zm-2.69-.69c.14.06.31,0,.43.09l.1.08,0,.37a.51.51,0,0,1-.41.17,1.23,1.23,0,0,0-.31-.19ZM45.5,31a.71.71,0,0,1,.23-.18,1.22,1.22,0,0,1,.36.14v.15l.07.05v.09l-.18,0h.18a.61.61,0,0,1-.16.48l-.23.09a.52.52,0,0,1-.47-.67l0-.09Zm-3.3.2a.83.83,0,0,1,.22,0h.09l0,0a1.14,1.14,0,0,1,.37,0,2.35,2.35,0,0,0,.19.25,1.2,1.2,0,0,1,0,.27l0,0v.14L43,32V32a.52.52,0,0,1-.57,0s-.1-.05-.13-.05l0-.11A.42.42,0,0,1,42.2,31.21Zm-.05,6.26.12,0,.22,0a1.35,1.35,0,0,1,.26.44.41.41,0,0,1-.81-.08A.77.77,0,0,1,42.15,37.47Zm-1.3-3.27h0l.19.09a.83.83,0,0,1,.19.48h0c.2.21,0,.44-.15.6a.52.52,0,0,1-.44,0,.59.59,0,0,1-.11-.19s-.09-.08-.11-.1l-.07-.27h0a.06.06,0,0,1,0-.06c-.07-.15.06-.31.05-.45l.4-.12ZM38.58,33l.26-.09a.37.37,0,0,1,.12.64l-.26.06-.06,0,.08-.17-.1.15A.36.36,0,0,1,38.58,33Zm-1.81-.08a.46.46,0,1,1-.18.87l-.07-.13-.12-.07,0-.11C36.33,33.2,36.58,33,36.77,32.89Zm-3.36,3,.22-.14a1.93,1.93,0,0,1,.24,0,.33.33,0,1,1-.37.55l-.13-.13Zm-1.53,1.62a1.43,1.43,0,0,1,.28.07.6.6,0,0,1,.18.65.78.78,0,0,1-.31.21l0,.05-.34-.08v0s-.15-.15-.18-.17v0C31.25,37.77,31.5,37.47,31.88,37.48Zm-.76-1.34.05,0a.46.46,0,0,1,.4-.08l.06,0a.57.57,0,0,1,.21.13h0l.16.33-.23.32-.3,0v0h0a.76.76,0,0,1-.37-.38Zm-.34-3.93,0,0h0a.38.38,0,0,1,0,.6l-.27,0-.17-.11C30.26,32.47,30.45,32.27,30.78,32.21ZM29.29,33.3c.26,0,.57,0,.72.21a1.31,1.31,0,0,1,0,.28l0,0a.46.46,0,0,1-.15.23l-.21.05h0l-.14,0L29.34,34h0c-.18-.11-.16-.32-.21-.5Zm-.33.49.14,0,.09.15a.46.46,0,0,1,.18.3,1.52,1.52,0,0,1-.06.2.48.48,0,0,1,.06.8,1.53,1.53,0,0,1-.3,0l0,0-.16-.07a.53.53,0,0,1-.18-.56,3.08,3.08,0,0,1-.26-.24l-.06-.23C28.46,34,28.69,33.68,29,33.79Zm-1.18,1.56L28,35.3a.37.37,0,0,1,.11.66,1.27,1.27,0,0,1-.34,0h0C27.64,35.75,27.59,35.51,27.78,35.35ZM27,33.48c0,.39-.2.45-.53.41C25.91,33.44,26.89,32.8,27,33.48ZM25.81,84.62a.85.85,0,0,1-.37-.22l0-.11,0-.22a1.48,1.48,0,0,1,.44-.27A.41.41,0,0,1,25.81,84.62ZM25.32,73.9c-.12-.06-.24,0-.4-.15s-.12-.17-.14-.2c0-.51.62-.84.91-.36l.09,0a2.29,2.29,0,0,1,.12.37A.79.79,0,0,1,25.32,73.9Zm-.43,4.94-.11.15-.35,0a.51.51,0,0,1,0-.52,1.2,1.2,0,0,1,.33-.13C24.92,78.42,25.05,78.62,24.89,78.84Zm.76-28-.09,0v0a1.56,1.56,0,0,0-.2.16l0,0-.12.08h0c-.2,0-.28-.17-.39-.28l0-.15a.28.28,0,0,1,0-.2h0a.35.35,0,0,1,.06-.14s0-.19,0-.21.26-.15.4-.19a1.39,1.39,0,0,1,.28.12,1,1,0,0,1,0,.68ZM25.77,62a1.35,1.35,0,0,1,.07.36.81.81,0,0,0-.22.23l-.27,0-.2-.15,0-.25,0,0A.36.36,0,0,1,25.77,62Zm.09-27.84h0a.41.41,0,0,1-.24.57l-.19.05-.27-.27a.58.58,0,0,1,.36-.48Zm-1.18-2.36h0l.18-.12a.54.54,0,0,1,.45.18.53.53,0,0,1,0,.31l.05.16-.28.29-.1,0-.06,0-.29-.19a1,1,0,0,1,0-.3A.4.4,0,0,1,24.68,31.83Zm0,13.19c-.33-.57.73-.88.7-.18l.06.13a1.56,1.56,0,0,1,.12.17h0l.07.12a.55.55,0,0,1-.52.48l0,0a1.6,1.6,0,0,1-.46-.17v-.1A.45.45,0,0,1,24.68,45ZM23.6,58.25l.23,0a.68.68,0,0,1,.41.67.6.6,0,0,1-.8,0,1.08,1.08,0,0,1-.07-.31A2.09,2.09,0,0,1,23.6,58.25Zm-.12,5.62h0c.07.05.25.16.25.26h0a1,1,0,0,1,.07.29,2.13,2.13,0,0,1-.18.22l-.32.19,0,0a.46.46,0,0,1-.37-.3h0l-.05-.3A.53.53,0,0,1,23.48,63.87ZM22.24,41a.89.89,0,0,1-.18-.43,1.05,1.05,0,0,1,.23-.29,1.42,1.42,0,0,1,.61.07C23.13,40.81,22.76,41.24,22.24,41Zm.23,35.55a.47.47,0,0,1-.61.11l-.13-.2a.39.39,0,0,1,.74-.2C22.52,76.28,22.48,76.42,22.47,76.5Zm-.6-41s.06-.07.06-.12a1.76,1.76,0,0,1,.37-.17h0c.09.07.24.22.24.32h0a.78.78,0,0,1,.07.3l-.18.27a.43.43,0,0,1-.35,0h0c-.06-.05-.22-.27-.28-.34l0,0-.09-.15Zm-.13,3.92a.53.53,0,0,1,.46,0l.1.16a.35.35,0,0,1-.57.33h0C21.58,39.77,21.63,39.59,21.74,39.41Zm-.63,6.69.09.13c.12,0,.35-.11.45,0l-.1.15.11-.14c.08,0,.18.28.2.38l0,0h0c-.07.35-.44.56-.67.19l-.12-.07C21,46.57,21.15,46.32,21.11,46.1Zm-.47,5.53.29-.32c0-.09,0-.2,0-.3s.39-.47.66-.35h0l.22.2,0,0,.06.1,0,.07a2,2,0,0,0,.08.33l-.17.05c-.11.18-.33.1-.49.11l0,0a.38.38,0,0,1-.2-.1ZM21,88l-.09-.25a.37.37,0,0,1,.64-.13l.06.26,0,.06-.17-.08.15.1A.36.36,0,0,1,21,88Zm-.06,1.81c0-.29.22-.44.48-.49a.5.5,0,0,1,.39.67l-.13.07-.06.12-.12,0C21.24,90.27,21,90,20.92,89.83ZM22.1,94.2l-.1.08a1.48,1.48,0,0,0-.21,0l-.2-.09a.56.56,0,0,1,0-.72c.27-.18.75-.08.75.28l.05.08A1,1,0,0,1,22.1,94.2ZM22.27,92A1.22,1.22,0,0,1,22,92l-.05,0,.1-.15-.12.14c-.19-.14-.08-.35-.08-.53C22.31,91.12,22.82,91.76,22.27,92Zm.92-3.4c-.65.58-.88-.81,0-.44A.42.42,0,0,1,23.19,88.57Zm.16-2.64a.93.93,0,0,1-.19.11s-.08.1-.1.11l-.27.07h0s-.05,0-.06,0-.31-.06-.45,0l-.13-.39,0,0v0l.08-.19a.77.77,0,0,1,.48-.19h0c.21-.21.44,0,.6.14A.52.52,0,0,1,23.35,85.93Zm.16-4.62a.43.43,0,0,1-.25.19l0,0-.4-.1v0l-.14-.06.06-.13a.2.2,0,0,0,0-.11,1.52,1.52,0,0,1,.18-.33.54.54,0,0,1,.35.09h.06l.18.18A.94.94,0,0,1,23.51,81.31Zm-.72-4.11c.15-.15.27-.12.43-.12a.49.49,0,0,1,.15.23l.12.08,0,.37-.09,0,0,0-.31,0a.62.62,0,0,1-.15-.22A.34.34,0,0,1,22.79,77.2Zm.51-6.8s-.21,0-.26.06c-.26-.16-.61-.25-.51-.61l0,0a.36.36,0,0,1,.2-.26c0-.1.23-.13.32-.16A.54.54,0,0,1,23.3,70.4Zm0-4a2.28,2.28,0,0,1-.15-.57c.19-.47.85-.73,1-.11,0,.06,0,.11,0,.17s.26,0,.35,0l0,.06-.09.15.13-.13s.13.16.15.19,0,.25,0,.32a.45.45,0,0,1-.22.28l-.11.15,0,0h0c-.26,0-.56-.14-.63-.47C23.68,66.6,23.44,66.45,23.27,66.44Zm.54,23.82v-.13a.47.47,0,0,1,.56,0l.1.22s0,.07,0,.09l0,0c-.07.24-.33.44-.55.27h0A.33.33,0,0,1,23.81,90.26Zm0,2.69s0-.19,0-.25a.34.34,0,1,1,.56.37l-.13.13-.29,0C23.87,93.09,23.83,93,23.78,93Zm1.1,2.16a.78.78,0,0,1-.38.38l-.26,0,0,0a.47.47,0,0,1-.1-.39V95a.45.45,0,0,1,.13-.22v0l.32-.17.33.23,0,.3,0,0Zm0-5.73.08-.16-.09.16c-.1,0-.16-.18-.21-.26,0-.39.44-.37.66-.19l0,.39-.16.07h0A.36.36,0,0,1,24.89,89.38Zm.46,1.17c-.58-.34.12-.77.25-1.16a.57.57,0,0,1,.7.21h0a1.63,1.63,0,0,1,.09.49l-.1.05a.43.43,0,0,1-.44.21A.41.41,0,0,1,25.35,90.55Zm1.27,4.94-.23-.08,0-.08a.76.76,0,0,1-.08-.16l0-.16-.06.07h0c-.36.24-.67,0-.66-.4a1.57,1.57,0,0,1,.06-.28.6.6,0,0,1,.65-.18.75.75,0,0,1,.21.3l.06,0-.08.34h0s0,0,0,0a.28.28,0,0,1,.18,0s.22,0,.27.08A.38.38,0,0,1,26.62,95.49ZM27,36.68h0a.57.57,0,0,0,0-.26l0,0v0a.37.37,0,0,1,.6,0l.54,0-.45.16a.37.37,0,0,1-.49.37A.33.33,0,0,1,27,36.68Zm.22,4.16h0l-.05,0L27,40.66a.51.51,0,0,1,.16-.4l.26,0,.24.17,0,.28C27.6,40.84,27.41,41,27.18,40.84Zm1.19-.94a1.17,1.17,0,0,1-.3-.33c.05-.12.13-.29.28-.32a.42.42,0,0,1,.38.14l.07.22A.34.34,0,0,1,28.37,39.9Zm.5,53-.21-.21s-.06-.15,0-.18h.18l-.17,0c0-.08.15-.31.23-.38.26-.08.6-.07.64.24a.23.23,0,0,1,0-.11l.14-.11c.63-.12.46.92-.11.55a.7.7,0,0,1-.07-.22.3.3,0,0,1,0,.14v.13C29.28,92.86,29.07,92.84,28.87,92.88Zm1.07,2.7-.24-.15a1.92,1.92,0,0,0,0-.24l-.06.12c-.24.08-.57.08-.59-.24.08-.16.2-.3.41-.24a.32.32,0,0,1,.3.26l0,0,.19-.14A.29.29,0,0,1,29.94,95.58Zm.68-8.24a.36.36,0,0,1-.26.06c-.18,0-.24-.16-.36-.26l0-.3a1.09,1.09,0,0,1,.6-.39l0,0,.06,0h0v0l.25.08v0l.13.07h0a.68.68,0,0,1-.06.49l-.14.06A.31.31,0,0,1,30.62,87.34Zm1.82,6.55a.82.82,0,0,1-.44.23l-.06,0h0c-.3-.12-.5-.54-.27-.77a.51.51,0,0,1-.36.07c-.08-.07-.19-.1-.28-.19L31,93c.12-.44.46-.37.79-.34.06.1.11.24.16.34l0,.11a.61.61,0,0,1,.68.61ZM32.4,34l-.09-.1a1.49,1.49,0,0,0,0-.21l.09-.2a.56.56,0,0,1,.72,0c.17.27.07.75-.29.74l-.08.05A.85.85,0,0,1,32.4,34Zm1.28,61a.25.25,0,0,1-.09.13c-.18.28-.67.21-.64-.16.15-.12.22-.33.4-.42l.09,0h0l.24.13v.12l0,0Zm0-4.61c-.11.13-.2.11-.28.16h-.1a.48.48,0,0,1-.51-.69h0l.06-.11H33a1.48,1.48,0,0,0,.25-.25l.13.13c.23,0,.26.23.36.38v0a.37.37,0,0,1,0,.23l.36.19Zm1-56.14a1.31,1.31,0,0,1,0-.28l0,0,.16.1-.14-.12c.14-.19.34-.08.53-.08C35.48,34.27,34.83,34.77,34.62,34.22Zm1.17,60.63-.16.21c-.19,0-.42,0-.49-.22a.41.41,0,0,1,.15-.33.37.37,0,0,1,.21,0l.1,0,.2.23,0,.07Zm.37-58.46,0,0c-.24-.07-.44-.33-.27-.56v0a.34.34,0,0,1,.48-.07h.12a.45.45,0,0,1,0,.55l-.22.1Zm.5,58.47a.41.41,0,0,1-.34-.28l.1-.26h.1c.21-.06.35.15.36.36Zm1-57.55h-.39l-.07-.15h0a.39.39,0,0,1,0-.31l.17.08-.16-.09c0-.1.18-.16.26-.2C37.83,36.71,37.81,37.09,37.63,37.31Zm.14-4a.33.33,0,0,1-.43-.23l0-.32a1.06,1.06,0,0,1,.2-.12l.12-.15.26-.1a1.15,1.15,0,0,0,.29.11.47.47,0,0,1,0,.69l-.25.15a.43.43,0,0,0-.13-.05Zm.68,1.83a.39.39,0,0,1-.44,0C37.44,34.52,38.83,34.3,38.45,35.15Zm.48,59.19,0,.07-.09,0h0l.09,0a.63.63,0,0,1-.42.33l-.24-.06a.51.51,0,0,1-.21-.52.38.38,0,0,1,.21-.34l0-.08.22,0a.68.68,0,0,1,.35,0l.18.32s-.07.13-.07.14Zm0-3.81a2.67,2.67,0,0,0-.69.27l.17-.39a.73.73,0,0,1-.13-.34,1.12,1.12,0,0,1,.19-.29c.18,0,.31,0,.47.07C39.24,90.07,39.13,90.31,39,90.53Zm1.37-59.3a.82.82,0,0,1,.27,0,.5.5,0,0,1,.15.56c-.14.09-.34.14-.45,0A.36.36,0,0,1,40.33,31.23Zm.36,63.61h0a.42.42,0,0,1-.13-.32.29.29,0,0,1-.22-.24l.06-.18a.82.82,0,0,1,.31-.13l.2.09a.27.27,0,0,1,0,.15l.13,0a1.45,1.45,0,0,1,.3.4C41.23,94.89,41,95.09,40.69,94.84Zm1.43.64c-.11,0-.24,0-.35,0s-.24,0-.32-.11a.31.31,0,0,1,.16-.43V93.56l.29,1.24,0,0c.1,0,.22.06.26.16a.26.26,0,0,1,.07.18h0l0,0A3.49,3.49,0,0,1,42.12,95.48Zm.81-1.34c-.07-.13-.24-.19-.29-.33l0,0h0a1,1,0,0,1-.29,0l-.25-.22v-.32c.19-.2.43-.32.68-.1l0,.09h0a.54.54,0,0,1,.46.12l.08.24h0l.08.14Zm1.14-5.26-.19.29a.92.92,0,0,1-.3,0,.4.4,0,0,1-.32,0l-.13-.18a.57.57,0,0,1,.19-.45.54.54,0,0,1,.31,0l.16,0,.29.28,0,.1Zm.81,6.35h0v0c0,.15-.13.23-.22.31l-.09,0a.25.25,0,0,1-.19,0h0l-.26.1.13-.17c-.09-.07-.09-.19-.11-.29l.11-.18a.53.53,0,0,1,.25,0,.34.34,0,0,1,.17,0l.16,0h0v.14l.09.13,0,0Zm.39-59.65a.48.48,0,0,1-.19-.26l0,0,.1-.4h0l.06-.14.13.06a.5.5,0,0,0,.12,0,1,1,0,0,1,.32.18.56.56,0,0,1-.09.35v.06l-.17.18A1.41,1.41,0,0,1,45.27,35.58Zm.7,53a.58.58,0,0,1-.48-.36l.13-.34h0c.22-.07.48,0,.57.23l.05.2Zm1.55,3.09c-.06.06-.28.22-.35.28l0,0-.14.09-.07-.14c-.05,0-.08-.06-.13-.06a1.61,1.61,0,0,1-.16-.38h0c.07-.09.22-.24.32-.24v0a.78.78,0,0,1,.3-.07l.26.18a.43.43,0,0,1,0,.35ZM47.72,37l-.15-.12,0-.35a.53.53,0,0,1,.52,0,1.12,1.12,0,0,1,.12.32A.37.37,0,0,1,47.72,37Zm1.47-1.39-.37-.05,0-.09,0,0,0-.31a.78.78,0,0,1,.22-.15.34.34,0,0,1,.44-.07c.15.15.12.27.12.43a.49.49,0,0,1-.23.15Zm.94,58.75a.33.33,0,0,1-.15.16l0,.26-.06-.19a.46.46,0,0,1-.31-.07l-.09-.19c0-.08.12-.31.21-.35l0-.11.1,0,.19,0c.16.08.18.24.19.4Zm.25-59.76c-.07,0-.21,0-.29,0A.49.49,0,0,1,50,34l.21-.13A.4.4,0,0,1,50.38,34.59Zm.79-2.89c-.78.28-.89-.78-.1-.76l.09.08A.47.47,0,0,1,51.17,31.7Zm1.21,59.84a.93.93,0,0,1-.43.18.92.92,0,0,1-.29-.23,1.42,1.42,0,0,1,.07-.61C52.24,90.65,52.67,91,52.38,91.54Zm1-53.7,0,.09a2.29,2.29,0,0,1-.37.12.83.83,0,0,1-.3-.58c.06-.12,0-.25.15-.41S53,37,53,36.93C53.52,37,53.85,37.56,53.36,37.84Zm.8,56.49a5,5,0,0,0-.44.47v-.41h0a.53.53,0,0,1-.13-.16l0-.24C53.91,93.8,54.3,94,54.16,94.33Zm2.12.81-.19.09-.22-.08h0l-.09-.21A.28.28,0,1,1,56.28,95.14Zm.74-6h-.11a.45.45,0,0,1-.47,0c-.57.33-.88-.73-.17-.7l.13-.06.17-.12h0l.12-.07a.55.55,0,0,1,.48.52v0A1.93,1.93,0,0,1,57,89.15Zm-.84-53.66s0-.21,0-.27c.15-.26.25-.6.6-.5l.05,0a.38.38,0,0,1,.27.21c.09,0,.13.23.16.31A.55.55,0,0,1,56.18,35.49Zm.89-2.36a.87.87,0,0,1-.39,0,.47.47,0,0,1,.09-.61,1.45,1.45,0,0,1,.3,0l.08.08A.39.39,0,0,1,57.07,33.13Zm1.22,59.48-.07.11c-.22,0-.47-.1-.69-.06h0l.13-.08c0-.12-.11-.35,0-.45l.15.1-.14-.11c0-.08.28-.18.38-.2l.05,0h0C58.45,92,58.65,92.38,58.29,92.61Zm19.5-61.42h0l.18-.11s.11,0,.14,0,.25,0,.33,0c.2.25.23.7-.08.81a.46.46,0,0,1,.29.12c0,.1.11.19.13.29l0,.24c-.32.31-.56.07-.81-.12,0-.11,0-.25,0-.36L78,32l-.1-.06h-.49l.33-.17A.63.63,0,0,1,77.79,31.19Zm-.73-.13.18-.18a.8.8,0,0,1,.39.14.31.31,0,0,1-.14.44.53.53,0,0,1-.19,0h-.11L77,31.17l0-.07Zm-.82-.14a.43.43,0,0,1,.3.31l-.14.25h-.09c-.23,0-.33-.2-.3-.41ZM61.79,35.51a.49.49,0,0,1,.32-.37h0l.31,0a.51.51,0,0,1,.28.64h0c0,.08-.16.26-.25.25h0a.88.88,0,0,1-.29.07c-.07,0-.16-.15-.22-.19l-.18-.32Zm-1.35-4.36.08,0h.11v0h0s0,.11-.05.13h0l0-.17a.41.41,0,0,1,.25.22,1.08,1.08,0,0,1,0,.18c-.07.09-.13.19-.25.19h0c-.13.05-.24-.06-.36-.05a1.57,1.57,0,0,0-.05-.37Zm-1-.3.29-.06a.44.44,0,0,1,.22.35C59.83,31.84,58.85,31.34,59.4,30.85ZM60.26,95h0l-.18.12a.33.33,0,0,0-.14,0c-.08.06-.24,0-.33,0-.2-.24-.24-.7.08-.81a.42.42,0,0,1-.29-.11c0-.1-.11-.2-.14-.3l.05-.23c.31-.31.56-.08.81.11,0,.11,0,.25,0,.36l-.08.06.09.06h.5l-.34.18A.59.59,0,0,1,60.26,95Zm.74.13-.18.18a.86.86,0,0,1-.39-.13.31.31,0,0,1,.13-.45.65.65,0,0,1,.2,0h.1L61,95l0,.08Zm-.19-58.76a.88.88,0,0,0-.17,0c.07.1,0,.26-.06.35l0,0-.16-.09.14.13s-.17.13-.2.15L60,37c-.11,0-.26-.11-.28-.21l-.15-.12,0,0h0c.06-.27.15-.57.49-.63-.09-.1.07-.34.08-.51a2.28,2.28,0,0,1,.57-.15C61.18,35.55,61.43,36.22,60.81,36.38Zm.65,51.82a1,1,0,0,1,.68,0l.09,0,0,.09h0a1,1,0,0,0,.16.2l0,0,.08.12h0v0c0,.2-.17.28-.29.39l-.14,0a.28.28,0,0,1-.2,0,.35.35,0,0,1-.14-.06s-.2,0-.22-.05a.62.62,0,0,1-.18-.4A1,1,0,0,1,61.46,88.2Zm.35,7.07a.41.41,0,0,1-.29-.31l.13-.25h.09c.23,0,.33.2.31.4Zm.93-2.42c-.09,0-.2,0-.3,0s-.48-.39-.35-.66h0l.21-.22,0,0,.09-.06.08,0a2,2,0,0,0,.33-.08l.05.17c.18.11.09.33.11.49l0,0a.39.39,0,0,1-.11.2l.21.36Zm1,2.36a.28.28,0,0,0-.13,0l0,0c-.26-.12-.2-.45.13-.51l.22.1A.33.33,0,0,1,63.73,95.21Zm.79-57.16a1,1,0,0,1-.36.06.88.88,0,0,0-.22-.21l0-.28.15-.19.24,0,.06,0A.37.37,0,0,1,64.52,38.05Zm.62-5.36,0,0-.35-.05a.51.51,0,0,0-.19-.22l0-.27L64.7,32l.07,0a.42.42,0,0,1,.62,0c0,.14,0,.32,0,.46l-.06,0A.36.36,0,0,1,65.14,32.69Zm.73,62.72-.2.09c-.18,0-.32-.13-.32-.32l.08-.16a1.07,1.07,0,0,1,.32-.1l.19.12A.43.43,0,0,1,65.87,95.41Zm1.12.15a2.09,2.09,0,0,0-.72-.12l.35-.25a.41.41,0,0,1,0-.11h-.07l0,0h0a.46.46,0,0,1-.22-.27.34.34,0,0,1,0-.51l.25-.07a.55.55,0,0,0,.15.08l.07,0,.3.27a1.29,1.29,0,0,0,0,.19c.17.06.2.19.32.27C67.45,95.31,67.24,95.46,67,95.56Zm.71-59a.61.61,0,0,1,0-.8,1.07,1.07,0,0,1,.32-.07c.08.08.24.13.35.24l0,.23A.66.66,0,0,1,67.7,36.55Zm2.64,53.79a1.08,1.08,0,0,1-.31.07,2.64,2.64,0,0,1-.36-.23l0-.23a.66.66,0,0,1,.66-.41A.6.6,0,0,1,70.34,90.34Zm1.43-58.47-.25.06-.15-.08-.07,0-.3-.27a1.29,1.29,0,0,0,0-.19c-.16-.06-.2-.2-.32-.28-.11-.32.1-.47.35-.57a2.14,2.14,0,0,0,.72.13l-.35.25v.1h.06l0,0h.06a.48.48,0,0,1,.21.27A.34.34,0,0,1,71.77,31.87Zm.35-.77a.46.46,0,0,1,.06-.37l.21-.08c.18,0,.32.13.32.32l-.08.16a.86.86,0,0,1-.33.09Zm1.22,63-.06,0a.42.42,0,0,1-.62,0c-.06-.14,0-.32,0-.46l.06-.06a.39.39,0,0,1,.23-.19v0l.35.05a.7.7,0,0,0,.2.22l0,.27Zm.59-5.45-.25.05-.06,0a.37.37,0,0,1-.17-.63,1.53,1.53,0,0,1,.36-.07,1.2,1.2,0,0,0,.23.22l0,.27Zm.41-57.13-.22-.11a.32.32,0,0,1,.21-.43h0a.29.29,0,0,0,.13,0l0,0C74.74,31.12,74.67,31.44,74.34,31.5Zm.8,2.62c-.17-.12-.09-.33-.1-.5l0,0a.35.35,0,0,1,.11-.2L75,33l.31.29c.09,0,.2,0,.3,0s.47.4.34.67h0l-.21.21,0,0-.1,0-.08,0a1.32,1.32,0,0,0-.33.08Zm1.07,56.4a.46.46,0,0,1-.31.37h0l-.31,0a.52.52,0,0,1-.29-.65h0c0-.08.16-.25.25-.25h0a.88.88,0,0,1,.29-.07,1.32,1.32,0,0,1,.22.18l.19.32ZM76.52,38a1,1,0,0,1-.68,0l-.09,0,0-.09,0,0a.83.83,0,0,0-.16-.21l0,0-.07-.12h0v0c0-.2.17-.28.29-.38l.14,0a.34.34,0,0,1,.2,0,.35.35,0,0,1,.14.06s.19,0,.21.05a.64.64,0,0,1,.18.4A1.19,1.19,0,0,1,76.52,38Zm1.1,56.87-.08,0,0,0-.09,0v0h0a.58.58,0,0,0,0-.14h0l-.06.18a.47.47,0,0,1-.25-.22,1.08,1.08,0,0,1,0-.18c.06-.09.13-.2.25-.2h0c.13,0,.24.06.36.05a1.57,1.57,0,0,0,0,.37Zm.24-4.36a2.11,2.11,0,0,1-.56.15c-.47-.19-.73-.85-.12-1a.37.37,0,0,0,.18,0c-.08-.09,0-.26,0-.35l0,0,.16.09-.14-.13s.16-.13.19-.15L78,89a.44.44,0,0,1,.29.22l.15.11,0,0h0c-.06.26-.14.56-.48.63C78,90.1,77.88,90.34,77.86,90.51Zm.8,4.64-.3.07c-.11-.09-.23-.23-.22-.35A.34.34,0,1,1,78.66,95.15Zm1.71-61L80.22,34l.14.12c0,.07-.28.17-.38.19l0,0h0c-.36-.07-.56-.45-.19-.67l.07-.12c.22,0,.47.11.69.07l-.13.08C80.41,33.77,80.48,34,80.37,34.11Zm.9,59.37a1,1,0,0,1-.3,0l-.08-.07c-.2-.17-.12-.44.07-.61a1,1,0,0,1,.39,0A.48.48,0,0,1,81.27,93.48Zm0-2.23,0,0A.35.35,0,0,1,81,91c-.1,0-.14-.22-.17-.31a.55.55,0,0,1,1-.21s0,.21,0,.26C81.73,91,81.64,91.35,81.28,91.25Zm.43-53.4h0l-.13.06-.17.12h0l-.12.07a.55.55,0,0,1-.47-.53l0,0a1.6,1.6,0,0,1,.17-.46l.11,0a.41.41,0,0,1,.46,0C82.12,36.83,82.42,37.88,81.71,37.85Zm.07-6.74L82,31l.22.08h0l.09.22A.28.28,0,1,1,81.78,31.11Zm13.33,1.15c.07.13.24.19.3.33l0,0a1.41,1.41,0,0,1,.29,0l.25.22v.31c-.2.2-.44.32-.69.1l0-.09h0a.57.57,0,0,1-.46-.12l-.07-.25h0l-.07-.13ZM87.92,32a.31.31,0,0,1,.14-.16l.06-.26.06.19a.53.53,0,0,1,.31.07l.09.19c0,.08-.13.31-.22.35l0,.12-.1,0H88c-.15-.08-.17-.24-.19-.4Zm-4,0a3.93,3.93,0,0,0,.45-.46v.41a.4.4,0,0,1,.12.16l0,.24C84.13,32.48,83.74,32.28,83.88,31.94Zm1.3,56.92S85,89,85,89c-.5,0-.84-.62-.35-.91l0-.09a2.17,2.17,0,0,1,.36-.12.79.79,0,0,1,.31.58C85.27,88.58,85.3,88.7,85.18,88.86Zm1.1-53.44c-.51.23-.94-.15-.64-.67a1,1,0,0,1,.43-.17,1.05,1.05,0,0,1,.29.23A1.61,1.61,0,0,1,86.28,35.42ZM87,95l-.09-.08a.47.47,0,0,1,0-.68C87.65,93.92,87.77,95,87,95Zm.65-3.66c.07,0,.22,0,.29,0a.47.47,0,0,1,.12.61l-.21.13A.39.39,0,0,1,87.63,91.31Zm.85,2.54c0,.2-.26.26-.41.25-.63-.2-.58-.52-.26-1a1,1,0,0,0,.3,0l.39.16C88.54,93.45,88.64,93.62,88.48,93.85Zm.59-2.94a.34.34,0,0,1-.44.08c-.15-.15-.12-.27-.13-.43a.54.54,0,0,1,.23-.15l.09-.12.36,0,0,.09,0,0,0,.31A.62.62,0,0,1,89.07,90.91Zm1.31-1.56a.51.51,0,0,1-.52,0,1,1,0,0,1-.13-.33c.12-.18.32-.31.54-.15l.15.11Zm.79,5.16c-.14-.05-.31,0-.43-.09l-.1-.07,0-.37a.49.49,0,0,1,.4-.18,1.29,1.29,0,0,0,.32.19Zm.22-59.63a.67.67,0,0,1-.32.25h0a1,1,0,0,1-.3.08L90.49,35a.43.43,0,0,1,0-.35v0a2.33,2.33,0,0,1,.35-.27l0,0,.14-.08.07.13c.05,0,.07.06.13.07a1.73,1.73,0,0,1,.16.37ZM91.74,38l.27-.26a.58.58,0,0,1,.48.36l-.13.34h0c-.23.07-.49,0-.57-.24Zm.81,56.82a.59.59,0,0,1-.22.19,1.22,1.22,0,0,1-.36-.14l0-.14-.07-.06V94.6l.18,0-.18,0a.66.66,0,0,1,.15-.49l.23-.09a.52.52,0,0,1,.48.67l0,.08Zm.31-3.89h0l-.06.14L92.63,91a.2.2,0,0,0-.11,0,1.32,1.32,0,0,1-.33-.18.62.62,0,0,1,.08-.35v-.06l.18-.18a.93.93,0,0,1,.29,0,.37.37,0,0,1,.18.25l0,0Zm.72-59.5a.31.31,0,0,1-.17,0l-.17,0h0l0-.15-.09-.12,0,0h0v0c0-.16.13-.23.23-.31l.09,0a.25.25,0,0,1,.19,0s0,0,0,0l.26-.11-.13.17a.48.48,0,0,1,.11.3l-.11.18S93.62,31.47,93.58,31.44Zm1.08,6.49a.63.63,0,0,1-.31,0l-.16.05-.28-.29,0-.1,0-.06.19-.28a.92.92,0,0,1,.3,0,.37.37,0,0,1,.32,0h0l.12.17A.56.56,0,0,1,94.66,37.93ZM95.85,94.6a.81.81,0,0,1-.22,0h-.09v0a1,1,0,0,1-.38,0,1.64,1.64,0,0,0-.19-.25.82.82,0,0,1,0-.27l0,0v-.14l.11-.09v0a.52.52,0,0,1,.57,0,.21.21,0,0,0,.13,0l0,.11A.43.43,0,0,1,95.85,94.6Zm0-6.26-.11,0-.23,0a1.46,1.46,0,0,1-.26-.44A.41.41,0,0,1,96,88,.82.82,0,0,1,95.83,88.34Zm.61-56.83v1.34l-.28-1.24,0,0c-.1,0-.21-.06-.26-.16a.3.3,0,0,1-.06-.18h0l0,0c0-.08.12-.27.16-.33s.24,0,.35,0a.35.35,0,0,1,.32.11A.31.31,0,0,1,96.44,31.51Zm.92.08h0a.37.37,0,0,1,.12.32.27.27,0,0,1,.23.24l-.06.17a.89.89,0,0,1-.32.14l-.2-.1a.66.66,0,0,1,0-.15l-.13,0a1.33,1.33,0,0,1-.29-.41C96.82,31.53,97.08,31.33,97.36,31.59Zm-.19,60h0L97,91.51a.77.77,0,0,1-.19-.48h0c-.21-.21,0-.44.14-.6a.5.5,0,0,1,.43,0,.67.67,0,0,1,.12.19s.09.08.11.1l.07.27h0v.06c.07.15-.07.31-.05.44l-.4.14Zm.55,3a.82.82,0,0,1-.27,0A.48.48,0,0,1,97.3,94a.38.38,0,0,1,.45,0A.36.36,0,0,1,97.72,94.56Zm21-10.65.33.48c-.13.08-.18.25-.33.3l0,0h0a1,1,0,0,1,0,.3l-.23.24h-.31c-.2-.19-.32-.43-.09-.68l.09,0h0a.56.56,0,0,1,.12-.47l.24-.07h0Zm.61-29.24c-.14.06-.33,0-.46,0l-.06-.06a.39.39,0,0,1-.19-.23v0l0-.34a.57.57,0,0,0,.21-.2l.28,0,.19.15v.07A.41.41,0,0,1,119.28,54.67Zm-.68-15.85c.23,0,.39-.14.63,0,.2,0,.25.26.24.41-.2.62-.52.57-1,.24a1,1,0,0,0,0-.29ZM118.17,46a.47.47,0,0,1,.61.09,1,1,0,0,1,0,.3l-.07.08c-.17.2-.44.11-.61-.07A1.09,1.09,0,0,1,118.17,46Zm-.5,18.39a.35.35,0,0,1,.2.11l.36-.2-.29.32a.74.74,0,0,1,0,.29c-.13.21-.39.48-.66.35h0L117,65l0,0-.06-.1,0-.07a1.77,1.77,0,0,0-.08-.33l.17,0c.12-.18.33-.1.5-.11Zm-1-25a.46.46,0,0,1,.61-.1l.13.2a.39.39,0,0,1-.74.19C116.63,39.59,116.67,39.45,116.68,39.37ZM115.53,52c-.07-.05-.25-.16-.25-.26h0a.89.89,0,0,1-.07-.28c0-.07.15-.17.19-.23l.32-.18,0,0a.47.47,0,0,1,.37.31h0l.05.31a.51.51,0,0,1-.65.28Zm0,5.27a2.6,2.6,0,0,1-.23.35l-.24,0a.66.66,0,0,1-.39-.67.6.6,0,0,1,.8,0A.81.81,0,0,1,115.58,57.26Zm.93,17.66a.93.93,0,0,1,.18.43,1.05,1.05,0,0,1-.23.29,1.66,1.66,0,0,1-.62-.08C115.62,75.05,116,74.62,116.51,74.92Zm-.82-40.37a.4.4,0,0,1,.25-.18l0,0,.4.11v0l.14.07-.06.13a.22.22,0,0,0,0,.11,1.26,1.26,0,0,1-.18.32.6.6,0,0,1-.36-.09h-.05l-.18-.18A.94.94,0,0,1,115.69,34.55Zm0,3.55.09,0,0,0,.31,0a1,1,0,0,1,.14.23.33.33,0,0,1,.08.44c-.15.14-.27.11-.43.11a.42.42,0,0,1-.15-.23l-.12-.08Zm.07,7.36c0-.05.21-.05.26-.05.26.16.61.25.51.61l0,0a.37.37,0,0,1-.21.27c0,.09-.23.13-.31.16A.55.55,0,0,1,115.78,45.46Zm-.52,3.88c.1-.09.34.07.51.08a2.82,2.82,0,0,1,.15.57c-.2.47-.87.72-1,.1,0-.06,0-.11,0-.17s-.26,0-.35-.05l0-.06.09-.16-.12.14s-.13-.16-.16-.19a1.73,1.73,0,0,0,0-.32c0-.11.12-.26.22-.28l.12-.15,0,0h0C114.9,48.92,115.19,49,115.26,49.34Zm-1-12.34.12-.15.34,0a.51.51,0,0,1,0,.52,1.62,1.62,0,0,1-.33.13C114.25,37.42,114.12,37.22,114.28,37Zm0,5.3c0,.5-.62.83-.9.34l-.1,0a2.15,2.15,0,0,1-.11-.36.79.79,0,0,1,.58-.31c.12.06.25,0,.4.15S114.32,42.27,114.33,42.3ZM113.22,65l.09,0,0,0a1.06,1.06,0,0,0,.21-.16l0,0,.12-.07h0a.63.63,0,0,1,.38.29l0,.14a.34.34,0,0,1,0,.2h0a.35.35,0,0,1-.06.14s-.05.19-.05.21a.65.65,0,0,1-.4.19,1.51,1.51,0,0,1-.29-.13,1,1,0,0,1,0-.68Zm-.07-11.58a1,1,0,0,0,.22-.23l.28,0,.19.15,0,.25,0,0a.37.37,0,0,1-.64.16A1.36,1.36,0,0,1,113.15,53.45Zm.28-22.23a.93.93,0,0,1,.37.21v.12l0,.22a1.35,1.35,0,0,1-.44.26A.41.41,0,0,1,113.43,31.22Zm-2-.13.23.09,0,.07a.38.38,0,0,1,.08.17l0,.2c-.09,0-.12.1-.26.09s-.22-.05-.27-.08A.39.39,0,0,1,111.44,31.09Zm-.68,53.71h0l0,0,.09.16a.47.47,0,0,1-.15.4l-.26,0-.24-.16,0-.28C110.35,84.8,110.54,84.65,110.76,84.8Zm-.87,1.28c-.06.13-.13.29-.28.32a.41.41,0,0,1-.38-.13l-.07-.22a.33.33,0,0,1,.43-.29A1.31,1.31,0,0,1,109.89,86.08Zm-.49-52h-.18l.18,0c0,.08-.16.3-.24.37-.26.08-.6.07-.63-.24a.45.45,0,0,1,0,.11l-.15.11c-.64.11-.45-.93.12-.55a.46.46,0,0,1,.06.22,1.21,1.21,0,0,1,0-.14v-.13c.17-.15.38-.12.58-.17l.2.22h0S109.42,34,109.4,34.07Zm-.24-3.15.19-.07.18.07c.15.19.14.46-.14.52l-.26-.1-.06-.22Zm-1,0,.24.15c0,.08,0,.18,0,.25l.07-.13c.23-.07.57-.07.58.25a.33.33,0,0,1-.41.24.3.3,0,0,1-.29-.26l0-.05-.19.14A.3.3,0,0,1,108.12,31Zm-2.52,1.66a.82.82,0,0,1,.44-.21l.06,0h0c.3.13.5.55.26.78a.47.47,0,0,1,.36-.07c.08.07.2.11.28.19l.08.23c-.12.44-.47.36-.79.33-.06-.1-.11-.24-.16-.34l0-.11a.6.6,0,0,1-.67-.62Zm-1.23-1.09a.31.31,0,0,1,.1-.13c.17-.28.67-.2.63.17-.15.12-.22.33-.4.42l-.09,0h0l-.24-.13v-.12l0,0Zm-3,.07a.44.44,0,0,1,.34.29l-.11.26h-.09c-.22.06-.36-.16-.36-.36Zm-1,56.85.4,0,.07.16h0a.36.36,0,0,1,0,.3l-.17-.08.16.09c0,.1-.18.16-.26.21C100.16,89.06,100.18,88.67,100.35,88.45ZM99.11,32.1l0-.07.1,0h0L99.17,32a.69.69,0,0,1,.43-.32l.24.06a.52.52,0,0,1,.21.53.4.4,0,0,1-.21.33l0,.08-.22,0a.81.81,0,0,1-.35,0l-.18-.33s.07-.13.08-.13Zm.45,58.52a.42.42,0,0,1,.44,0C100.58,91.24,99.19,91.47,99.56,90.62ZM99,35.91a2.38,2.38,0,0,0,.7-.26l-.18.39a.63.63,0,0,1,.12.34,1.08,1.08,0,0,1-.18.29c-.19,0-.32-.06-.47-.07C98.76,36.37,98.87,36.13,99,35.91Zm0,56.34.27-.06.06,0-.08.17.1-.15a.37.37,0,0,1,0,.55l-.25.09A.37.37,0,0,1,99.06,92.25Zm.8,3.16-.38-.06,0-.11,0,0,0-.28,0-.06.16.09-.14-.12a.33.33,0,0,1,.46,0l.09.07a1.31,1.31,0,0,1,.06.27Zm.67-2.31a1.67,1.67,0,0,0-.12.16l-.26.1a1.15,1.15,0,0,0-.29-.11.47.47,0,0,1,0-.69l.25-.14.13,0,0,0h0a.33.33,0,0,1,.44.22l0,.33Zm.73-.24c-.3,0-.45-.22-.5-.48a.51.51,0,0,1,.68-.39l.06.13.13.06,0,.12C101.7,92.54,101.46,92.78,101.26,92.86Zm.9-3v0a.33.33,0,0,1-.47.07h-.13a.47.47,0,0,1,0-.56l.22-.1.09,0,0,0C102.13,89.39,102.32,89.65,102.16,89.87Zm.1-58.24.16-.21c.19,0,.42,0,.49.22a.4.4,0,0,1-.16.34.65.65,0,0,1-.2,0l-.1,0h0l-.2-.23,0-.07ZM103,95.12a.31.31,0,0,1-.54.27l-.09,0c-.19-.26-.22-.74.26-.64a.35.35,0,0,1,.38.39Zm.39-3.34,0,0-.16-.1.14.12c-.14.19-.34.08-.53.08-.27-.46.37-1,.59-.42A2.43,2.43,0,0,1,103.4,91.78Zm1.19-1.93-.22.14a1.92,1.92,0,0,1-.24,0,.33.33,0,1,1,.36-.56l.14.13Zm.07-52.94c-.22,0-.26-.24-.36-.39l0,0a.38.38,0,0,1,0-.23l-.36-.2.42.08c.11-.13.2-.1.28-.16l.1,0h0a.48.48,0,0,1,.51.69h-.06l-.06.11h-.08a1.2,1.2,0,0,0-.26.24Zm1,55.08-.08.2a.56.56,0,0,1-.72,0c-.18-.27-.08-.75.28-.75l.08,0a1,1,0,0,1,.38.29l.08.1S105.69,92,105.69,92Zm0-4.49a.69.69,0,0,1,.3-.21l0-.06.34.08v0a1.45,1.45,0,0,1,.18.17v0c.23.36,0,.67-.4.66a1.4,1.4,0,0,1-.28-.06A.58.58,0,0,1,105.64,87.5Zm1.24,2-.06,0a.42.42,0,0,1-.39.09l-.06,0a.46.46,0,0,1-.21-.13h0l-.17-.32.23-.33.3,0v0h0a.78.78,0,0,1,.38.38Zm.38,3.93-.05,0h0a.37.37,0,0,1,0-.59l.28,0,.16.11C107.78,93.21,107.59,93.41,107.26,93.47Zm.12-53.38,0,0-.07,0h0L107,40v0l-.13-.07h0a.68.68,0,0,1,.06-.49l.15-.06a.33.33,0,0,1,.31-.16c.07,0,.19-.08.26,0s.24.17.36.26l0,.3A1.1,1.1,0,0,1,107.38,40.09Zm1.35,52.28c-.25,0-.56,0-.72-.2a2.81,2.81,0,0,1,0-.29l0,0a.46.46,0,0,1,.15-.23l.21-.05h0l.14,0,.13.09h0c.19.11.16.32.22.5Zm.33-.5-.13,0-.1-.16a.43.43,0,0,1-.18-.3,1.46,1.46,0,0,1,0-.2.47.47,0,0,1-.06-.79,1,1,0,0,1,.3,0h0l.16.06h0a.5.5,0,0,1,.19.56,3.23,3.23,0,0,1,.27.23l.06.24C109.56,91.71,109.34,92,109.06,91.87Zm1.16-1.57-.24,0a.37.37,0,0,1-.12-.66,1.32,1.32,0,0,1,.34,0h0C110.36,89.9,110.41,90.14,110.22,90.3Zm.23-1-.54,0,.45-.17a.37.37,0,0,1,.49-.38A.35.35,0,0,1,111,89h0a.57.57,0,0,0,0,.26l0,0v.05A.38.38,0,0,1,110.45,89.3Zm.59,2.86c0-.39.2-.45.53-.41C112.12,92.18,111.15,92.84,111,92.16ZM111.69,37h0a1.62,1.62,0,0,1-.08-.49l.1,0a.42.42,0,0,1,.44-.21.41.41,0,0,1,.53-.19c.58.35-.13.77-.26,1.16A.56.56,0,0,1,111.69,37Zm1.13,44.66h0a.41.41,0,0,1,.24-.57l.2,0,.26.26a.56.56,0,0,1-.37.48ZM114,84l-.18.12c-.22,0-.32-.09-.45-.19a.43.43,0,0,1,0-.3l-.05-.17.29-.28.09,0,.06,0,.29.19a.92.92,0,0,1,0,.3A.4.4,0,0,1,114,84Zm-.55-13-.06-.13a1,1,0,0,1-.12-.17h0l-.07-.12a.56.56,0,0,1,.53-.47l0,0a1.89,1.89,0,0,1,.45.17v.11a.43.43,0,0,1,0,.47C114.44,71.4,113.38,71.7,113.42,71Zm1.85,23a.48.48,0,0,1-.69.51v0l-.11-.06v-.09a1.54,1.54,0,0,0-.25-.26l.13-.13c0-.22.24-.26.38-.35h0a.37.37,0,0,1,.23,0l.2-.37-.08.43c.13.1.1.19.15.27V94Zm0-5.18a.77.77,0,0,1-.35.13,1.26,1.26,0,0,1-.28-.19c0-.18.05-.31.07-.47.23-.27.47-.16.69,0a2.38,2.38,0,0,0,.26.7Zm1-2.67a.53.53,0,0,1-.46,0l-.1-.17a.35.35,0,0,1,.56-.33h0C116.38,85.81,116.33,86,116.22,86.17Zm.61-5.79c0,.05-.07.08-.07.13a1.61,1.61,0,0,1-.38.16h0a.71.71,0,0,1-.24-.32h0a1.55,1.55,0,0,1-.07-.31l.19-.26a.43.43,0,0,1,.35,0h0c.06.06.22.28.27.35l0,0,.08.14Zm.33-10.72.11-.15-.12.14c-.07,0-.17-.29-.19-.39l0-.05h0c.07-.35.44-.56.67-.19l.11.07c0,.22-.1.47-.06.7l-.09-.14C117.5,69.69,117.27,69.76,117.16,69.66Z"></path><polygon class="cls-2" points="52.86 98.02 52.67 97.94 52.86 98.03 52.86 98.02"></polygon><path class="cls-2" d="M40.41,98.07a.25.25,0,0,1,0,.17V109.5l6.45-6.13,6.44,6.13V83.62H40.41Zm12.46,6.5h0c-1,.53-1-1.45.12-.77A.44.44,0,0,1,52.87,104.57ZM53.05,98c0,.12-.12.09-.16.18h0l-.09.2a.28.28,0,0,1-.12-.41.31.31,0,0,1,.41-.2h0L53,98S53,98,53.05,98Zm-.79-9.21.16-.13c.45,0,.35.7-.08.6l-.13-.11h0A.47.47,0,0,1,52.26,88.77Zm-.11,4.77.49,0,.17.26a.46.46,0,0,0,0,.26.49.49,0,0,1,0,.24c1-.18.27,1.06-.12.25l-.05,0-.25,0c-.23-.27-.18-.45-.36-.73Zm.07,6a.73.73,0,0,1,.56,0,.68.68,0,0,1-.68,1.17.72.72,0,0,1-.39,0v0C50.7,100.64,51.38,99.1,52.22,99.59Zm-4-8.77h0c.12.06.17.19.24.28v.3c-.06,0-.08,0-.09.1l-.28.07c-.15-.14-.09-.29-.07-.41s0,0,0,0L48,90.9A.28.28,0,0,1,48.26,90.82ZM47.85,99l.26,0c.11.14,0,.29.08.46L48,99.6h-.2l-.14-.13C47.66,99.21,47.78,99.14,47.85,99Zm-.1,1.81c.77.18.4,1.43-.31,1.1C47,101.4,47.23,100.85,47.75,100.81Zm-1.64-7.75c0-.06,0-.22.07-.27h0l.23-.17h.2C47.48,93,46.29,94.2,46.11,93.06ZM46,86.64l.28-.08.32.31-.07.28h0c-.23.12-.35.45-.65.38l-.15-.19C45.81,87,46,86.94,46,86.64Zm-1.19,14c1.26-.71,1.78,1.27.35,1.38A.82.82,0,0,1,44.85,100.65ZM43.42,97c.16-.41.81-.48.91,0C44.49,97.75,43.14,97.81,43.42,97Zm.08,1.45.22,0c.42.22,0,.85-.38.55l-.07-.18A.49.49,0,0,1,43.5,98.45Z"></path><polygon class="cls-3" points="53.03 83.2 52.84 83.12 53.03 83.2 53.03 83.2"></polygon><path class="cls-3" d="M60.15,81.88a.5.5,0,0,1,.29-.92A13.74,13.74,0,0,0,61,77.25a14.1,14.1,0,0,0-27.61-4c.25-.13.43.14.37.36l-.22.19a.47.47,0,0,1-.24-.19A14,14,0,0,0,35.79,86h0a.76.76,0,0,1,.6.73,14.07,14.07,0,0,0,23.74-4.81ZM34.69,76.44l-.08.18c-.3-.13-.2-.77.17-.61h0l-.08.18C34.83,76.14,34.85,76.54,34.69,76.44Zm19.4,2a.47.47,0,0,1,.6.72A.47.47,0,0,1,54.09,78.42Zm-.39,5.66c.12,0,.24,0,.36-.07l.22.1c.23.6-.49.6-.68.24ZM52.44,74l.16-.13c.45,0,.35.7-.09.6l-.13-.12h0A.51.51,0,0,1,52.44,74Zm-6.23-2.14.29-.08.31.32-.07.28c-.22.12-.35.45-.65.37L46,72.52C46,72.2,46.14,72.12,46.21,71.81Zm-6.88,1.37a.29.29,0,0,1,.23,0,.32.32,0,0,1,.12.24l-.18.18h0l-.08.08c-.23,0-.21-.24-.22-.34Zm-.68,5.16c.24-.17.38-.11.63-.25l.22.14,0,.4-.22.12c-.22-.08-.52,0-.65-.2Zm.45,3,0,0c.76-.76,1,1.17,0,.7A.42.42,0,0,1,39.1,81.3Zm1.07,6.25a.67.67,0,0,1-.2.13c.07.26-.24.45-.46.47s-.5-.6-.13-.74c-.24-1,1.43-.54.79.14Zm-.28-4.06h0c-.07-.41.4-.32.63-.37C40.87,83.5,40.1,83.93,39.89,83.49Zm3.63.63-.07-.18c0-.2.14-.23.23-.32l.22-.05A.34.34,0,1,1,43.52,84.12Zm.08-2c.16-.4.8-.48.91,0C44.66,82.93,43.32,83,43.6,82.17Zm1.77,5A.81.81,0,0,1,45,85.83C46.29,85.11,46.81,87.1,45.37,87.21Zm.91-9s.06-.21.08-.26h0l.23-.17h.2C47.65,78.21,46.47,79.38,46.28,78.23Zm1.34,8.86c-.43-.51-.21-1.07.31-1.1C48.7,86.17,48.33,87.42,47.62,87.09Zm.59-2.31H48l-.15-.14c0-.25.09-.31.16-.45l.26-.05c.12.14,0,.29.08.46Zm.37-8.11-.28.07c-.15-.14-.08-.29-.07-.41s0,0,0,0l-.14-.3a.28.28,0,0,1,.31-.08c.12,0,.17.19.24.28v.3A.18.18,0,0,0,48.58,76.67ZM48.72,68l-.15-.18s0,0,0,0l-.13-.16C48.7,67,49.76,68,48.72,68Zm3.16,17.91v0c-1-.09-.34-1.63.51-1.14a.73.73,0,0,1,.56,0h0c.69.49.09,1.61-.68,1.17A.77.77,0,0,1,51.88,85.93Zm1.35-2.77c0,.12-.12.09-.16.18s0,0,0,0l-.08.2a.28.28,0,0,1-.13-.4c.08-.16.25-.29.42-.2h0l-.09.2S53.21,83.13,53.23,83.16Zm-.18,6.59h0c-1,.53-1-1.45.12-.77A.44.44,0,0,1,53.05,89.75Zm-.2-10-.05.05-.25,0c-.23-.27-.18-.45-.37-.73l.15-.29h.49L53,79a.46.46,0,0,0,0,.26h0a1,1,0,0,1,0,.24C54,79.27,53.24,80.52,52.85,79.71Zm1.85,9c-.78.62-1.61-.66-1-1.27S55.47,87.84,54.7,88.7Zm3.64-13.37-.25.08c-.23-.17-.18-.39-.22-.61C58.19,74.49,58.47,75.06,58.34,75.33Zm-.09-5.73H58c-.23-.16-.19-.3-.26-.47l.15-.25a.38.38,0,0,1,.26.14.78.78,0,0,0,.19.14l0,.27Zm.9,7.65-.18.11h0c-.53-.14-.18-.65.17-.61l.14.21C59.24,77.07,59.18,77.15,59.15,77.25Z"></path><path class="cls-2" d="M46.86,92.35A15.1,15.1,0,1,1,62,77.25,15.12,15.12,0,0,1,46.86,92.35Zm0-28.2A13.1,13.1,0,1,0,60,77.25,13.11,13.11,0,0,0,46.86,64.15Z"></path><line class="cls-4" x1="70.03" y1="62.93" x2="107.07" y2="62.93"></line><line class="cls-4" x1="32.93" y1="49.91" x2="107.07" y2="49.91"></line><line class="cls-4" x1="70.03" y1="75.94" x2="107.07" y2="75.94"></line></g></svg> 