<svg id="Warstwa_1" data-name="Warstwa 1" xmlns="http://www.w3.org/2000/svg" viewBox="0 0 69.52 118.33"><path d="M331.34,115l-1.68,1.31,21.7,30L353,145" transform="translate(-285.28 -90.19)" fill="#221c14" fill-rule="evenodd"/><path d="M328.06,117.31l-1.68,1.31,21.81,30.17,1.67-1.32" transform="translate(-285.28 -90.19)" fill="#221c14" fill-rule="evenodd"/><path d="M326.06,113.68s.71,5.56.29,5.56-7.81-2.83-7.81-2.83l1.1-3.52,3.57,1.24,2.85-.45" transform="translate(-285.28 -90.19)" fill="#221c14" fill-rule="evenodd"/><path d="M309.65,108.68l12.94,6.1-.67,1.48-14-4.86,1.76-2.72" transform="translate(-285.28 -90.19)" fill="#221c14" fill-rule="evenodd"/><path d="M329.31,109.62l-3.12,3.23-3.12,3.23a1.61,1.61,0,0,0-.4,1.53,1.56,1.56,0,0,0,1.08,1.13l4.24,1.2,4.24,1.2a1.47,1.47,0,0,0,1.47-.4,1.61,1.61,0,0,0,.4-1.54l-2.24-8.85a1.53,1.53,0,0,0-1.08-1.13,1.45,1.45,0,0,0-1.47.4" transform="translate(-285.28 -90.19)" fill="#221c14" fill-rule="evenodd"/><path d="M330.05,110.94a.76.76,0,1,0,.73.76.75.75,0,0,0-.73-.76" transform="translate(-285.28 -90.19)" fill="#b0b0b8" fill-rule="evenodd"/><path d="M331.54,117.19a.76.76,0,1,0,.73.76.75.75,0,0,0-.73-.76" transform="translate(-285.28 -90.19)" fill="#b0b0b8" fill-rule="evenodd"/><path d="M325.82,115.85a.76.76,0,1,0,.72.76.74.74,0,0,0-.72-.76" transform="translate(-285.28 -90.19)" fill="#b0b0b8" fill-rule="evenodd"/><path d="M320.39,100.74c-1.06,4.84-2.75,12.18-.45,14,6.09,4.74,5.1,12.4,2.47,18.3l-18.57-6.09-18.56-6.1c1.08-6.41,4.48-13.27,12.07-13.52,2.87-.09,5.52-7.11,7.31-11.71,1.19-3.08,5.5-3.37,9.27-2.06s7.18,4,6.46,7.22" transform="translate(-285.28 -90.19)" fill="#221c14" fill-rule="evenodd"/><path d="M323.37,101.85c-1.07,4.83-2.75,12.18-.46,14,6.09,4.73,5.11,12.39,2.47,18.3l-9.14-3c2.64-5.91,3.62-13.57-2.47-18.3-2.29-1.78-.61-9.13.46-14,.41-1.86-.53-3.59-2.13-4.94a12.35,12.35,0,0,1,4.8.71c3.81,1.18,7.19,4,6.47,7.23" transform="translate(-285.28 -90.19)" fill-rule="evenodd"/><path d="M315.39,99.86l.1-.31a4.88,4.88,0,0,0-.94-4.46,12.25,12.25,0,0,0-4.95-3.68,13.9,13.9,0,0,0-2.44-.86,10.45,10.45,0,0,0-2.37-.35h-.57l.41.42a6.49,6.49,0,0,1,1.58,2.47,3.82,3.82,0,0,1,0,2.41l-.1.31c-1.53,4.76-3.77,11.72-1.59,13.79a11.19,11.19,0,0,1,3.6,7.9,19.9,19.9,0,0,1-2.88,10.27l-.14.23,9.25,4.1.1-.18a20.52,20.52,0,0,0,2.95-10.53,11.71,11.71,0,0,0-3.75-8.23C311.71,111.29,313.9,104.5,315.39,99.86Zm-.34-.46-.1.3c-1.53,4.77-3.77,11.73-1.59,13.8a11.13,11.13,0,0,1,3.6,7.9,19.75,19.75,0,0,1-2.78,10.08l-8.4-3.72a20.29,20.29,0,0,0,2.82-10.29,11.67,11.67,0,0,0-3.75-8.23c-2-1.86.22-8.65,1.72-13.29l.09-.31a4.33,4.33,0,0,0,0-2.71,6.74,6.74,0,0,0-1.3-2.22,10.59,10.59,0,0,1,1.71.3,13.31,13.31,0,0,1,2.36.84,11.68,11.68,0,0,1,4.77,3.53,4.4,4.4,0,0,1,.87,4Z" transform="translate(-285.28 -90.19)" fill="#fff" fill-rule="evenodd"/><path d="M309.86,96l-.67,6.65,2.55.28.67-6.65L309.86,96" transform="translate(-285.28 -90.19)" fill="#fffffe" fill-rule="evenodd"/><path d="M309,104l-.34,3.33,2.56.28.33-3.33L309,104" transform="translate(-285.28 -90.19)" fill="#fffffe" fill-rule="evenodd"/><path d="M324.67,195.62l25-47-3.84.41-25,47Z" transform="translate(-285.28 -90.19)" fill="#221c14" fill-rule="evenodd"/><path d="M328.18,197.64l25-47-1.83-1.06-25,47Z" transform="translate(-285.28 -90.19)" fill="#221c14" fill-rule="evenodd"/><path d="M348.69,152.1l-3.87-2.18a1.55,1.55,0,0,1-.79-1.35c0-.59-8.27.52-7.8.22l12.27-4,3.74-2.4a1.45,1.45,0,0,1,1.53,0,1.55,1.55,0,0,1,.79,1.35l.24,9.16a1.56,1.56,0,0,1-.73,1.39,1.42,1.42,0,0,1-1.52,0Z" transform="translate(-285.28 -90.19)" fill="#221c14" fill-rule="evenodd"/><path d="M351.8,144.75a.76.76,0,0,0,.55.91.73.73,0,0,0,.87-.58.76.76,0,0,0-.56-.9A.71.71,0,0,0,351.8,144.75Z" transform="translate(-285.28 -90.19)" fill="#9c8f80" fill-rule="evenodd"/><path d="M351.91,151.19a.76.76,0,0,0,.55.91.73.73,0,0,0,.87-.58.75.75,0,0,0-.56-.9A.71.71,0,0,0,351.91,151.19Z" transform="translate(-285.28 -90.19)" fill="#9c8f80" fill-rule="evenodd"/><path d="M346.61,148.59c-.09.41-10.77.11-10.38.2s11.72.54,11.8.13-11.4,0-11.8-.13S346.7,148.18,346.61,148.59Z" transform="translate(-285.28 -90.19)" fill="#9c8f80" fill-rule="evenodd"/><path d="M325,200.82l-4.39-.16a1.51,1.51,0,0,1-1.3-.84,1.61,1.61,0,0,1,.06-1.59l2.33-3.88,2.33-3.89a1.48,1.48,0,0,1,1.34-.74,1.46,1.46,0,0,1,1.29.84l2.06,4,2.07,4.05a1.61,1.61,0,0,1-.06,1.59,1.46,1.46,0,0,1-1.34.74Z" transform="translate(-285.28 -90.19)" fill="#221c14" fill-rule="evenodd"/><path d="M327.25,208.51h-4.73v-11.4h4.73Z" transform="translate(-285.28 -90.19)" fill="#221c14" fill-rule="evenodd"/></svg>