<svg id="Warstwa_1" data-name="Warstwa 1" xmlns="http://www.w3.org/2000/svg" viewBox="0 0 23.43 51.95"><path d="M300.8,101.06l-.57.58,7.32,13.17.56-.58" transform="translate(-285.28 -90.19)" fill="#221c14" fill-rule="evenodd"/><path d="M299.69,102.09l-.56.58,7.35,13.25.56-.58" transform="translate(-285.28 -90.19)" fill="#221c14" fill-rule="evenodd"/><path d="M299,100.5a14.24,14.24,0,0,1,.1,2.44c-.15,0-2.63-1.24-2.63-1.24l.37-1.54,1.2.54,1-.2" transform="translate(-285.28 -90.19)" fill="#221c14" fill-rule="evenodd"/><path d="M293.49,98.31l4.36,2.67-.22.66L292.9,99.5l.59-1.19" transform="translate(-285.28 -90.19)" fill="#221c14" fill-rule="evenodd"/><path d="M300.12,98.72l-1.06,1.42L298,101.56a.85.85,0,0,0-.13.67.64.64,0,0,0,.36.49l1.43.53,1.43.53a.42.42,0,0,0,.49-.18.82.82,0,0,0,.14-.67L301,99a.62.62,0,0,0-.36-.5.42.42,0,0,0-.49.18" transform="translate(-285.28 -90.19)" fill="#221c14" fill-rule="evenodd"/><path d="M300.37,99.3c-.14,0-.25.15-.25.33s.11.34.25.34.24-.15.24-.34-.11-.33-.24-.33" transform="translate(-285.28 -90.19)" fill="#b0b0b8" fill-rule="evenodd"/><path d="M300.87,102.05c-.14,0-.25.14-.25.33s.11.33.25.33.24-.15.24-.33-.11-.33-.24-.33" transform="translate(-285.28 -90.19)" fill="#b0b0b8" fill-rule="evenodd"/><path d="M298.94,101.46c-.14,0-.25.15-.25.33s.11.33.25.33.24-.15.24-.33-.11-.33-.24-.33" transform="translate(-285.28 -90.19)" fill="#b0b0b8" fill-rule="evenodd"/><path d="M297.11,94.82c-.36,2.12-.93,5.35-.15,6.13,2.05,2.08,1.72,5.44.83,8l-6.26-2.67-6.25-2.68c.36-2.81,1.51-5.83,4.07-5.93,1,0,1.86-3.13,2.46-5.15.4-1.35,1.85-1.47,3.12-.9a3.13,3.13,0,0,1,2.18,3.17" transform="translate(-285.28 -90.19)" fill="#221c14" fill-rule="evenodd"/><path d="M298.11,95.31c-.36,2.12-.92,5.34-.15,6.13,2.05,2.08,1.72,5.44.83,8l-3.08-1.32c.89-2.59,1.22-6-.83-8-.77-.78-.21-4,.15-6.13a2.57,2.57,0,0,0-.72-2.17,3.28,3.28,0,0,1,1.62.31,3.12,3.12,0,0,1,2.18,3.18" transform="translate(-285.28 -90.19)" fill-rule="evenodd"/><path d="M295.43,94.43l0-.13a2.64,2.64,0,0,0-.32-2,4.48,4.48,0,0,0-1.67-1.62,4.34,4.34,0,0,0-.82-.38,3.31,3.31,0,0,0-.8-.15h-.19l.14.18a3.06,3.06,0,0,1,.53,1.09,2.11,2.11,0,0,1,0,1.06l0,.13c-.52,2.09-1.27,5.15-.54,6.06a5.66,5.66,0,0,1,1.22,3.46,10.88,10.88,0,0,1-1,4.51l0,.1,3.11,1.8,0-.08a11,11,0,0,0,1-4.62,5.89,5.89,0,0,0-1.26-3.61C294.19,99.45,294.92,96.47,295.43,94.43Zm-.12-.2,0,.14c-.52,2.09-1.28,5.14-.54,6a5.59,5.59,0,0,1,1.21,3.47,10.7,10.7,0,0,1-.93,4.43l-2.83-1.63a11.3,11.3,0,0,0,.95-4.52,6,6,0,0,0-1.27-3.62c-.66-.81.08-3.8.58-5.83l0-.14a2.4,2.4,0,0,0,0-1.19,3,3,0,0,0-.43-1,2.35,2.35,0,0,1,.57.13,3.83,3.83,0,0,1,.8.37A4.28,4.28,0,0,1,295,92.47a2.42,2.42,0,0,1,.29,1.76Z" transform="translate(-285.28 -90.19)" fill="#fff" fill-rule="evenodd"/><path d="M293.56,92.75l-.23,2.92.86.13.23-2.92-.86-.13" transform="translate(-285.28 -90.19)" fill="#fffffe" fill-rule="evenodd"/><path d="M293.28,96.27l-.11,1.46.86.12.12-1.46-.87-.12" transform="translate(-285.28 -90.19)" fill="#fffffe" fill-rule="evenodd"/><path d="M298.55,136.48,307,115.83l-1.29.18-8.41,20.65Z" transform="translate(-285.28 -90.19)" fill="#221c14" fill-rule="evenodd"/><path d="M299.73,137.36l8.42-20.65-.62-.46-8.41,20.65Z" transform="translate(-285.28 -90.19)" fill="#221c14" fill-rule="evenodd"/><path d="M306.65,117.37l-1.31-1a.73.73,0,0,1-.26-.59c0-.26-2.79.23-2.63.1l4.13-1.76,1.27-1.06a.39.39,0,0,1,.51,0,.79.79,0,0,1,.27.6l.07,4a.73.73,0,0,1-.24.61.38.38,0,0,1-.51,0Z" transform="translate(-285.28 -90.19)" fill="#221c14" fill-rule="evenodd"/><path d="M307.69,114.15a.34.34,0,0,0,.19.39c.13,0,.26-.07.29-.25a.35.35,0,0,0-.18-.4C307.85,113.85,307.72,114,307.69,114.15Z" transform="translate(-285.28 -90.19)" fill="#9c8f80" fill-rule="evenodd"/><path d="M307.73,117a.34.34,0,0,0,.19.4c.13,0,.26-.07.29-.25a.34.34,0,0,0-.19-.4C307.89,116.68,307.76,116.79,307.73,117Z" transform="translate(-285.28 -90.19)" fill="#9c8f80" fill-rule="evenodd"/><path d="M306,115.83a30.07,30.07,0,0,1-3.5.09,25.36,25.36,0,0,0,4,.06,37.13,37.13,0,0,0-4-.06A18.4,18.4,0,0,1,306,115.83Z" transform="translate(-285.28 -90.19)" fill="#9c8f80" fill-rule="evenodd"/><path d="M298.67,138.76l-1.48-.07a.51.51,0,0,1-.44-.37.9.9,0,0,1,0-.7l.78-1.7.79-1.71a.48.48,0,0,1,.45-.32.51.51,0,0,1,.44.37l.69,1.77.7,1.78a.94.94,0,0,1,0,.7.49.49,0,0,1-.45.32Z" transform="translate(-285.28 -90.19)" fill="#221c14" fill-rule="evenodd"/><path d="M299.42,142.14h-1.59v-5h1.59Z" transform="translate(-285.28 -90.19)" fill="#221c14" fill-rule="evenodd"/></svg>