<svg id="Warstwa_1" data-name="Warstwa 1" xmlns="http://www.w3.org/2000/svg" viewBox="0 0 541.58 363"><path d="M389.34,30.64,502,31.38l-2,101.78-108.93-.92Z" transform="translate(-383 -8.95)" fill="#abaab3" fill-rule="evenodd" opacity="0.01" style="isolation:isolate"/><path d="M383,25.35l112.69.74-2,101.78L384.72,127Z" transform="translate(-383 -8.95)" fill="#232422" fill-rule="evenodd"/><path d="M386.21,28.32l106.15.7-1.92,95.86L387.83,124Z" transform="translate(-383 -8.95)" fill="#c3c2ce" fill-rule="evenodd"/><path d="M490.56,118.51l-.12,6.37L387.83,124l-1.31-77.3Z" transform="translate(-383 -8.95)" fill="#abaab3" fill-rule="evenodd"/><path d="M490.56,118.51l-.12,6.37L387.83,124l-1.31-77.3Z" transform="translate(-383 -8.95)" fill="#cfced8" fill-rule="evenodd"/><path d="M418.61,123.47l-30-.25-.35-20.7Z" transform="translate(-383 -8.95)" fill="#fffffe" fill-rule="evenodd"/><path d="M407.3,47.78l63.2.42-1.14,57.08-61.1-.52Z" transform="translate(-383 -8.95)" fill="#fbfaf8" fill-rule="evenodd"/><path d="M469.39,103.9l0,1.38-61.1-.52-.74-43.56Z" transform="translate(-383 -8.95)" fill="#fffffe" fill-rule="evenodd"/><path d="M421.82,67.53l5,1.22-.71,2,3.58-1.28-1.85,3.07,3.19-.72,9.3,10.86-1,.87-8.78-10.24-5.47,1.22L426.59,72l-2.7,1,1.16-3.27-3.55-.86Z" transform="translate(-383 -8.95)" fill="#fffffe" fill-rule="evenodd"/><path d="M442.3,72.85a2.78,2.78,0,0,0-4.75,2,2.78,2.78,0,0,0,.81,2,2.82,2.82,0,0,0,2,.81,2.78,2.78,0,0,0,2-4.74Zm-2-2.17a4.13,4.13,0,0,1,2.92,7,4.12,4.12,0,1,1-2.92-7Z" transform="translate(-383 -8.95)" fill="#fffffe" fill-rule="evenodd"/><path d="M433.84,81l-5.72,2.11,2.11,5.73L436,86.73Zm-7,.88,8-2.94L438,87.68l-8.74,3.22-3.22-8.74Z" transform="translate(-383 -8.95)" fill="#fffffe" fill-rule="evenodd"/><path d="M449.85,81.13l-2.12-3.68-4.25,7.35H452Zm-1.55-5.35,6,10.37H441.16l6.57-11.38Z" transform="translate(-383 -8.95)" fill="#fffffe" fill-rule="evenodd"/><path d="M522.91,21.93l172.18,1.13L692,178.57l-166.44-1.41Z" transform="translate(-383 -8.95)" fill="#919199" fill-rule="evenodd" opacity="0.01" style="isolation:isolate"/><path d="M513.21,9l172.18,1.13-3.11,155.51-166.44-1.41Z" transform="translate(-383 -8.95)" fill="#232422" fill-rule="evenodd"/><path d="M518.12,13.48,680.3,14.55,677.37,161,520.59,159.7Z" transform="translate(-383 -8.95)" fill="#c3c2ce" fill-rule="evenodd"/><path d="M655.85,160.84,520.59,159.7,519,66.41Z" transform="translate(-383 -8.95)" fill="#cfced8" fill-rule="evenodd"/><path d="M550.34,43.21l96.57.64-1.75,87.22-93.35-.79Z" transform="translate(-383 -8.95)" fill="#fbfaf8" fill-rule="evenodd"/><path d="M570.24,142.46l1-1.07,2.23,2-.95,1.07Z" transform="translate(-383 -8.95)" fill="#fffffe" fill-rule="evenodd"/><path d="M635,139.5l1.18.81-1.71,2.47-1.17-.81Z" transform="translate(-383 -8.95)" fill="#fffffe" fill-rule="evenodd"/><path d="M592.6,90.94l-3.39-5.89-6.8,11.77H596Zm-2.46-8.58L599.73,99H578.68l10.53-18.23Z" transform="translate(-383 -8.95)" fill="#fbfaf8" fill-rule="evenodd"/><path d="M616.08,81.31a11.08,11.08,0,1,0,3.25,7.84A11,11,0,0,0,616.08,81.31Zm-7.83-5.4a13.23,13.23,0,1,1-9.37,3.88A13.16,13.16,0,0,1,608.25,75.91Z" transform="translate(-383 -8.95)" fill="#fbfaf8" fill-rule="evenodd"/><path d="M581.82,67.71H603l-15,5.78,23.75,15.29-1.17,1.81L583.2,73l8.18-3.14h-9.56Z" transform="translate(-383 -8.95)" fill="#fbfaf8" fill-rule="evenodd"/><path d="M582,103.61l33.92.18v2.15L582,105.76Z" transform="translate(-383 -8.95)" fill="#fbfaf8" fill-rule="evenodd"/><path d="M436.83,222h306a1.42,1.42,0,0,0,1.42-1.42V219.4a1.42,1.42,0,0,1,1.11-1.39l33.39-7.58a1.41,1.41,0,0,0,1-.89l23.47-63.17a1.44,1.44,0,0,1,1.35-.93L898,146a1.42,1.42,0,0,1,1.32,1.92L875.54,212a1.43,1.43,0,0,0,1.34,1.92h28.26a1.42,1.42,0,0,1,1.42,1.42V231a1.42,1.42,0,0,1-1.42,1.42h-4a1.42,1.42,0,0,0-1.42,1.43V337a1.42,1.42,0,0,0,2.23,1.17l4.34-3a1.52,1.52,0,0,0,.44-.5l12.75-23.74a1.43,1.43,0,0,1,1-.73h0a1.43,1.43,0,0,1,1.69,1.34l2.43,58.74a1.43,1.43,0,0,1-1.6,1.48L893,368a1.42,1.42,0,0,1-1.25-1.39L890,233.84a1.43,1.43,0,0,0-1.42-1.41H592a1.43,1.43,0,0,0-1.43,1.43V370.52a1.42,1.42,0,0,1-1.42,1.43h-6.63a1.43,1.43,0,0,1-1.42-1.43V233.42a1.43,1.43,0,0,0-1.42-1.42H433.23a1.42,1.42,0,0,1-1.27-2.06l3.6-7.16A1.41,1.41,0,0,1,436.83,222Z" transform="translate(-383 -8.95)" fill="#d3d2db" fill-rule="evenodd"/><path d="M443.34,372h17.25V230.16H443.34Z" transform="translate(-383 -8.95)" fill="#d3d2db" fill-rule="evenodd"/></svg>