<svg id="Warstwa_1" data-name="Warstwa 1" xmlns="http://www.w3.org/2000/svg" viewBox="0 0 1304.76 140"><path d="M242.49.4C315.18-3.43,374.1,20.47,374.1,53.87s-58.92,63.5-131.61,67.33-131.6-20.09-131.6-53.46S169.81,4.23,242.49.4" transform="translate(-35 0)" fill="#232422" fill-rule="evenodd"/><path d="M1339.76,81.47c0,32.33-282.17,58.53-630.24,58.53S79.28,113.8,79.28,81.47,361.44,22.94,709.52,22.94,1339.76,49.14,1339.76,81.47Z" transform="translate(-35 0)" fill="#fffffe" fill-rule="evenodd"/><path d="M842,8.2c220.28,3.3,398.86,11.67,398.86,18.7S1062.31,37,842,33.66,443.17,22,443.17,15,621.75,4.9,842,8.2" transform="translate(-35 0)" fill="#232422" fill-rule="evenodd"/><path d="M44.16.92,1330,108.1l0,8L44.15,8.94v-8" transform="translate(-35 0)" fill="#232422" fill-rule="evenodd"/><path d="M351.68,29.81c88.34,0,159.94,2.56,159.94,5.71S440,41.23,351.68,41.23s-159.94-2.55-159.94-5.71,71.61-5.71,159.94-5.71" transform="translate(-35 0)" fill="#232422" fill-rule="evenodd"/><path d="M35,20.1,1273.81,41.28l0,1L35,21.11l0-1" transform="translate(-35 0)" fill="#232422" fill-rule="evenodd"/><path d="M746.54,28.12C942.48,41,1101.32,73.81,1101.32,101.34s-158.84,39.35-354.78,26.43S391.77,82.08,391.77,54.56,550.6,15.21,746.54,28.12" transform="translate(-35 0)" fill="#232422" fill-rule="evenodd"/><path d="M833.16,26.22c118.58,10.22,214.71,31.91,214.71,48.45S951.74,96.36,833.16,86.14s-214.7-31.9-214.7-48.45S714.58,16,833.16,26.22" transform="translate(-35 0)" fill="#232422" fill-rule="evenodd"/><path d="M44.15,76S566,125,544.74,72.23,44.15,76,44.15,76" transform="translate(-35 0)" fill="#cfced8" fill-rule="evenodd"/><path d="M1097,106.41l58.75,1v1l-58.75-1ZM508.15,96.34l575.2,9.83v1l-575.2-9.84ZM485.68,96l8.79.15v1L485.68,97Zm-151.2-2.59L472,95.72v1L334.48,94.39Zm956.28,16.35v1l-121.3-2.08v-1ZM57.73,88.64l263.07,4.5v1L57.71,89.65l0-1Z" transform="translate(-35 0)" fill="#fffffe" fill-rule="evenodd"/><path d="M817.57,69.86s420.38,7.64,403.26-.59-403.26.59-403.26.59" transform="translate(-35 0)" fill="#fffffe" fill-rule="evenodd"/><path d="M311.86,75.17s420.38,7.65,403.26-.59-403.26.59-403.26.59" transform="translate(-35 0)" fill="#fffffe" fill-rule="evenodd"/><path d="M589.35,85.94s420.38,7.65,403.27-.59-403.27.59-403.27.59" transform="translate(-35 0)" fill="#fffffe" fill-rule="evenodd"/></svg>