<?xml version="1.0" encoding="UTF-8"?>
<svg id="Warstwa_1" data-name="Warstwa 1" xmlns="http://www.w3.org/2000/svg" viewBox="0 0 54.42 14.34">
  <defs>
    <style>
      .cls-1 {
        fill: #fff;
      }
    </style>
  </defs>
  <g>
    <path class="cls-1" d="m6,0H0v14.34L6,0Z"/>
    <path class="cls-1" d="m10.21,0h5.99v14.34L10.21,0Z"/>
    <path class="cls-1" d="m8.11,5.29l3.82,9.05h-2.5l-1.14-2.88h-2.79l2.62-6.17Z"/>
  </g>
  <g>
    <path class="cls-1" d="m25.99,9.12l.71,2.03c.02.05.06.07.12.07h1.36c.07,0,.09-.04.07-.11l-2.81-7.8c-.01-.06-.02-.07-.09-.07h-1.69s-.07.04-.07.09c-.02.41-.06.54-.11.66l-2.5,7.12c-.01.09.02.12.09.12h1.21c.07,0,.11-.02.14-.1l.67-2h2.9Zm-2.52-1.32c.37-1.11.85-2.53,1.05-3.34h.01c.24.85.81,2.54,1.07,3.34h-2.13Z"/>
    <path class="cls-1" d="m31.86,11.34c.73,0,1.51-.13,2.3-.47.06-.02.07-.05.07-.11-.02-.22-.05-.54-.05-.78V2.64s0-.07-.06-.07h-1.32c-.05,0-.07.02-.07.09v2.49c-.21-.02-.35-.04-.52-.04-2.14,0-3.45,1.41-3.45,3.17,0,2.04,1.35,3.06,3.11,3.06Zm.86-1.36c-.22.07-.46.1-.71.1-.97,0-1.76-.55-1.76-1.88,0-1.18.82-1.87,1.9-1.87.22,0,.41.02.57.09v3.56Z"/>
    <path class="cls-1" d="m38.45,5.11c-1.82,0-2.95,1.4-2.95,3.12,0,1.54.9,3.11,2.93,3.11,1.71,0,2.92-1.26,2.92-3.15,0-1.66-1.02-3.09-2.89-3.09Zm-.07,1.23c1.03,0,1.47.89,1.47,1.9,0,1.25-.64,1.87-1.39,1.87-.93,0-1.47-.78-1.47-1.9s.58-1.87,1.4-1.87Z"/>
    <path class="cls-1" d="m42.71,2.57c-.05,0-.09.02-.09.09v8.31s.04.1.09.11c.58.18,1.19.27,1.82.27,1.8,0,3.55-1.12,3.55-3.37,0-1.63-1.12-2.87-2.87-2.87-.4,0-.78.06-1.11.17l-.02-2.61c0-.09-.02-.1-.11-.1h-1.27Zm3.88,5.55c0,1.35-.92,1.98-1.92,1.98-.21,0-.39-.01-.56-.06v-3.55c.19-.07.42-.14.85-.14.96,0,1.63.61,1.63,1.77Z"/>
    <path class="cls-1" d="m53.03,8.56c.59,0,1.08-.01,1.25-.05.06-.01.09-.04.1-.09.04-.13.05-.41.05-.75,0-1.16-.7-2.57-2.49-2.57s-2.86,1.5-2.86,3.18c0,1.5.79,3.05,3,3.05.83,0,1.36-.13,1.82-.35.05-.02.07-.06.07-.13v-1.01c0-.06-.04-.07-.07-.05-.46.2-.96.29-1.51.29-1.24,0-1.8-.68-1.84-1.53h2.47Zm-2.47-1.05c.1-.59.47-1.24,1.31-1.24.93,0,1.17.78,1.17,1.13v.1c-.05.01-.21.01-.67.01h-1.81Z"/>
  </g>
</svg>