<?xml version="1.0" encoding="UTF-8"?>
<svg id="Warstwa_1" data-name="Warstwa 1" xmlns="http://www.w3.org/2000/svg" viewBox="0 0 64 31.71">
  <defs>
    <style>
      .cls-1 {
        fill: #fff;
      }
    </style>
  </defs>
  <path class="cls-1" d="m7.16,27.96c-.26-.03-.67-.26-.95-.5-2.74-2.68.78-5.77,4.85-7.56v-5.1c.95.61,1.47.64,1.5.72l3.12-3.09-1.04-2.66c9.12-3.15,12.78-4.36,20.2-5.6l-1.33-1.24,2.17-1.24c5,1.65,9.7,2.08,8.89,6.26.2-2.83-3.32-3.92-8.68-5.42l-1.04.63,2,1.65c-8.89,1.53-14.34,3.26-20.83,5.5l.89,2.3-3.26,3.2c.55.14,6.23,2.05,12.15-2.08,0,0,.12-.09.12-.12-.17-.29-.58-.61-1.07-1.04,1.73.12,2.85,1.65,2.65,3.23h-.81c.05-.49-.03-.99-.23-1.44-4.59,3.35-9.9,3.84-14.43,2.25v3.95c-2.19.78-6.12,3.2-6.1,5.54.14,1.12.72,1.53,1.24,1.82"/>
  <path class="cls-1" d="m25.71,26.95c-4.91,2.48-9.6,4.47-16.85,4.76-9.43-.2-10.91-6.46-6.43-13.01C6.64,12.09,13.33,6.12,23.98,2.4,27.07,1.3,31.6.06,35.98,0c6.3-.06,12.4,1.9,12,7.94-.23,4.62-6.89,11.14-10.42,15.81-1.5,2.05-1.76,3.38.81,3.26,9.32-.61,17.77-3.84,25.62-7.18-5.31,3.61-32.75,17.2-32.86,7.94.03-1.19.58-2.42,1.47-3.75.87-1.33,2.08-2.71,3.32-4.13,1.88-2.14,6.52-7.24,8.08-10.3,2.63-5.8-3.26-6.1-8.34-7.88l-2.17,1.24,1.33,1.24c-7.42,1.24-11.08,2.45-20.2,5.6l1.04,2.66-3.12,3.09c-.09-.09-.55-.11-1.5-.72v5.11c-4.07,1.8-7.6,4.88-4.85,7.56.29.23.69.46.95.5,5,2.83,18.58-1,18.55-1"/>
</svg>