<?xml version="1.0" encoding="UTF-8"?>
<svg id="Warstwa_1" data-name="Warstwa 1" xmlns="http://www.w3.org/2000/svg" viewBox="0 0 123.3 41.3">
  <defs>
    <style>
      .cls-1 {
        fill: #fff;
      }
    </style>
  </defs>
  <path class="cls-1" d="m121.18,13.49c-3.81-4.92-10.89-5.81-15.81-1.99-.75.58-1.42,1.25-1.99,1.99-1.41,2.01-2.15,4.42-2.12,6.88-.04,2.46.7,4.87,2.12,6.88,3.81,4.92,10.89,5.81,15.81,1.99.75-.58,1.42-1.25,1.99-1.99,1.41-2.01,2.15-4.42,2.12-6.88.04-2.46-.7-4.87-2.12-6.88Zm-3.53,9.46c-.81,2.42-2.73,4.3-5.38,4.36s-4.58-1.94-5.38-4.36c-.57-1.67-.57-3.49,0-5.16.81-2.42,2.73-4.3,5.38-4.36s4.58,1.94,5.38,4.36c.57,1.67.57,3.48,0,5.15h0Zm-81.06,8.08c0,.35-.28.64-.64.64h-3.7c-.35,0-.64-.28-.64-.64h0V.64c0-.35.28-.64.64-.64h3.7c.35,0,.64.28.64.64h0v30.4Zm-8.69,0c0,.35-.28.64-.64.64h-3.7c-.35,0-.64-.28-.64-.64h0V.64c0-.35.28-.63.63-.64h3.7c.35,0,.64.28.64.64h0v30.4h0ZM100.43,10.4v2.58c.05.37-.21.7-.58.75-.1.01-.19,0-.28-.02-4.18-.86-6.75,1-6.75,4.86v12.47c0,.35-.28.64-.64.64h-3.7c-.35,0-.64-.28-.64-.64v-12.74c-.04-2.44.95-4.78,2.73-6.44,1.81-1.77,4.24-2.75,6.77-2.73.87,0,1.73.08,2.58.24.44.15.51.4.51,1.07v-.03Zm-15.83,9.97c.05-2.46-.69-4.87-2.12-6.88-3.81-4.92-10.89-5.81-15.81-1.99-.75.58-1.42,1.25-1.99,1.99-2.86,4.14-2.86,9.62,0,13.76,2.1,2.79,5.41,4.41,8.9,4.36,2.26,0,4.46-.66,6.34-1.91v2.72c0,3.69-3.23,4.36-5.29,4.49-1.42.05-2.84-.03-4.25-.23-.57-.09-.96,0-.96.61v3.27c.01.31.28.55.58.53,0,0,0,0,0,0,4.79.41,8.02.33,10.44-1.06,1.7-1,2.96-2.61,3.53-4.5.43-1.46.63-2.97.61-4.49v-10.67h0Zm-11.02,6.93c-2.66,0-4.58-1.94-5.38-4.36-.57-1.67-.57-3.49,0-5.16.81-2.42,2.73-4.36,5.38-4.36,5.94,0,6.14,6.06,6.14,6.94s-.2,6.94-6.14,6.94Zm-54.03-9.16c0-2.93-.65-5.16-2.06-6.7s-4.25-2.3-6.88-2.3c-2.64-.01-5.24.68-7.53,2-.15.09-.23.24-.23.41l.2,3.23c.05.31.35.52.67.47.1-.02.2-.06.28-.13,3.23-1.99,7.1-2.36,9.06-1.36,1.1.64,1.77,1.83,1.72,3.1v.47h-5.38C7.1,17.34,0,18.2,0,24.71v.07c-.11,2.01.74,3.95,2.3,5.23,1.67,1.18,3.7,1.76,5.74,1.64h10.88c.35,0,.64-.28.64-.64h0v-12.9.03Zm-4.77,9.54h-6.42c-.82-.02-1.62-.3-2.28-.8-.69-.48-1.09-1.28-1.08-2.12,0-1.16.78-3.48,4.7-3.48h5.08v6.4ZM50.22,9.13c-6.58,0-9.46,4.41-10.38,8.14-.25,1.01-.38,2.04-.38,3.08-.04,2.46.7,4.87,2.12,6.88,2.14,2.75,5.42,4.36,8.9,4.36,3.55.13,5.93-.47,7.74-1.51.36-.23.54-.67.43-1.09v-2.86c0-.58-.35-.86-.86-.51-2.12,1.36-4.64,1.97-7.16,1.72-2.96-.04-5.42-2.28-5.74-5.22h14.62c.33,0,.6-.26.6-.59.26-4-.9-12.4-9.89-12.4Zm-5.25,9.04c.12-2.74,2.45-4.87,5.19-4.74.02,0,.05,0,.07,0,2.44-.15,4.53,1.71,4.68,4.14.01.2.01.4,0,.6h-9.94Z"/>
</svg>