<?xml version="1.0" encoding="UTF-8"?>
<svg id="svg1936" xmlns="http://www.w3.org/2000/svg" viewBox="0 0 602.28 181.5">
  <defs>
    <style>
      .cls-1 {
        fill: #fff;
      }
    </style>
  </defs>
  <path id="path8" class="cls-1" d="m373.64,141.94c-35,25.8-85.73,39.56-129.41,39.56-61.24,0-116.38-22.65-158.09-60.32-3.28-2.96-.34-7,3.59-4.69,45.01,26.19,100.67,41.95,158.17,41.95,38.77,0,81.43-8.02,120.65-24.67,5.93-2.52,10.88,3.88,5.09,8.18"/>
  <path id="path10" class="cls-1" d="m388.19,125.29c-4.46-5.72-29.57-2.7-40.85-1.36-3.43.42-3.96-2.57-.87-4.72,20-14.08,52.83-10.01,56.65-5.3,3.83,4.75-1,37.65-19.79,53.35-2.88,2.41-5.64,1.13-4.35-2.07,4.22-10.54,13.69-34.16,9.2-39.9"/>
  <path id="path12" class="cls-1" d="m348.13,19.82V6.13c0-2.07,1.57-3.46,3.46-3.46h61.27c1.97,0,3.54,1.42,3.54,3.46v11.72c-.03,1.97-1.68,4.54-4.61,8.6l-31.75,45.33c11.8-.29,24.25,1.47,34.95,7.5,2.41,1.36,3.07,3.36,3.25,5.32v14.6c0,1.99-2.2,4.33-4.51,3.12-18.85-9.88-43.89-10.96-64.73.1-2.12,1.15-4.35-1.15-4.35-3.15v-13.87c0-2.23.03-6.03,2.25-9.41l36.78-52.75h-32.01c-1.97,0-3.54-1.39-3.54-3.43"/>
  <path id="path14" class="cls-1" d="m124.63,105.21h-18.64c-1.78-.13-3.2-1.47-3.33-3.17V6.37c0-1.91,1.6-3.43,3.59-3.43h17.38c1.81.08,3.25,1.47,3.38,3.2v12.51h.34c4.54-12.09,13.06-17.72,24.54-17.72s18.95,5.64,24.2,17.72c4.51-12.09,14.76-17.72,25.74-17.72,7.81,0,16.36,3.22,21.58,10.46,5.9,8.05,4.69,19.74,4.69,29.99l-.03,60.38c0,1.91-1.6,3.46-3.59,3.46h-18.61c-1.86-.13-3.36-1.63-3.36-3.46v-50.7c0-4.04.37-14.1-.52-17.93-1.39-6.42-5.56-8.23-10.96-8.23-4.51,0-9.23,3.01-11.14,7.84-1.91,4.82-1.73,12.9-1.73,18.33v50.7c0,1.91-1.6,3.46-3.59,3.46h-18.61c-1.89-.13-3.36-1.63-3.36-3.46l-.03-50.7c0-10.67,1.76-26.37-11.48-26.37s-12.87,15.31-12.87,26.37v50.7c0,1.91-1.6,3.46-3.59,3.46"/>
  <path id="path16" class="cls-1" d="m469.15.92c27.66,0,42.63,23.75,42.63,53.95s-16.54,52.33-42.63,52.33-41.95-23.75-41.95-53.35S442.17.92,469.15.92m.16,19.53c-13.74,0-14.6,18.72-14.6,30.39s-.18,36.65,14.45,36.65,15.13-20.13,15.13-32.4c0-8.07-.34-17.72-2.78-25.38-2.1-6.66-6.27-9.25-12.19-9.25"/>
  <path id="path18" class="cls-1" d="m547.64,105.21h-18.56c-1.86-.13-3.36-1.63-3.36-3.46l-.03-95.69c.16-1.76,1.7-3.12,3.59-3.12h17.28c1.63.08,2.96,1.18,3.33,2.67v14.63h.34c5.22-13.08,12.53-19.32,25.4-19.32,8.36,0,16.52,3.01,21.76,11.27,4.88,7.66,4.88,20.53,4.88,29.78v60.22c-.21,1.68-1.76,3.01-3.59,3.01h-18.69c-1.7-.13-3.12-1.39-3.3-3.01v-51.96c0-10.46,1.21-25.77-11.67-25.77-4.54,0-8.7,3.04-10.78,7.66-2.62,5.85-2.96,11.67-2.96,18.12v51.52c-.03,1.91-1.65,3.46-3.64,3.46"/>
  <g id="use28">
    <path id="path30" class="cls-1" d="m299.29,59.51v-4.04c-13.48,0-27.71,2.88-27.71,18.77,0,8.05,4.17,13.5,11.33,13.5,5.24,0,9.94-3.22,12.9-8.47,3.67-6.45,3.49-12.51,3.49-19.77m18.8,45.43c-1.23,1.1-3.01,1.18-4.4.45-6.19-5.14-7.29-7.52-10.7-12.43-10.22,10.43-17.46,13.55-30.73,13.55-15.68,0-27.89-9.67-27.89-29.05,0-15.13,8.21-25.43,19.87-30.46,10.12-4.46,24.25-5.24,35.05-6.48v-2.41c0-4.43.34-9.67-2.25-13.5-2.28-3.43-6.63-4.85-10.46-4.85-7.1,0-13.45,3.64-15,11.19-.31,1.68-1.55,3.33-3.22,3.41l-18.09-1.94c-1.52-.34-3.2-1.57-2.78-3.91,4.17-21.92,23.96-28.52,41.68-28.52,9.07,0,20.92,2.41,28.08,9.28,9.07,8.47,8.21,19.77,8.21,32.06v29.05c0,8.73,3.62,12.56,7.03,17.28,1.21,1.68,1.47,3.7-.05,4.95-3.8,3.17-10.57,9.07-14.29,12.37l-.05-.05"/>
  </g>
  <path id="path30-2" data-name="path30" class="cls-1" d="m54.92,59.51v-4.04c-13.48,0-27.71,2.88-27.71,18.77,0,8.05,4.17,13.5,11.33,13.5,5.24,0,9.94-3.22,12.9-8.47,3.67-6.45,3.49-12.51,3.49-19.77m18.8,45.43c-1.23,1.1-3.01,1.18-4.4.45-6.19-5.14-7.29-7.52-10.7-12.43-10.22,10.43-17.46,13.55-30.73,13.55-15.68,0-27.89-9.67-27.89-29.05,0-15.13,8.21-25.43,19.87-30.46,10.12-4.46,24.25-5.24,35.05-6.48v-2.41c0-4.43.34-9.67-2.25-13.5-2.28-3.43-6.63-4.85-10.46-4.85-7.1,0-13.45,3.64-15,11.19-.31,1.68-1.55,3.33-3.22,3.41l-18.09-1.94c-1.52-.34-3.2-1.57-2.78-3.91C7.29,6.61,27.08,0,44.8,0c9.07,0,20.92,2.41,28.08,9.28,9.07,8.47,8.21,19.77,8.21,32.06v29.05c0,8.73,3.62,12.56,7.03,17.28,1.21,1.68,1.47,3.7-.05,4.95-3.8,3.17-10.57,9.07-14.29,12.37l-.05-.05"/>
</svg>