<?xml version="1.0" encoding="UTF-8"?>
<svg id="Warstwa_1" data-name="Warstwa 1" xmlns="http://www.w3.org/2000/svg" viewBox="0 0 95.71 100">
  <defs>
    <style>
      .cls-1, .cls-2 {
        fill: #fff;
      }

      .cls-2 {
        fill-rule: evenodd;
      }
    </style>
  </defs>
  <path class="cls-1" d="m6.02,4.31L61.35.23c6.8-.58,8.54-.19,12.82,2.92l17.66,12.44c2.91,2.14,3.88,2.72,3.88,5.05v68.24c0,4.28-1.55,6.81-6.99,7.19l-64.26,3.89c-4.08.19-6.02-.39-8.16-3.11l-13.01-16.91c-2.33-3.11-3.3-5.44-3.3-8.17V11.11c0-3.5,1.55-6.41,6.02-6.8Z"/>
  <path class="cls-2" d="m61.35.23L6.02,4.32C1.55,4.7,0,7.62,0,11.11v60.66c0,2.72.97,5.05,3.3,8.17l13.01,16.91c2.14,2.72,4.08,3.31,8.16,3.11l64.26-3.89c5.43-.39,6.99-2.92,6.99-7.19V20.64c0-2.21-.87-2.85-3.44-4.73l-18.1-12.76C69.89.04,68.15-.36,61.35.23h0ZM25.92,19.52c-5.25.35-6.44.43-9.42-1.99l-7.58-6.03c-.77-.78-.38-1.75,1.56-1.95l53.19-3.89c4.47-.39,6.79,1.17,8.54,2.53l9.12,6.61c.39.2,1.36,1.36.19,1.36l-54.93,3.31-.68.05h0Zm-6.12,68.78V30.37c0-2.53.78-3.7,3.1-3.89l63.09-3.69c2.14-.19,3.11,1.17,3.11,3.69v57.55c0,2.53-.39,4.67-3.88,4.86l-60.38,3.5c-3.49.19-5.04-.97-5.04-4.08h0Zm59.6-54.83c.39,1.75,0,3.5-1.75,3.7l-2.91.58v42.77c-2.53,1.36-4.85,2.14-6.8,2.14-3.11,0-3.88-.97-6.21-3.89l-19.03-29.94v28.97l6.02,1.36s0,3.5-4.86,3.5l-13.39.78c-.39-.78,0-2.72,1.36-3.11l3.5-.97v-38.3l-4.85-.39c-.39-1.75.58-4.28,3.3-4.47l14.37-.97,19.8,30.33v-26.83l-5.05-.58c-.39-2.14,1.16-3.7,3.1-3.89l13.4-.78h0Z"/>
</svg>