<?xml version="1.0" encoding="utf-8"?>
<!-- Generator: Adobe Illustrator 24.3.0, SVG Export Plug-In . SVG Version: 6.00 Build 0)  -->
<svg version="1.1" id="Warstwa_1" xmlns="http://www.w3.org/2000/svg" xmlns:xlink="http://www.w3.org/1999/xlink" x="0px" y="0px"
	 viewBox="0 0 197 198" style="enable-background:new 0 0 197 198;" xml:space="preserve">
<style type="text/css">
	.st0{fill-rule:evenodd;clip-rule:evenodd;fill:#F7D972;}
	.st1{fill-rule:evenodd;clip-rule:evenodd;}
</style>
<g>
	<path class="st0" d="M96.6,8.5l10.1,16.2l14-13l5.6,18.2l16.9-8.9l0.7,19.1l18.6-4.3l-4.3,18.6l19.1,0.7l-8.9,16.9l18.2,5.6l-13,14
		l16.2,10.1l-16.2,10.1l13,14l-18.2,5.6l8.9,16.9l-19.1,0.7l4.3,18.6l-18.6-4.3l-0.7,19.1l-16.9-8.9l-5.6,18.2l-14-13l-10.1,16.2
		l-10.1-16.2l-14,13l-5.6-18.2L50,182.2l-0.7-19.1l-18.6,4.3l4.3-18.6L16,148.1l8.9-16.9l-18.2-5.6l13-14L3.5,101.6l16.2-10.1
		l-13-14l18.2-5.6L16,55L35,54.4l-4.3-18.6L49.4,40L50,21l16.9,8.9l5.6-18.2l14,13L96.6,8.5z"/>
	<path class="st1" d="M86.9,175.1l9.7,15.5l9.7-15.5l13.3,12.4l5.3-17.4l16.1,8.6l0.7-18.2l17.8,4.1l-4.1-17.8l18.2-0.7l-8.6-16.1
		l17.4-5.3l-12.4-13.3l15.5-9.7l-15.5-9.7l12.4-13.3l-17.4-5.3l8.6-16.1l-18.2-0.7l4.1-17.8l-17.8,4.1L141,24.5l-16.1,8.6l-5.3-17.4
		l-13.3,12.4l-9.7-15.5l-9.7,15.5L73.5,15.6l-5.3,17.4l-16.1-8.6l-0.7,18.2l-17.8-4.1l4.1,17.8l-18.2,0.7l8.6,16.1l-17.4,5.3
		l12.4,13.3l-15.5,9.7l15.5,9.7l-12.4,13.3l17.4,5.3L19.5,146l18.2,0.7l-4.1,17.8l17.8-4.1l0.7,18.2l16.1-8.6l5.3,17.4L86.9,175.1
		L86.9,175.1z M96.6,199L86,182.1l-14.6,13.6l-5.9-19.1l-17.6,9.4l-0.7-20l-19.5,4.5l4.5-19.5l-20-0.7l9.4-17.6l-19.1-5.9l13.6-14.6
		l-16.9-10.6L16.1,91L2.5,76.3l19.1-5.9l-9.4-17.6l20-0.7l-4.5-19.5l19.5,4.5l0.7-20l17.6,9.4l5.9-19.1L86,21.1L96.6,4.1l10.6,16.9
		l14.6-13.6l5.9,19.1l17.6-9.4l0.7,20l19.5-4.5L161,52.1l20,0.7l-9.4,17.6l19.1,5.9L177.1,91l16.9,10.6l-16.9,10.6l13.6,14.6
		l-19.1,5.9l9.4,17.6l-20,0.7l4.5,19.5L146,166l-0.7,20l-17.6-9.4l-5.9,19.1l-14.6-13.6L96.6,199z"/>
</g>
</svg>
