<?xml version="1.0" encoding="UTF-8"?>
<svg version="1.1" xmlns="http://www.w3.org/2000/svg" xmlns:xlink="http://www.w3.org/1999/xlink">
  <symbol viewBox="0 0 120 24" id="chartipedia-logo-text">
    <title>Chartipedia logo text</title>
    <defs>
        <polygon id="path-1" points="0 0.0640034778 119.952101 0.0640034778 119.952101 22.6174757 0 22.6174757"></polygon>
        <polygon id="path-3" points="0.0138572173 0.0459739449 5.24633564 0.0459739449 5.24633564 5.54358341 0.0138572173 5.54358341"></polygon>
    </defs>
    <g id="Symbols" stroke="none" stroke-width="1">
        <g id="01/ChartipediaLP/Header/Primary/Light/Desktop" transform="translate(-72.000000, -33.000000)">
            <g id="01/ChartipediaLP/Header/Primary/Dark">
                <g id="Logo_Chartipedia" transform="translate(72.000000, 33.000000)">
                    <g id="Group-3" transform="translate(0.000000, 1.165049)">
                        <mask id="mask-2" fill="white">
                            <use xlink:href="#path-1"></use>
                        </mask>
                        <g id="Clip-2"></g>
                        <path d="M10.2755594,13.3954307 C9.78384188,14.9482413 8.30988282,16.4297779 6.10956628,16.4532689 C3.63140547,16.4532689 1.58075247,14.3513555 1.58075247,11.3170083 C1.58075247,9.83573863 2.1149582,8.45003472 2.88380389,7.61396756 C3.84527872,6.6105268 4.78503206,6.15672279 6.13104909,6.15672279 C7.75419429,6.15672279 9.57044603,7.16016355 10.2970422,9.33361784 L11.9204261,9.33361784 C11.1300976,6.25175469 8.65145941,4.53210442 6.06683937,4.53210442 C2.58447682,4.53210442 -0.000143218694,7.51813483 -0.000143218694,11.3170083 C-0.000143218694,14.7571097 2.28538845,18.1019122 6.1735373,18.1019122 C8.92930368,18.1019122 11.1728245,16.1190556 11.9204261,13.3954307 L10.2755594,13.3954307 Z M14.0782544,17.743674 L15.6589114,17.743674 L15.6589114,10.4326244 C15.6589114,9.26207697 15.9582385,8.21112026 16.5774207,7.44659396 C17.1755974,6.68206767 18.1158281,6.18021382 19.3759139,6.18021382 C20.7434138,6.18021382 21.6406789,6.65804275 22.2603384,7.49410991 C22.8367937,8.33017708 23.0933938,9.50099143 23.0933938,10.8866953 L23.0933938,17.743674 L24.652568,17.743674 L24.652568,10.8148875 C24.652568,8.97537961 24.3539571,7.42256905 23.5633899,6.29980453 C22.772584,5.17677306 21.5767079,4.53210442 19.7606948,4.53210442 C18.1370722,4.48405458 16.3640248,5.29663071 15.6589114,6.99278995 L15.6589114,4.770485 L15.6589114,0.0640034778 L14.0782544,0.0640034778 L14.0782544,17.743674 Z M39.2224445,4.89034264 L37.6413101,4.89034264 L37.6413101,7.5896757 C37.0858603,6.13243093 35.3985054,4.53210442 32.9415887,4.53210442 C29.4382207,4.53210442 26.9810653,7.54215975 26.9810653,11.3170083 C26.9810653,14.8526755 29.2031033,18.1019122 32.9415887,18.1019122 C34.9927191,18.1019122 36.7442837,17.0269306 37.6413101,15.0915899 L37.6413101,17.743674 L39.2224445,17.743674 L39.2224445,4.89034264 Z M28.5409556,11.3170083 C28.5409556,8.45003472 30.4634279,6.15672279 33.112735,6.15672279 C35.1419052,6.15672279 36.680074,7.47061888 37.3212163,9.23858594 C37.5773391,9.85976355 37.7055198,10.5759731 37.6845144,11.2929834 C37.6845144,11.9857019 37.5558563,12.7024453 37.2997335,13.3236229 C36.680074,15.1391059 35.1848708,16.4532689 33.1554619,16.4532689 C29.9934318,16.4532689 28.561961,13.6583701 28.5409556,11.3410332 L28.5409556,11.3170083 Z M42.2983047,17.743674 L43.8579562,17.743674 L43.8579562,10.7433467 C43.8579562,7.82885711 45.0970366,6.27577961 47.318836,6.27577961 L47.4684995,6.27577961 L47.4684995,4.53210442 C46.1224825,4.57962037 44.6270406,5.08120727 43.7939852,6.99278995 L43.7939852,4.89034264 L42.2983047,4.89034264 L42.2983047,17.743674 Z M50.6510576,17.743674 L52.2104705,17.743674 L52.2104705,6.29980453 L54.7313582,6.29980453 L54.7313582,4.89034264 L52.2104705,4.89034264 L52.2104705,0.0640034778 L50.6510576,0.0640034778 L50.6510576,4.89034264 L48.3867701,4.89034264 L48.3867701,6.29980453 L50.6510576,6.29980453 L50.6510576,17.743674 Z M56.4619174,17.743674 L58.0425744,17.743674 L58.0425744,4.89034264 L56.4619174,4.89034264 L56.4619174,17.743674 Z M61.1186733,22.6175291 L62.699569,22.6175291 L62.699569,17.743674 L62.699569,15.1156149 C63.233536,16.4532689 64.8788801,18.1019122 67.4207732,18.1019122 C70.9885896,18.1019122 73.3170869,14.9482413 73.3170869,11.3645243 C73.3170869,8.04374666 71.287678,4.53210442 67.4207732,4.53210442 C65.2206954,4.53210442 63.5543459,5.70238489 62.6141152,7.56591773 L62.6141152,4.89034264 L61.1186733,4.89034264 L61.1186733,22.6175291 Z M71.7359525,11.3170083 C71.7359525,14.2555228 69.7492705,16.4532689 67.1646505,16.4532689 C65.8826045,16.4532689 64.7292166,15.9041661 63.9171666,14.9960242 C63.0838725,14.0641243 62.5931097,12.7742531 62.5931097,11.3410332 C62.5931097,9.88325458 63.0838725,8.5933834 63.8746784,7.66148351 C64.7077338,6.72958362 65.8401162,6.15672279 67.1216849,6.15672279 C70.2192665,6.15672279 71.7359525,8.87981382 71.7359525,11.2929834 L71.7359525,11.3170083 Z M86.903767,11.8183283 C87.0746747,9.76393082 86.4342484,7.78134116 85.1094755,6.34758742 C84.0195812,5.17677306 82.524378,4.53210442 80.9009941,4.53210442 C77.4613585,4.53210442 74.855017,7.56591773 74.855017,11.3410332 C74.855017,14.5419532 76.9271528,18.1019122 80.9219995,18.1019122 C82.0971089,18.1019122 83.2294914,17.743674 84.1907275,17.0509555 C85.1734465,16.3579701 85.9852578,15.3064795 86.5192248,13.9207756 L84.8741194,13.9207756 C84.1267565,15.5934438 82.6955244,16.5728596 80.9219995,16.5728596 C78.9778058,16.5971515 76.5213665,15.044074 76.4359126,11.8183283 L86.903767,11.8183283 Z M76.4573954,10.4091333 C76.607059,8.06777158 78.4440774,6.03686514 80.9219995,6.03686514 C83.2934624,5.96532427 85.2376562,8.16333736 85.3441154,10.4091333 L76.4573954,10.4091333 Z M100.640111,0.0640034778 L99.0594537,0.0640034778 L99.0594537,4.770485 L99.0594537,7.49410991 C98.5464921,6.15672279 96.8801426,4.53210442 94.3597322,4.53210442 C90.9198579,4.53210442 88.4416971,7.47061888 88.4416971,11.2929834 C88.4416971,14.9007253 90.7059847,18.1019122 94.3807376,18.1019122 C96.7734446,18.1019122 98.311136,16.7877492 99.1236634,15.0915899 L99.1236634,17.743674 L100.640111,17.743674 L100.640111,0.0640034778 Z M90.0015874,11.2929834 C90.0015874,8.40225183 91.9450651,6.15672279 94.5943722,6.15672279 C95.8761795,6.15672279 97.0298061,6.7055587 97.8416174,7.63745859 C98.6746728,8.54586745 99.1659129,9.78795574 99.1659129,11.2452005 C99.2091172,12.6784204 98.7178771,13.9925834 97.8843443,14.9482413 C97.0722943,15.8801412 95.8974236,16.4532689 94.615855,16.4532689 C91.6249713,16.4532689 90.0225928,13.8972846 90.0015874,11.3170083 L90.0015874,11.2929834 Z M103.758936,17.743674 L105.339593,17.743674 L105.339593,4.89034264 L103.758936,4.89034264 L103.758936,17.743674 Z M119.952197,4.89034264 L118.371301,4.89034264 L118.371301,7.5896757 C117.815851,6.13243093 116.128019,4.53210442 113.671102,4.53210442 C110.167496,4.53210442 107.711056,7.54215975 107.711056,11.3170083 C107.711056,14.8526755 109.932856,18.1019122 113.671102,18.1019122 C115.722233,18.1019122 117.474275,17.0269306 118.371301,15.0915899 L118.371301,17.743674 L119.952197,17.743674 L119.952197,4.89034264 Z M109.270469,11.3170083 C109.270469,8.45003472 111.192941,6.15672279 113.842249,6.15672279 C115.871896,6.15672279 117.409588,7.47061888 118.05073,9.23858594 C118.306853,9.85976355 118.435272,10.5759731 118.413789,11.2929834 C118.413789,11.9857019 118.285847,12.7024453 118.029008,13.3236229 C117.409588,15.1391059 115.914146,16.4532689 113.884737,16.4532689 C110.722945,16.4532689 109.291713,13.6583701 109.270469,11.3410332 L109.270469,11.3170083 Z" id="text" mask="url(#mask-2)"></path>
                    </g>
                </g>
            </g>
        </g>
    </g>
  </symbol>
  <symbol viewBox="0 0 120 24" id="chartipedia-logo-symbols">
    <title>Chartipedia logo symbols</title>
    <defs>
        <polygon id="path-1" points="0 0.0640034778 119.952101 0.0640034778 119.952101 22.6174757 0 22.6174757"></polygon>
        <polygon id="path-3" points="0.0138572173 0.0459739449 5.24633564 0.0459739449 5.24633564 5.54358341 0.0138572173 5.54358341"></polygon>
    </defs>
    <g id="Symbols" stroke="none" stroke-width="1">
        <g id="01/ChartipediaLP/Header/Primary/Light/Desktop" transform="translate(-72.000000, -33.000000)">
            <g id="01/ChartipediaLP/Header/Primary/Dark">
                <g id="Logo_Chartipedia" transform="translate(72.000000, 33.000000)">
                    <path d="M57.3563218,5.59223301 C58.8163526,5.59223301 60,4.34020629 60,2.79582961 C60,1.25145292 58.8163526,0 57.3563218,0 C55.8962911,0 54.7126437,1.25145292 54.7126437,2.79582961 C54.7126437,4.34020629 55.8962911,5.59223301 57.3563218,5.59223301" id="circle"></path>
                    <g id="Group-8" transform="translate(102.298851, 0.000000)">
                        <mask id="mask-4" fill="white">
                            <use xlink:href="#path-3"></use>
                        </mask>
                        <g id="Clip-7"></g>
                        <polygon mask="url(#mask-4)" points="2.63023066 0.0458893303 0.0138572173 5.54358341 5.24633564 5.54358341"></polygon>
                    </g>
                </g>
            </g>
        </g>
    </g>
  </symbol>
  <symbol viewBox="0 0 387 368" id="triangle">
    <path d="M73.396 511.343L441.629 511.48 257.375 143.267z" transform="rotate(84 320.623 215.81)"/>
  </symbol>
  <symbol viewBox="0 0 1040 1040" id="share">
    <polygon class="cls-1" points="1037.83 1041.92 -4.62 1041.9 -4.62 391.92 157.38 391.96 157.36 476.92 80.38 476.9 80.38 956.92 952.38 956.93 951.32 476.92 875.38 476.91 875.39 391.92 1036.38 391.93 1037.83 1041.92"/>
    <polygon points="806.47 287.86 516.9 -2.24 226.95 287.82 287.05 347.95 474.38 160.56 474.38 653.92 559.38 653.92 559.38 160.66 746.32 347.95 806.47 287.86"/>
  </symbol>
  <symbol viewBox="0 0 1040 1040" id="heart">
    <path class="cls-1" d="M345.32,86.48l105,149.27,69.85,99.34,69.46-99.6L693.48,86.54H855.92l97.57,195.13L954,486,518.85,915l-434-424V281.51l97.52-195H345.32m44.16-85H129.84l-130,260V526.75L519.11,1034.1l520-512.59-.63-260-130-260H649.11L519.84,186.84,389.48,1.44Z"/>
  </symbol>
  <symbol viewBox="0 0 1040 1040" id="bookmark">
    <path class="cls-1" d="M345.4,85.05l349.2,0V826.33L581.43,706.63l-61.88-65.46-61.79,65.54L345.4,825.88V85.05m-85-85V1040.05l259.28-275,260,275V.05L260.36,0Z"/>
  </symbol>
  <symbol id="thumb" viewBox="0 0 1040 1040">
    <path class="cls-1" d="M523,230.46,563.45,280l.31,142.55.19,84.77,84.76.08,249.47.25L722.47,856.7l-378.53.5V452.36L523,230.46m-.39-134.92L258.9,422.33v520l516-.68,261.21-518.95-387.32-.39-.38-172.75-125.79-154Z"/>
    <polygon class="cls-1" points="129.7 418.7 0 418.7 0 944.46 129.7 944.46 129.7 418.7 129.7 418.7"/>
  </symbol>
  <symbol id="people" viewBox="0 0 1040 1040">
    <path class="cls-1" d="M325,301.43a43.46,43.46,0,1,1-43.46,43.46A43.51,43.51,0,0,1,325,301.43m0-85a128.5,128.5,0,1,0,128.5,128.5A128.5,128.5,0,0,0,325,216.39Z"/>
    <path class="cls-1" d="M714,249.43a43.46,43.46,0,1,1-43.46,43.46A43.51,43.51,0,0,1,714,249.43m0-85a128.5,128.5,0,1,0,128.5,128.5A128.5,128.5,0,0,0,714,164.39Z"/>
    <path class="cls-1" d="M1038.54,612.39l-129-130h-391l-70.95,71.5H129.47l-129,130v200h649v-71.5h389.07ZM564.43,798.85H85.51V718.92l79.38-80H485.05l79.38,80Zm389.07-71.5h-304V683.89L543.93,577.53l10-10.1H874.12l79.38,80Z"/>
  </symbol>
  <symbol id="chat-box" viewBox="0 0 1040 1040">
    <path d="M85.67,110.78l868.59,1.69-.6,559.41H301.1l-23.07,18L85.91,840.07l-.24-729.29M.61,25.57l.32,988.86L330.4,756.92h708.2l.79-729.33L.61,25.57Z"/>
  </symbol>
</svg>