<svg xmlns="http://www.w3.org/2000/svg" width="15" height="19" viewBox="0 0 15 19">
    <defs>
        <filter id="prefix__a">
            <feColorMatrix in="SourceGraphic" values="0 0 0 0 0.298039 0 0 0 0 0.564706 0 0 0 0 1.000000 0 0 0 1.000000 0"/>
        </filter>
    </defs>
    <g fill="none" fill-rule="evenodd" filter="url(#prefix__a)" transform="translate(0 -3)">
        <path fill="#4c90ff" d="M14.237 3.202c-.674-.393-1.873-.217-2.212.565l-3.412 7.87-1.655 3.816c-.275.636-.55 1.272-.827 1.908-.065.15-.128.332-.195.525l-.082-.122c-.32-.481-.633-.966-.942-1.453-.66-1.046-1.292-2.109-1.903-3.183-1.01-1.773-3.803-.186-2.792 1.59 1.18 2.071 2.368 4.355 3.932 6.184.645.755 1.59 1.334 2.644 1.002 1.066-.335 1.424-1.325 1.82-2.238l6.204-14.31c.342-.788.236-1.677-.58-2.154"/>
    </g>
</svg>
