<?xml version="1.0" encoding="UTF-8"?> <svg xmlns="http://www.w3.org/2000/svg" viewBox="0 0 140 140"><defs><style>.cls-1{fill:#c60e47;}.cls-2{fill:#492f90;}.cls-3{fill:#30241c;}.cls-4{fill:#fff;}.cls-5{fill:#221989;}.cls-6{fill:#f93168;}.cls-7{fill:#2b1f66;}</style></defs><g id="Layer_3" data-name="Layer 3"><polygon class="cls-1" points="91.35 31.69 91.5 31.68 91.34 31.68 91.35 31.69"></polygon><polygon class="cls-1" points="77.77 36.15 77.61 36.17 77.77 36.16 77.77 36.15"></polygon><path class="cls-1" d="M71.28,30.92l-.1.14.11-.13Z"></path><path class="cls-1" d="M97.32,37.5l.11-.14-.12.13Z"></path><path class="cls-1" d="M64.38,36.79l.09-.1-.09,0Z"></path><path class="cls-1" d="M112.73,45.86c-.35-.43-.26-.88.08-1V18h-.06a.35.35,0,0,1,.06-.64V17H97.91l0,.05a.45.45,0,0,1-.63-.05H81c.85.38-.3,2-1,1a.73.73,0,0,1,.25-.83.4.4,0,0,1-.3-.13H64.38V31.56c.2,0,.41-.06.54.13l0,.21c-.19.17-.33.16-.52.26v4l.08-.07a.39.39,0,0,1,.31.71l0,.11-.1.2a.25.25,0,0,1-.32-.1V47.29h6.06v6.05l2.89-3.48h-.09l-.11-.12a.44.44,0,0,1,.08-.33l.16-.11h0a.28.28,0,0,1,.25.23l1.85-2.23h23.4L99,47l.25,0a.43.43,0,0,1,0,.36h13.53V45.87ZM111.61,30.5l.32.32-.07.28h0c-.23.12-.35.45-.65.37l-.14-.18c0-.33.19-.4.26-.71Zm-.47-2.89,0,.17a.23.23,0,0,1-.36,0v-.21l0,0v-.1c.12-.1.25,0,.3,0h0ZM111,19.18l.08.1a.3.3,0,0,1-.09.22l-.14.06c-.11,0-.14-.16-.19-.25S110.88,19.13,111,19.18Zm-.43-1.77c.53.49,0,1.31-.65.67A.48.48,0,0,1,110.59,17.41Zm-1.28,6.72c.1.05.13.16.19.24s-.35.2-.44.05S109.19,24.18,109.31,24.13Zm-3.19-6.82c.57.56-.28,1.36-1,.77h0C104.65,17.48,105.64,16.8,106.12,17.31Zm-.76,13.58-.27-.25.19,0a.16.16,0,0,1,.06.09h0Zm-.23-7.21c.21.4-.42.67-.57.29S105,23.32,105.13,23.68ZM104.45,32a.27.27,0,0,1,.22,0,.34.34,0,0,1,.13.24l-.19.18h0l-.08.08c-.23,0-.21-.24-.23-.34Zm-.6-13.22c.28,0,.46.51.11.54v-.18s0,0-.07,0-.16-.23,0-.2Zm.13.77.18.18,0,.17a.51.51,0,0,1-.36.34C103.16,20.3,103.28,19.28,104,19.5Zm-4,3.3a.64.64,0,0,1,.15,1.24C99.28,24.35,99.08,22.75,100,22.8Zm-1.35,1.48.12.26,0-.06a.33.33,0,0,1,.07.22l-.24.16a.19.19,0,0,0-.12,0l-.17-.14A.32.32,0,0,1,98.67,24.28Zm-.26,3.36c-.25-.12,0-.55.2-.48S98.67,27.72,98.41,27.64Zm-.93,10.15-.14-.14s0,0,0,.05-.11-.17-.16-.26h0L97,37.31c.11-.12.28-.06.4,0A.3.3,0,0,1,97.48,37.79Zm0-1.32h0a.32.32,0,0,1-.06.46l-.2,0c0-.07,0-.16-.09-.24l0-.17A.23.23,0,0,1,97.46,36.47Zm-.67-17.1c1.16.83-.58,2-1,.61C95.79,19.48,96.37,19.24,96.79,19.37Zm-2.38,6.36a.46.46,0,0,1-.75.43h0a.36.36,0,0,1,0-.4h0C93.65,25.35,94.28,25.33,94.41,25.73Zm-.33,7.63-.42,0,.15-.17a.21.21,0,0,1,.12,0ZM93.58,19a.66.66,0,0,1,.12.32C93.34,19.71,92.9,18.92,93.58,19Zm-.49,5.09.19-.16c.17.05.18.19.22.29a.05.05,0,0,0,0,0l.22.18h0c-.12.3-.33.15-.5.06l-.11-.23C93.09,24.13,93.1,24.11,93.09,24.07Zm-2.88-3.21h0a.35.35,0,0,1-.34.62A.35.35,0,0,1,90.21,20.86Zm-3.13-.19h0v-.19a.26.26,0,0,1,.25.27c0,.15-.08.31-.25.31v-.19a.11.11,0,0,1-.06,0C87,20.77,87.08,20.76,87.08,20.67ZM86.35,42.3a.44.44,0,1,1-.86,0A.46.46,0,0,1,86.35,42.3Zm-.94,2.38c-.31-.12-.06-.54.21-.5h0C85.94,44.3,85.68,44.72,85.41,44.68Zm.17-9.62c.2.28-.14.66-.37.34S85.35,34.74,85.58,35.06ZM80.05,38.2l.17.36-.2-.05C80,38.42,80,38.29,80.05,38.2Zm-5.22-6.92c.14,0,.23.13.34.2.06.27-.32.41-.52.27h0C74.5,31.57,74.71,31.4,74.83,31.28Zm-.28-6.8.14.09a.46.46,0,0,1,0,.31l-.15.14c-.15,0-.24-.13-.34-.21S74.35,24.49,74.55,24.48ZM74,28.33a.45.45,0,0,1,0,.9A.45.45,0,0,1,74,28.33Zm-1.9-10c.2.38-.4.48-.61.3v-.25C71.7,18.17,71.9,18.27,72.11,18.29Zm-1,12.35.14.12s0,0,0,0,.12.16.19.24h0l.14.12a.29.29,0,0,1-.41,0A.29.29,0,0,1,71.1,30.64Zm0,13.37A.32.32,0,0,1,71,43.8l.22-.18a.35.35,0,0,0,.13,0l.18.12a.32.32,0,0,1-.33.43L71,44ZM68.87,19.17a.67.67,0,0,1,.25.25v0c.42.44-.16,1.06-.75.8a.71.71,0,0,1-.28-.36C67,19.39,68.46,18.06,68.87,19.17ZM69,21a2.17,2.17,0,0,0-.22.65l-.25.07a.47.47,0,0,1-.08-.38h0a.85.85,0,0,1,.35-.53ZM64.74,40.05,64.6,40c-.18-.4.33-.74.44-.25A.32.32,0,0,1,64.74,40.05Zm.42-20.66a.48.48,0,1,1,.55-.78A.51.51,0,0,1,65.16,19.39Zm.56,3.07a3.11,3.11,0,0,0,.65-.55l.3.09c.07.41-.51.81-.87.79Zm.7,8.53h-.14l-.06-.06a.43.43,0,0,1-.09-.2l0-.17C66.46,30.33,66.75,30.83,66.42,31ZM67,24c-1.06-.17-.83-1.91.43-1.31C68.13,23.09,67.83,24.28,67,24Zm.91,17.63c.91-.22,1,1.4,0,1.26A.65.65,0,0,1,67.92,41.67Zm.55,3.49c-.41-.27,0-.83.44-.54C69.24,44.92,68.81,45.39,68.47,45.16ZM69,33.87h0l.07-.19c-.12.06-.18-.33,0-.25l.07-.19C69.39,33.34,69.35,34,69,33.87Zm.34.32h0l0,0V34C69.9,33.33,70,34.63,69.3,34.19Zm.46,4.52c-.23-.15,0-.55.24-.46S70,38.81,69.76,38.71ZM69.8,23a.64.64,0,0,1,.24-.29h0l.06-.07c.69-.54,1.31.79.51,1.12C70.22,25,68.67,23.58,69.8,23Zm.45,13.16.2-.22c.18,0,.47.27.26.52S70.21,36.44,70.25,36.2Zm.61,10.44c-1.08-.93.76-2,1-.51C71.86,46.62,71.26,46.81,70.86,46.64Zm1.21-17.06a.23.23,0,0,1-.3,0h0a.32.32,0,0,1,.1-.45l.2.06c0,.08,0,.17.06.25ZM72,27h0c-.84-.18,0-1.24.46-.62C72.72,26.67,72.38,27,72,27ZM73.11,39.9c-.63-.3.12-1.4.53-.68h0C74,39.53,73.54,40.06,73.11,39.9Zm1.48.27h0a.34.34,0,0,1,0,.4h0c-.08.4-.71.37-.8,0A.46.46,0,0,1,74.59,40.17ZM74,47.32c-.09-.09-.07-.22-.1-.33C74.32,46.61,74.68,47.44,74,47.32Zm1-5-.21.14c-.16-.06-.15-.2-.18-.3l0,0-.2-.2h0c.15-.29.34-.12.5,0l.09.23A.19.19,0,0,0,75,42.3Zm.13-9.12a.27.27,0,0,1-.12,0L74.84,33l.42.07Zm-.16-5A.23.23,0,0,1,75,28h0a.35.35,0,0,1,.58.33C75.37,28.64,75.12,28.3,74.94,28.18Zm2.25-8.87h0c-.21.24-.52,0-.57-.28a.62.62,0,0,1-1-.75c.33-.47,1.25-.4,1.22.26a.36.36,0,0,1,.18,0c.71-.58,1,1,.16.8Zm.35,26.45h0a.35.35,0,0,1,.4-.58A.35.35,0,0,1,77.54,45.76Zm.31-9.31c-.14,0-.23-.13-.24-.28s.07-.3.23-.31V36a.06.06,0,0,1,.06,0c0,.14,0,.18-.06.27h0Zm.31-10.22c-.9.38-.86-1.18,0-.66h0A.44.44,0,0,1,78.16,26.23Zm.67,11,0-.21.11-.17a.48.48,0,0,1,.41,0l.1,0,.1.26c-.13.15-.29.09-.47.18Zm1.44,2.18a.4.4,0,0,1-.79,0,.4.4,0,0,1,.79,0Zm.37,6.84h0a0,0,0,0,1,0,0v.19c-.17,0-.23-.15-.23-.29s.11-.31.27-.29V46a.07.07,0,0,1,.06,0C80.73,46.15,80.65,46.15,80.64,46.24Zm.21-17c-.26-.55.67-.92.8-.31C81.74,29.21,81.1,29.58,80.85,29.19Zm1.33,9.13c-.16,0-.19-.14-.26-.21l-.11-.21c.17-.35.57,0,.55.27Zm-.42-13.2a.44.44,0,1,1,.85-.1A.46.46,0,0,1,81.76,25.12Zm.55-1.94h0c-.32-.09-.11-.53.16-.51S82.58,23.2,82.31,23.18Zm-.61-1.13c-.81-.44.09-1.55.79-1.12S82.41,22.29,81.7,22.05Zm1.77,10c-.17-.29.2-.64.39-.3S83.66,32.39,83.47,32.05ZM84,26.84l-.42.06-.17-.22c0-.24-.15-.52.09-.71h.22c.22.22.19.38.38.61Zm.8,14.46-.22,0c-.2-.24-.16-.39-.33-.64l.13-.25.42,0,.15.23C84.84,40.84,85,41.14,84.75,41.3Zm.49,5.1c-.57-.5.2-1.34.89-1C86.89,45.88,85.89,46.9,85.24,46.4Zm.87-17.53.17-.17c.16,0,.2.12.28.19l.12.2C86.55,29.45,86.12,29.11,86.11,28.87Zm.7,9.7c-.06-.34.61-.65.82-.23S86.88,39.19,86.81,38.57Zm1.6-9.95-.2-.34.2,0C88.48,28.4,88.42,28.53,88.41,28.62Zm-.33-1.17h0a.4.4,0,0,1,.79-.09A.4.4,0,0,1,88.08,27.45Zm1-8.9h0a.56.56,0,0,1-.46-1C89.29,17.16,90.15,18.23,89.12,18.55Zm.57,12c.14-.13.3-.06.49-.13l.21.14v.22l-.13.16a.54.54,0,0,1-.41-.08.18.18,0,0,0-.09,0ZM90,42.19h0a.46.46,0,0,1,.07-.66C91,41.23,90.79,42.79,90,42.19ZM91.25,32V31.8s0,0,0,0,0-.17.07-.26,0,0,0,0v-.16c.15,0,.22.15.21.29S91.41,32,91.25,32Zm1.55,7.71c.23-.29.45.07.62.2a.23.23,0,0,1-.08.18h0A.35.35,0,0,1,92.8,39.68Zm.67,3.93-.13-.1a.46.46,0,0,1,0-.32l.16-.12c.15,0,.23.16.32.24S93.67,43.62,93.47,43.61Zm.35-6.8c-.14,0-.22-.15-.32-.23,0-.28.36-.38.54-.22h0C94.17,36.56,94,36.7,93.82,36.81Zm.54,3a.45.45,0,0,1,0-.9A.45.45,0,0,1,94.36,39.82ZM94.7,27h0c-.34-.29,0-.85.46-.73C95.82,26.53,95.18,27.69,94.7,27Zm1,14.91c-.2-.34.17-.67.51-.58h0C97,41.61,96.12,42.59,95.7,41.93Zm2.37,3.55a.77.77,0,0,1-.27.27v0l-.08.07c-.73.47-1.22-.91-.4-1.16C97.83,43.5,99.24,45,98.07,45.48Zm.54-12.95c-.17-.05-.44-.31-.2-.53s.49.1.43.34Zm.3-11.33a.35.35,0,0,1,.39-.58C99.73,20.86,99.43,21.45,98.91,21.2Zm.58,10.42h0l0,0v.16C99,32.54,98.79,31.24,99.49,31.62Zm.32,3.59-.08.18c-.3-.13-.21-.77.17-.61h0l-.08.18C99.94,34.91,100,35.3,99.81,35.21Zm.58,10.8c-.66-.42-.24-1.58.55-1.27C102,45,101.59,46.72,100.39,46Zm1,.92-.29-.12c0-.42.58-.77.93-.71l0,.33h0A3,3,0,0,0,101.38,46.93Zm1.56-12c-.27.26-.6-.22-.29-.4h.14l.07.05a.38.38,0,0,1,.1.2Zm.28-9.21a.32.32,0,0,1,.27-.38l.14.1C103.85,25.83,103.37,26.22,103.22,25.74Zm1,3s.09.16.1.2l0,.23-.11.12C103.38,29.54,103.41,28.16,104.18,28.74Zm-.42,8.37c.25-.17.39-.12.63-.25l.23.14,0,.4-.23.12c-.22-.08-.51,0-.64-.21Zm.45,3v0c.76-.76,1,1.17,0,.7A.42.42,0,0,1,104.21,40.07Zm1.07,6.25a.39.39,0,0,1-.2.12c.08.27-.24.46-.45.48s-.5-.61-.13-.75c-.24-1,1.42-.53.78.15ZM105,42.26h0c-.07-.41.4-.32.63-.37C106,42.27,105.22,42.7,105,42.26Zm1-19.57c.09-.41.77-.27.67.14h0C106.79,23.43,105.89,23.17,106,22.69Zm.69,7.89a.42.42,0,0,1-.16,0h0l-.11,0-.12-.14c0-.48.54-.25.55.06ZM108,24.34l.09-.13a.37.37,0,0,1,.31,0l.14.12a.26.26,0,0,1-.2.3A.28.28,0,0,1,108,24.34Zm.59,11.85.19,0s0,0,0,0l.16,0C109.12,36.77,108,36.81,108.54,36.19Zm.09,6.7-.07-.18c0-.2.15-.23.23-.32l.22,0C109.44,42.57,109,43.2,108.63,42.89Zm.09-2c.15-.4.8-.48.9,0C109.78,41.7,108.44,41.76,108.72,40.94Zm.52-14h0c-.06-.37.49-.55.71-.23C110.26,27.26,109.19,27.69,109.24,27Zm1.25,19a.81.81,0,0,1-.34-1.38C111.4,43.88,111.93,45.87,110.49,46Zm.91-9s0-.21.07-.26h0l.24-.17h.19C112.77,37,111.58,38.15,111.4,37Z"></path><polygon class="cls-2" points="111.95 72.58 111.8 72.63 111.95 72.59 111.95 72.58"></polygon><path class="cls-2" d="M104.55,68.75l-.06.16.08-.16Z"></path><path class="cls-2" d="M125.77,96.17l.12-.09h0l-.13.08S125.77,96.16,125.77,96.17Z"></path><polygon class="cls-2" points="121.37 89.1 121.53 89.13 121.38 89.08 121.37 89.1"></polygon><path class="cls-2" d="M125.85,96.49l-.09-.16s0,0-.06,0-.06-.19-.09-.29h0l-.09-.15c.13-.08.27,0,.36.12V59.66a.4.4,0,0,1-.35,0,.35.35,0,0,1-.12-.38h0a.38.38,0,0,1,.48-.38V47.41l-10.37,4.5a.44.44,0,0,1-.11.18.38.38,0,0,1-.4,0l-3.35,1.46c.13.56-.49,1.45-1.18.75h0a.72.72,0,0,1-.09-.2l-2.88,1.24a.78.78,0,0,1,0,.14.35.35,0,0,1,.16-.08c.59-.7,1.24.82.33.76h0c-.15.28-.5.15-.61-.16a.61.61,0,0,1-1.07-.15l-6,2.61a.65.65,0,0,1-.74.37l0,0L82.84,66.06v1.6a.62.62,0,0,1,.41,0,.8.8,0,0,1,.38-.1v0c1-.2.79,1.47-.16,1.24a.69.69,0,0,1-.54.15.47.47,0,0,1-.1,0V85.3h0v2.62a.28.28,0,0,1,.22.32.29.29,0,0,1-.22.22v.23c.37.21.51.91,0,1.09v2.56a.59.59,0,0,1,0,.27h0v.85l1.52.6,0,0c0-.13.1-.14.16-.19h.16c.08.07.07.2.09.29s-.07,0-.1.06l6.17,2.46c0-.16.07-.3.26-.26l0,.17a.09.09,0,0,1,.07,0,.26.26,0,0,1,0,.2l13.29,5.3a.68.68,0,0,1,.44-.11h0a.57.57,0,0,1,.46.47l6.89,2.75c.37-.29.94-.34,1.11.35h0a.14.14,0,0,1,0,.09l12.59,5V96.45S125.87,96.48,125.85,96.49ZM107.62,65.14a.35.35,0,0,1,.63.21c-.14.34-.46.06-.66,0a.34.34,0,0,1,0-.2Zm-2.52,9.18c-.2.29-.5.05-.51-.2l.16-.25C104.93,73.87,105.26,74,105.1,74.32Zm-2.24-2.86c.32,0,.42.67,0,.63h0l0-.19c-.11.08-.24-.29-.07-.25Zm-3.7-10c.75.21.69,1.44-.16,1.37C97.93,62.9,97.81,61.15,99.16,61.48ZM93.54,85.15l0-.19.17.32-.19,0a.26.26,0,0,1,0-.1Zm-.89-16.42c0,.44-.63.7-.87.27C91.41,68.32,92.68,67.88,92.65,68.73Zm-.59,10c-.08-.58,1-.24.27.16l-.17-.08a.08.08,0,0,0,0,0Zm.11-11.91.11.16a.53.53,0,0,1-.12.37l-.2.11C91.49,67.39,91.7,66.66,92.17,66.84Zm-.34,16.93.2.12s0,0-.06,0l.17.12C92.14,84.72,90.86,84.12,91.83,83.77Zm-4-15.68-.24.13c-.15-.11-.11-.27-.21-.43l.1-.22.19,0,.18.09C88,67.84,87.86,67.94,87.84,68.09Zm-4.59,2.26a0,0,0,0,1,0,0l0-.21a.29.29,0,0,1,.24.35c0,.18-.15.34-.35.31h0l0-.22a.11.11,0,0,1-.07,0C83.14,70.45,83.23,70.45,83.25,70.35Zm-.35,4.49a.47.47,0,0,1,.79.52A.47.47,0,0,1,82.9,74.84Zm.35,7.59c0-.25.42-.31.38,0S83.22,82.74,83.25,82.43Zm.19-.78V81.5C84,80.83,84.05,82.12,83.44,81.65Zm1.85-7.08-.46.16-.24-.21a.44.44,0,0,0-.06-.25.75.75,0,0,1-.07-.23c-.9.46-.56-.94.05-.28,0,0,0,0,0-.05l.25-.06c.29.2.3.39.56.61Zm.55,2.72c-.38.19-.43-.28-.2-.43l.18,0a1.55,1.55,0,0,1,.07.23Zm.72,1.87-.12.18c-.43.12-.53-.58-.09-.61l.16.08h0A.44.44,0,0,1,86.56,79.16Zm.83-14c.55.37.5,1,0,1.14C86.62,66.38,86.61,65.08,87.39,65.19Zm0,21,0,.09c-.15.06-.24-.09-.27-.14h0l0,0,0-.17a.22.22,0,0,1,.35.08l-.07.19Zm.25,3.8c-.08-.08-.07-.2-.1-.29s.4-.08.44.1S87.76,90,87.63,90Zm.27-2.68c-.13-.59,1-.64.73,0h0C88.58,87.75,88,87.74,87.9,87.36ZM89,90.29l-.12.09a.42.42,0,0,1-.3-.1l-.09-.16a.26.26,0,0,1,.29-.22A.28.28,0,0,1,89,90.29Zm.42-14.73a.19.19,0,0,0,.07-.12l.24-.15c.19.09.17.25.19.37a.09.09,0,0,0-.05,0l.22.25a.27.27,0,0,1-.27.16c-.13,0-.22-.13-.31-.2Zm.85,16.91c-.21.36-.81,0-.58-.35h0C89.78,91.53,90.55,92.07,90.25,92.47Zm0-26.82c-1,1-2.07-.71-.72-1.22A.81.81,0,0,1,90.22,65.65Zm.64,8.2c-1-.15-.15-1.62.36-.57a.66.66,0,0,1,0,.28h0l-.17.23Zm.28,22.32L91,95.94v-.18a.52.52,0,0,1,.45-.2C92.18,95.68,91.73,96.61,91.14,96.17Zm.28-4.33a.32.32,0,0,1,.64-.09A.32.32,0,0,1,91.42,91.84Zm.59-7,.2-.09a.6.6,0,0,1,.13.09h0a.33.33,0,0,0,.1.06l.07.18C92.31,85.57,91.91,85.19,92,84.89Zm1.13-5.48-.25.16-.39-.21,0-.29h0c.19-.18.21-.53.51-.55l.2.14C93.24,79,93.12,79.1,93.14,79.41Zm.4,11.38-.11-.13c-.08-.43.5-.63.48-.13A.31.31,0,0,1,93.54,90.79ZM94,87.38s0-.18,0-.23l.12-.2.14-.08C95,86.89,94.53,88.17,94,87.38Zm.38-24.79h0a.44.44,0,0,1,.16-.17c-.15-.24.1-.51.3-.59.37,0,.65.44.34.68C95.71,63.43,94,63.43,94.38,62.59Zm1.44,3.81h0c.19.37-.29.43-.49.53C94.88,66.68,95.49,66,95.82,66.4Zm.1,30.25c-.33-.36.16-.82.56-.41C96.73,96.6,96.2,97,95.92,96.65Zm0-2.29a.65.65,0,0,1,.27-1.23C97.18,93.13,96.84,94.72,96,94.36ZM97,67.62a.42.42,0,0,1,.2.65l0,0C96.73,69.23,96,67.45,97,67.62Zm.34,14.78-.13,0,0-.07a.45.45,0,0,1,0-.22l.07-.15C97.55,81.77,97.71,82.33,97.35,82.4Zm.07-20.84a2.9,2.9,0,0,0,.53-.67l.31,0c.16.39-.34.9-.69.95Zm.38,9.2c.23,0,.48-.19.67,0l0,.21c-.19.23-.34.22-.53.42l-.26-.07-.1-.39Zm.09,27.9c-.83-1.16,1.21-1.72,1.12-.25A.72.72,0,0,1,97.89,98.66Zm.84-8c-.19-.2.13-.54.35-.39S99,90.86,98.73,90.7Zm.38-14.55a.35.35,0,0,1-.19-.19l.12-.23h0l0-.1c.23,0,.27.17.32.26l-.06.21A.26.26,0,0,1,99.11,76.15Zm.27,10h0v0l0-.15C100.16,85.51,99.91,86.79,99.38,86.2Zm.84-26-.22.11a.4.4,0,0,1-.15-.35h0a.78.78,0,0,1,.23-.59l.23.15A2.54,2.54,0,0,0,100.22,60.16Zm.57,39.93a.6.6,0,0,1,0-.35C101.25,99.47,101.4,100.36,100.79,100.09Zm.74-38.77a.67.67,0,0,1,.19-.34h0l0-.08c.57-.66,1.44.52.72,1C102.34,63.14,100.53,62.08,101.53,61.32Zm.17,31.34c-.55-.44.45-1.33.67-.53h0C102.6,92.51,102.07,92.92,101.7,92.66Zm1.22,2.78-.23.09c-.14-.1-.1-.24-.11-.34s0,0,0,0l-.15-.24h0c.22-.25.36,0,.49.11l0,.25S102.93,95.4,102.92,95.44Zm.07-1.76c-.17.37-.77.18-.77-.24a.46.46,0,0,1,.85-.16c.08.11,0,.31-.08.39Zm.19-11.29a.22.22,0,0,1-.29-.1c-.08-.15,0-.35.21-.41l.17.11a2.26,2.26,0,0,1,0,.26ZM104.83,64a.42.42,0,0,1-.32.71h0C103.65,64.73,104.24,63.52,104.83,64Zm-.51,4.48.17.09a.06.06,0,0,1,0-.06c.15,0,.15.14.22.21h0l.16.09c-.07.14-.26.14-.4.07A.3.3,0,0,1,104.32,68.51Zm.26,30.91h0a.35.35,0,0,1,.53-.47A.35.35,0,0,1,104.58,99.42Zm.67-12.8a.26.26,0,0,1-.11-.07l-.09-.2.39.16Zm1.22-24.83.16.05a.43.43,0,0,1,.06.31l-.12.17c-.14,0-.26-.09-.37-.14A.31.31,0,0,1,106.47,61.79Zm.25,3.87a.45.45,0,0,1,.22.87A.45.45,0,0,1,106.72,65.66Zm.36,16.13-.19-.21a.12.12,0,0,0,0,0,.46.46,0,0,1-.13-.19l.18-.22c.06,0,.09,0,.13,0l.21.09A.33.33,0,0,1,107.08,81.79Zm.4,18.84h0l-.06.18a.24.24,0,0,1-.15-.33.28.28,0,0,1,.34-.22l-.06.19a.07.07,0,0,1,.06,0C107.59,100.57,107.5,100.55,107.48,100.63Zm.62-32.23c.14,0,.26.08.38.12.11.26-.24.47-.45.37h0C107.84,68.74,108,68.54,108.1,68.4Zm.67,25.5a.4.4,0,0,1-.77-.18.4.4,0,0,1,.77.18Zm0-.92c0-.1.06-.21.1-.29l.08.39Zm1.63-30.2c-.82.55-1.09-1-.13-.65h0A.45.45,0,0,1,110.37,62.78Zm.72,30.44-.21.1c-.15-.07-.15-.18-.2-.27l-.05-.23C110.87,92.52,111.17,93,111.09,93.22ZM113.83,59h0c-.34,0-.22-.5,0-.54S114.09,58.93,113.83,59Zm-.28-2.24c.69.32.2,1.35-.55,1.25C112.12,57.71,112.78,56.44,113.55,56.73ZM113.62,73l.1,0,.16.23c-.1.17-.28.15-.43.27l-.24-.08-.08-.2.08-.2A.56.56,0,0,1,113.62,73Zm-1.16,22.86.42.09.09.26c-.11.21,0,.54-.31.64l-.22-.07c-.13-.28,0-.42-.16-.7Zm0,4.43c-.28-.2.07-.54.32-.44h0C113.09,100,112.74,100.38,112.49,100.27Zm-.69-27.64a.28.28,0,0,1,.16-.35l.05.16s0,0,0,0,0,.18,0,.28h0l0,.15c-.14,0-.25-.08-.29-.22Zm.1,29.27c-.43-.63.52-1.26,1.11-.79C113.63,101.79,112.41,102.54,111.9,101.9Zm1.23-3.9a.45.45,0,0,1,.83.19A.43.43,0,1,1,113.13,98Zm.51-10.46c-.09-.32.35-.57.46-.19S113.75,87.92,113.64,87.54Zm0-22.4c-.36-.49.47-1,.72-.46C114.47,65,113.91,65.48,113.59,65.14Zm.08-4.17a.43.43,0,1,1,.81-.26A.45.45,0,0,1,113.67,61Zm11.64,45.19h0a.78.78,0,0,1-.51.39l-.12-.25a2.09,2.09,0,0,0,.43-.54l.25,0A.44.44,0,0,1,125.31,106.16Zm-.74-48.47.15-.19c.18,0,.21.15.27.24s0,0,0,0l.25.13h0c-.06.33-.29.22-.48.16l-.15-.2A.17.17,0,0,0,124.57,57.69ZM124.05,50l.14.09a.45.45,0,0,1,0,.34l-.12.15A.29.29,0,1,1,124.05,50Zm0,2.65c.11.07.13.2.18.29C124,53.37,123.36,52.69,124,52.61Zm-1.17,41.66h0c.09.23-.16.31-.31.39s-.19-.2-.26-.3C122.32,94.08,122.73,94.07,122.86,94.27ZM121.1,55.12h0a.36.36,0,0,1-.21.68A.36.36,0,0,1,121.1,55.12Zm-.24,42.08c.3-.23.42.18.56.35a.27.27,0,0,1-.13.15h0A.35.35,0,0,1,120.86,97.2Zm-.24-34.41h.21c.08.07,0,.22,0,.3Zm-.29-.79a.39.39,0,0,1,.75-.24.39.39,0,0,1-.75.24Zm-4.84-.52.22,0c.26.17.27.33.5.52l0,.27-.4.15-.21-.18C115.54,62,115.3,61.7,115.49,61.48Zm-.18,33.2c0-.35.75-.49.86,0S115.23,95.29,115.31,94.68Zm2.18,12c-.47.33-1.32,0-1.06-.66a.31.31,0,0,1-.19,0c-.86.31-.64-1.33.11-.81h0c.28-.16.5.12.44.45A.63.63,0,0,1,117.49,106.67Zm0-7.72h0a.45.45,0,0,1,.23-.62C118.71,98.27,118.16,99.73,117.5,99Zm.59-43,0-.19a0,0,0,0,1-.05,0c0-.1,0-.13,0-.21h0l0-.18c.16,0,.26.08.3.21A.27.27,0,0,1,118.09,56Zm.59,7.83.13-.19a.38.38,0,0,1,.31.13l.16.16C119.23,64.27,118.74,64,118.68,63.78Zm.42,6.58c-.25-.22,0-.67.29-.4S119.38,70.64,119.1,70.36Zm.48-17.28h0a.57.57,0,0,1-.65-.88C119.46,51.68,120.52,52.56,119.58,53.08Zm-.23-2.56c.14-.67.86-.26.9.09C120.29,51.37,119.3,51.09,119.35,50.52Zm.72,37.31,0-.28c.17-.1.31,0,.51,0l.17.19,0,.21-.16.13a.5.5,0,0,1-.37-.18Zm.5,13.34-.11-.13c0-.16.06-.21.1-.3l.19-.08c.14.06.18.21.25.31A.31.31,0,0,1,120.57,101.17Zm.93,6.56-.08.25c-.25.09-.4-.07-.6-.16-.06-.43.54-.33.68-.09Zm0-18.6c0,.14-.16.26-.32.21l.05-.16s0,0-.06,0,.1-.16.14-.24h0l0-.15C121.53,88.82,121.57,89,121.53,89.13Zm.81,8.58a.45.45,0,0,1,.25-.86A.45.45,0,0,1,122.34,97.71Zm.79,2.37c-.11-.37.32-.61.64-.44h0C124.5,100.09,123.38,100.82,123.13,100.08Zm.91,3c.78-1,1.78.86.53,1a.67.67,0,0,1-.32.19v0l-.09,0C123.33,104.6,123.18,103.14,124,103.1Zm.13,5a.77.77,0,0,1-.15-.32h0c-.26-.56.5-1,1-.51a.73.73,0,0,1,.16.43C126,108.46,124.2,109.24,124.17,108.06Z"></path><polygon class="cls-2" points="83.32 70.47 83.53 70.5 83.32 70.47 83.32 70.47"></polygon><rect class="cls-1" x="35.11" y="71.4" width="6.77" height="17.54"></rect><rect class="cls-3" x="37.21" y="74.7" width="2.58" height="1.39" transform="translate(-42.04 49.3) rotate(-45)"></rect><rect class="cls-3" x="37.21" y="79.21" width="2.58" height="1.39" transform="translate(-45.23 50.62) rotate(-45)"></rect><rect class="cls-3" x="37.21" y="83.72" width="2.58" height="1.39" transform="translate(-48.42 51.95) rotate(-45)"></rect><rect class="cls-4" x="68.84" y="34.66" width="1.39" height="6"></rect><rect class="cls-4" x="21.54" y="81.97" width="6" height="1.39"></rect><rect class="cls-4" x="111.53" y="81.97" width="6" height="1.39"></rect><rect class="cls-4" x="98.35" y="50.15" width="6" height="1.39" transform="translate(-6.26 86.56) rotate(-45)"></rect><rect class="cls-4" x="34.72" y="113.79" width="6" height="1.39" transform="translate(-69.9 60.2) rotate(-45)"></rect><rect class="cls-4" x="37.02" y="47.84" width="1.39" height="6" transform="translate(-24.9 41.56) rotate(-45)"></rect><rect class="cls-4" x="100.66" y="111.48" width="1.39" height="6" transform="translate(-51.26 105.2) rotate(-45)"></rect><rect class="cls-4" x="83.58" y="40.32" width="6" height="1.39" transform="translate(15.82 105.6) rotate(-67.73)"></rect><rect class="cls-4" x="27.2" y="62.61" width="1.39" height="6" transform="translate(-43.4 66.57) rotate(-67.74)"></rect><rect class="cls-4" x="110.49" y="96.71" width="1.39" height="6" transform="translate(-23.22 164.82) rotate(-67.74)"></rect><rect class="cls-4" x="108.04" y="64.58" width="6" height="1.39" transform="translate(-16.59 47.95) rotate(-22.72)"></rect><rect class="cls-4" x="25.03" y="99.36" width="6" height="1.39" transform="translate(-36.49 18.61) rotate(-22.73)"></rect><rect class="cls-4" x="51.45" y="38.16" width="1.39" height="6" transform="translate(-11.86 23.36) rotate(-22.74)"></rect><rect class="cls-5" x="37.21" y="74.7" width="2.58" height="1.39" transform="translate(-42.04 49.3) rotate(-45)"></rect><rect class="cls-5" x="37.21" y="79.21" width="2.58" height="1.39" transform="translate(-45.23 50.62) rotate(-45)"></rect><rect class="cls-5" x="37.21" y="83.72" width="2.58" height="1.39" transform="translate(-48.42 51.95) rotate(-45)"></rect><rect class="cls-4" x="68.84" y="34.66" width="1.39" height="6"></rect><rect class="cls-4" x="21.54" y="81.97" width="6" height="1.39"></rect><rect class="cls-4" x="111.53" y="81.97" width="6" height="1.39"></rect><rect class="cls-4" x="98.35" y="50.15" width="6" height="1.39" transform="translate(-6.26 86.56) rotate(-45)"></rect><rect class="cls-4" x="34.72" y="113.79" width="6" height="1.39" transform="translate(-69.9 60.2) rotate(-45)"></rect><rect class="cls-4" x="37.02" y="47.84" width="1.39" height="6" transform="translate(-24.9 41.56) rotate(-45)"></rect><rect class="cls-4" x="100.66" y="111.48" width="1.39" height="6" transform="translate(-51.26 105.2) rotate(-45)"></rect><rect class="cls-4" x="83.58" y="40.32" width="6" height="1.39" transform="translate(15.82 105.6) rotate(-67.73)"></rect><rect class="cls-4" x="27.2" y="62.61" width="1.39" height="6" transform="translate(-43.4 66.57) rotate(-67.74)"></rect><rect class="cls-4" x="110.49" y="96.71" width="1.39" height="6" transform="translate(-23.22 164.82) rotate(-67.74)"></rect><rect class="cls-4" x="108.04" y="64.58" width="6" height="1.39" transform="translate(-16.59 47.95) rotate(-22.72)"></rect><rect class="cls-4" x="25.03" y="99.36" width="6" height="1.39" transform="translate(-36.49 18.61) rotate(-22.73)"></rect><rect class="cls-4" x="51.45" y="38.16" width="1.39" height="6" transform="translate(-11.86 23.36) rotate(-22.74)"></rect><path class="cls-6" d="M14.11,51.11a.31.31,0,0,1,.41,0,.33.33,0,0,1-.2.62.28.28,0,0,1-.21-.22V58H25.89a.55.55,0,0,1-.38-.83c-.25-1,1.45-.73.92.16a.63.63,0,0,1,0,.31h0a.44.44,0,0,1-.21.33.43.43,0,0,0,0,.05h9.59a.63.63,0,0,1,.12-.75c.37-.32,1,.3.72.75h2.86a1,1,0,0,1,.07-.18l.16-.11a.25.25,0,0,1,.24.29h8.46L53,63.58V60.15h0c-.47-.27-.29-.87,0-1.12v0c-1.35-.24.12-2.19.79-1H57a.59.59,0,0,1,0-.27.37.37,0,0,1-.18,0c-.76.5-.94-1.14-.09-.82h0c.23-.23.51,0,.53.33a.62.62,0,0,1,.94.73h.39V30.25H14.11Zm.29,3.53,0-.1h0s-.12-.12,0-.12v-.09C14.45,54.3,14.6,54.59,14.4,54.64ZM57.57,40h0v-.16c.14,0,.22.15.21.3s-.09.29-.25.29v-.17s0,0-.06,0S57.55,40.08,57.57,40ZM56.26,50.64h0a.44.44,0,0,1,.07-.65C57.27,49.69,57.09,51.24,56.26,50.64Zm.22-11.81.21.14v.22l-.13.16a.54.54,0,0,1-.41-.08h0l-.09,0L56,39C56.13,38.83,56.29,38.9,56.48,38.83Zm-2.55,8c.2.57-.75.85-.82.23C53.05,46.68,53.72,46.37,53.93,46.79Zm-13.61,9c-.09-.09-.07-.22-.1-.33C40.62,55.07,41,55.9,40.32,55.77Zm12.33-5a.44.44,0,1,1-.86,0A.46.46,0,0,1,52.65,50.76Zm-.73,1.87h0c.32.12.06.54-.21.5S51.65,52.59,51.92,52.63Zm.5,1.19c.77.51-.23,1.54-.88,1S51.74,53.51,52.42,53.82Zm-1.79-5,.42,0,.15.23c-.06.24.1.54-.15.7l-.22,0c-.2-.24-.16-.39-.33-.64Zm-.47-8.64c.17.29-.2.65-.39.3S50,39.86,50.16,40.2Zm-1.5,6.42-.18.15c-.16,0-.19-.13-.26-.21l-.11-.21C48.28,46,48.68,46.38,48.66,46.62ZM47,54.29v.2s0,0,.06,0-.06.11-.07.2h0v.19a.25.25,0,0,1-.23-.29A.28.28,0,0,1,47,54.29Zm-.61-7.64.17.36-.2,0C46.26,46.87,46.33,46.74,46.35,46.65Zm.22,1.2h0a.4.4,0,0,1-.79,0A.4.4,0,0,1,46.57,47.85Zm-1.86,8.76h0a.57.57,0,0,1,.37,1C44.42,58,43.66,56.84,44.71,56.61Zm-.47-3a.36.36,0,0,1-.4.59h0A.35.35,0,0,1,44.24,53.63ZM41.56,41.48l-.16.15a.24.24,0,0,1-.12,0l-.14-.17Zm-.34,8.93.09.24s-.05.06,0,.1l-.21.15c-.16-.07-.15-.21-.18-.31l0,0-.2-.2h0C40.87,50.13,41.06,50.3,41.22,50.41Zm-.33-1.79a.35.35,0,0,1,0,.4h0c-.08.4-.71.37-.8-.05A.46.46,0,0,1,40.89,48.62Zm-1-.95h0c.31.31-.1.84-.53.68C38.78,48.05,39.53,47,39.94,47.67ZM38.17,37.55l.2.06c0,.09,0,.17.06.25l-.06.17a.23.23,0,0,1-.3,0A.32.32,0,0,1,38.17,37.55Zm0,17c0,.49-.63.68-1,.51C36.08,54.16,37.92,53.13,38.19,54.58ZM30.12,58c-1.12.23-1-1.51.15-.89A.49.49,0,0,1,30.12,58Zm-.06-3.26s.14.24,0,.21v.17c-.28,0-.4-.55,0-.55v.17S30,54.68,30.06,54.7Zm6.24-8c.24.15,0,.56-.24.46S36.06,46.61,36.3,46.7Zm-.71-4.25c.61-.67.67.63,0,.19h0l0,0Zm-.83,11.16c-.4-.27,0-.83.45-.53C35.54,53.37,35.11,53.84,34.76,53.61Zm-.54-3.48c.91-.23,1,1.39,0,1.25A.65.65,0,0,1,34.22,50.13ZM32.46,39c.3-.22.59.28.26.44h-.14a.17.17,0,0,1-.06-.06.36.36,0,0,1-.09-.2Zm-1.12,9.16a.31.31,0,0,1-.3.34l-.14-.1C30.72,48,31.23,47.67,31.34,48.16Zm-.7-3.52.12-.11c.77-.17.61,1.19-.1.55,0,0-.07-.17-.08-.21Zm-.43,9c.69-.06.47.95-.2.67l-.17-.2,0-.17A.48.48,0,0,1,30.21,53.63ZM29.68,43v-.19l.25.27-.2,0a.31.31,0,0,1-.05-.1Zm.16,6.77a.32.32,0,0,1-.6.24A.32.32,0,0,1,29.84,49.79ZM28.3,43l.16.05h0l.1,0,.11.15c-.08.48-.56.2-.54-.11Zm0,7.92c-.13.4-.79.2-.65-.2h0C27.57,50.13,28.45,50.46,28.26,50.93Zm.45,4.67h0c.45.65-.6,1.23-1,.68S28.08,55,28.71,55.6ZM27,37.26l-.18,0h0l-.16,0C26.48,36.63,27.64,36.7,27,37.26Zm-.81,11.53a.28.28,0,0,1,.31.32l-.1.12a.37.37,0,0,1-.31,0L26,49.07A.26.26,0,0,1,26.19,48.79ZM16.11,56.36c-.55.23-1.09-.53-.55-.89C16.18,54.94,17.08,55.93,16.11,56.36Zm3.5.75a.32.32,0,0,1-.59-.18c0-.19,0-.34.33-.33h0C19.65,56.5,19.75,56.88,19.61,57.11ZM19,42.87c0-.25.33-.4.37-.1S19.08,43.17,19,42.87Zm6.09,6.32c-.1,0-.12-.17-.17-.25s.36-.17.45,0S25.25,49.15,25.13,49.19Zm.33-2.82h0c0,.38-.53.51-.72.17C24.47,46,25.58,45.66,25.46,46.37Zm-1.49-1,0,.21h0v.09c-.14.09-.25,0-.29-.08h0l0,0,0-.17A.22.22,0,0,1,24,45.38Zm0,9.78a.48.48,0,0,1-.71.61C22.75,55.23,23.4,54.46,23.94,55.16ZM23,53.64l.15,0c.1,0,.12.18.17.26A.25.25,0,0,1,23,54l-.07-.11A.35.35,0,0,1,23,53.64ZM21.45,57.8a.48.48,0,1,1,.06-1A.48.48,0,0,1,21.45,57.8Zm-.72-2.2a.36.36,0,0,1,.4-.59A.36.36,0,0,1,20.73,55.6Zm.38-2.75L21,53s0,0,0,0l-.14.12C20.23,52.93,21,51.94,21.11,52.85Zm-1.1-16h.19c.05.06.08.14.13.2v.17C20,37.53,19.83,37.08,20,36.88Zm-.41,11.6c0-.25.62-.29.66.07S19.48,48.94,19.6,48.48Zm-.06,1c.52-1.17,1.79.49.62.78C19.79,50.2,19.39,49.84,19.54,49.44ZM19,42.07l0-.15C19.4,41.13,19.74,42.38,19,42.07Zm-2,11c.51.32,0,1-.46.84C15.85,53.67,16.36,52.71,17.07,53.05ZM16,43.41l.21.1-.05,0a.29.29,0,0,1,.16.1l-.07.23s-.07,0-.1,0h-.18l0,0A.26.26,0,0,1,16,43.41ZM15.66,40l-.13,0s0,0-.07,0-.09-.1-.13-.16v-.15C15.52,39.4,15.91,39.77,15.66,40Zm-.41,5c.64-.36.86.9.06.51h0s-.11-.12-.13-.16v-.22ZM14.62,47c.25.3-.24.64-.44.36S14.42,46.66,14.62,47Z"></path><polygon class="cls-6" points="57.65 40.15 57.8 40.14 57.64 40.13 57.65 40.15"></polygon><polygon class="cls-2" points="55.6 73.61 55.76 73.6 55.6 73.59 55.6 73.61"></polygon><path class="cls-2" d="M41.19,92.75h.38a.6.6,0,0,1-.26-.52c.18-.73,1-.18.84.36a.74.74,0,0,1-.12.16h4.22a.35.35,0,0,1,.13-.53c.33-.13.64.27.54.53h3.83a.85.85,0,0,1,.23-.29c-1.42-.21.09-2.23.76-1a.73.73,0,0,1-.32.8.49.49,0,0,1,.42.46h4.62V67.58H41.19Zm14.34-19.3h0V73.3c.14,0,.21.15.21.3s-.09.29-.26.28v-.16s0,0-.06,0S55.5,73.54,55.53,73.45Zm-.36,17.31a.62.62,0,0,1,.9.83c-.37.44-1.29.28-1.19-.38a.29.29,0,0,1-.18,0c-.76.5-1-1.14-.09-.82h0C54.86,90.2,55.15,90.43,55.17,90.76Zm-1-6.66h0a.45.45,0,0,1,.07-.66C55.23,83.14,55,84.7,54.22,84.1Zm.21-11.81.21.14v.22l-.13.16a.51.51,0,0,1-.4-.08l-.09,0L54,72.42C54.09,72.29,54.25,72.36,54.43,72.29Zm-2.54,8c.2.57-.76.85-.83.23C51,80.14,51.68,79.83,51.89,80.25Zm-1.29,4a.43.43,0,1,1-.85,0A.45.45,0,0,1,50.6,84.22Zm-.72,1.87h0c.31.12.06.54-.21.5S49.61,86.05,49.88,86.09Zm.5,1.19c.77.51-.23,1.53-.88,1S49.69,87,50.38,87.28Zm-1.8-5,.43,0,.15.23c-.06.24.09.54-.15.7l-.23,0c-.2-.24-.16-.39-.32-.64Zm-.46-8.64c.17.29-.2.64-.4.3S47.93,73.32,48.12,73.66Zm-1.5,6.42-.18.15c-.16,0-.2-.14-.26-.21l-.11-.21C46.24,79.46,46.63,79.83,46.62,80.08Zm-1.7,7.67v.19H45c0,.11-.07.11-.07.2h0v.19a.25.25,0,0,1-.22-.29C44.66,87.89,44.75,87.74,44.92,87.75Zm-.61-7.64.17.36-.21,0C44.22,80.33,44.29,80.2,44.31,80.11Zm.22,1.2h0a.4.4,0,0,1-.79,0A.4.4,0,0,1,44.53,81.31Zm-1.86,8.76h0a.57.57,0,0,1,.36,1C42.37,91.44,41.62,90.3,42.67,90.07Zm-.47-3a.35.35,0,0,1-.4.58h0A.35.35,0,0,1,42.2,87.09Z"></path><polygon class="cls-7" points="70.73 103.61 70.89 103.6 70.73 103.59 70.73 103.61"></polygon><path class="cls-7" d="M75.09,113.84c-.2-.33.16-.67.51-.58h0a.4.4,0,0,1,.3.26V93.1H63.17v10.47a.24.24,0,0,1,.08.09.3.3,0,0,1-.08.4V123H65.8a.86.86,0,0,1,.31-.52c-1.42-.21.09-2.23.76-1a.72.72,0,0,1-.32.8.52.52,0,0,1,.4.69h9v-9.25A.45.45,0,0,1,75.09,113.84Zm-9.36.38a.43.43,0,1,1-.85,0A.45.45,0,0,1,65.73,114.22ZM65,116.09h0c.31.12.06.54-.21.5S64.74,116.05,65,116.09Zm-.87-2.88-.23,0c-.2-.24-.15-.39-.32-.64l.12-.25.43,0,.15.23C64.23,112.75,64.38,113.05,64.14,113.21Zm.49,5.11c-.58-.51.19-1.35.88-1C66.28,117.79,65.28,118.81,64.63,118.32Zm6-14.87h0v-.16c.14,0,.21.15.21.3s-.09.29-.26.28v-.16s0,0-.06,0S70.64,103.54,70.66,103.45ZM69.35,114.1h0a.45.45,0,0,1,.07-.66C70.36,113.14,70.18,114.7,69.35,114.1Zm-3.16-3.62c-.06-.34.62-.65.83-.23S66.26,111.1,66.19,110.48Zm2.89-8.06c.14-.13.3-.06.48-.13l.21.14v.22l-.13.16a.51.51,0,0,1-.4-.08l-.09,0Zm2.12,19.17c-.37.44-1.29.28-1.19-.38a.29.29,0,0,1-.18,0c-.76.5-1-1.14-.09-.82h0c.23-.23.52,0,.54.33A.62.62,0,0,1,71.2,121.59Zm1-10c.23-.29.45.08.62.2a.23.23,0,0,1-.08.18h0C72.5,112.17,72.06,111.91,72.19,111.59Zm.67,3.93-.13-.1a.41.41,0,0,1,0-.32l.16-.12c.14,0,.22.16.32.24S73.06,115.53,72.86,115.52Zm.35-6.8c-.14,0-.23-.15-.32-.23,0-.28.36-.38.53-.22h0C73.56,108.47,73.34,108.61,73.21,108.72Zm.54,3a.45.45,0,0,1,0-.89A.45.45,0,0,1,73.75,111.73Zm1.58,10.19c-.22.15-.41,0-.62,0-.16-.4.44-.45.63-.25Z"></path><path class="cls-6" d="M55,91.6a1.42,1.42,0,0,1,.12-.13c1.26-.72,1.78,1.27.34,1.37a.6.6,0,0,1-.46-.3v1.25H63.6a.76.76,0,0,1,.21-.72c.58-.57,1.32,0,1.21.72h3.61a.51.51,0,0,1,.63,0h.88c-.15-.33.14-.73.5-.34a.41.41,0,0,1,.07.34H82.76V66H55Zm14.23-8.71L69,83h0c-.54-.14-.18-.66.17-.61l.14.21C69.31,82.7,69.25,82.78,69.21,82.89Zm9.43-5.48a.19.19,0,0,0,0-.12v-.23a.34.34,0,0,1,.57,0l-.12.27,0-.06a.35.35,0,0,1-.12.21Zm2,.39c0-.17.13-.17.2-.26v0l.08-.17c.14.06.18.23.1.41s-.24.29-.4.2l.08-.18A.07.07,0,0,1,80.68,77.8Zm.61,11.79a1.13,1.13,0,0,1,.64.61.46.46,0,1,1-.24.88C80.32,92,79.6,89.17,81.29,89.59Zm-1.85-2.53c.1-.1.33,0,.45,0h0l.07,0h0c1.15.55-.58,1.89-.79.48a.37.37,0,0,1-.08-.56C79.2,87,79.36,86.93,79.44,87.06ZM79,66.2l.13.3,0-.07a.43.43,0,0,1,.08.25l-.28.18c-.06,0-.09,0-.14,0l-.19-.17A.37.37,0,0,1,79,66.2ZM79,75c.17.15.1.27.12.43l-.26.21C78.38,75.55,78.44,74.73,79,75ZM77.75,81.5l-.06.2a.12.12,0,0,1,.08,0s.09.32-.06.24l-.06.2C77.33,82.05,77.35,81.39,77.75,81.5Zm-.14-2.43-.09.28h0c-.13.08-.31,0-.43-.07ZM77.08,87l.23,0a.29.29,0,0,1,0,.46l-.27,0a0,0,0,0,0,0,0H77C76.84,87.21,77,87.07,77.08,87Zm.07,2.42c.62-1.28,2.2.48.85,1a.8.8,0,0,1-.31.3l0,0-.08.08C76.74,91.27,76.2,89.69,77.15,89.41Zm-1.61-1.54c.93.59-.36,1.49-.61.57A.49.49,0,0,1,75.54,87.87ZM74.16,83c.56.38-.09,1.17-.54.8S73.7,82.58,74.16,83Zm-1-.18h0a.52.52,0,0,1-.11.1l-.3,0C72.39,82.18,73.58,82.17,73.15,82.78Zm-2,9.72c.82.71-1,1.33-.72.24h0a.4.4,0,0,1,.47-.23v0A.4.4,0,0,1,71.12,92.5Zm-.35-5.81c.52.42-.07,1-.56.83C69.69,87.07,70.16,86.33,70.77,86.69ZM69.24,73l.24.17v.24l-.15.19a.6.6,0,0,1-.46-.1l-.1,0-.09-.31C68.85,73,69,73.09,69.24,73ZM68.41,81l-.26.09c-.22-.17-.18-.39-.22-.62C68.26,80.13,68.53,80.7,68.41,81ZM68,74.53a.38.38,0,0,1,.25.13,1,1,0,0,0,.19.15l0,.26-.16.16-.22,0c-.22-.17-.19-.31-.25-.47Zm-3.83,9.52a.47.47,0,0,1,.6.73A.47.47,0,0,1,64.16,84.05Zm-.39,5.67c.12,0,.24,0,.35-.07l.23.09c.23.6-.49.61-.68.25Zm-.44-1.16-.09.2s0,0,.06,0-.12.09-.17.18,0,0,0,0l-.09.2a.28.28,0,0,1-.12-.4.31.31,0,0,1,.42-.2Zm-.82-9,.16-.13c.45,0,.35.71-.09.61l-.13-.12h0A.48.48,0,0,1,62.51,79.58Zm-.11,4.77.48,0,.18.27a.39.39,0,0,0,0,.26,1,1,0,0,1,0,.24c1-.19.27,1.05-.13.25,0,0,0,0,0,0l-.26,0c-.22-.27-.17-.45-.36-.74Zm.06,6.05a.77.77,0,0,1,.56,0c.7.49.1,1.62-.67,1.17a.77.77,0,0,1-.4,0v0C61,91.46,61.62,89.91,62.46,90.4ZM58.79,73.65l-.15-.17a.07.07,0,0,0,0,0l-.13-.17C58.77,72.65,59.82,73.6,58.79,73.65Zm-.29,8c.13,0,.18.19.24.28v.29a.24.24,0,0,0-.1.1l-.28.07c-.15-.14-.08-.29-.07-.41a.09.09,0,0,0,0,0l-.13-.3A.25.25,0,0,1,58.5,81.64Zm-.41,8.17.26,0c.11.15,0,.29.08.47l-.15.18h-.2l-.15-.14C57.91,90,58,90,58.09,89.81ZM58,91.63c.77.18.41,1.42-.31,1.09C57.25,92.21,57.48,91.66,58,91.63Zm-1.64-7.76c0-.06,0-.21.07-.26h0l.24-.17.2,0C57.72,83.84,56.53,85,56.35,83.87Zm-.07-6.42.28-.08.32.31-.07.28c-.23.12-.35.46-.65.38L56,78.15C56.06,77.83,56.21,77.76,56.28,77.45Z"></path><polygon class="cls-6" points="63.1 88.84 62.91 88.75 63.1 88.84 63.1 88.84"></polygon><path class="cls-6" d="M118.58,106.85a.67.67,0,0,1,0,1.08l.7.28V101c-.18.67-1.34.45-1.1-.27.42-.45,1-.34,1.1.09v-2a.79.79,0,0,1-1.49-.35.81.81,0,0,1,1.33-.5,1.33,1.33,0,0,1,.16.28v-20c-.21-.07-.34-.28-.14-.63h0a.33.33,0,0,1,.14-.1V62.21a.41.41,0,0,1-.34,0h0c-.41,0-.45-.66,0-.8a.43.43,0,0,1,.39.1V49.79L117,50.86a.31.31,0,1,1-.55.26l-.15.07v4.18a.63.63,0,0,1,.79.36c.21.56-.36.86-.79.76V73.3a.32.32,0,0,1,.38.3h0c0,.21-.25.19-.38.09V89.38a1,1,0,0,1,.4.74l-.32.09s-.06-.07-.08-.11v2.48a.36.36,0,0,1,.62,0c1-.36.7,1.35,0,.8h0a.44.44,0,0,1-.15-.19.36.36,0,0,1-.42-.18V105.7c.37-.19,1,0,.67.76a.43.43,0,0,1-.67.07V107l.93.37A.87.87,0,0,1,118.58,106.85Zm-.08-25.18c-.19,0-.32-.14-.33-.34l.08-.14a.42.42,0,0,1,.31,0l.14.14C118.7,81.47,118.58,81.57,118.5,81.67Zm-.1-29.44c.37-.23.77.24.29.4a.31.31,0,0,1-.38-.25Zm.1,21a.45.45,0,0,1,.12.84A.43.43,0,1,1,118.5,73.26ZM117.4,62.4s0,0,0,0l.18-.22h0c.3.11.16.32.07.49l-.23.12s-.07,0-.11,0l-.17-.19C117.16,62.45,117.3,62.43,117.4,62.4Zm.19,22.86c1.19.38-.17,2-.75.86a.78.78,0,0,1-.29-.24v0l-.07-.06C115.93,85.13,117.24,84.47,117.59,85.26Zm-1,3.22c.34-.7,1.54-.43,1.33.4C117.77,89.94,116,89.75,116.59,88.48Z"></path></g></svg> 