<?xml version="1.0" encoding="UTF-8"?> <svg xmlns="http://www.w3.org/2000/svg" viewBox="0 0 140 140"><defs><style>.cls-1{fill:#492f90;}.cls-2{fill:#352476;}.cls-3{fill:#675de8;}.cls-4{fill:#221989;}.cls-5{fill:#f93168;}.cls-6{fill:#c60e47;}</style></defs><g id="Layer_3" data-name="Layer 3"><polygon class="cls-1" points="100.76 103.34 100.58 103.26 100.76 103.34 100.76 103.34"></polygon><polygon class="cls-1" points="59.53 67.7 59.45 67.84 59.54 67.71 59.53 67.7"></polygon><polygon class="cls-1" points="73.96 93.07 74.12 93.06 73.96 93.05 73.96 93.07"></polygon><polygon class="cls-1" points="36.55 84.9 36.72 84.79 36.55 84.9 36.55 84.9"></polygon><path class="cls-1" d="M79.94,98.87l.11-.14-.13.13Z"></path><path class="cls-1" d="M115.35,105.19h0l-.08.07c-.85.53-1.39-1.06-.45-1.33a.8.8,0,0,1,.41-.42l-.38-1.6h-.1l0,0h-.12c-.14-.2,0-.33.11-.42h0l-5.07-21.55-3.24-2.8-8.1-20.89-8.28-2L80,36.43,72.65,37l-6.46-8.09a.33.33,0,0,1-.26-.32l-3.11-3.89L50.89,54.84A.78.78,0,0,1,50.74,56a.67.67,0,0,1-.33,0l-2.52,6.39-8.12,1.44-5.28,19,.14-.11a.68.68,0,0,1,.22-.32h0c.61-.8,1.56.59.69,1,0,.18-.18.37-.3.47a.7.7,0,0,1-.95-.44L31.83,92.5a.24.24,0,0,1,.14.42l-.12,0-.07,0a.08.08,0,0,1-.05,0l-.65,2.34-.23.2a.46.46,0,0,1-.11.55.6.6,0,0,1-.55,0l-3.27,2.85-3.4,10h2a.45.45,0,0,1-.1-.13.44.44,0,1,1,.82-.29.39.39,0,0,1-.13.42h5.55a.43.43,0,0,1,.21-.46.57.57,0,0,1,1,.46h11a.65.65,0,0,1,1.18-.33h0a.49.49,0,0,1,.09.33H81.38a2.31,2.31,0,0,0,.22-.51l.25,0a.41.41,0,0,1,0,.38h0a.4.4,0,0,1-.09.17h19.8a.85.85,0,0,1-.12-1.28c.73-.71,1.72.41,1,1.27h3.71a.49.49,0,1,1,1-.16.65.65,0,0,1,0,.16h9.4l-.91-3.84A.63.63,0,0,1,115.35,105.19ZM25,107l-.08.08a.17.17,0,1,1,0-.33l.08,0A.27.27,0,0,1,25,107Zm6-7.09c.24.3-.24.64-.44.36S30.73,99.58,30.94,99.88Zm-.64-2.37.06-.1c.25,0,.27.21.3.31l-.08.21a.29.29,0,0,1-.41-.21l.15-.22Zm-3.75,5.92a1.4,1.4,0,0,0,.14-.39l.15,0c.14.16,0,.48-.18.55Zm.79,3.26c-.38.24-.72-.18-.66-.54C26.89,105.56,28,106.16,27.34,106.69Zm.94-1.19a.44.44,0,0,1,.37.43h0a.4.4,0,0,1-.24.56h0C27.69,106.74,27.39,105.39,28.28,105.5Zm.5,3.21a.49.49,0,0,1-.33-.93A.49.49,0,0,1,28.78,108.71Zm.57-9c0,.14-.16.3-.25.38h0l-.07,0h0c-1.09.68-1.29-1.5,0-.93a.38.38,0,0,1,.53.23C29.56,99.53,29.5,99.68,29.35,99.68Zm.54,5.38-.19-.13c0-.16.16-.2.24-.34h.21l.12.13h0v.17C30.13,105.05,30,105,29.89,105.06Zm.83,2.5,0-.1h0s-.11-.12,0-.12l0-.09C30.77,107.23,30.91,107.51,30.72,107.56Zm-.08-3a.3.3,0,0,1-.24-.3h0c-.12-.28.24-.49.47-.32A.33.33,0,0,1,30.64,104.6Zm32.93-62c-.3.9-1.69.08-1.08-.64A.65.65,0,0,1,63.57,42.56Zm-2.52-11.7.2.05a1.8,1.8,0,0,0,.08.39.55.55,0,0,1,.9.12c1,.32-.15,1.62-.62.7a.6.6,0,0,1-.24-.2h0c-.07-.05-.19-.26-.16-.35C61,31.47,60.94,31,61.05,30.86Zm.55,5.54c.15-.23.68,0,.49.25l-.14-.1s0,0,0,.06-.28,0-.17-.11ZM61.87,35h0c-.78,0-.71-1.16,0-1.24S62.76,34.8,61.87,35Zm-.46,13.18a.46.46,0,0,1-.12.85c-.13,0-.29-.09-.35-.2h0C60.64,48.53,61,48,61.41,48.16Zm-.86-6.33a.35.35,0,0,1-.22-.66C60.78,41,61.06,41.57,60.55,41.83Zm-1.42-6.91c.4-1.07,1.81,0,.67.6A.48.48,0,0,1,59.13,34.92Zm.73,13h0c.16.28-.08.35-.26.42l-.25,0c0-.06,0-.08-.07-.1v-.25c.14-.1.26,0,.36,0l-.05,0Zm-.06,6.57c.11,0,.18.14.24.2l-.39,0ZM56.13,60.2c.32.13.22.86-.24.82S55.57,59.93,56.13,60.2Zm-.59-15.49a.61.61,0,0,1,.33.1C56,45.34,55.09,45.21,55.54,44.71ZM54.25,66.92c.25.12.13.51-.1.57h0c-.24,0-.24-.26-.27-.42S54.13,67,54.25,66.92ZM52.36,73.3h0l-.11-.17c0,.14-.37-.06-.21-.14l-.11-.16C52.2,72.64,52.69,73.06,52.36,73.3Zm0,5.35a.28.28,0,0,1-.15.18.31.31,0,0,1-.26,0l-.06-.25s0,0,0,0l0-.11c.15-.18.32-.06.41,0ZM51.49,65.1a.25.25,0,0,1-.11-.17h0a.35.35,0,0,1,.61-.25C52.12,65,51.69,65,51.49,65.1Zm.21-9.34c.27-.2.49.24.32.44h0C51.75,56.41,51.52,56,51.7,55.76Zm-.31,5.18h0a.44.44,0,0,1,.51.41C51.66,62.3,50.44,61.32,51.39,60.94Zm-.34,5a.45.45,0,0,1,.74.51A.45.45,0,0,1,51.05,65.92Zm.23,3.62c.14-.07.2,0,.3,0h0l.17,0c0,.15-.1.27-.26.31a.29.29,0,0,1-.38-.19l.18,0A.06.06,0,0,1,51.28,69.54Zm-3-6.38.15-.06a.4.4,0,0,1,.25.19l0,.2a.65.65,0,0,1-.37.14A.31.31,0,0,1,48.32,63.16ZM46.43,98l.1-.06.31.09c0,.22-.13.33-.18.54l-.27.12-.21-.13-.08-.22A.6.6,0,0,1,46.43,98Zm-.43-2v-.19l.24.27-.19,0a.31.31,0,0,1,0-.1Zm-.39-21.82c.24,1-1.51.21-.6-.35a.41.41,0,0,1,.57.36ZM44.2,65.57c0-.87,1.43-.55,1.2.28.68,1-1.37,1.42-1.12.19a.71.71,0,0,1-.08-.37h0Zm-2.05-.11a3,3,0,0,0,.38.57l-.1.23a.42.42,0,0,1-.34-.17h0a.78.78,0,0,1-.21-.6Zm-.5,3.6-.31-.14h0a2.72,2.72,0,0,0-.05-.85l.26-.18C41.92,68.08,41.88,68.79,41.65,69.06Zm-1-4.64a.62.62,0,0,1,.35,0v0c.61-.07.75.77.18,1.07a.69.69,0,0,1-.45,0C39.69,66,39.52,64.08,40.65,64.42Zm.53,12.34L41.1,77a.34.34,0,1,1-.26-.62l.19,0A.59.59,0,0,1,41.18,76.76Zm-1.61-5.94c.28-.24.78-.09.7.29,1,.35-.31,1.5-.55.59h0a.48.48,0,0,1,0-.24C39.46,71.39,39.47,71,39.57,70.82Zm0,15.79s0,0,0-.07l.15-.2c.35,0,.48.09.82.09l.16.27-.24.42h-.32A.47.47,0,0,0,40,87a.58.58,0,0,1-.2-.13C39.37,87.79,38.71,86.51,39.6,86.61Zm.68,11.89v.09c-.14.09-.26,0-.3-.08h0l0,0v-.17a.22.22,0,0,1,.36,0l0,.21Zm-.46,7.23c-.22.07-.28,0-.43-.13l0-.33C39.65,104.92,40.31,105.4,39.82,105.73ZM37.24,76.29a.81.81,0,0,1,1.35.44C38.53,78.18,36.57,77.56,37.24,76.29ZM37.16,106c-.61-.14.15-1.13.26-.22h0l-.14.14a.07.07,0,0,0,0,0Zm0-4.15-.1.54-.19-.22h0C36.9,102,37.09,101.92,37.18,101.84Zm-1-23.59c.66-.09,1,.39.76.85C36.35,79.65,35.49,78.68,36.15,78.25Zm.39,6.81s0,0-.06,0,0-.16-.07-.24a0,0,0,0,1,0,0l-.12-.18a.28.28,0,0,1,.41.11.32.32,0,0,1,0,.46Zm-.21,4.74h.19c0,.06.07.14.12.2v.17C36.31,90.45,36.15,90,36.33,89.8Zm0,6.84h0s0-.1,0-.15l.19-.24C37.23,96.32,36.61,97.33,36.31,96.64Zm.26,4.83c0,.47-.77.4-.65-.07C36,101.15,36.54,101.11,36.57,101.47ZM35.35,95l0-.15C35.72,94.05,36.05,95.3,35.35,95Zm.38.7c0,.25-.33.4-.37.1S35.68,95.39,35.73,95.69Zm-.45-10.92.17.23c0,.12-.1.22-.13.34l-.2.14C34.49,85.35,34.87,84.74,35.28,84.77Zm-3.65,13.7h0c-.05,0-.11-.12-.13-.16v-.22l.08-.13C32.21,97.61,32.42,98.86,31.63,98.47Zm.8-1.69h-.18l0,0a.26.26,0,0,1,.05-.42l.21.1,0,0a.29.29,0,0,1,.15.11l-.07.22C32.48,96.75,32.46,96.75,32.43,96.78Zm.49,10c-.75-.22-.24-1.18.47-.84C33.89,106.29,33.43,107,32.92,106.81Zm.95-15.19c.67-.2,1,.6.41.92S33.46,91.93,33.87,91.62ZM35,101.21l-.14-.15s0,0-.05,0-.32-.09-.17-.17l-.13-.16C34.71,100.56,35.25,100.93,35,101.21Zm.68-3.81c-.62.27-.94-.7-.39-.88S36.19,97.21,35.63,97.4Zm.69,8.58h0c-.08-.09-.12-.36,0-.44l.11.16a.11.11,0,0,1,.05,0c.12.12.07.2.11.3s0,0,0,0l.1.16C36.59,106.2,36.43,106.15,36.32,106Zm.16-2.84c-.38,0-.77-.38-.62-.78C36.38,101.19,37.65,102.85,36.48,103.14Zm.56,5.38a.36.36,0,0,1,.4-.59A.36.36,0,0,1,37,108.52Zm.92-3.76-.17-.24,0,0a.36.36,0,0,1-.11-.21l.21-.21a.17.17,0,0,0,.14,0l.2.12A.34.34,0,0,1,38,104.76Zm-.1-24.55L37.79,80l.11-.16.19,0c.23.11.22.24.3.37l-.09.25C38.11,80.41,38,80.26,37.86,80.21Zm.89,13.29H38.5c-.07-.08-.1-.18-.17-.26V93h0C38.73,92.65,39,93.23,38.75,93.5Zm.35-5a.47.47,0,0,1,.93-.13A.47.47,0,0,1,39.1,88.48Zm.11,18.3a.35.35,0,0,1,.11-.22l.15,0c.1.06.12.18.16.26s-.21.17-.35.11Zm.33,1.91c-.47-.54.18-1.31.72-.61A.49.49,0,0,1,39.54,108.69Zm.84-15.09h0l.07-.27c.26-.1.43.06.63.14C41.17,93.91,40.54,93.84,40.38,93.6Zm1.06,8.51c-.1,0-.12-.17-.17-.25s.37-.17.45,0S41.56,102.07,41.44,102.11Zm-.39-2.65c-.26-.55.84-.88.72-.17h0C41.81,99.67,41.25,99.8,41.05,99.46ZM42,78.24c-.72-.27-.05-1.44.49-.77C42.7,77.82,42.42,78.41,42,78.24Zm.76,23.91a.43.43,0,0,1-.32,0l-.12-.14a.26.26,0,0,1,.23-.28.28.28,0,0,1,.3.32Zm.59-28.52c.38.15.06.51,0,.73-.5.09-.46-.79,0-.73Zm0,16.55-.18,0s0,0,0,0l-.16,0C42.8,89.55,44,89.62,43.32,90.18Zm.06-21.32c-.78.74-2-.5-.78-1.13C43.3,67.39,44.06,68.36,43.38,68.86Zm1,13c.06,0,.15.16.18.2h0l0,.29-.09.18C43.64,83,43.28,81.38,44.35,81.84Zm.07,7.26a.45.45,0,0,1,.27.23l0,.21c-.24.38-.78-.08-.47-.4l.17,0Zm.15,14.75c-.12.4-.78.2-.64-.2h0C43.88,103.05,44.76,103.38,44.57,103.85Zm-.12-7.79.17-.13a.66.66,0,0,1,.15,0h0l.11,0,.11.15C44.9,96.66,44.43,96.37,44.45,96.06Zm.64-11.21a.66.66,0,0,1-.36.06l-.26-.16c0-.07,0-.09,0-.13l.09-.28c.2,0,.29.09.39.16a.06.06,0,0,0-.06,0l.33,0A.26.26,0,0,1,45.09,84.85Zm.19,11.72.1-.2c.26-.1.37,0,.54,0l.13.26a.38.38,0,0,1-.25.14,1.52,1.52,0,0,0-.22.08l-.25-.11Zm.28,6.38c-.17-.42.48-.63.59-.24A.32.32,0,0,1,45.56,103Zm.83,4.88V108c-.28,0-.41-.55-.06-.55v.17a.16.16,0,0,1,.07,0S46.52,107.86,46.39,107.83Zm-.07-.61-.16-.2,0-.17a.5.5,0,0,1,.39-.3C47.21,106.49,47,107.5,46.32,107.22Zm.57-9.43.07-.23.11-.11c.77-.17.61,1.19-.09.55A.56.56,0,0,1,46.89,97.79Zm.46,3.63-.13-.1c-.18-.4.33-.73.43-.24A.3.3,0,0,1,47.35,101.42ZM48.21,76l-.24.12-.33-.23,0-.26c.18-.14.24-.46.51-.44l.16.15C48.34,75.62,48.22,75.71,48.21,76Zm.34-10.06a.42.42,0,0,1,.22.74h0C48.12,67.23,47.77,65.93,48.55,65.93ZM49,92.36h-.15l-.06,0a.5.5,0,0,1-.08-.21l0-.17C49.07,91.7,49.37,92.2,49,92.36Zm.7-6.87-.44.1-.2-.21c0-.26-.19-.54,0-.75l.23,0c.25.2.24.37.46.59Zm.8,17.56c.91-.23,1,1.39,0,1.25A.65.65,0,0,1,50.54,103.05Zm.54,3.48c-.41-.27,0-.83.44-.53C51.86,106.29,51.43,106.77,51.08,106.53Zm.61-17.18.23,0-.05,0,.21,0C52.55,89.87,51.19,90.25,51.69,89.35Zm.22,6.21h0l0,0v-.16C52.51,94.7,52.57,96,51.91,95.56Zm.47,4.52c-.24-.15,0-.55.24-.46S52.62,100.18,52.38,100.08Zm.41-49.3a.24.24,0,0,1,.36,0,.26.26,0,0,1,.1.38L53.09,51s0,0,0,.05,0-.12-.12-.17h0Zm.86,6.31a.45.45,0,0,1-.44.73A.43.43,0,1,1,53.65,57.09ZM53.47,108c-1.08-.93.77-2,1-.51C54.47,108,53.88,108.18,53.47,108ZM54.69,91a.25.25,0,0,1-.31,0,.32.32,0,0,1,.11-.45l.19.06c0,.09,0,.17.07.25ZM55,48.52h0a.36.36,0,0,1,.28.66A.36.36,0,0,1,55,48.52Zm.07,8.3c.31,0,.42.08.72.07l.14.24-.21.37h-.27c-.17-.18-.51-.21-.51-.51ZM55,73.7l0-.29c.13-.12.49-.21.56.11S55.16,73.87,55,73.7Zm.74,27.57c-.64-.3.11-1.4.52-.68h0C56.56,100.9,56.15,101.43,55.73,101.27Zm1.48.27a.36.36,0,0,1,0,.4h0c-.08.41-.71.37-.81,0A.46.46,0,0,1,57.21,101.54Zm-.58,7.15a.63.63,0,0,1-.09-.33C56.93,108,57.3,108.82,56.63,108.69Zm.95-5-.2.15c-.16-.07-.16-.21-.19-.31a.09.09,0,0,0,.05,0l-.2-.2h0c.15-.29.34-.12.49,0l.1.24A.12.12,0,0,0,57.58,103.67Zm.13-9.12a.23.23,0,0,1-.11,0l-.14-.17.42.06Zm0-51a.73.73,0,0,1,.11-1.15C59.17,42,59.05,44.09,57.69,43.55Zm1.63,10a.4.4,0,0,1-.41.68h0A.4.4,0,0,1,59.32,53.55Zm-.48,3.1,0-.23a.39.39,0,0,1,.32-.11l.23,0C59.57,56.66,59,56.8,58.84,56.65Zm.61,11.19a.27.27,0,0,1-.1-.37l.14.1s0,0,0,0,.12.14.18.21h0l.13.09C59.74,67.94,59.58,67.92,59.45,67.84Zm.71,39.3h0a.36.36,0,0,1,.4-.59A.36.36,0,0,1,60.16,107.14Zm1.11-39.73-.24.11-.18-.11-.08-.2a.56.56,0,0,1,.29-.3l.08,0,.27.07C61.45,67.13,61.31,67.23,61.27,67.41Zm.63,10.44-.28,0h.06a.44.44,0,0,1-.22,0v-.29a.29.29,0,0,0,.1-.09l.21-.07A.33.33,0,0,1,61.9,77.85Zm.39-41.08.25,0,.16.07a.51.51,0,0,1,0,.49C62.42,37.91,61.68,37.19,62.29,36.77Zm.6,64a.4.4,0,0,1-.8,0,.4.4,0,0,1,.8,0Zm-.22-1.19.17.35-.21-.05C62.58,99.79,62.65,99.66,62.67,99.58ZM62.6,48.71h0c-.43.1-.66-.53-.29-.81C62.89,47.52,63.43,48.74,62.6,48.71Zm.66,58.9h0a0,0,0,0,0,0,0v.19a.25.25,0,0,1-.22-.29c0-.15.1-.3.27-.29v.2h.06C63.35,107.52,63.26,107.53,63.26,107.61Zm.21-46.27c-.33,0-.44-.51,0-.49S63.86,61.36,63.47,61.34Zm.42-33.67a.48.48,0,1,1,.77.56A.48.48,0,0,1,63.89,27.67Zm.77,2.58c.71-.11,1,.85.13.94A.49.49,0,0,1,64.66,30.25Zm.14,69.44c-.16,0-.2-.13-.26-.21l-.11-.21c.17-.35.56,0,.55.27Zm.56-53.54c-.26.12-.48-.3-.26-.45S65.57,46,65.36,46.15Zm15.92,39.5.12.26s0,0,0-.06a.5.5,0,0,1,.07.22l-.24.16a.15.15,0,0,0-.12,0l-.18-.15A.32.32,0,0,1,81.28,85.65ZM80.05,98.73a.3.3,0,0,1,0,.43L80,99s0,0,0,0-.1-.17-.16-.26h0l-.13-.13A.3.3,0,0,1,80.05,98.73ZM78.43,43.18a.07.07,0,0,0,0,0l.13-.12c.58.11-.1,1.06-.24.22ZM69.2,35.36c.1,0,.21,0,.31,0s-.05.4-.23.38S69.18,35.49,69.2,35.36Zm-.52.81.18,0a.25.25,0,0,1,.12.34.27.27,0,0,1-.43.09l-.06-.14A.41.41,0,0,1,68.68,36.17ZM69,103.68a.43.43,0,1,1-.85,0A.45.45,0,0,1,69,103.68Zm-.72,1.87h0c.31.12.06.54-.21.5S68,105.51,68.24,105.55ZM66.32,31h.13a.31.31,0,0,1,.12.21l0,.15a.55.55,0,0,1-.31,0A.25.25,0,0,1,66.32,31Zm.27,5.66h0c.51.29-.24.86-.53.45S66.32,36.32,66.59,36.65Zm-.51,56.77c-.17-.29.2-.64.4-.3S66.28,93.77,66.08,93.42ZM66.19,39a.32.32,0,0,1,.12-.63A.32.32,0,0,1,66.19,39Zm.45,1.7.16-.06c.43.06.44.68,0,.5A.3.3,0,0,1,66.64,40.73Zm.61,12.33-.28.32,0-.22a.37.37,0,0,1,.1-.07Zm.12,49.61-.23,0c-.2-.24-.16-.39-.32-.64l.12-.25.43,0,.15.23C67.46,102.21,67.61,102.51,67.37,102.67Zm.49,5.11c-.58-.51.19-1.35.88-1C69.51,107.25,68.51,108.28,67.86,107.78Zm1.31-60.06h0l.14.1C69.58,48.68,68.44,48,69.17,47.72Zm.57-5.47s.18,0,.22,0l.16.18,0,.16C69.88,43.36,68.81,42.5,69.74,42.25Zm-.32,57.69c-.06-.34.61-.65.83-.23C70.45,100.28,69.49,100.56,69.42,99.94Zm2-62.78c-.33-.18-.14-.73.25-.71.6.07.29,1.18-.24.7ZM72,52.74l-.25-.08-.11-.14a.24.24,0,0,1,.19-.24c.17,0,.33.16.32.33ZM71.8,42.67l.09-.17a.18.18,0,0,1,.11,0h0l.16.1Zm.92-1.54,0,.22-.13.1h0l-.09.07h-.19C72,41.2,72.47,41,72.72,41.13Zm-.41,50.75c.14-.13.3-.06.48-.13l.21.14v.22l-.13.16a.51.51,0,0,1-.4-.08l-.09,0Zm.27,11.68h0a.44.44,0,0,1,.07-.65C73.59,102.61,73.4,104.16,72.58,103.56ZM73.41,47l.09-.12.07,0a.43.43,0,0,1,.22,0l.13.12C74,47.37,73.37,47.35,73.41,47Zm.45,46.36v-.17s0,0-.06,0,0-.17.08-.26a0,0,0,0,1,0,0v-.16c.14,0,.21.15.21.3A.28.28,0,0,1,73.86,93.35Zm1.56,7.71c.23-.3.45.07.62.19a.26.26,0,0,1-.08.19h0C75.73,101.63,75.29,101.37,75.42,101.06Zm.67,3.92-.13-.1a.44.44,0,0,1,0-.31l.17-.13c.14,0,.22.16.32.24S76.29,105,76.09,105Zm.35-6.8c-.14,0-.23-.15-.32-.23,0-.27.35-.38.53-.22h0C76.79,97.93,76.57,98.07,76.44,98.18Zm.53,3a.45.45,0,0,1,0-.9A.45.45,0,0,1,77,101.2Zm1.34,2.1c-.2-.33.17-.67.51-.58h0C79.64,103,78.73,104,78.31,103.3Zm2.37,3.55a.7.7,0,0,1-.27.27v0l-.07.07c-.74.47-1.23-.91-.4-1.16C80.44,104.87,81.86,106.41,80.68,106.85Zm.55-12.95c-.17-.05-.44-.31-.21-.53s.49.1.43.34Zm5.83-.57a.26.26,0,0,1,.23,0,.32.32,0,0,1,.12.24l-.18.18s0,0,0,0l-.09.08c-.23,0-.21-.24-.22-.34Zm-4.63,3.25-.09.18c-.3-.13-.2-.76.18-.61h0l-.09.18C82.56,96.28,82.58,96.68,82.43,96.58Zm.58,10.8c-.66-.42-.25-1.58.54-1.27C84.59,106.38,84.2,108.09,83,107.38Zm1,.92-.29-.12c0-.42.59-.76.94-.71l0,.34A2.6,2.6,0,0,0,84,108.3Zm2.39-9.82c.24-.17.38-.11.63-.25l.22.14v.4l-.23.12c-.22-.08-.52,0-.65-.2Zm.45,3,0,0c.76-.76,1,1.17,0,.7A.42.42,0,0,1,86.83,101.44Zm1.07,6.26a.53.53,0,0,1-.2.12c.07.26-.24.45-.46.48s-.5-.61-.13-.75c-.24-1,1.43-.54.79.15Zm-.28-4.07h0c-.07-.4.4-.32.63-.36C88.6,103.64,87.83,104.07,87.62,103.63ZM93.94,92l.29-.08.31.31-.07.28c-.22.12-.35.45-.64.38l-.15-.19C93.72,92.34,93.87,92.26,93.94,92Zm-2.69,12.31-.07-.18a.49.49,0,0,1,.23-.32l.22,0C92.05,103.94,91.64,104.57,91.25,104.27Zm.08-2c.16-.41.8-.48.91,0C92.39,103.07,91.05,103.13,91.33,102.32Zm1.77,5a.81.81,0,0,1-.34-1.38C94,105.26,94.54,107.24,93.1,107.35Zm.92-9c0-.06,0-.22.07-.27h0l.23-.17h.2C95.38,98.35,94.2,99.52,94,98.38Zm1.33,8.85c-.43-.51-.21-1.06.31-1.1C96.43,106.31,96.06,107.56,95.35,107.23Zm.59-2.31h-.2l-.15-.13c0-.25.09-.32.16-.46l.26,0c.12.14,0,.29.08.46Zm.37-8.1-.28.06c-.14-.13-.08-.28-.07-.4s0,0,0,0l-.14-.3a.28.28,0,0,1,.31-.08c.12.06.17.19.24.28v.3C96.35,96.76,96.33,96.77,96.31,96.82Zm.14-8.66L96.3,88l0,0-.12-.17C96.43,87.16,97.49,88.11,96.45,88.16Zm3.72,5.93.16-.13c.45,0,.35.7-.08.6l-.13-.11h0A.47.47,0,0,1,100.17,94.09Zm-.16,12a.77.77,0,0,1-.4,0v0c-1-.09-.34-1.63.51-1.14a.73.73,0,0,1,.56,0C101.38,105.41,100.78,106.53,100,106.09Zm1-3-.09.21a.06.06,0,0,1,.06,0c0,.12-.12.09-.16.18a0,0,0,0,1,0,0l-.09.2a.29.29,0,0,1-.13-.41c.08-.16.25-.29.42-.2Zm-.41-3.21,0,.05-.25,0c-.23-.27-.18-.45-.36-.73l.14-.28.49,0,.17.26a.46.46,0,0,0,0,.26.64.64,0,0,1,0,.24C101.7,99.42,101,100.66,100.58,99.85Zm.75,4.64.1-.27c.12,0,.24,0,.36-.07l.23.1C102.24,104.85,101.52,104.85,101.33,104.49Zm1.1-5.21a.47.47,0,0,1-.61-.72A.47.47,0,0,1,102.43,99.28Zm3.65-3.81h0l-.26.08c-.23-.16-.18-.39-.22-.61C105.93,94.63,106.2,95.21,106.08,95.47Zm-.1-5.73-.22,0c-.22-.17-.19-.31-.26-.48l.15-.25a.38.38,0,0,1,.26.14,1,1,0,0,0,.19.14l0,.27Zm.9,7.65-.18.11h0c-.54-.14-.19-.65.16-.6l.15.2C107,97.21,106.91,97.29,106.88,97.39Zm.12-9.27a.65.65,0,0,1-.46-.09l-.1-.06-.09-.3c.17-.16.35-.07.56-.15l.24.17v.25Zm1.43,13.07c.52.42-.07,1-.55.84C107.35,101.57,107.82,100.83,108.43,101.19Zm-.23,7.35-.22,0c-.47-.32-.12-1,.32-.57A.4.4,0,0,1,108.2,108.54Zm-.14-1.3h0a.4.4,0,0,1,.47-.23v0a.53.53,0,0,1,.25,0C109.61,107.72,107.74,108.34,108.06,107.24Zm2.76-9.95h0a1,1,0,0,0-.11.1l-.31,0C110.06,96.68,111.25,96.67,110.82,97.29Zm.47,1c-.55-.38.07-1.17.54-.79S111.74,98.63,111.29,98.26Zm1.3,4.69a.5.5,0,0,1,.61-.58C114.13,103,112.84,103.87,112.59,103Z"></path><path class="cls-1" d="M51.44,69.67l.05.16,0-.17Z"></path><rect class="cls-1" x="62.42" y="11.31" width="0.98" height="21.03"></rect><polygon class="cls-1" points="86.39 18.79 67.72 18.79 67.72 9.49 86.39 9.49 81.97 14.14 86.39 18.79"></polygon><path class="cls-2" d="M67.72,18.79l10.37-2.2-6.87-3.85-3.63,2.55A28.49,28.49,0,0,1,67.72,18.79Z"></path><polygon class="cls-3" points="70.42 11.3 70.23 11.22 70.42 11.31 70.42 11.3"></polygon><path class="cls-3" d="M77.86,16.5l-.22,0c-.45-.31-.15-1,.27-.61v-.09c-.18-.06-.29-.24-.19-.58h0a.52.52,0,0,1,.19-.2V10a.55.55,0,0,1-.38,0c-.47-.41-.13-1,.38-.91V7.29H72a.47.47,0,0,1-.31,0H70.36v0a.88.88,0,0,1,0,.23c1-.18.27,1.06-.13.25a.1.1,0,0,1,0,.05l-.25,0a1.51,1.51,0,0,1-.26-.55H62.42v6.65h0c1.26-.71,1.78,1.27.34,1.38a.58.58,0,0,1-.34-.17v1.45h8.63a.83.83,0,0,1,.08-1.06c.68-.65,1.56.24,1.1,1.06h3.56s0,0,0,0a.48.48,0,0,1,1,0h1.16v-.13ZM65,15.19c-.43-.51-.21-1.06.31-1.1C66.09,14.27,65.72,15.52,65,15.19Zm.59-2.31h-.2l-.15-.13c0-.25.09-.32.16-.46l.26,0c.11.14,0,.29.08.47Zm4.07,1.17a.77.77,0,0,1-.4,0v0c-1-.09-.34-1.63.5-1.14a.75.75,0,0,1,.57,0C71,13.37,70.44,14.49,69.67,14.05Zm1-3-.09.21a.06.06,0,0,1,.06,0c0,.12-.12.09-.16.18h0l-.08.2a.29.29,0,0,1-.13-.41c.08-.16.25-.29.42-.2ZM71,12.45l.1-.27c.12,0,.24,0,.36-.07l.22.1h0C71.9,12.81,71.18,12.82,71,12.45Z"></path><polygon class="cls-4" points="69.53 33.96 69.58 34.16 69.53 33.96 69.53 33.96"></polygon><path class="cls-4" d="M78.86,53.11h-.17l.17,0Z"></path><path class="cls-4" d="M106.44,77.14l-1-2.63,0,0L98.69,57.14a.33.33,0,0,1-.37,0,.44.44,0,0,1,.08-.75l-.06-.17-8.28-2-4.71-8.33-.07,0-.18-.17a.34.34,0,0,1,.09-.15L80,36.43l-6.16.46,0,.06v.2c-.19.17-.31.12-.46.15l-.2-.17a.31.31,0,0,1,.15-.2l-.69,0-9.83-12.3c.08.12.48,1.74,1,4.2a.55.55,0,0,1,.24.3.71.71,0,0,1-.1.3c.38,1.63.83,3.57,1.3,5.68a.46.46,0,0,1,.18.79c.42,1.83.85,3.77,1.29,5.7l.22-.18a.19.19,0,0,0,.14,0l.23.18c0,.2-.18.24-.28.3s0,0,0,0l-.15.29s0,0-.06,0c1.88,8.35,3.68,16.56,3.68,16.56l15.14,2a.4.4,0,0,1-.21-.52c.32-.51,1.13.07.69.5l-.1.07,1.33.17,3.87,20.29,4.61,3.32,2.22,24.28h18.36l-6.8-28.91ZM66.74,37.22l-.31.06-.31-.37.1-.3a.42.42,0,0,0,.22-.15h0a.62.62,0,0,1,.19-.14c-.77-.67.66-.87.27-.06H67l.14.21C67,36.83,66.85,36.9,66.74,37.22Zm2.63-3.39c.12,0,.15,0,.25,0v0l.21-.06a.28.28,0,0,1-.24.35.31.31,0,0,1-.41-.2h0l.21-.06S69.36,33.86,69.37,33.83Zm.16,8.61h0l-.27-.08-.14-.14c-.2-.94,1.46-.73.67.12A.59.59,0,0,1,69.53,42.44Zm.79,8.46-.22,0a.28.28,0,0,1-.12-.19.35.35,0,0,1,.11-.25l.26,0a0,0,0,0,0,0,0h.11C70.56,50.71,70.39,50.83,70.32,50.9Zm3.54,4.75c-.34-.08-.22-.45,0-.55l.29.06C74.22,55.32,74.18,55.7,73.86,55.65Zm.9-7.47-.18.1c-.28-.09-.33-.23-.59-.34l0-.26.32-.23.24.1C74.6,47.77,74.88,47.93,74.76,48.18ZM74.54,42c-.41.12-.87-.34-.56-.71C74.48,40.72,75.35,41.73,74.54,42Zm.59,10.74h0l.19,0c-.12-.07.18-.32.2-.15l.2,0C75.8,52.83,75.24,53.15,75.13,52.76ZM76,41a.49.49,0,0,1-.39,0l-.18-.14a.34.34,0,1,1,.67,0Zm1.38-3.52c.32.54-.3,1.23-.87,1.12C75.2,38.09,76.44,36.45,77.41,37.52Zm-.78,8.58v0c-1.06-.13.32-1.5.54-.45A.41.41,0,0,1,76.63,46.1Zm1.24-2c-.28.3-.5-.12-.68-.27.08-.51.89-.17.68.27Zm1.06,9.16h0l0,.18c-.16,0-.22-.19-.2-.35a.29.29,0,0,1,.3-.3L79,53s0,0,.06,0S79,53.19,78.93,53.29Zm4-9.43a2.87,2.87,0,0,0,.82.24l.08.3c-.3.29-1,0-1.13-.3ZM80.49,56.69c-.19.19-.52,0-.5-.29h0c.07-.23.32-.14.48-.11S80.49,56.56,80.49,56.69Zm.77-14.58c-.67.83-1.3-.79-.37-.71h0a.56.56,0,0,1,.22.08c.17-.22.51-.09.66.07C81.91,41.89,81.6,42.31,81.26,42.11Zm.53,12.42a.45.45,0,0,1,.73-.52A.45.45,0,0,1,81.79,54.53Zm.79-2.92h0c-.31-.8,1-.69.77,0A.41.41,0,0,1,82.58,51.61Zm.79,3.71c-.38,0-.23-.4-.23-.61a.23.23,0,0,1,.19-.05h0A.35.35,0,0,1,83.37,55.32Zm-1-9.52c-.43-1,1.16-1.73,1.33-.35C83.74,46.22,82.57,46.61,82.33,45.8Zm2.15,2.92c-1.21.29-.87-1.78.2-1.12a.68.68,0,0,1,.38,0h0l.1,0C86,48,85.19,49.21,84.48,48.72Zm1.3,4-.2-.05c-.07-.13,0-.28,0-.4a.32.32,0,0,1,.47.11v.17A.44.44,0,0,1,85.78,52.71Zm.75,3.65c-.81-.56.52-1.37.56-.35h0A.45.45,0,0,1,86.53,56.36Zm16.75,21.29c-.22.39-.79,0-.55-.32S103.5,77.33,103.28,77.65ZM101,65.39c0,.12-.14.19-.2.28C100.23,65.59,100.66,64.79,101,65.39Zm-12.13-.54-.1.22c-.38.08-.33-.46-.12-.6l.23,0A.41.41,0,0,1,88.84,64.85Zm.59-3.35-.28,0-.28-.32L89,61c.23-.1.37-.41.65-.31l.12.19C89.67,61.15,89.52,61.21,89.43,61.5Zm0-2.72c.54-.47,1.1.31.54.66A.45.45,0,0,1,89.41,58.78Zm.66,7.49.17-.36.09.19C90.3,66.21,90.15,66.23,90.07,66.27Zm1.3-.3a.4.4,0,0,1-.5-.61h0A.39.39,0,0,1,91.37,66Zm0-7.77h0c-.1-.33.39-.39.52-.15S91.47,58.43,91.34,58.2ZM92,57.07c-.07-.93,1.35-.77,1.36,0S92.14,57.8,92,57.07Zm.91,24.57a.34.34,0,0,1-.1.2l-.15.08a.25.25,0,1,1,.18-.47l.08.12A.15.15,0,0,1,92.87,81.64Zm.67-4.4-.14.09c-.9-.06.09-.92.14-.12h0Zm1.29-6.55h0c.06-.44.73-.44.86,0C95.84,71.36,94.51,71.45,94.83,70.69Zm.92-.94a.46.46,0,0,1-.77-.4h0c0-.13.19-.24.31-.25h0C95.66,68.9,96,69.42,95.75,69.75Zm.35-8.64a.27.27,0,0,1-.4,0l.16-.11a.06.06,0,0,1,0-.05c.07-.08.13,0,.2-.06h0s0,0,0,0l.15-.11A.25.25,0,0,1,96.1,61.11ZM96.19,68l.13-.22c.06,0,.08,0,.11,0l.24.07c0,.17-.06.25-.13.34a.06.06,0,0,0,0-.06l0,.29h0C96.18,68.44,96.2,68.18,96.19,68Zm.12,6.16c0-.28.44-.35.51-.1S96.38,74.4,96.31,74.15Zm1.19,7.48h0l-.15.11.06-.36.13.15A.51.51,0,0,1,97.5,81.63Zm.07-18a.36.36,0,0,1-.71,0,.36.36,0,0,1,.71,0ZM98,79.85c-.61-.5.56-1.22.49-.26,0,0-.09.16-.11.19l-.22.09Zm.26,2.72h0l0-.11,0-.18c.43-.23.5.32.25.49l-.22,0A.88.88,0,0,1,98.28,82.57ZM98.63,93l-.11-.15c0-.08.06-.14.08-.22l.14-.09C99.15,92.64,98.9,93,98.63,93Zm.29-31.61h0a.57.57,0,0,1,.58-.92C100.18,60.8,99.74,62.1,98.92,61.41Zm1.59,15.75a.31.31,0,0,1,.46,0v.17C100.77,77.74,100.19,77.54,100.51,77.16Zm-.23-3.49c-.74-.58.5-1.62,1-.8A.65.65,0,0,1,100.28,73.67Zm1.06-5.87a.72.72,0,0,1,1,.5C102.31,69.72,100.37,68.91,101.34,67.8Zm.66,3.28a.35.35,0,0,1,.69,0C102.73,71.58,102.07,71.64,102,71.08Zm1.22,19.63c-.87.17-.09-.86.09-.12ZM103,84.55l.08,0c.16,0,.13.22.12.27h0v0l-.13.13a.23.23,0,0,1-.23-.28l.18-.11Zm.28-1.2c-.26.54-1.2-.12-.58-.46h0C103,82.62,103.46,83,103.31,83.35Zm.53,11.54-.12.1c-.34,0-.29-.52,0-.46l.1.08a.2.2,0,0,1,0,.07A.41.41,0,0,1,103.84,94.89Zm.1-4.8c-.17.19-.52,0-.31-.22S104.15,89.87,103.94,90.09Zm.61-9.27a.25.25,0,0,1-.36,0h0a.27.27,0,0,1,.06-.43h.15a.44.44,0,0,1,.18.26Zm0-2.95c.39-.15.64.5.24.63v0C104.39,78.91,104.11,78,104.6,77.87Zm.47,3.82c-.2.09-.37-.18-.28-.34s.27,0,.37.05S105.1,81.6,105.07,81.69Zm1.19,10.49-.05-.23a.28.28,0,0,1,0,0,.34.34,0,0,1,0-.19l.22-.08s.06,0,.09,0l.11.15v0h0C106.58,92.18,106.45,92.23,106.26,92.18Zm.22,3.75.14.09a.26.26,0,0,1,0,.09h0l-.1.14Zm.51,3.72h0c-.38.14-.65-.35-.08-.4l.12.13,0,0,.1.12A.18.18,0,0,1,107,99.65Zm.67-14c.37-.27.79.37.35.56C107.78,86.31,107.4,85.88,107.66,85.63Zm.69,5.74s0,.17,0,.21l-.17.14-.15,0c-.68-.29.18-1.23.36-.37Zm.45-5.72c-1.24.31-.72-1.71.23-1A.63.63,0,0,1,108.8,85.65Zm6.63,19.7.11.05a.25.25,0,0,1,0,.2v0l-.07.13C115.23,105.86,115.13,105.39,115.43,105.35Zm-.87.31c-.06.19-.38.17-.3-.06S114.64,105.43,114.56,105.66Zm-.58-3.52,0,.12C113.24,102.64,113.62,101.56,114,102.14ZM112.22,99h0c.08-.06.18,0,.25,0a.39.39,0,0,1,0,.24C112.37,99.37,112.09,99.14,112.22,99Zm-.82-3.23c.2-.37.79,0,.56.37s-.95,0-.56-.37Zm-.86,9.39.09-.11c.25,0,.28.12.22.27a.32.32,0,0,1-.18.16l-.14-.1A1.62,1.62,0,0,1,110.54,105.15Zm-.65-14.1a.28.28,0,0,1,.55.12C110.36,91.56,109.78,91.39,109.89,91.05Z"></path><polygon class="cls-5" points="72.13 118.69 71.94 118.61 72.13 118.7 72.13 118.69"></polygon><path class="cls-5" d="M63.58,118c-.16.39-.84.41-.91,0H55.54l-.41,3.61a.78.78,0,0,1,.37.82h3.13a.56.56,0,0,1,.49,0H64a.86.86,0,0,1,.13-1.06.74.74,0,0,1,1,1.06h1.42a.57.57,0,0,1,.44-.9.58.58,0,0,1,.33.9H79.63a.36.36,0,0,1,.27,0v0a.65.65,0,0,1,.24,0l0,0h4L83.68,118ZM59,119h0c-.07-.41.4-.33.63-.37C60,119,59.2,119.43,59,119Zm3.63.64-.07-.18a.55.55,0,0,1,.23-.32l.22-.05C63.42,119.29,63,119.92,62.61,119.62Zm4.69.65h-.2l-.14-.13c0-.25.09-.32.16-.46l.26,0c.11.15,0,.29.08.47Zm4.08,1.17a.76.76,0,0,1-.4,0v0c-1-.09-.33-1.63.51-1.14a.73.73,0,0,1,.56,0h0C72.75,120.76,72.15,121.88,71.38,121.44Zm.89-2.82s0,0,.06,0-.13.09-.17.18,0,0,0,0l-.09.2a.29.29,0,0,1-.12-.41.32.32,0,0,1,.42-.2Zm.42,1.22.11-.27c.12,0,.23,0,.35-.07l.23.1C73.61,120.2,72.88,120.21,72.69,119.84Z"></path><polygon class="cls-5" points="72.51 107.04 72.32 106.96 72.51 107.04 72.51 107.04"></polygon><path class="cls-5" d="M64,106.15c0,.57-1,.61-.92,0H56.87l-.5,4.43h7.94a.85.85,0,0,1,.2-.91c.88-.5,1.4.33,1.13.91H66.9a.51.51,0,1,1,.9,0H82.89l-.47-4.43Zm-4.62,1.18h0c-.07-.4.4-.32.63-.36C60.34,107.34,59.58,107.77,59.36,107.33ZM63,108l-.07-.18c0-.21.15-.24.23-.32l.22,0C63.8,107.64,63.39,108.27,63,108Zm4.69.65h-.2l-.14-.13c0-.25.09-.32.16-.46l.26,0c.11.14,0,.29.08.46Zm4.08,1.17a.76.76,0,0,1-.4,0v0c-1-.09-.33-1.63.51-1.14a.73.73,0,0,1,.56,0h0C73.13,109.11,72.53,110.23,71.76,109.79Zm1-3-.09.21a.06.06,0,0,1,.06,0c0,.12-.12.09-.17.18s0,0,0,0l-.09.2a.29.29,0,0,1-.12-.41.32.32,0,0,1,.42-.2Zm.33,1.43.11-.27c.12,0,.23,0,.35-.07l.23.1h0C74,108.55,73.26,108.55,73.07,108.19Z"></path><path class="cls-5" d="M81.17,94.47l-.09-.86H78.19c.12.54-.31,1.17-1.12.69a.72.72,0,0,1-.33-.69H75a.77.77,0,0,1-.27.16.7.7,0,0,1-.27.27v0l-.07.07c-.43.27-.77-.09-.82-.48h-11a.67.67,0,0,1,.19,0c.77.51-.23,1.53-.88,1-.46-.4-.07-1,.46-1.08H58.29L57.79,98h5.08c.2-.5.89-.91,1.29-.16h0a.47.47,0,0,1,0,.16h3.26a.49.49,0,0,1-.14-.44.37.37,0,0,1-.18,0c-.76.51-1-1.13-.09-.81h0c.23-.22.52,0,.54.33a.63.63,0,0,1,.9.84l-.08.06H72a.48.48,0,0,1,.61,0h2.85a.74.74,0,0,1-.17-.32.75.75,0,0,1-.23-.28h0c-.38-.48.25-1,.81-.73a.77.77,0,0,1,.26.38.54.54,0,0,1,.07,1h2.18a.5.5,0,0,1,.6-.19.73.73,0,0,1,.17.19h2.36l-.31-2.85C80.94,95,80.83,94.6,81.17,94.47ZM76,95.59h0a.79.79,0,0,1-.39.49l-.18-.21a2.31,2.31,0,0,0,.28-.62l.25,0A.39.39,0,0,1,76,95.59Zm2.1-.37-.29-.12c0-.42.59-.77.94-.71l0,.33h0A3.09,3.09,0,0,0,78.05,95.22Z"></path><path class="cls-5" d="M75.85,81.07a.65.65,0,0,1-1,.72.72.72,0,0,1-.39,0v0a.49.49,0,0,1-.47-.68H59.71l-.24,2.1h0l.05.34a.57.57,0,0,0-.13.08l-.22,1.9H75c-.22-.37,0-1.12.79-.65a.42.42,0,0,1,0,.65h4.42l-.47-4.42ZM62.77,83.4a.53.53,0,0,1-.2.12c.07.27-.24.45-.46.48s-.5-.61-.13-.75c-.24-1,1.43-.54.79.15ZM68,83.05a.82.82,0,0,1-.35-1.38C68.89,81,69.41,82.94,68,83.05Zm2.24-.12c-.43-.51-.21-1.06.31-1.1C71.3,82,70.93,83.26,70.22,82.93Zm7.09,1.61c-.79.62-1.62-.66-1-1.27S78.08,83.68,77.31,84.54Z"></path><path class="cls-5" d="M78.4,70.29v0c-.81-.07-.53-1.07,0-1.2l-.13-1.28H67.1c-.1.24-.54.39-.7.07h0a.56.56,0,0,1,0-.07h-5.2l-.5,4.42h1.81a1,1,0,0,1,.9-.51l0,.33a2.38,2.38,0,0,0-.3.18h2.55a.31.31,0,0,1,.18-.44c-.24-1,1.42-.54.78.15h0a.47.47,0,0,1-.2.12.25.25,0,0,1,0,.17H78.79l-.2-1.88ZM61.79,71.6c-.66-.42-.25-1.57.55-1.27C63.37,70.6,63,72.31,61.79,71.6ZM70,68.49,70,68.31a.55.55,0,0,1,.23-.32l.22,0C70.84,68.16,70.42,68.8,70,68.49Zm1.86,3.08a.8.8,0,0,1-.34-1.37C72.8,69.48,73.33,71.46,71.89,71.57Zm2.24-.12c-.43-.51-.2-1.06.31-1.1C75.21,70.54,74.85,71.78,74.13,71.45Zm.59-2.31h-.2L74.38,69c0-.25.09-.31.16-.46l.26-.05c.11.15,0,.29.08.47Z"></path><polygon class="cls-6" points="82.97 78.69 82.82 78.68 82.97 78.7 82.97 78.69"></polygon><path class="cls-6" d="M90.42,115.63l-.14-.19c0-.31.2-.39.28-.68l-10-61H76.08l.6,6.28c.23-.42,1-.61,1.14.18a.57.57,0,0,1,.19.3h0c.32.53-.38,1-.9.63a.76.76,0,0,1-.2-.4.91.91,0,0,1-.17-.17l.17,1.8a.7.7,0,0,1,0-.14h0a.81.81,0,0,1,.46-.45l.14.23a2.87,2.87,0,0,0-.35.59h-.25s0,0,0,0l.91,9.49c0,.08,0,.15.07.22h0l.11.14a.23.23,0,0,1-.14,0l5.45,57.14c.33-.3,1.19.14.68.65h0a.48.48,0,0,1-.21.11c0,.23-.16.38-.36.44l.18,1.89h9.92l-2.83-17.13A.31.31,0,0,1,90.42,115.63ZM83.8,79.75,84,79.6a.49.49,0,0,1,.39.13l.09,0,0,.28c-.16.11-.31,0-.5.07L83.79,80Zm-.69-1.33,0,.17s0,0,.06,0-.08.16-.11.25h0L83,79c-.15,0-.2-.18-.18-.32A.27.27,0,0,1,83.11,78.42ZM80.52,60.21l0-.25c.24-.12.41,0,.62.08.11.42-.49.39-.66.17Zm-2,4.92c-.64,1.07-1.87-.63-.65-.93a.66.66,0,0,1,.3-.23v0l.08-.06C79.1,63.55,79.42,65,78.57,65.13Zm.71,3.39h0c-.78-.35.24-1.21.58-.51C80,68.36,79.61,68.66,79.28,68.52Zm1.66,1.74a.45.45,0,0,1-.14.89A.45.45,0,0,1,80.94,70.26Zm-.09,3.48h0c-.11-.22.13-.33.27-.42s.2.17.29.26C81.41,73.86,81,73.92,80.85,73.74Zm1.41-7.13.12.11a.47.47,0,0,1-.06.31l-.18.1c-.14,0-.2-.18-.29-.28A.32.32,0,0,1,82.26,66.61Zm.21,4c-.27.26-.44-.12-.6-.27a.25.25,0,0,1,.11-.17h0C82.23,70,82.63,70.28,82.47,70.58Zm.27,50.63,0-.2c.25-.16.39-.1.64-.23l.22.15,0,.4-.24.11C83.16,121.36,82.86,121.46,82.74,121.21Zm.37,3.45a.41.41,0,0,1,0-.67l0,0C83.9,123.23,84.06,125.16,83.11,124.66Zm.62-8.25c-.22,0-.2-.25-.21-.35l.12-.18a.26.26,0,0,1,.23,0,.33.33,0,0,1,.11.24l-.19.17a0,0,0,0,0,0,0Zm.11,9.79h0c0-.41.42-.31.65-.34C84.82,126.24,84,126.65,83.84,126.2Zm3.61.76-.06-.18c0-.21.15-.24.23-.32l.23,0C88.26,126.66,87.83,127.28,87.45,127ZM87.6,125c.17-.4.82-.45.91,0C88.64,125.8,87.29,125.81,87.6,125Zm1.6,5.09a.81.81,0,0,1-.3-1.39C90.19,128,90.64,130,89.2,130.1ZM92,127.16l.26,0c.11.15,0,.29.07.47l-.16.18-.2,0-.14-.14C91.76,127.36,91.88,127.31,92,127.16ZM91.79,129c.77.21.36,1.44-.34,1.09C91,129.53,91.28,129,91.79,129Zm-1.37-7.8c0-.06.06-.22.08-.27h0l.24-.16h.2C91.78,121.18,90.56,122.32,90.42,121.17Z"></path><path class="cls-6" d="M59.71,54.65l.07,0v0c.43-.23.51.54.1.57h0a.23.23,0,0,1-.24-.09l-.64,4a.63.63,0,0,1-.07.5l-.49,3a.93.93,0,0,1,.2.1.72.72,0,0,1,.39.06v0c1,.21.14,1.66-.64,1.08a.32.32,0,0,1-.14,0l-.79,4.91.19,0c.19.3.12.47.28.77l-.18.27-.37,0-.1.08L53.09,96.13a.36.36,0,0,1,.32.58.34.34,0,0,1-.42.06l-1.11,6.93a.79.79,0,0,1,.32,1.1.55.55,0,0,1-.52.21l-2.36,14.74a1,1,0,0,1,.16.73h-.27l-.36,2.21a.27.27,0,0,1,.25.23c1.06-.11.35,1.48-.25.76h0a.51.51,0,0,1-.09-.22s0,0,0,0l-1.47,9.24h9.91l.09-1c-.45,0-.78-.78.07-.81l.61-6.77-.14,0-.1-.24c.11-.21,0-.52.29-.62h0l.56-6.19a.26.26,0,0,1-.28-.08l.15-.11s0,0,0-.05a.29.29,0,0,1,.2-.11L59.94,102a.3.3,0,0,1-.13,0l-.12-.2c.05-.16.16-.18.24-.23l0,0L61,89.74c-.15,0-.27-.2-.19-.34a.19.19,0,0,1,.22-.06L63.45,63a.54.54,0,0,1-.48.21c-.75-.27-.24-1.47.43-1a.78.78,0,0,1,.11.2l.17-1.91-.12.13a.2.2,0,0,1-.17-.24l.07-.08c.1,0,.13,0,.19,0l0,.06.42-4.68H64s0-.06-.05-.08l0-.17a.33.33,0,0,1,.19-.13l.13-1.45H59.85Zm-.29,12.41v0c.29-.09.46.3.26.5a.33.33,0,0,1-.59-.28A.32.32,0,0,1,59.42,67.06Zm.8,12.08a.26.26,0,0,1,.25.26.28.28,0,0,1-.35.27L60,79.56a.39.39,0,0,1,.07-.31Zm0-.84c.06-.09.18-.1.27-.14s.13.39,0,.45S60.23,78.42,60.21,78.3Zm-.15,2.61.13.19s0,0,0,0l.1.18C60,81.91,59,80.84,60.06,80.91ZM58.89,66.29c.15,0,.17.19.3.29l0,.21-.14.09h0l-.17,0c-.15-.16-.1-.26-.13-.4Zm0,16c.44-.11.57.56.17.63A.33.33,0,0,1,58.86,82.27Zm-.48-1.7v0c.58,0,.14.88-.29.63S58,80.38,58.38,80.57Zm-1.3-6.72L57,73.69s0,0,0,0l-.1-.15C57.12,73,58,73.86,57.08,73.85Zm0,.26.11.13h0a.56.56,0,0,1-.1.35l-.18.11C56.45,74.64,56.63,74,57.05,74.11Zm-.2,19.64a0,0,0,0,0,0,0l.22-.18h0c.27.19.08.36,0,.5l-.25.06a.18.18,0,0,0-.1-.06l-.12-.22C56.61,93.74,56.75,93.76,56.85,93.75Zm-2.23-6.44c.32-.37.83,0,.47.5C54.76,88.1,54.34,87.62,54.62,87.31Zm-1.06,25.12c0,.15-.19.21-.28.29s-.29-.21-.25-.41l.11-.12a.45.45,0,0,1,.31.07Zm-.12-8h0c-.16.3-.54,0-.47-.27S53.52,104.19,53.44,104.45Zm-5,26.69c.56-.36,1.08-.07,1,.44C49.16,132.32,48,131.8,48.39,131.14Zm.16-2.24a.81.81,0,0,1,1.41-.17C50.51,130.07,48.47,130.34,48.55,128.9Zm1.23-10c.5-.6,1.6,0,1.19.7C50.58,120.57,48.93,120,49.78,118.87Zm1,13.32L50.6,132l0-.19.15-.13c.25,0,.3.13.43.21l0,.27C51.08,132.26,51,132.16,50.77,132.19Zm-.18-15.55a.84.84,0,0,1-.23-.31h0l-.06-.07c-.37-.79,1.06-1.11,1.21-.26C52.59,116.64,50.88,117.86,50.59,116.64Zm1.25,10.8.19,0c.19.07.21.17.29.26l0,.23C52.06,128.28,51.48,127.79,51.84,127.44Zm1.08-3.52h0c.41,0,.27.44.29.67C52.79,124.89,52.46,124.08,52.92,123.92Zm.73,4.75c-.77.06-.66-1.28.11-.9C54.14,128,54.14,128.62,53.65,128.67Zm.76-13.94c.36-.16.65.25.52.58h0C54.57,116.09,53.71,115.06,54.41,114.73Zm.11,8.6a.41.41,0,0,1,.67.08h0C55.88,124.24,53.93,124.23,54.52,123.33ZM54.87,109h0a.45.45,0,0,1,.65.15C55.7,110.13,54.18,109.75,54.87,109Zm.34-3.61a.43.43,0,1,1,.09-.85A.46.46,0,0,1,55.21,105.4Zm1.25-1.67c.26-.17.41-.11.67-.25l.23.16,0,.42-.25.13c-.22-.1-.54,0-.67-.24Zm.1,8.9c-.17-.26.15-.66.45-.49s-.13.44-.28.59a.27.27,0,0,1-.17-.1Zm.11,1a.45.45,0,0,1,.89.15A.45.45,0,0,1,56.67,113.66Zm.22-26.58a.65.65,0,0,1,1.25.12C58.25,88.14,56.64,88,56.89,87.08ZM58.41,94h0c-.39-.13-.28-.75.15-.79a.46.46,0,0,1,.26.82A.35.35,0,0,1,58.41,94ZM59,107.18c-.59.13-.75-.86-.13-.85C59.2,106.31,59.43,107,59,107.18Zm-.13-7.44h0a.4.4,0,0,1,.08-.79A.4.4,0,0,1,58.86,99.74Zm.83.06.08-.2c.1,0,.22,0,.3.07Zm.17-6.62h0c-.35.26-.83-.21-.61-.61C59.63,92,60.63,92.86,59.86,93.18Zm.6-8.59a.31.31,0,0,1-.31-.34l.12-.13C60.69,84,61,84.55,60.46,84.59Zm-.65-11.35c.07-.37.47-.72.85-.51C61.76,73.39,60,74.44,59.81,73.24Zm.52-13.7c.23.08.14.31,0,.41h-.23C60,59.81,60.06,59.48,60.33,59.54Zm2.41,4.82.13.15c0,.25-.13.3-.21.44l-.27,0c-.09-.16,0-.3,0-.48l.17-.16Zm-.12-8.87a.34.34,0,0,1-.57.29C61.44,55.25,62.53,54.58,62.62,55.49Zm-.73,3.8a.54.54,0,0,1,.88.06C63.12,60.33,61.32,60.31,61.89,59.29Zm-.67,13,.29,0c.13.15,0,.29,0,.41l0,0,.07.24h0c.25.09.21.66-.15.65a.34.34,0,0,1-.19-.56.84.84,0,0,1-.18-.28l0-.29C61.18,72.39,61.2,72.37,61.22,72.33Zm-.46-9a1.38,1.38,0,0,0,.38.2v.15c-.17.11-.47-.08-.52-.25ZM60.5,58.2h0c.16.19-.1.36-.31.31a.27.27,0,0,1,.11-.52A.24.24,0,0,1,60.5,58.2Z"></path></g></svg> 