<?xml version="1.0" encoding="UTF-8"?> <svg xmlns="http://www.w3.org/2000/svg" viewBox="0 0 140 140"><defs><style>.cls-1{fill:#f93168;}.cls-2{fill:#675de8;}.cls-3{fill:#c60e47;}.cls-4{fill:#352476;}</style></defs><g id="Layer_3" data-name="Layer 3"><polygon class="cls-1" points="86.22 68.96 90.71 70.01 94.53 67.65 95.05 72.22 98.35 75.14 94.28 77.03 92.4 81.1 89.47 77.79 84.9 77.28 87.26 73.45 86.22 68.96"></polygon><polygon class="cls-1" points="94.53 67.65 90.71 70.01 86.31 69 94.34 77.01 98.35 75.14 95.05 72.22 94.53 67.65"></polygon><path class="cls-2" d="M88.3,52.17s2.13-4.85-.73-7.85c-1.43-2.34.55-2,.55-2s2.77,1.33,3.56,3.57c1.54-1,2.27-2,3.65-2.56s3.64,2.28,4.09,6c.33,2.62-6.88,6.53-6.88,6.53Z"></path><path class="cls-2" d="M59.89,65.25s2.53-5.78-.87-9.35c-1.7-2.79.65-2.39.65-2.39s3.3,1.59,4.24,4.24c1.83-1.23,2.7-2.42,4.35-3s4.32,2.7,4.87,7.09c.38,3.11-8.19,7.76-8.19,7.76Z"></path><rect class="cls-1" x="92.97" y="18.45" width="3.14" height="9.97" rx="0.5" transform="translate(11.12 73.71) rotate(-45)"></rect><circle class="cls-1" cx="88.98" cy="17.87" r="2.03"></circle><path class="cls-1" d="M107.31,17.05a.47.47,0,0,1,0,.66l-1.62,1.62a.46.46,0,0,1-.65,0l-3-3c-.45-.45-1.82-2.08-3.11-.79-1,1-.17,2.23.25,2.73l3.43,3.43a.46.46,0,0,1,0,.65L101.07,24a.47.47,0,0,1-.66,0L94,17.56a.47.47,0,0,1,0-.66l1.57-1.56a.46.46,0,0,1,.65,0l.55.55a3.17,3.17,0,0,1,1.11-3.08c2.6-2.6,5-.16,6.35,1.18l3.06,3.06Z"></path><path class="cls-3" d="M46.31,61.13l-9.6,9.71L44,78l9.6-9.71ZM40,69.57c-.34.39-.78-.28-.36-.51S40.19,69.26,40,69.57ZM41.93,71l.16,0C42.92,71.48,41.52,71.73,41.93,71Zm2.59-3.52,0-.14a.35.35,0,0,1,.19-.19h.21C45.18,67.37,44.74,67.77,44.52,67.47Zm1,1.11c-.25,0-.41-.3-.12-.36S45.79,68.52,45.49,68.58Zm1.17-6.51-.07-.15a.14.14,0,0,1,.06-.07h0l.16-.06Zm.61,10.8-.18,0c-.17-.26,0-.37.16-.41a.41.41,0,0,1,.28.11l0,.21C47.43,72.8,47.35,72.82,47.27,72.87Z"></path><path class="cls-4" d="M39.08,70.88a11,11,0,0,1-.92-1.38L35,72.73l0,.07c-.05.1-.17.12-.25.17h0L28,79.8a.37.37,0,0,1-.16.27.39.39,0,0,1-.19.08L17.2,90.69a23.76,23.76,0,0,0-1.75,2,.71.71,0,0,1,.15-.08c.94-.3,1.32,1.11.28,1.52h0c-.62.13-.9-.45-.79-.93a22.25,22.25,0,0,0,2.28,29l6.9-7a12.22,12.22,0,0,1-.36-17.07l3.81-3.85a.46.46,0,0,1,.35-.35L45.72,76.07A18.12,18.12,0,0,1,39.08,70.88ZM12.55,105.46a.9.9,0,0,1-.1-1.42C14,103.25,14.33,105.84,12.55,105.46Zm4.2-9.22.3-.09.21,0a.63.63,0,0,1,.17.59C17.16,97.6,16.11,96.88,16.75,96.24Zm-.26-.11-.2-.09a.09.09,0,0,1,0,.08s-.35,0-.24-.1l-.19-.09C16,95.61,16.66,95.73,16.49,96.13ZM15.28,102c.5-.34,1,.34.4.76C15.19,103,14.85,102.29,15.28,102Zm.28,8.89c0-.06-.05-.09-.1-.1l-.07-.3c.16-.16.31-.09.44-.07l-.05,0,.32-.13h0c.26.31,0,.45-.22.57Zm.7,7.34h0a.49.49,0,0,1,.37-.91A.49.49,0,0,1,16.26,118.24Zm.41,3-.08-.27c.12-.17.25-.16.37-.2l.29,0C17.57,121.07,17,121.35,16.67,121.21Zm.58-2.63.15-.21c.13,0,.25.12.33.19Zm.83-7.2h0a.42.42,0,0,1-.46-.18h0c-.42-.28-.09-1,.44-.89A.57.57,0,0,1,18.08,111.38Zm0-8.9a.8.8,0,0,1,1.45.56C19.35,104.19,17.47,103.48,18.07,102.48Zm1.55,8.26h0c-.51.2-.92-.52-.53-.93C19.73,109.23,20.63,110.61,19.62,110.74Zm1.19-22h0a.73.73,0,0,1-.38.06.3.3,0,0,1,0-.45l.16,0c.14.07.15.15.2.22ZM22,95.19l0,0c.68.26-.12,1.11-.56.67S21.58,94.84,22,95.19Zm0,3a.4.4,0,0,1,0-.8C22.55,97.4,22.49,98.24,22,98.19Zm.65-11.44h0l-.1-.23a.14.14,0,0,0,0,0l-.07-.22C23,85.71,23.73,87.06,22.64,86.75ZM34,75.53l0,0h.2a.26.26,0,0,1,0,.41l-.24,0,0,0-.11,0C33.78,75.69,33.94,75.57,34,75.53ZM24.35,94.69l-.09-.17a.47.47,0,0,1,.18-.34l.21-.09a.32.32,0,0,1,.21.4A.34.34,0,0,1,24.35,94.69Zm.72-1.16c-.22,0-.17-.29-.16-.45s.25,0,.37-.07C25.49,93.17,25.3,93.51,25.07,93.53Zm1-6.61a.78.78,0,0,1,1.18-.34C28.37,87.73,25.87,88.4,26.09,86.92Zm1.86.9c-.52-.24-.08-1.07.39-.72C28.61,87.29,28.38,88,28,87.82Zm4.5-5.69a.36.36,0,0,1-.21-.68C32.71,81.31,32.89,82,32.45,82.13Zm1.28,1.46h0s.19-.07.25-.08l.25.11.11.15C34.44,84.67,32.91,84.32,33.73,83.59Zm2,1.91a.38.38,0,0,1-.2.14l-.22-.19a.22.22,0,0,0,0-.14l.09-.2.05,0c.25-.07.38,0,.45.27l-.22.19S35.7,85.51,35.7,85.5Zm.91-7.86h0c-.52,0-.48-.87.06-.84S37.26,77.83,36.61,77.64Zm3-2.84h0c-.1,0-.12-.18-.16-.27s.16-.13.24-.18C39.92,74.4,39.84,74.84,39.6,74.8Z"></path><path class="cls-1" d="M66.24,35.42l4.58.51,1.6,1.81a.61.61,0,0,1,.33,0s0,0,0,0l.32-.13h0c.25.29,0,.43-.2.55l.92,1,1.89-4.07.05,0h0l4-1.87L76.43,30.4c-.22,1.09-2,.39-1.44-.6a.81.81,0,0,1,1.34.06l-.46-4.07-3.82,2.36-4.49-1,1,4.49Zm.85-.77c.15-.06.29,0,.42.05C67.76,35.32,66.64,35.35,67.09,34.65Zm5.11-5.32c.5-.34,1,.34.4.75A.43.43,0,0,1,72.2,29.33Zm-2.83,2c1.58-.79,1.88,1.8.1,1.42A.89.89,0,0,1,69.37,31.36Z"></path><path class="cls-1" d="M124.72,36.78l-4.25,2.62a.33.33,0,0,1-.35.19.37.37,0,0,1-.27-.11l-4.44-1a.38.38,0,0,1-.45.06l1.19,5.12-2.78,4.5,5.39.61,3.45,3.9,2.22-4.79.06,0h0l4.73-2.2-3.9-3.44Zm-8.51,7.11a.8.8,0,0,1,1.45.56C117.48,45.6,115.61,44.89,116.21,43.89Zm4.37,4.55c-.28.21-.64-.25-.41-.49S120.81,48.21,120.58,48.44Zm.7-6.36a.39.39,0,0,1-.26-.51l.19-.1C121.75,41.45,121.89,42.2,121.28,42.08Zm4.35.87.07.19c-.17,1-1.65.13-.58-.37a.66.66,0,0,1,.28,0Z"></path><path class="cls-3" d="M61,94.82l7.28,7.2L73,97.18a1,1,0,0,1,.42-.43l4.4-4.44-7.27-7.2Zm1.59.77-.22,0a.33.33,0,0,1-.13-.44h0a.35.35,0,0,1,.54-.09l.06.18A.53.53,0,0,1,62.54,95.59Zm2.62-.52,0,0c-.62-.39.33-1.06.68-.55S65.48,95.49,65.16,95.07Zm.4-2.16c-.54-.12-.31-.93.17-.78A.4.4,0,0,1,65.56,92.91Zm7.24-4a.43.43,0,0,1,.25.82C72.49,89.92,72.16,89.17,72.8,88.87Zm-1.89,10c-1,.11-1.08-1.34,0-1.54h0C71.9,97.28,71.78,98.76,70.91,98.83Zm0-3.55s.34,0,.21.13l.17.13c-.2.29-.84,0-.6-.32l.17.13S70.9,95.3,70.94,95.28Zm-.46-.22-.31,0L70,95a.63.63,0,0,1,0-.61C70.35,93.65,71.24,94.56,70.48,95.06Zm-.07-6.38a.81.81,0,0,1-1.32-.83C69.49,86.76,71.19,87.82,70.41,88.68Z"></path><path class="cls-2" d="M62.08,95.63a11.09,11.09,0,0,1-.72-1L41.08,115.1A12.21,12.21,0,0,1,24,114.93l-6.89,7a22.26,22.26,0,0,0,31.48-.17l7.23-7.3c-.16-.39.3-.75.67-.68l8.39-8.49a.45.45,0,0,1,.23-.57.38.38,0,0,1,.33,0L67.08,103c-.68-.11-.86-1.08.12-1.15a.58.58,0,0,1,.5.52L69.1,101A18.38,18.38,0,0,1,62.08,95.63ZM34.46,123l-.17,0,.21-.25,0,.16A.13.13,0,0,1,34.46,123Zm.76,2.9h0l-.13,0c-.3-.24.26-.55.22-.1A.2.2,0,0,1,35.22,125.87Zm.21-2a.13.13,0,0,0,0,0l0,.17c-.25.18-.52-.29-.35-.44s.24-.14.43.13Zm2.21-5.9a.36.36,0,0,1-.22.14h0l-.17,0c-.24-.3.28-.61.44-.27Zm.44,8.8c-.41.08-.66-.68-.12-.66h0C38.36,126.06,38.5,126.73,38.08,126.82Zm2.22-4.44a.3.3,0,0,1,.29-.53A.3.3,0,0,1,40.3,122.38Zm9.11-10.78.23.1,0,0,.1,0c.06.18-.12.27-.18.3l0,0-.2,0A.26.26,0,0,1,49.41,111.6Zm-6.69,5.66c-.3,0-.48-.3-.26-.58C42.87,116.37,43.17,117.11,42.72,117.26Zm.5,2.76L43,120l-.11-.12c-.11-.41.41-.76.68-.4C43.68,119.56,43.52,120,43.22,120Zm1.78-.13a.3.3,0,0,1-.48-.19l.15-.15a.32.32,0,0,1,.16-.14l.23.16a.17.17,0,0,0,0,.12Zm1.56.58a.43.43,0,0,1,.8,0C47.73,121.4,46.16,121.54,46.56,120.47Zm.6-10.23c-.5-.12-.38-1.12.22-.8h0C47.89,109.53,47.68,110.37,47.16,110.24Zm1.2,4.5-.11.05c-.13,0-.15-.08-.2-.13l0-.16c.07-.09.19-.09.28-.12A.24.24,0,0,1,48.36,114.74Zm1.11,1.93a.65.65,0,0,1-.93-.55C48.69,114.84,50.67,115.87,49.47,116.67ZM50.53,119a.28.28,0,0,1-.11-.34h0c-.08-.3.31-.34.52-.17A.34.34,0,0,1,50.53,119Zm.81-1.73c-.21-.21,0-.42.21-.45l.24.13C51.83,117.13,51.6,117.48,51.34,117.26Zm1.07-10.71c-.49,0-.52-.71-.07-.71A.36.36,0,0,1,52.41,106.55ZM53,112.8a2,2,0,0,0-.3-.42l.07-.18c.25,0,.47.35.44.57Zm4-2.31-.27.1c-.15-.13-.09-.3-.17-.48l.13-.23.21,0h0L57,110C57.1,110.23,57,110.32,57,110.49Zm0-1.09a.36.36,0,0,1-.47,0l0,0c-.37-.06-.34-.57,0-.69S57.34,109.07,57,109.4Zm.35-7.63c-.23-.24.13-.85.52-.64S57.73,102.21,57.34,101.77Zm2.17.61a.78.78,0,0,1-1.23.11C57.43,101.14,60,101,59.51,102.38Zm1.33,6.19c-.75.63-1.38-.56-.54-1.06C61,107.21,61.36,108.16,60.84,108.57Zm1-12c-.12.06-.26,0-.38,0-.17-.2.08-.5.3-.47S61.91,96.42,61.87,96.57Zm1,6.65,0,.25a.11.11,0,0,0,0-.06l0,.23C62.34,104.18,61.86,102.71,62.86,103.22Zm2.19-1.59c.12-.06.26,0,.38,0a.31.31,0,0,1-.13.44h-.16a.39.39,0,0,1-.15-.27Z"></path><path class="cls-2" d="M44.7,119.51l0,0h0A.12.12,0,0,0,44.7,119.51Z"></path></g></svg> 