<?xml version="1.0" encoding="UTF-8"?> <svg xmlns="http://www.w3.org/2000/svg" viewBox="0 0 140 140"><defs><style>.cls-1{fill:#675de8;}.cls-2{fill:#492f90;}.cls-3{fill:#c60e47;}.cls-4,.cls-6{fill:#f93168;}.cls-5{fill:none;}.cls-5,.cls-6{stroke:#f93168;stroke-linecap:round;stroke-miterlimit:10;stroke-width:2.43px;}.cls-7{fill:#352476;}.cls-8{fill:#221989;}</style></defs><g id="Layer_3" data-name="Layer 3"><path class="cls-1" d="M70.2,19.23a.2.2,0,0,0-.4,0l-1,5.12h2.44Z"></path><path class="cls-2" d="M61,120.84l-.11.06,0,0H61S61,120.87,61,120.84Z"></path><path class="cls-2" d="M112.22,54h0v0Z"></path><path class="cls-2" d="M131.23,117.62a.52.52,0,0,1-.22-.14l-.54,0,.46-.16a.37.37,0,0,1,.24-.35.41.41,0,0,1,0-.11h-9.79c0,.1-.18.16-.26.2a.31.31,0,0,1-.26-.2h-2.91c0,.19-.09.38-.33.35s-.32-.23-.41-.4l0-.09h0l.14-.23h.12l0,0,.14,0a.19.19,0,0,1,.11.08v-1.81a.29.29,0,0,1-.2.26.38.38,0,0,1-.33-.16.44.44,0,0,1,0-.2l0-.11h0l.23-.19.08,0h0l.18.14v-5.14a.53.53,0,0,1-.06.1h0a.38.38,0,0,1-.32.12.27.27,0,0,1-.25.22l-.17-.06a1.08,1.08,0,0,1-.13-.32l.1-.2a.39.39,0,0,1,.15,0l0-.13a1.46,1.46,0,0,1,.41-.29.62.62,0,0,1,.25.23v-.46l-1.31,0,1.24-.25v0a.89.89,0,0,1,.08-.17v-7.8l-.07,0a.46.46,0,0,1-.08.3l-.19.09c-.08,0-.3-.14-.34-.23l-.12,0,0-.1a1.28,1.28,0,0,0,0-.19.45.45,0,0,1,.4-.18l.06.08a.33.33,0,0,1,.17.14l.13,0V96.41h-.16a.4.4,0,0,1-.16.12l-.24-.06c-.18-.26,0-.64.36-.5a1.14,1.14,0,0,0,.2.22V90.56s-.08-.07-.09-.12a.5.5,0,0,1-.13.29c-.1,0-.19.1-.29.13L117,90.8c-.3-.32-.06-.56.13-.81l.36,0,.06.09a.53.53,0,0,0,.06-.1v-.49l.13.26V77.47c-.13,0-.3,0-.42,0l0-.06a.35.35,0,0,1-.19-.24h0l.06-.35a.57.57,0,0,0,.22-.19l.28,0,.12.1V62.53a1.06,1.06,0,0,1-.53-.24,1.53,1.53,0,0,0,0-.3l.17-.38a1.81,1.81,0,0,1,.39,0V55a3.81,3.81,0,0,0-2.45-3.55.3.3,0,0,1-.15,0s-.21,0-.26-.08,0,0,0-.08a4.1,4.1,0,0,0-.94-.13h-1.24v0c-.08.16-.21.29-.41.23a.31.31,0,0,1-.29-.26H112l-.11.08a.32.32,0,0,1-.14-.08h-2.91s0,0,0,.06-.23.32-.41.4l-.09,0h0l-.24-.14v-.12l0,0,0-.14h-1.52a.7.7,0,0,1,.06.09.44.44,0,0,1-.16.33.47.47,0,0,1-.21,0l-.1,0-.2-.23,0-.08v0l.05-.07h-4.92a.46.46,0,0,1,.09.27.29.29,0,0,1,.22.25l-.06.17a1.35,1.35,0,0,1-.32.13l-.2-.1a.4.4,0,0,1,0-.15l-.13,0a1.37,1.37,0,0,1-.29-.42,1.13,1.13,0,0,1,.1-.13h-.33l0,1.2-.25-1.2H92.14l.07,0,.09.19c0,.08-.13.3-.22.34l0,.12-.11-.06-.18,0c-.16-.09-.17-.25-.18-.4l.07-.06c0-.08.09-.12.15-.17v0H88.05v0a1.25,1.25,0,0,1,.12.17l-.06.24c-.27.18-.65,0-.5-.36l.11-.09H82.16a.43.43,0,0,1,.21.11c0,.1.11.19.13.29l0,.24c-.33.3-.56.06-.82-.13,0-.11,0-.25,0-.36l.08-.06-.09-.07h-.5l0,0H69.13a1,1,0,0,0,0,.31l-.06,0a.37.37,0,0,1-.24.19v0l-.35-.06a.57.57,0,0,0-.19-.22l0-.28H54.16a1.55,1.55,0,0,1-.22.42h0a1.45,1.45,0,0,0-.3,0l-.39-.17c0-.1,0-.19,0-.28H41.94a.48.48,0,0,1,0,.64l-.26.14a.31.31,0,0,0-.12-.05h0a.32.32,0,0,1-.43-.23l0-.32.2-.11.06-.08H34.72a.54.54,0,0,1-.1.16l-.28,0-.16-.11a.26.26,0,0,1,0-.08h-8.1a3.79,3.79,0,0,0-3,1.47v0l0,.16h0l-.15,0,0,0A3.84,3.84,0,0,0,22.23,55v8.42a.13.13,0,0,1,.06,0l0,.16a.91.91,0,0,1-.09.17h0a.38.38,0,0,1,.15.26s.06.1.06.11l-.21.28v8.92s0,0,.06,0l.16.08a1.07,1.07,0,0,1,.08.32l-.12.19a.36.36,0,0,1-.18,0v.67h.11v-.07l0,0v-.05a.48.48,0,0,1,.27-.21.35.35,0,0,1,.52.06l.05.25-.08.15,0,.07-.28.29a1.29,1.29,0,0,0-.19,0c-.06.16-.2.2-.28.31a.51.51,0,0,1-.2,0V86.16h0a.34.34,0,1,1,0,.67v8a.47.47,0,0,1,.45.14c.17.48-.18.7-.45.61V99.9a.6.6,0,0,1,.44.16l.09.23a.53.53,0,0,1-.53.48V103s0,0,.05,0a1.31,1.31,0,0,1,.28,0l0,0h.14l.09.12h.05a.5.5,0,0,1,0,.56s0,.1,0,.13l-.11,0a.41.41,0,0,1-.51.14v1.32a.83.83,0,0,1,.35,0,.38.38,0,0,1,0,.45.32.32,0,0,1-.39.1v9a.77.77,0,0,1,.43,0l.08,0,0,.09,0,0a2.31,2.31,0,0,0,.14.19.38.38,0,0,1,.56,0l0,.27-.11.17a.29.29,0,0,1-.48-.12,1,1,0,0,1-.22.24l-.15,0a.34.34,0,0,1-.2,0,.35.35,0,0,1-.14-.06h0v1.14H8.85c-.36,2.58.11,3.69,5.2,4.07a1,1,0,0,1-.09-.13l.06-.24c.26-.18.64,0,.5.36a.09.09,0,0,0,0,0h5.38a.27.27,0,0,1-.1-.06c0-.1-.1-.19-.13-.29l.06-.24c.32-.3.56-.06.81.13,0,.11,0,.25,0,.36l-.09.06.07,0H33a1.11,1.11,0,0,0,0-.26l.06,0a.36.36,0,0,1,.23-.19l0,0,.35.06a.57.57,0,0,0,.19.22l0,.24H46.76v0c.09-.05.13-.1.26-.09s.22,0,.27.08,0,0,0,0H48a1.61,1.61,0,0,1,.21-.37,1.53,1.53,0,0,0,.3,0l.38.17c0,.08,0,.16.05.23h.66a.3.3,0,0,1,.32-.09.27.27,0,0,1,.2.09h3.39a.92.92,0,0,1,.3-.29l.09,0h0l.23.14v.11H55.6a.48.48,0,0,1,.14-.25.71.71,0,0,1,.21,0l.1,0,.2.23v0h.62a.56.56,0,0,1-.1-.15l.12-.26H57c.22-.05.35.17.35.37l-.06.05h1.37a.52.52,0,0,1-.18-.5.41.41,0,0,1,.22-.33h0l0-.08.23,0a.78.78,0,0,1,.34,0l.08.14a.33.33,0,0,1,.12-.19l.26-.05.06,0-.08.16.1-.14a.36.36,0,0,1,0,.55l-.26.09a.32.32,0,0,1-.19-.17l0,0,0,.09,0,.07-.09,0h0l.09.06a.57.57,0,0,1-.24.22h1.08a.47.47,0,0,1,.06-.59l.26-.14a.35.35,0,0,0,.13,0l0,0a.32.32,0,0,1,.36.1l.17,0h0l0-.11a.52.52,0,0,1,.69-.37l.06.14L62,120l0,.11c.09.25-.16.48-.35.55h0a3.1,3.1,0,0,1,.18.26h.25l0-1,.21,1h5.15a.59.59,0,0,1,.08-.11l.27,0,.17.11s0,0,0,0h2l0-.06c0-.07.13-.3.22-.34l0-.11.1,0,.19,0a.46.46,0,0,1,.18.41l-.08,0s0,0,0,0h3.52l0,0,.06-.24a.31.31,0,0,1,.5.28h5.21a.67.67,0,0,1-.1-.23l0-.24c.32-.3.56-.06.81.13,0,.11,0,.24,0,.34H93.07a.65.65,0,0,0,0-.14l.06-.05a.37.37,0,0,1,.24-.19v0l.35.06a.51.51,0,0,0,.19.22v.12h14.19l.16-.25a1,1,0,0,0,.3,0l.38.17,0,.11h5.64c0-.18.07-.34.28-.36l-.1,0-.11-.15c-.11-.64.93-.44.55.12a.49.49,0,0,1-.23.06.42.42,0,0,1,.14.06h.13a.52.52,0,0,1,.12.3h2a.28.28,0,0,1,0-.26.31.31,0,0,1,.27-.29l0,0-.13-.2a.29.29,0,0,1,.58,0l-.15.24h-.24l.12.06a.63.63,0,0,1,0,.43h2.3a.53.53,0,0,1,.12-.47l.26-.14.13.06,0,0a.32.32,0,0,1,.43.23l0,.32,0,0h4.27a18.78,18.78,0,0,0,3.41-.43.42.42,0,0,1-.33-.21,2.81,2.81,0,0,1,0-.29l0,0a.38.38,0,0,1,.15-.22l.2,0h0l.14,0,.13.09h0c.18.12.15.33.2.5l-.07.1A2.31,2.31,0,0,0,131.23,117.62Zm-118.42.43a.92.92,0,0,1-.44.16.89.89,0,0,1-.28-.23,1.61,1.61,0,0,1,.08-.61C12.69,117.15,13.11,117.54,12.81,118.05Zm5.87,1.23-.06.11c-.22,0-.47-.11-.7-.08l.14-.08c0-.12-.11-.35,0-.45l.15.1-.14-.11c0-.08.28-.17.39-.19l.05,0h0C18.86,118.68,19.06,119.05,18.68,119.28Zm2.55-.32h0a.49.49,0,0,1-.24.21.33.33,0,0,1-.49,0l-.06-.23.06-.13,0-.07.25-.29c.16,0,.34,0,.5.19l0,.26,0,0Zm1.9.67c-.09,0-.2,0-.3,0-.2-.15-.47-.41-.33-.67h0l.21-.22,0,0,.1-.06.07,0a1.3,1.3,0,0,0,.33-.07l.05.17c.18.12.09.33.1.5l0,0a.34.34,0,0,1-.12.2l.2.36ZM31.46,53.8l.25,0a.37.37,0,0,1,.1.66,1,1,0,0,1-.34,0h0A.4.4,0,0,1,31.46,53.8Zm-.25,1,.53,0-.45.16a.37.37,0,0,1-.5.36.29.29,0,0,1-.17-.23h0a.46.46,0,0,0,0-.26l0,0v-.05A.37.37,0,0,1,31.21,54.8Zm.12,4.32c-.14.17-.33.32-.56.17h0l0,0-.09-.16a.45.45,0,0,1,.16-.39l.26,0,.23.17Zm-.64-7.2c0,.39-.21.45-.54.4C29.62,51.87,30.61,51.24,30.69,51.92ZM29,51.44l.18-.12c.22,0,.32.09.45.19a.52.52,0,0,1,0,.31l.05.16-.29.28-.1,0-.06,0-.28-.2a.68.68,0,0,1,0-.29A.36.36,0,0,1,29,51.44Zm-.11,41.37.1,0a1.56,1.56,0,0,1,.1.37.75.75,0,0,1-.58.29c-.12-.06-.24,0-.4-.15s-.11-.18-.13-.21C28,92.64,28.58,92.31,28.85,92.81Zm-.18,11.42a.82.82,0,0,1-.36-.22v-.12l0-.22a1.39,1.39,0,0,1,.45-.25A.41.41,0,0,1,28.67,104.23Zm-.76-5.79-.12.14-.34,0a.51.51,0,0,1,0-.52,1.18,1.18,0,0,1,.33-.12A.37.37,0,0,1,27.91,98.44Zm0-12.82-.09.16.13-.13s.12.16.15.19a1.72,1.72,0,0,0,0,.32.4.4,0,0,1-.22.28l-.12.14,0,0v0c-.27-.07-.56-.16-.62-.5-.1.09-.34-.07-.51-.09a2.79,2.79,0,0,1-.14-.57c.21-.46.88-.7,1-.08,0,0,0,.11,0,.17s.26,0,.35.06ZM27.17,110c-.08.24-.35.43-.56.26h0a.33.33,0,0,1-.06-.47v-.13a.45.45,0,0,1,.55,0l.1.22a.94.94,0,0,0,0,.09ZM26,105.58s-.09.1-.11.11l-.27.07h0a.06.06,0,0,1-.06,0c-.15.07-.31-.07-.44-.06l-.12-.4,0,0h0l.09-.19a.77.77,0,0,1,.49-.18h0c.21-.2.43,0,.59.16a.54.54,0,0,1,0,.43A.47.47,0,0,1,26,105.58Zm0,2.54c-.67.56-.86-.84,0-.44A.41.41,0,0,1,26,108.12Zm-1.28,8.64c-.11.19-.32.16-.5.21l-.23-.17c0-.26,0-.57.21-.71a2.81,2.81,0,0,1,.29,0l0,0a.48.48,0,0,1,.23.16l0,.2h0l0,.15-.09.12Zm0-3.05-.11.08a1.36,1.36,0,0,0-.2,0l-.2-.09a.57.57,0,0,1,0-.72c.28-.17.76-.06.75.3l0,.08A.85.85,0,0,1,24.71,113.71Zm.23-2.22a2.72,2.72,0,0,1-.28,0l0,0,.1-.15-.12.14c-.19-.15-.07-.35-.07-.54C25,110.64,25.49,111.29,24.94,111.49Zm-.13-15.57a.39.39,0,0,1,.75-.18c.05.07,0,.21,0,.29a.46.46,0,0,1-.61.09Zm1.4,5.12,0,0-.39-.11v0l-.13-.06.06-.13a.5.5,0,0,0,0-.12,1.29,1.29,0,0,1,.19-.32.66.66,0,0,1,.35.1h.06l.17.18a1.51,1.51,0,0,1,0,.3A.44.44,0,0,1,26.21,101Zm.68-17.61c.08,0,.25.17.25.26h0a1.24,1.24,0,0,1,.06.29c0,.07-.15.16-.19.22l-.32.18,0,0a.47.47,0,0,1-.37-.32h0l-.05-.31a.54.54,0,0,1,.66-.28Zm-.53,5.49a.54.54,0,0,1,.18,1s-.21,0-.26,0c-.26-.16-.6-.26-.49-.61l0,0a.35.35,0,0,1,.21-.26C26.08,89,26.27,89,26.36,88.92Zm.19,8-.05.36-.09,0,0,0-.31,0a1,1,0,0,1-.14-.23.34.34,0,0,1-.07-.44.51.51,0,0,1,.43-.11.42.42,0,0,1,.15.23Zm-.11,15.31a.33.33,0,1,1,.55.38l-.14.13-.28,0c-.06-.07-.1-.16-.15-.21A2.11,2.11,0,0,1,26.44,112.26Zm1-34.49a.68.68,0,0,1,.39.68.6.6,0,0,1-.8,0,.81.81,0,0,1-.06-.31,2.76,2.76,0,0,1,.24-.35ZM26.27,60.49h0a1,1,0,0,1-.16-.44.89.89,0,0,1,.23-.28,1.58,1.58,0,0,1,.61.08C27.17,60.37,26.78,60.79,26.27,60.49ZM26.05,55s.06-.07.07-.13a2.39,2.39,0,0,1,.37-.15h0c.1.07.24.23.24.32l0,0a1.46,1.46,0,0,1,.07.3l-.19.26a.46.46,0,0,1-.36,0h0a3.18,3.18,0,0,1-.26-.35l0,0-.08-.14Zm-.7,2.74a.59.59,0,0,1,.47,0l.09.17a.35.35,0,0,1-.57.32h0C25.19,58.12,25.24,57.94,25.35,57.76ZM25,65.6l.08.14c.12,0,.35-.11.45,0l-.1.15.12-.14c.07,0,.17.28.18.39l0,0h0c-.08.35-.45.55-.68.17l-.11-.06C24.91,66.08,25.05,65.83,25,65.6Zm-.3,4.91c.14-.21.4-.47.66-.33h0l.22.21,0,0,.06.1-.05.07a1.94,1.94,0,0,0,.07.33l-.17,0c-.12.17-.33.09-.49.1l0,0a.29.29,0,0,1-.2-.11l-.36.2.3-.31C24.65,70.72,24.7,70.61,24.71,70.51Zm-.34,36.89-.05.06-.16-.08.14.1a.37.37,0,0,1-.55,0l-.09-.26a.37.37,0,0,1,.65-.11Zm-.2-18a.46.46,0,0,1-.61-.09,1.05,1.05,0,0,1,0-.31l.07-.07a.4.4,0,0,1,.61.08A1,1,0,0,1,24.17,89.41ZM23.3,57.89a.46.46,0,0,1,.08-.3l.19-.09c.08,0,.31.14.35.23l.11,0-.05.1s0,.15,0,.19a.45.45,0,0,1-.4.18l-.06-.08a.26.26,0,0,1-.16-.15L23.11,58Zm.09,3.87a.48.48,0,0,1,.16-.12l.24,0c.18.27,0,.65-.35.51a5,5,0,0,0-.46-.46Zm-.82,2.12h0l.21-.09a.28.28,0,1,1-.21.5l-.08-.2Zm-.16,4.56a.31.31,0,0,1,.44.14.45.45,0,0,1,0,.2v.1l-.25.16-.07,0h0l-.17-.19A.73.73,0,0,1,22.41,68.44ZM22.73,72a.32.32,0,0,1-.43-.22s0-.1,0-.13h0c.14-.26.46-.19.51.14Zm-.29-1.89-.15-.24a.41.41,0,0,1,.32-.29l.24.14v.09C22.87,70,22.65,70.08,22.44,70.06Zm.76-1.76a.63.63,0,0,1-.61,0h0l-.11-.19a.33.33,0,0,0,0-.14c0-.09,0-.24.05-.33.25-.19.7-.22.81.1a.46.46,0,0,1,.12-.29c.1,0,.2-.1.3-.13l.23.06c.3.32.06.56-.13.81l-.36,0-.06-.09a.53.53,0,0,0-.06.1v.49Zm0,12.39c.13,0,.32,0,.46,0l.05.06a.34.34,0,0,1,.18.23l0,0-.06.34a.66.66,0,0,0-.22.19l-.27,0-.19-.15v-.07A.41.41,0,0,1,23.2,80.69Zm-.73,5.15-.2-.21,0-.08v-.11h0a.37.37,0,0,0,.14,0h0l-.17-.06a.41.41,0,0,1,.23-.24.49.49,0,0,1,.17,0c.09.06.19.13.19.25h0c.05.13-.07.23,0,.36A1.23,1.23,0,0,0,22.47,85.84Zm.31,13.52-.52-.17c.06-.14,0-.31.1-.43l.08-.1.37,0A.52.52,0,0,1,23,99,1.07,1.07,0,0,0,22.78,99.36Zm0-3.26c.21-.62.53-.57,1-.23a1.08,1.08,0,0,0,0,.3l-.17.38c-.23,0-.4.13-.63,0S22.75,96.25,22.76,96.1Zm.77,12.68c0-.06-.09-.15-.11-.2l-.16-.13-.08-.26c0-.08.11-.21.11-.29a.48.48,0,0,1,.69,0l.14.26-.05.13,0,0a.32.32,0,0,1-.24.43Zm.61,0a.52.52,0,0,1,.37.69l-.13.06-.07.12-.11,0c-.25.09-.48-.16-.55-.35A.5.5,0,0,1,24.14,108.83Zm.34,10.83c-.45.53-1.08-.46-.39-.55C24.47,119.12,24.53,119.32,24.48,119.66Zm1.35-2.42a.51.51,0,0,1-.56.17,3.2,3.2,0,0,1-.24.26l-.24.06c-.22-.09-.48-.32-.36-.59l0-.14.16-.08a.46.46,0,0,1,.3-.18,1.52,1.52,0,0,1,.2.06.48.48,0,0,1,.8,0,1.71,1.71,0,0,1,0,.31v0Zm.72,1.1c-.19.15-.43.2-.58,0l0-.24a.37.37,0,0,1,.66-.1,1,1,0,0,1,0,.34Zm.14-3.77v-.06a.57.57,0,0,1,.13-.21v0l.33-.16.32.24v.3h0v0a.78.78,0,0,1-.39.37l-.26,0,0-.06A.44.44,0,0,1,26.69,114.57Zm.82,4.44a.33.33,0,0,1-.23.18v0a.74.74,0,0,0-.26,0l0,0H27a.38.38,0,0,1,0-.6l0-.54.15.45A.37.37,0,0,1,27.51,119Zm.42-10h0a.38.38,0,0,1-.31,0l.08-.16-.09.16c-.1,0-.15-.19-.19-.27.06-.38.44-.35.66-.17v.39Zm1.13,5.53h0s-.16.15-.18.18h0c-.38.22-.68,0-.66-.42a2.86,2.86,0,0,1,.07-.28.58.58,0,0,1,.65-.16.61.61,0,0,1,.21.3l.05,0Zm0-32.29-.28,0-.19-.16,0-.24,0-.06a.37.37,0,0,1,.64-.15,2.08,2.08,0,0,1,.06.36A.92.92,0,0,0,29.08,82.23Zm.34-11.81-.09,0v0a1.66,1.66,0,0,0-.21.16l0,0-.12.07h0c-.19,0-.28-.18-.38-.29l0-.15a.34.34,0,0,1,0-.2.35.35,0,0,1,.06-.14s.05-.19.05-.21a.76.76,0,0,1,.41-.18,1.43,1.43,0,0,1,.28.13,1,1,0,0,1,0,.68ZM29,65.35v0a1.83,1.83,0,0,1-.46-.18v-.11a.42.42,0,0,1,.06-.46c-.32-.58.74-.86.7-.16l.05.13a.57.57,0,0,1,.12.17h0l.07.13A.55.55,0,0,1,29,65.35Zm.62-10.92-.26-.27a.58.58,0,0,1,.37-.47l.33.13h0c.07.23,0,.49-.25.57Zm.89,63.4a1.57,1.57,0,0,1-.33.3c-.12-.06-.29-.15-.31-.3a.39.39,0,0,1,.14-.37l.22-.06A.33.33,0,0,1,30.52,117.83Zm0-.44a2.46,2.46,0,0,1-.35-.24l0-.23a.68.68,0,0,1,.68-.39.6.6,0,0,1,0,.8A.91.91,0,0,1,30.48,117.39Zm1,1.64h0l0,0-.16.09a.46.46,0,0,1-.39-.17l0-.26.17-.23.28,0C31.45,118.62,31.6,118.81,31.45,119ZM32,58.36a1.3,1.3,0,0,1-.29-.33c.06-.13.14-.29.29-.31a.41.41,0,0,1,.37.13l.07.23A.33.33,0,0,1,32,58.36Zm1.08-4.67a1.06,1.06,0,0,1-.31,0h0l-.16-.07a.51.51,0,0,1-.17-.56c-.1-.07-.18-.18-.26-.24l-.05-.24c.08-.22.31-.48.58-.36l.14,0,.09.16a.43.43,0,0,1,.18.3.8.8,0,0,1-.07.2A.46.46,0,0,1,33.05,53.69Zm.66-1.41,0,0a.44.44,0,0,1-.15.22l-.21,0h0l-.14,0L33,52.51h0c-.18-.12-.16-.33-.21-.5l.17-.24c.26,0,.57,0,.72.22A1.41,1.41,0,0,1,33.71,52.28Zm.72,63.43-.25.05-.06,0a.37.37,0,0,1-.15-.63,1.44,1.44,0,0,1,.36-.07,1.61,1.61,0,0,0,.22.23l0,.27ZM45.8,56.15l.11,0,.22,0a1.46,1.46,0,0,1,.26.44.41.41,0,0,1-.82-.09A1,1,0,0,1,45.8,56.15Zm-3.67-2.38c-.14.07-.34.11-.44,0C41.13,53.12,42.52,52.93,42.13,53.77Zm-7.39,1.14,0-.26.06,0a.45.45,0,0,1,.39-.08l.06,0a.55.55,0,0,1,.22.14h0l.16.32-.23.33h-.3l0,0h0A.78.78,0,0,1,34.74,54.91ZM35.62,57l-.34-.09v0a1.37,1.37,0,0,1-.17-.17v0c-.22-.37,0-.67.42-.65a1.34,1.34,0,0,1,.27.07.58.58,0,0,1,.17.65.78.78,0,0,1-.31.21Zm1,60.68a.47.47,0,0,1-.32.37h0l-.31,0a.51.51,0,0,1-.27-.65h0c0-.08.17-.25.26-.25h0a1,1,0,0,1,.29-.07,2.09,2.09,0,0,1,.22.2l.18.32Zm-.12-64.87-.08.05a1,1,0,0,1-.37-.29L36,52.44a1.49,1.49,0,0,0,0-.21l.1-.2a.57.57,0,0,1,.72,0C37,52.33,36.9,52.81,36.54,52.79Zm.49,1.9,0-.29.22-.14.24,0a.33.33,0,1,1-.37.54Zm1.87,61.88c-.07.27-.16.56-.5.62.09.1-.07.34-.09.51a2.26,2.26,0,0,1-.57.14c-.46-.21-.7-.87-.08-1,.05,0,.11,0,.17,0s0-.26.06-.35l.06,0,.15.09-.13-.12c0-.05.16-.13.19-.15l.32,0a.42.42,0,0,1,.28.22l.15.12,0,0Zm-.59-63.79a2.62,2.62,0,0,1,0-.28l0,0,.16.1-.14-.12c.14-.19.34-.07.53-.07C39.17,52.84,38.52,53.33,38.31,52.78Zm1.82,2.13-.22.1-.09,0,0,0c-.24-.07-.43-.34-.26-.56v0a.33.33,0,0,1,.48-.06h.12A.44.44,0,0,1,40.13,54.91Zm.16-2.56a.91.91,0,0,0-.07-.14l-.12-.06,0-.11c-.1-.25.15-.48.35-.55s.44.23.48.49A.51.51,0,0,1,40.29,52.35Zm.53,3.42h0a.34.34,0,0,1,0-.31l.16.08-.16-.09c0-.1.18-.16.27-.2.38.06.35.45.17.67h-.4Zm.82,65a1.05,1.05,0,0,1-.31,0l-.07-.07c-.19-.17-.11-.44.08-.61a1.09,1.09,0,0,1,.4,0A.48.48,0,0,1,41.64,120.76Zm.07-2.23-.05,0a.35.35,0,0,1-.26-.21c-.1,0-.13-.23-.16-.32a.55.55,0,0,1,1-.18s0,.21,0,.26C42.16,118.3,42.06,118.64,41.71,118.53Zm1-66.38-.27.05-.06,0,.09-.16-.11.14a.36.36,0,0,1,0-.55l.25-.09A.38.38,0,0,1,42.67,52.15ZM44.33,54a.62.62,0,0,1-.11-.19s-.09-.09-.11-.11l-.06-.27h0v-.06c-.07-.15.07-.31.06-.45l.4-.12,0,0h0l.19.09a.76.76,0,0,1,.18.48h0c.2.22,0,.44-.16.6A.54.54,0,0,1,44.33,54Zm2.56,62.06a.44.44,0,0,1-.45.2.4.4,0,0,1-.74-.08l0,0s-.18.11-.21.13c-.5,0-.82-.64-.33-.91l0-.1c.07,0,.29-.08.37-.1a.76.76,0,0,1,.29.57,2.48,2.48,0,0,0,.37-.54.59.59,0,0,1,.7.23h0a1.69,1.69,0,0,1,.08.5Zm6.79-63.31.21-.12a.39.39,0,0,1,.18.74c-.07.06-.21,0-.29,0A.47.47,0,0,1,53.68,52.77Zm-1,1a.33.33,0,0,1,.44-.07.51.51,0,0,1,.11.43.48.48,0,0,1-.24.15l-.08.12-.37,0,0-.09-.05,0V53.9A.68.68,0,0,1,52.63,53.76Zm-1.36,1.53a.51.51,0,0,1,.52,0,1,1,0,0,1,.13.33c-.13.17-.34.3-.55.14l-.15-.12Zm-2.82,64.1-.21.12a.39.39,0,0,1-.18-.74c.07-.06.21,0,.29,0A.49.49,0,0,1,48.45,119.39Zm.31-65.34,0,0,.11-.39h0l.06-.14.13.07s.08,0,.11,0a1.69,1.69,0,0,1,.32.19.6.6,0,0,1-.09.36v0l-.18.18a1.41,1.41,0,0,1-.29,0A.4.4,0,0,1,48.76,54.05Zm1.3,64.63a.49.49,0,0,1-.06-.23.42.42,0,0,1-.06.14v.14c-.17.14-.38.11-.57.15l-.21-.22a.41.41,0,0,1,0-.16l-.07,0A.51.51,0,0,1,49,118a.42.42,0,0,1,.23-.15l.09-.12.36,0,0,.09,0,0v.12a.29.29,0,0,1,.28.27.21.21,0,0,1,0-.1l.14-.11C50.82,118,50.62,119.06,50.06,118.68Zm.79-1.81a.51.51,0,0,1-.52,0,1.18,1.18,0,0,1-.12-.33c.13-.18.33-.3.55-.14l.14.12Zm.15-3.43c-.18,0-.24-.17-.35-.27l0-.3a1.13,1.13,0,0,1,.61-.38l0,0,.06,0h0l0,0,.24.09v0l.13.07v0h0a.67.67,0,0,1-.07.49l-.14.06a.34.34,0,0,1-.32.15A.35.35,0,0,1,51,113.44ZM52.9,120a.82.82,0,0,1-.44.21l-.06,0h0c-.3-.13-.49-.55-.25-.78a.47.47,0,0,1-.36.07c-.08-.08-.19-.12-.27-.2l-.08-.24c.13-.44.47-.35.8-.31,0,.1.1.24.15.34l0,.11a.62.62,0,0,1,.67.63Zm.39-1.46h0l-.06.14-.13-.07a.5.5,0,0,0-.12,0,1.45,1.45,0,0,1-.32-.18.67.67,0,0,1,.1-.36v0l.18-.18a.94.94,0,0,1,.29,0,.45.45,0,0,1,.18.25l0,0Zm.91-2c-.11.13-.2.1-.28.15l-.1,0h0a.48.48,0,0,1-.5-.69h.06l.06-.11h.08a1,1,0,0,0,.26-.24l.13.13c.23,0,.26.24.35.39v0a.37.37,0,0,1,0,.23l.36.21Zm2.13-.48-.11,0L56,116a1.28,1.28,0,0,1-.26-.44.41.41,0,0,1,.81.09A.82.82,0,0,1,56.33,116ZM57,56.78a2.59,2.59,0,0,1-.37.11.76.76,0,0,1-.3-.58c.06-.12,0-.25.16-.4s.18-.11.21-.13c.5,0,.82.64.33.91Zm1,62.43-.39.13,0,0h0l-.19-.09a.77.77,0,0,1-.18-.49h0c-.2-.21,0-.43.16-.59a.56.56,0,0,1,.44,0,.58.58,0,0,1,.1.19s.1.09.11.11l.07.27h0s0,.05,0,.06S58,119.08,58,119.21Zm1.51-2.4a2.24,2.24,0,0,0-.7.24l.18-.38a.7.7,0,0,1-.12-.35.87.87,0,0,1,.19-.28c.18-.05.31.06.47.08C59.8,116.35,59.69,116.59,59.52,116.81Zm1-65.41a1,1,0,0,1,.3,0l.08.07c.19.17.1.44-.09.6a.86.86,0,0,1-.39,0A.46.46,0,0,1,60.49,51.4Zm-.49,67a.41.41,0,0,1,.44,0C61,119,59.6,119.23,60,118.39Zm-.15-64c-.05,0,0-.21-.05-.26.17-.26.26-.6.62-.49l0,0a.35.35,0,0,1,.26.21c.09,0,.12.23.15.32A.54.54,0,0,1,59.85,54.38Zm1.44,62.32-.16-.08.16.09c0,.1-.19.15-.27.2-.38-.06-.35-.45-.17-.67h.39l.07.15h0A.37.37,0,0,1,61.29,116.7Zm5.51-2.08,0,.2-.28.26a.59.59,0,0,1-.47-.38l.14-.33h0A.4.4,0,0,1,66.8,114.62ZM65.47,54.5a.48.48,0,0,1,.31-.37h0l.3-.05a.52.52,0,0,1,.28.65h0c0,.08-.16.25-.26.25h0a1,1,0,0,1-.29.07,1.42,1.42,0,0,1-.22-.2l-.18-.32Zm-2.24,1.09c.06-.27.16-.56.49-.62-.08-.1.07-.34.09-.51a2.24,2.24,0,0,1,.58-.14c.46.21.7.87.08,1h0a1.1,1.1,0,0,0-.18,0c.08.09,0,.26-.05.35l-.06,0L64,55.67l.14.12c0,.05-.17.13-.2.15l-.31,0c-.11,0-.26-.12-.28-.22l-.15-.12,0,0ZM62.14,117.8H62a.45.45,0,0,1,0-.55l.22-.1.09,0,0,0c.24.07.43.34.26.56v0A.32.32,0,0,1,62.14,117.8Zm1.25,2.71c-.07-.13-.24-.19-.29-.33l0,0a1.41,1.41,0,0,1-.29,0l-.24-.23v-.31c.18-.18.4-.28.62-.12,0-.37.49-.62.65-.17a2.62,2.62,0,0,1,0,.28l0,0-.15-.1.14.12-.06,0,.05,0,.07.25h0l.07.14Zm.46-5-.12-.17a.58.58,0,0,1,.2-.46.49.49,0,0,1,.3,0l.17,0,.27.29,0,.1,0,.06-.2.28a.68.68,0,0,1-.29,0A.36.36,0,0,1,63.85,115.48Zm1.2,2.27c-.08.07-.17.11-.22.15l-.25,0a.33.33,0,1,1,.38-.54h0l.14.13Zm1,2.17-.09.21a.57.57,0,0,1-.72,0c-.17-.28-.06-.76.3-.74l.08-.05a.92.92,0,0,1,.37.29l.08.11S66.09,119.91,66.09,119.92Zm.07-4.48a.75.75,0,0,1,.3-.21l0,0,.34.09v0s.15.16.17.18v0c.22.37,0,.67-.42.65a1.43,1.43,0,0,1-.28-.07A.58.58,0,0,1,66.16,115.44Zm.73,2.19-.06,0a.6.6,0,0,1-.21-.14h0l-.16-.32.24-.33H67l0,0h0a.82.82,0,0,1,.37.39l0,.26-.06,0A.47.47,0,0,1,66.89,117.63Zm1.14.58a3.24,3.24,0,0,1-.35.27l0,0-.14.08-.07-.13s-.07-.07-.12-.07a1.61,1.61,0,0,1-.16-.38h0a.63.63,0,0,1,.33-.24v0a1.45,1.45,0,0,1,.3-.06l.26.19a.43.43,0,0,1,0,.35Zm.12-61.14a1.35,1.35,0,0,1-.36.07,1,1,0,0,0-.22-.23l0-.27.15-.19L68,56.4l0,0h0A.37.37,0,0,1,68.15,57.07Zm3.18-2.24a.81.81,0,0,1,.31-.06A1.69,1.69,0,0,1,72,55l0,.23a.67.67,0,0,1-.67.39A.6.6,0,0,1,71.33,54.83Zm0,58h0l.05,0,.09.16a.46.46,0,0,1-.17.39l-.26,0-.23-.17,0-.28C70.94,112.87,71.13,112.72,71.35,112.87Zm-2.23,7.51c-.26,0-.56,0-.71-.21a2.81,2.81,0,0,1,0-.29l0,0a.46.46,0,0,1,.16-.22l.2,0h0l.14,0,.12.09h0c.19.12.16.32.21.5Zm.35-.49-.14,0-.09-.16a.43.43,0,0,1-.18-.3,1.52,1.52,0,0,1,.06-.2.47.47,0,0,1-.05-.79,1.15,1.15,0,0,1,.31,0h0l.16.07a.51.51,0,0,1,.17.56,2.1,2.1,0,0,1,.26.24l.06.24C70,119.75,69.74,120,69.47,119.89Zm.31-5.58-.06-.23a.33.33,0,0,1,.43-.28,1.57,1.57,0,0,1,.3.33c-.06.13-.14.29-.29.31A.43.43,0,0,1,69.78,114.31Zm.88,4-.24,0a.37.37,0,0,1-.1-.66,1,1,0,0,1,.34,0h0C70.81,118,70.86,118.2,70.66,118.36Zm.26-1-.54,0,.45-.16c0-.25.27-.48.5-.36a.33.33,0,0,1,.18.23h0a.74.74,0,0,0,0,.26l0,0v.05A.37.37,0,0,1,70.92,117.36Zm.52,2.88c0-.39.21-.45.54-.4C72.51,120.29,71.52,120.92,71.44,120.24Zm1.46-2.07a.93.93,0,0,1-.43.17,1.13,1.13,0,0,1-.29-.24,1.44,1.44,0,0,1,.09-.61C72.78,117.28,73.2,117.66,72.9,118.17ZM79,52.53a.57.57,0,0,1,.29,0c.21.15.47.4.34.67h0l-.21.22,0,0-.1.06-.08-.05a1.3,1.3,0,0,0-.33.07l0-.17c-.18-.12-.09-.33-.1-.5l0,0a.39.39,0,0,1,.11-.2l-.19-.36Zm-2.79,61.68a.35.35,0,0,1,.57-.32h0c.16.14.1.33,0,.51a.56.56,0,0,1-.46,0Zm1.39,1.69h-.1a.45.45,0,0,1-.47,0c-.58.31-.86-.75-.16-.71l.13,0,.17-.12h0l.13-.06a.54.54,0,0,1,.46.53l0,0A1.46,1.46,0,0,1,77.6,115.9Zm1.18,3.5-.07.11c-.22,0-.47-.11-.7-.08l.14-.08c0-.12-.1-.35,0-.45l.15.11-.14-.12c0-.08.29-.17.39-.19l0,0h0C79,118.8,79.15,119.18,78.78,119.4Zm1.37-62.19a1,1,0,0,1-.68,0l-.09,0,0-.09,0,0a.83.83,0,0,0-.16-.21l0,0-.08-.12h0v0c0-.2.18-.28.3-.38l.14,0a.32.32,0,0,1,.34,0s.19.05.21.05a.66.66,0,0,1,.18.41A1.75,1.75,0,0,1,80.15,57.21Zm2.17,58.6s-.19,0-.21,0a.65.65,0,0,1-.17-.4,1,1,0,0,1,.12-.29,1,1,0,0,1,.69,0l.09,0,0,.09,0,0a1.16,1.16,0,0,0,.16.21l0,0,.07.12v0h0c0,.2-.18.28-.29.38l-.15,0a.24.24,0,0,1-.2,0A.42.42,0,0,1,82.32,115.81Zm.9,3.94a.61.61,0,0,1-.3,0c-.2-.15-.46-.4-.33-.67h0l.21-.22,0,0,.1,0,.07,0a1.21,1.21,0,0,0,.33-.07l0,.17c.18.12.09.33.1.5l0,0a.35.35,0,0,1-.11.2l.19.36Zm.84-66.37-.14-.1.13.11c0,.08-.28.17-.38.19l0,0h0c-.35-.08-.54-.46-.17-.68l.07-.11c.22,0,.47.11.69.08l-.13.08C84.11,53.05,84.17,53.28,84.06,53.38Zm1.28,3.77-.13.05-.17.12h0l-.12.07a.55.55,0,0,1-.46-.54l0,0a1.89,1.89,0,0,1,.17-.45h.11a.45.45,0,0,1,.47,0C85.77,56.13,86.05,57.19,85.34,57.15ZM90,54.79c-.52.22-.94-.17-.63-.68a.92.92,0,0,1,.43-.16,1.05,1.05,0,0,1,.29.23A1.62,1.62,0,0,1,90,54.79Zm.94,62.66a.87.87,0,0,1-.32.06,2.55,2.55,0,0,1-.34-.23l0-.24a.66.66,0,0,1,.68-.38A.59.59,0,0,1,90.89,117.45ZM97.56,57l.19-.28a.71.71,0,0,1,.3,0,.37.37,0,0,1,.32,0l.12.18c0,.22-.1.32-.2.45a.54.54,0,0,1-.31,0l-.16,0-.28-.29,0-.1Zm-3,58.84-.25,0-.06,0a.37.37,0,0,1-.15-.63,1.13,1.13,0,0,1,.36-.06,1.61,1.61,0,0,0,.23.22l0,.28Zm.54-61.5c-.07.1-.22.24-.32.24v0a1.07,1.07,0,0,1-.31.06l-.26-.19a.48.48,0,0,1,0-.35v0c.06-.06.28-.21.35-.26l0,0,.15-.08.06.14s.08.06.13.06a1.26,1.26,0,0,1,.15.38Zm.36,3.33,0-.19.27-.27a.6.6,0,0,1,.48.38l-.14.33h0C95.75,58,95.49,58,95.42,57.66Zm1.33,60.12a.47.47,0,0,1-.32.37h0l-.31,0a.51.51,0,0,1-.27-.65h0c0-.08.16-.25.26-.25h0a.72.72,0,0,1,.29-.06,2.15,2.15,0,0,1,.22.19l.18.32ZM99,116.69c-.07.27-.16.56-.5.62.09.11-.07.34-.09.51a2.26,2.26,0,0,1-.57.14c-.46-.21-.7-.87-.08-1,.06,0,.11,0,.17,0s0-.26.06-.35l.06,0,.15.1-.13-.13s.16-.13.19-.15l.32,0a.42.42,0,0,1,.28.22l.15.12,0,0Zm.68-64.08c-.19.2-.44.32-.68.09l0-.1v0a.53.53,0,0,1-.46-.13l-.07-.25h0l-.08-.13.49-.33c.07.13.24.19.29.33l0,0a1,1,0,0,1,.3,0l.24.22Zm2.06,68.27a1,1,0,0,1-.3,0l-.08-.08a.4.4,0,0,1,.08-.6,1.08,1.08,0,0,1,.4,0A.48.48,0,0,1,101.73,120.88Zm.07-2.23,0,0a.35.35,0,0,1-.26-.21c-.1,0-.13-.23-.16-.31a.55.55,0,0,1,1-.19s0,.21,0,.26C102.25,118.42,102.15,118.76,101.8,118.65ZM103.34,56a1.45,1.45,0,0,1-.19.29c-.19,0-.32-.07-.47-.09-.27-.23-.16-.47,0-.68a2.67,2.67,0,0,0,.7-.25l-.18.39A.73.73,0,0,1,103.34,56Zm.21-3.78,0,.08-.22,0a.82.82,0,0,1-.35,0l-.17-.33a.91.91,0,0,1,.08-.13l0-.09,0-.07.1,0h0l-.09-.06a.67.67,0,0,1,.43-.31l.25.06a.52.52,0,0,1,.19.53A.38.38,0,0,1,103.55,52.18Zm1.57-1a.46.46,0,0,1,.34.29l-.12.26h-.09c-.22,0-.36-.16-.35-.37Zm.64,65.16s-.18.11-.21.13c-.5,0-.82-.64-.33-.91l0-.09a2.26,2.26,0,0,1,.37-.11.81.81,0,0,1,.3.58C105.86,116.09,105.89,116.22,105.76,116.37Zm2.78,3.14-.21.12a.39.39,0,0,1-.18-.74c.07,0,.21,0,.29,0A.49.49,0,0,1,108.54,119.51Zm.35-63.15,0,0-.06.11h-.09a1.48,1.48,0,0,0-.26.24l-.13-.12c-.22,0-.25-.25-.35-.4l0,0a.37.37,0,0,1,0-.23l-.36-.21.42.09c.11-.12.2-.1.28-.15l.1,0h0A.48.48,0,0,1,108.89,56.36Zm7.75,59.41a.77.77,0,0,1-.22.36l-.11,0-.22,0a1.2,1.2,0,0,1-.26-.44A.41.41,0,0,1,116.64,115.77Zm-1.18-23.36c-.08,0-.17-.28-.19-.39l0,0h0c.08-.35.45-.55.68-.17l.11.06c0,.22-.11.47-.08.7l-.08-.14c-.12,0-.35.11-.45,0l.1-.15Zm1.38-23.67a.48.48,0,0,1,.61.1,1.05,1.05,0,0,1,0,.31l-.07.07c-.17.19-.44.11-.61-.08A1.09,1.09,0,0,1,116.84,68.74Zm-.09,38,.33.48c-.13.07-.19.24-.33.29l0,0a.94.94,0,0,1,0,.29l-.22.24h-.31c-.2-.2-.32-.44-.09-.69l.09,0h0a.54.54,0,0,1,.13-.46l.25-.07h0Zm-.43-19.35c0,.09,0,.2,0,.3-.15.2-.41.47-.67.33h0l-.22-.21,0,0-.06-.1,0-.07a1.3,1.3,0,0,0-.07-.33l.17,0c.12-.18.33-.09.5-.1l0,0a.34.34,0,0,1,.2.12l.36-.2Zm-.86-25.22a.49.49,0,0,1,.62-.1l.12.21a.39.39,0,0,1-.74.18C115.4,62.35,115.45,62.21,115.46,62.13Zm.85-6.31c.57.36-.14.77-.29,1.16a.56.56,0,0,1-.69-.23h0a1.64,1.64,0,0,1-.08-.5l.1,0a.43.43,0,0,1,.45-.2A.42.42,0,0,1,116.31,55.82Zm-1.48-3.14a.58.58,0,0,1,.19-.1s.09-.1.11-.11l.27-.07h.06c.15-.07.31.07.44.06l.13.39,0,0v0l-.09.19a.76.76,0,0,1-.48.18h0c-.22.2-.44,0-.6-.16A.56.56,0,0,1,114.83,52.68Zm-.28,4.61a.49.49,0,0,1,.25-.18l0,0,.39.11v0l.14.06-.07.13a.5.5,0,0,0,0,.12,1.45,1.45,0,0,1-.18.32.67.67,0,0,1-.36-.1h0l-.18-.18A.94.94,0,0,1,114.55,57.29Zm0,3.56.09,0,0,0,.31,0a1,1,0,0,1,.14.23.33.33,0,0,1,.07.44.51.51,0,0,1-.43.11.42.42,0,0,1-.15-.23l-.12-.09Zm-.63,11.23c.1-.09.34.07.51.09a2.26,2.26,0,0,1,.14.57c-.21.46-.87.7-1,.08,0,0,0-.11,0-.17s-.26,0-.35-.06l0-.06.09-.15-.12.13s-.13-.16-.15-.19,0-.26,0-.32a.42.42,0,0,1,.22-.28l.12-.15,0,0v0C113.53,71.65,113.82,71.74,113.88,72.08Zm.24,2.65c-.08,0-.25-.17-.25-.26h0a1,1,0,0,1-.07-.29A2.09,2.09,0,0,1,114,74l.32-.18,0,0a.47.47,0,0,1,.37.32h0l0,.31a.51.51,0,0,1-.65.27Zm-2.42,19,0-.13a.83.83,0,0,1-.12-.17h0l-.07-.13a.56.56,0,0,1,.54-.46l0,0a1.92,1.92,0,0,1,.45.18v.11a.44.44,0,0,1,0,.46C112.72,94.12,111.66,94.4,111.7,93.7Zm.46-28.35-.1,0c0-.07-.08-.29-.1-.37a.79.79,0,0,1,.58-.3c.12.06.25,0,.4.16s.11.18.13.21C113,65.52,112.43,65.84,112.16,65.35Zm.29,11,0,.06a.37.37,0,0,1-.63.15,1.44,1.44,0,0,1-.07-.36,1.61,1.61,0,0,0,.23-.22l.27,0,.19.15Zm.77-16.72.34.05a.51.51,0,0,1,0,.52,1.18,1.18,0,0,1-.33.12.37.37,0,0,1-.14-.55Zm-1.06-6a.49.49,0,0,1,.06.23.39.39,0,0,1,0-.14v-.13c.16-.15.38-.12.57-.16l.2.22h0s.06.14,0,.18h-.18l.18,0c0,.08-.17.3-.25.37l-.13,0v0l0,.22a1.28,1.28,0,0,1-.44.26.41.41,0,0,1-.29-.59C111.42,54.16,111.62,53.24,112.16,53.6Zm-.47,34.11,0,0a1.16,1.16,0,0,0,.21-.16l0,0,.12-.07h0c.2,0,.28.18.38.29l0,.15a.34.34,0,0,1,0,.2.35.35,0,0,1-.06.14s0,.19,0,.21a.65.65,0,0,1-.41.17,1.13,1.13,0,0,1-.28-.12,1,1,0,0,1,0-.69l0-.08Zm-.47-28.87c.18,0,.23.17.35.27l0,.3a1.2,1.2,0,0,1-.62.38l0,0-.06,0h0v0l-.25-.09v0l-.14-.07h0a.63.63,0,0,1,.07-.49l.14-.06a.34.34,0,0,1,.32-.15A.4.4,0,0,1,111.22,58.84ZM109,118.16a.49.49,0,0,1,.23-.15l.09-.12.36.06,0,.09,0,0,0,.31a1,1,0,0,1-.23.14.34.34,0,0,1-.44.08A.53.53,0,0,1,109,118.16Zm.7,1.76-.3,0a1.13,1.13,0,0,1-.38-.61l0,0,0-.06v0h0c0-.07.06-.18.09-.25h0l.07-.13h0a.67.67,0,0,1,.49.06l0,.15a.31.31,0,0,1,.16.31c0,.07.08.19.05.26S109.84,119.81,109.74,119.92ZM110,53.57c-.06-.1-.1-.24-.16-.34l.05-.11a.6.6,0,0,1-.66-.63l.1-.19a.84.84,0,0,1,.44-.22l.06,0h0c.31.13.5.55.25.78a.54.54,0,0,1,.37-.07c.07.08.19.12.27.2l.07.24C110.65,53.7,110.3,53.61,110,53.57Zm1,63.43a.56.56,0,0,1-.52,0,1.31,1.31,0,0,1-.12-.33c.13-.18.33-.31.55-.15l.14.12Zm0-12.66h0c-.07-.23,0-.49.25-.57l.19,0,.27.27a.59.59,0,0,1-.38.47Zm1.11,2.38h0l-.18.12a.55.55,0,0,1-.45-.2.5.5,0,0,1,0-.3l0-.17.29-.27.1,0,.06,0,.28.2a.68.68,0,0,1,0,.29A.36.36,0,0,1,112.05,106.72Zm.35,10.41v-.08a1.2,1.2,0,0,0-.24-.26l.12-.13c0-.22.25-.26.4-.35h0a.37.37,0,0,1,.23,0l.21-.36-.09.42c.12.11.1.2.15.29l0,.09h0a.48.48,0,0,1-.7.49v0Zm1,1.53h0l-.06.14-.13-.07s-.08,0-.12,0a1.79,1.79,0,0,1-.32-.19.67.67,0,0,1,.1-.36v0L113,118a1.41,1.41,0,0,1,.29,0,.44.44,0,0,1,.18.25l0,0Zm-.15-7.09a.63.63,0,0,1-.34.12.91.91,0,0,1-.29-.19c0-.18.07-.31.09-.47.23-.26.47-.15.68,0a2.55,2.55,0,0,0,.25.7Zm.38-31.18a.68.68,0,0,1-.39-.68.6.6,0,0,1,.8,0,.91.91,0,0,1,.06.32,2.46,2.46,0,0,1-.24.35Zm1.13,17.28a.92.92,0,0,1,.16.44.89.89,0,0,1-.23.28,1.61,1.61,0,0,1-.61-.08C113.84,97.79,114.23,97.37,114.74,97.67Zm.22,5.47s-.06.07-.06.12a1.61,1.61,0,0,1-.38.16h0c-.1-.07-.24-.23-.24-.33h0a1,1,0,0,1-.06-.3l.19-.26a.43.43,0,0,1,.35,0h0a3.18,3.18,0,0,1,.26.35l0,0,.08.14Zm.26-34.37,0,0a.35.35,0,0,1-.21.26c0,.1-.23.13-.32.16a.55.55,0,0,1-.18-1s.21,0,.26,0C115,68.32,115.33,68.42,115.22,68.77Zm1.52,49.4c-.13.3-.55.49-.78.25a.52.52,0,0,1,.07.36c-.08.08-.12.19-.2.27l-.24.08c-.44-.13-.35-.47-.31-.8l.34-.15.11,0a.61.61,0,0,1,.63-.67l.19.11a.84.84,0,0,1,.22.44l0,.06Zm-.07-6.27-.08,0,0-.23a.78.78,0,0,1,0-.34l.33-.18a.91.91,0,0,0,.13.08l.09,0,.07,0,0,.09s0,0,0,0l.06-.09a.62.62,0,0,1,.31.43l-.06.24a.54.54,0,0,1-.53.2A.41.41,0,0,1,116.67,111.9Zm.41,1.7c0-.22.16-.35.37-.35l.19.22a.44.44,0,0,1-.29.34l-.26-.11Zm1,5.74-.4.12,0,0h0l-.18-.09a.77.77,0,0,1-.19-.48h0c-.21-.22,0-.44.15-.6a.52.52,0,0,1,.44,0,.59.59,0,0,1,.11.19s.09.08.1.1l.07.27h0s0,0,0,.06S118.09,119.2,118.11,119.34Zm1.81,1.35-.25.09a.38.38,0,0,1-.12-.65l.26,0,.06,0-.08.17.11-.15A.36.36,0,0,1,119.92,120.69Zm.17-2.18a.41.41,0,0,1,.44,0C121.09,119.16,119.69,119.36,120.09,118.51Zm1.64,2.29c-.3,0-.44-.23-.49-.49a.51.51,0,0,1,.69-.37l.06.13.13.06,0,.12C122.17,120.5,121.93,120.72,121.73,120.8Zm1-3v0a.34.34,0,0,1-.48.07h-.13a.45.45,0,0,1,0-.55l.22-.09.09,0,0,0C122.69,117.35,122.88,117.62,122.71,117.84Zm1.18,1.94,0,0-.15-.1.14.12c-.15.19-.35.08-.53.08-.26-.48.39-1,.59-.42A1.29,1.29,0,0,1,123.89,119.78Zm1.25-1.9-.22.14-.25,0a.33.33,0,1,1,.38-.54l.14.13Zm1,2.17-.09.2a.57.57,0,0,1-.72,0c-.17-.28-.05-.76.3-.74l.08,0a.94.94,0,0,1,.37.29l.08.11Zm1.26-2.42-.06,0a.46.46,0,0,1-.4.08l-.06,0a.49.49,0,0,1-.21-.14h0l-.16-.32.24-.33h.3l0,0h0a.82.82,0,0,1,.37.39Zm2.12,2.39-.14,0-.09-.16a.43.43,0,0,1-.18-.3,1.52,1.52,0,0,1,.06-.2.47.47,0,0,1,0-.79,1,1,0,0,1,.3,0l0,0,.16.07a.5.5,0,0,1,.17.56,1.56,1.56,0,0,1,.26.25l.06.23C130.05,119.87,129.83,120.14,129.56,120Zm1.19-1.54-.24,0a.36.36,0,0,1-.1-.65,1,1,0,0,1,.34,0h0C130.9,118.08,131,118.32,130.75,118.48Z"></path><polygon class="cls-1" points="95.54 108.99 95.35 108.9 95.54 108.99 95.54 108.99"></polygon><path class="cls-1" d="M74.72,104.51l.1-.13-.12.12Z"></path><polygon class="cls-1" points="68.74 98.71 68.89 98.7 68.74 98.69 68.74 98.71"></polygon><path class="cls-1" d="M113.42,109.7V98.06a.27.27,0,0,1-.32.09l.08-.18s0,0-.06,0c0-.17.13-.17.2-.26h0l.08-.17s0,0,0,0V55H25.51v50.41a.25.25,0,0,1,.21.11.28.28,0,0,1-.21.46v3.61a.21.21,0,0,1,.11,0,.32.32,0,0,1-.11.6v2.71c.08.07.11.2,0,.24v.11H40.9c0-.1.06-.2.2-.19v.17a.08.08,0,0,1,.07,0l0,0H48c-.34-.79,1.08-1.4,1.31-.15,0,.06,0,.1-.05.15h8.59a.22.22,0,0,1,0-.14c0-.16.1-.31.27-.29v.19s0,0,.06,0-.07.11-.08.19h0v0h4.51c-.33-.51.36-1.19,1-.91a.56.56,0,0,1,.08.91H78.81a.91.91,0,0,1,.61-.17l0,.17h2.34a.22.22,0,0,1,.11-.1c-.23-1,1.33-.56.82.1H96.2s0-.05.06-.07a.66.66,0,0,1,1,.07h5.53a.59.59,0,0,1,0-.4h0a.42.42,0,0,1,.47-.23v0a.65.65,0,0,1,.24,0c.29.26.25.49.08.65h9.78v-1.92C112.65,111.15,112.41,109.68,113.42,109.7Zm-72.64-8.11v-.19l.24.27h-.19a.16.16,0,0,1,0-.09Zm-9.67-6.14h.19c.05.07.07.14.12.21v.16C31.09,96.1,30.92,95.65,31.11,95.45Zm-.41,11.6c.05-.26.62-.3.65.06S30.57,107.51,30.7,107.05Zm-3.95-8.49-.13,0-.06,0a.5.5,0,0,1-.14-.16v-.16C26.61,98,27,98.33,26.75,98.56Zm-.34,5.56h0c-.05,0-.11-.13-.14-.16v-.22l.08-.13C27,103.25,27.2,104.5,26.41,104.12Zm.8-1.7H27l0,0a.26.26,0,0,1,.06-.42l.21.11-.05,0a.41.41,0,0,1,.16.11l-.07.23A.15.15,0,0,0,27.21,102.42Zm.49,10c-.76-.22-.24-1.18.47-.83C28.67,111.93,28.21,112.62,27.7,112.45Zm2.44-11c-.05-.25.32-.4.36-.1S30.18,101.74,30.14,101.43Zm0-.8,0-.14C30.5,99.7,30.83,100.94,30.13,100.63Zm1.13,8.15c-.38,0-.78-.38-.62-.77C31.16,106.83,32.43,108.49,31.26,108.78Zm.8,2.77a.07.07,0,0,0,0,0l-.14.12c-.61-.14.15-1.12.26-.22Zm2,1-.07-.11a.32.32,0,0,1,.11-.21l.15,0c.1.06.12.18.16.27A.24.24,0,0,1,34.06,112.53Zm1-8.39,0,.09c-.13.09-.25,0-.29-.07h0l0,0V104c.08-.15.28-.1.36,0l0,.21Zm1.16,3.62c-.1-.06-.12-.17-.17-.26s.37-.17.45,0S36.34,107.72,36.22,107.76Zm-.39-2.66c-.26-.54.84-.87.72-.17h0C36.59,105.31,36,105.44,35.83,105.1Zm1.67,2.69a.43.43,0,0,1-.32,0l-.13-.13a.27.27,0,1,1,.54,0Zm.6-12-.19,0H38l-.17,0C37.58,95.19,38.74,95.26,38.1,95.82Zm1.25,13.67c-.12.4-.79.2-.65-.2h0C38.66,108.69,39.54,109,39.35,109.49Zm-.13-7.78.18-.14a.47.47,0,0,1,.15.06h0a.25.25,0,0,0,.11,0l.11.16C39.68,102.3,39.21,102,39.22,101.71Zm1.12,6.88c-.17-.41.48-.63.59-.24A.32.32,0,0,1,40.34,108.59Zm.76,4.27-.16-.19,0-.18a.5.5,0,0,1,.39-.3C42,112.14,41.78,113.15,41.1,112.86Zm.57-9.43.06-.22.12-.11c.77-.18.61,1.19-.09.54C41.71,103.62,41.68,103.48,41.67,103.43Zm.46,3.64L42,107c-.17-.39.34-.73.44-.24A.31.31,0,0,1,42.13,107.07ZM43.81,98h-.14l-.06,0c-.07-.08-.06-.14-.09-.2l0-.17C43.85,97.34,44.14,97.84,43.81,98Zm1.51,10.69c.91-.23,1,1.39,0,1.26A.65.65,0,0,1,45.32,108.69Zm.54,3.48c-.41-.27,0-.83.44-.53C46.63,111.93,46.21,112.41,45.86,112.17Zm.83-11h0l0,0V101C47.29,100.34,47.35,101.65,46.69,101.2Zm.47,4.53c-.24-.15,0-.56.23-.46S47.4,105.83,47.16,105.73Zm10.29-.51.17.35-.21,0C57.35,105.44,57.43,105.3,57.45,105.22Zm-8-8.63a.23.23,0,0,1-.31,0,.33.33,0,0,1,.1-.45l.2.07c0,.08,0,.16.07.25Zm1,10.32c-.64-.29.11-1.39.52-.68h0C51.34,106.55,50.93,107.08,50.51,106.91Zm.69.63a.47.47,0,0,1,.79-.36.36.36,0,0,1,0,.4h0C51.92,108,51.3,108,51.2,107.54Zm1.16,1.78-.2.14c-.16-.06-.16-.21-.19-.31a.05.05,0,0,0,0,0l-.2-.2h0c.16-.29.35-.12.5,0l.1.24C52.37,109.26,52.36,109.28,52.36,109.32Zm.13-9.12a.23.23,0,0,1-.11,0l-.14-.17.42.06Zm2.45,12.58h0a.36.36,0,0,1,.4-.59A.36.36,0,0,1,54.94,112.78Zm2.73-6.37a.4.4,0,0,1-.8,0,.4.4,0,0,1,.8,0Zm1.91-1.08c-.17,0-.2-.13-.26-.21l-.11-.21c.16-.35.56,0,.55.28Zm1.28-6.27c-.17-.29.2-.64.4-.29S61.05,99.41,60.86,99.06Zm1.28,9.25h-.22c-.2-.24-.16-.4-.33-.64l.13-.25.43,0,.15.23C62.24,107.85,62.39,108.15,62.14,108.31Zm.67,3.38c-.32-.12-.06-.54.2-.49h0C63.33,111.32,63.08,111.74,62.81,111.69Zm.08-2.35a.45.45,0,0,1,.85,0A.43.43,0,1,1,62.89,109.34Zm13.17-18,.12.25,0,0a.5.5,0,0,1,.07.22l-.24.16a.22.22,0,0,0-.13,0l-.17-.14A.32.32,0,0,1,76.06,91.3Zm-1.24,13.08a.28.28,0,0,1,.05.42l-.13-.13s0,0,0,0-.1-.18-.16-.27h0l-.13-.12A.27.27,0,0,1,74.82,104.38ZM64.2,105.59c-.06-.34.61-.65.83-.24C65.23,105.92,64.27,106.2,64.2,105.59Zm2.88-8.06c.15-.14.31-.07.49-.14l.21.15v.21l-.13.17a.5.5,0,0,1-.4-.08h0l-.09,0Zm.28,11.67h0a.45.45,0,0,1,.07-.66C68.37,108.25,68.18,109.8,67.36,109.2ZM68.64,99v-.17s0,0-.06,0,0-.18.08-.27a0,0,0,0,0,0,0V98.4c.15,0,.22.15.21.3A.26.26,0,0,1,68.64,99Zm1.56,7.71c.23-.29.45.07.62.2a.25.25,0,0,1-.08.18h0C70.51,107.28,70.07,107,70.2,106.7Zm.67,3.92-.13-.1a.44.44,0,0,1,0-.31l.16-.13c.15,0,.23.16.33.25S71.07,110.63,70.87,110.62Zm.35-6.8c-.15,0-.23-.15-.32-.23,0-.27.35-.38.53-.22h0C71.57,103.57,71.35,103.71,71.22,103.82Zm.53,3a.45.45,0,0,1,0-.9A.45.45,0,0,1,71.75,106.84Zm1.34,2.1c-.2-.33.17-.67.51-.57h0C74.42,108.62,73.51,109.6,73.09,108.94Zm2.37,3.56a.67.67,0,0,1-.27.26h0l-.07.06c-.74.48-1.23-.91-.41-1.16C75.22,110.52,76.64,112.06,75.46,112.5Zm.55-13c-.17,0-.44-.31-.21-.54s.49.11.43.34Zm1.19,2.68-.08.18c-.3-.13-.2-.77.17-.62h0l-.08.18C77.34,101.92,77.36,102.32,77.2,102.23ZM77.78,113c-.66-.42-.24-1.57.55-1.26C79.37,112,79,113.74,77.78,113ZM95,99.73l.16-.13c.45,0,.35.71-.09.61l-.13-.12h0A.53.53,0,0,1,95,99.73ZM88.72,97.6l.29-.08.31.31-.07.28c-.22.12-.35.45-.65.38l-.14-.19C88.5,98,88.65,97.9,88.72,97.6ZM81.84,99a.27.27,0,0,1,.35.27l-.18.18h0l-.08.07c-.23,0-.21-.23-.22-.34Zm-.68,5.15c.24-.16.38-.11.63-.25L82,104l0,.4-.23.13c-.21-.08-.51,0-.64-.21Zm.45,3.64a.41.41,0,0,1,0-.67l0,0C82.35,106.3,82.58,108.23,81.61,107.76Zm.79,1.52h0c-.07-.41.4-.32.63-.37C83.38,109.28,82.61,109.72,82.4,109.28Zm3.62.63-.06-.18a.48.48,0,0,1,.23-.32l.22,0C86.83,109.59,86.42,110.22,86,109.91Zm.09-2c.16-.4.8-.48.91,0C87.17,108.71,85.83,108.77,86.11,108Zm1.77,5a.81.81,0,0,1-.34-1.37C88.8,110.9,89.32,112.89,87.88,113Zm.91-9c0-.06.06-.21.08-.26h0l.23-.17.2,0C90.16,104,89,105.17,88.79,104Zm1.34,8.85c-.43-.51-.21-1.06.31-1.1C91.21,112,90.84,113.2,90.13,112.87Zm.59-2.31h-.2l-.15-.13c0-.25.09-.31.16-.46l.26,0c.11.15,0,.29.08.47Zm.37-8.1-.28.07c-.15-.14-.08-.29-.07-.41a.07.07,0,0,0,0,0l-.14-.3a.26.26,0,0,1,.31-.08c.12,0,.17.19.24.28v.29A.24.24,0,0,0,91.09,102.46Zm.14-8.66-.15-.17,0,0L91,93.49C91.21,92.8,92.27,93.75,91.23,93.8Zm3.56,17.93a.68.68,0,0,1-.4,0v0c-1-.08-.34-1.63.51-1.14a.77.77,0,0,1,.56,0C96.16,111.05,95.56,112.18,94.79,111.73Zm.89-2.82.06,0c0,.13-.12.1-.16.19l0,0-.08.2a.29.29,0,0,1-.13-.41.33.33,0,0,1,.42-.2Zm-.32-3.41,0,0-.25,0c-.23-.28-.18-.45-.37-.74l.15-.28.49,0,.17.27a.46.46,0,0,0,0,.26h0a1,1,0,0,1,0,.24C96.48,105.06,95.75,106.3,95.36,105.5Zm.75,4.64.1-.27c.12,0,.24,0,.36-.07l.22.09C97,110.49,96.3,110.5,96.11,110.14Zm1.09-5.22c-.55.3-1-.27-.6-.72A.47.47,0,0,1,97.2,104.92Zm3.65-3.81h0l-.25.09c-.23-.17-.18-.4-.22-.62.32-.3.6.27.47.53Zm-.09-5.73-.22,0c-.23-.17-.19-.31-.26-.47l.15-.25a.43.43,0,0,1,.26.13h0a.79.79,0,0,0,.19.15l0,.26Zm.9,7.65-.18.12h0c-.53-.14-.18-.66.17-.61l.14.21C101.75,102.85,101.69,102.93,101.66,103Zm.12-9.26a.6.6,0,0,1-.46-.1.19.19,0,0,0-.1,0l-.09-.31c.17-.15.35-.07.56-.14l.24.17v.24Zm.88,13.9c-.53-.46-.06-1.2.55-.83S103.14,107.86,102.66,107.67Zm8.82-21.32.13.3c0-.05,0-.07,0-.07a.43.43,0,0,1,.08.25l-.28.18a.18.18,0,0,0-.14,0l-.19-.17A.37.37,0,0,1,111.48,86.35Zm-1.29,15.3-.06.2s0,0,.08,0,.09.32-.06.24l-.05.19C109.77,102.2,109.79,101.54,110.19,101.65Zm-.14-2.43-.08.28h0c-.14.07-.32,0-.43-.07Zm-.53,7.92.23,0a.29.29,0,0,1,0,.46l-.27,0,0,0h-.12C109.28,107.36,109.46,107.22,109.52,107.14Zm-3.92-4.21h0l-.11.1-.31,0C104.84,102.33,106,102.31,105.6,102.93Zm.47,1c-.55-.37.07-1.17.53-.79S106.51,104.28,106.07,103.9Zm1.3,4.69A.49.49,0,0,1,108,108C108.91,108.61,107.62,109.51,107.37,108.59Zm3.07,2a.81.81,0,0,1-.31.3v0l-.09.07c-.84.53-1.38-1-.44-1.33C110.21,108.28,111.79,110,110.44,110.54Zm1-15.42c.17.15.11.27.12.43l-.26.21C110.82,95.7,110.89,94.88,111.42,95.12Zm-.33,2.44a.16.16,0,0,0-.06-.12v-.23a.34.34,0,0,1,.57,0l-.11.27a.32.32,0,0,1,0-.06.38.38,0,0,1-.12.21Zm.52,10.17a.37.37,0,0,1-.08-.56c.11-.07.28-.09.35,0,.11-.1.34,0,.46,0h0l.06,0h0C113.56,107.8,111.82,109.13,111.61,107.73Z"></path><path class="cls-3" d="M83.12,73.05a.72.72,0,0,1-.22-.28h0c-.38-.48.26-1,.82-.73a.82.82,0,0,1,.25.38,1,1,0,0,1,.19.15A18.35,18.35,0,0,0,85,69.67l-.07,0a.72.72,0,0,1,.26-1.32,18.25,18.25,0,0,0,.12-2c0-9.27-6.83-16.79-15.26-16.79S54.74,57.09,54.74,66.36A18.43,18.43,0,0,0,55,69.54c.13-.58,1.15-.84,1.35.22a.73.73,0,0,1-1,.51.92.92,0,0,1-.23-.27A17.65,17.65,0,0,0,58,76.67a6.13,6.13,0,0,1,1.62-2.91,6,6,0,0,1,2.82-1.58c0-.17.18-.32.5-.39h0a.57.57,0,0,1,.49.23,4.4,4.4,0,0,1,.51,0H76.1a6.1,6.1,0,0,1,3.79,1.35.52.52,0,0,1,.56.06l0,.26-.11,0,.1.08A6,6,0,0,1,82,76.67,17.74,17.74,0,0,0,83.8,73.5C83.53,73.58,83.24,73.48,83.12,73.05Zm-25.4.43-.11-.12A.48.48,0,0,1,57.7,73l.16-.11A.29.29,0,1,1,57.72,73.48Zm-.12-10c-.64-.3.12-1.4.52-.68h0C58.44,63.16,58,63.69,57.6,63.53Zm1.48.26a.36.36,0,0,1,0,.41h0c-.08.4-.71.37-.8,0A.46.46,0,0,1,59.08,63.79ZM58.5,71a.63.63,0,0,1-.09-.33C58.8,70.24,59.17,71.07,58.5,71Zm1-5-.2.14c-.16-.06-.16-.2-.18-.3a0,0,0,0,0,0,0l-.2-.2h0c.15-.29.34-.12.5,0l.09.23C59.46,65.87,59.45,65.89,59.45,65.93Zm.13-9.12a.23.23,0,0,1-.11-.05l-.14-.17.42.07ZM62,69.39h0a.35.35,0,0,1,.4-.58A.35.35,0,0,1,62,69.39Zm8.81-3.46A.44.44,0,1,1,70,66,.46.46,0,0,1,70.84,65.93Zm-.73,1.88h0c.32.12.06.54-.21.5S69.84,67.77,70.11,67.81Zm-5.57-6,.17.36-.2,0C64.45,62.05,64.52,61.92,64.54,61.83Zm.22,1.2A.4.4,0,0,1,64,63a.4.4,0,0,1,.79,0Zm.37,6.84h0v.19a.25.25,0,0,1-.23-.29c0-.15.11-.31.27-.29v.19s0,0,.06,0S65.13,69.78,65.13,69.87ZM66.67,62a.44.44,0,0,1-.26-.21l-.11-.21c.17-.35.57,0,.55.27ZM68,55.68c-.17-.29.21-.65.4-.3S68.15,56,68,55.68Zm1.29,9.25-.23,0c-.2-.24-.15-.39-.32-.64l.12-.25.43,0,.15.23C69.33,64.46,69.48,64.77,69.24,64.93Zm.49,5.1c-.57-.5.2-1.34.88-1C71.38,69.51,70.38,70.53,69.73,70Zm1.56-7.83c-.06-.34.62-.65.83-.23S71.37,62.81,71.29,62.2Zm2.89-8.06c.14-.14.3-.07.48-.13l.22.14v.22l-.13.16a.54.54,0,0,1-.41-.08.18.18,0,0,0-.09,0Zm.27,11.68h0a.45.45,0,0,1,.07-.66C75.46,64.86,75.28,66.42,74.45,65.82ZM75.73,55.6v-.17s0,0-.06,0,.06-.17.08-.26h0V55c.14,0,.21.15.21.29S75.9,55.61,75.73,55.6Zm1.56,7.71c.23-.29.45.07.62.2a.23.23,0,0,1-.08.18h0A.35.35,0,0,1,77.29,63.31ZM78,67.23l-.13-.09a.41.41,0,0,1,0-.32L78,66.7c.14,0,.23.15.32.24A.31.31,0,0,1,78,67.23Zm.35-6.79c-.14,0-.22-.16-.32-.23,0-.28.36-.38.54-.22h0C78.66,60.18,78.44,60.33,78.31,60.44Zm.54,3a.45.45,0,0,1,0-.9A.45.45,0,0,1,78.85,63.45Zm4.62,7.15.25,0a.42.42,0,0,1,0,.37h0a.83.83,0,0,1-.4.49l-.17-.21A2.29,2.29,0,0,0,83.47,70.6ZM81.92,61a.3.3,0,0,1,0,.43l-.13-.14s0,0,0,0-.11-.17-.16-.26h0l-.13-.13C81.62,60.82,81.8,60.88,81.92,61Zm-1.73,4.57c-.2-.34.16-.67.51-.58h0C81.51,65.23,80.6,66.22,80.19,65.56Zm2.1,3.82,0,0-.07.07c-.73.47-1.23-.91-.4-1.16.51-1.14,1.93.4.76.84A.77.77,0,0,1,82.29,69.38Z"></path><polygon class="cls-3" points="75.83 55.32 75.99 55.31 75.83 55.31 75.83 55.32"></polygon><path class="cls-3" d="M81.81,61.12l.11-.13-.13.12Z"></path><polygon class="cls-4" points="76.58 66.94 76.39 66.86 76.58 66.94 76.58 66.94"></polygon><path class="cls-4" d="M70,24.17c-5.63,0-10.19,11.4-10.19,25.48S64.37,75.13,70,75.13c2.36,0,4.53-2,6.25-5.36a.66.66,0,0,1-.42-.08.88.88,0,0,1-.4,0v0c-1-.09-.33-1.64.51-1.15a.73.73,0,0,1,.56,0,.63.63,0,0,1,.23.26c2.12-4.67,3.46-11.51,3.46-19.13C80.19,35.57,75.63,24.17,70,24.17ZM62.88,56.92a.3.3,0,0,1,.23,0,.35.35,0,0,1,.12.24l-.18.18h0l-.08.08c-.23,0-.21-.24-.23-.34Zm-.68,5.15c.24-.16.38-.11.63-.24l.22.14,0,.4-.23.12c-.21-.08-.51,0-.64-.21Zm.45,3.65a.42.42,0,0,1,0-.68v0C63.39,64.26,63.61,66.19,62.65,65.72Zm.79,1.51h0c-.07-.41.41-.32.63-.37C64.41,67.24,63.65,67.67,63.44,67.23Zm6.32-11.68.28-.08.32.32-.07.27c-.23.12-.35.46-.65.38l-.14-.18C69.54,55.93,69.69,55.86,69.76,55.55Zm-2.7,12.31L67,67.68a.51.51,0,0,1,.22-.32l.23,0C67.87,67.54,67.46,68.17,67.06,67.86Zm.09-2c.16-.4.8-.48.9,0C68.21,66.67,66.87,66.73,67.15,65.91Zm1.77,5a.8.8,0,0,1-.34-1.37C69.84,68.85,70.36,70.84,68.92,70.94Zm.91-9s0-.21.07-.26h0l.24-.17h.2C71.2,61.94,70,63.12,69.83,62Zm1.33,8.85c-.43-.51-.2-1.06.31-1.09C72.24,69.91,71.88,71.15,71.16,70.82Zm.6-2.3h-.2l-.15-.14c0-.25.09-.31.16-.45l.26-.06c.11.15,0,.3.08.47Zm.37-8.11-.28.07c-.15-.14-.08-.29-.07-.41a.09.09,0,0,0,0,0l-.13-.3a.25.25,0,0,1,.3-.08c.13,0,.18.19.24.28v.29A.24.24,0,0,0,72.13,60.41Zm.14-8.66-.15-.17a.07.07,0,0,0,0,0L72,51.45C72.25,50.76,73.3,51.7,72.27,51.75Zm4.54,14.91-.09.2s0,0,.06,0-.12.09-.16.18,0,0,0,0l-.09.2a.29.29,0,0,1-.12-.4.31.31,0,0,1,.42-.2Zm.83-4.51a.47.47,0,0,1,.6.73A.47.47,0,0,1,77.64,62.15ZM76,57.69l.16-.14c.45,0,.35.71-.09.61L75.93,58h0A.46.46,0,0,1,76,57.69Zm-.11,4.76.49,0,.17.27a.46.46,0,0,0,0,.26,1,1,0,0,1,0,.24c1-.19.27,1.06-.13.25l0,0-.26,0c-.22-.27-.17-.45-.36-.74Z"></path><path class="cls-1" d="M78.36,120H61.64a2.86,2.86,0,0,1-2.86-2.87H81.23A2.86,2.86,0,0,1,78.36,120Z"></path><line class="cls-5" x1="83.87" y1="101.25" x2="83.87" y2="97.35"></line><line class="cls-6" x1="74.69" y1="104.4" x2="74.69" y2="84.85"></line><line class="cls-5" x1="58.78" y1="106.07" x2="58.78" y2="97.21"></line><line class="cls-5" x1="65.87" y1="96.9" x2="65.87" y2="84.96"></line><path class="cls-3" d="M62.91,31.35H77.09c-1.83-4.44-4.33-7.18-7.09-7.18S64.75,26.91,62.91,31.35Z"></path><path class="cls-7" d="M74.49,41.31A4.49,4.49,0,1,1,70,36.82,4.49,4.49,0,0,1,74.49,41.31Z"></path><path class="cls-1" d="M72.85,41.31A2.85,2.85,0,1,1,70,38.45,2.85,2.85,0,0,1,72.85,41.31Z"></path><path class="cls-8" d="M65.14,72.21c1.45,2,3.12,3.15,4.89,3.15s3.44-1.15,4.89-3.15Z"></path></g></svg> 