<?xml version="1.0" encoding="UTF-8"?> <svg xmlns="http://www.w3.org/2000/svg" viewBox="0 0 140 140"><defs><style>.cls-1{fill:#2b1f66;}.cls-2{fill:#675de8;}.cls-3{fill:none;stroke:#0f0140;stroke-miterlimit:10;stroke-width:2px;}.cls-4{fill:#8cad81;}.cls-5{fill:#f93168;}.cls-6{fill:#c60e47;}</style></defs><g id="Layer_3" data-name="Layer 3"><path class="cls-1" d="M74.89,32.72l-.12.12.14-.11Z"></path><polygon class="cls-1" points="80.32 39.03 80.17 39.03 80.32 39.05 80.32 39.03"></polygon><polygon class="cls-1" points="73.22 114.38 73.37 114.37 73.22 114.36 73.22 114.38"></polygon><polygon class="cls-1" points="54.55 26.39 54.73 26.49 54.55 26.39 54.55 26.39"></polygon><path class="cls-1" d="M79.12,120.26l.11-.13-.13.12Z"></path><path class="cls-1" d="M108.68,28a.33.33,0,0,1-.07-.58A4.71,4.71,0,0,0,104,23.78h-.35a.79.79,0,0,1-.12.15.44.44,0,0,1-.59-.15H72.25a1.22,1.22,0,0,1,.35.19c.62.47.1,1.59-.66,1.21a.76.76,0,0,1-.12-1.4H68.48c-.15.3-.58.23-.79,0H63.06a.83.83,0,0,1-.3.71c-.78.35-1.21-.2-1.15-.71h-1.2a.56.56,0,0,1-.52.3.55.55,0,0,1-.33-.3H55.94v0c1,.18.18,1.66-.61,1.09a.73.73,0,0,1-.56-.06.7.7,0,0,1,0-1H41.16a.69.69,0,0,1-.55.78c-.62,1-1.72-.15-1.21-.78H37.45c-.14.26-.45.41-.94.23a1.43,1.43,0,0,1-.33-.23H36a4.71,4.71,0,0,0-4.7,4.71v84.88a.21.21,0,0,1,0,.26v5.2a.35.35,0,0,1,0,.39v5.65a4.69,4.69,0,0,0,.47,2,.58.58,0,0,1,.74-.14c.45.29.11.86-.33.85a4.72,4.72,0,0,0,3.82,2h2.69l-.06,0c-.47-.55.19-1.3.72-.6a.47.47,0,0,1-.22.63h3.83a.68.68,0,0,1,1.15-.13h0a.43.43,0,0,1,.05.13H55.61a.53.53,0,0,0,0-.13.24.24,0,0,1,.44.13H82.76c0-.4.61-.71.95-.65l0,.33h0a2,2,0,0,0-.49.32h2.79c-.13-.2-.13-.45.13-.55-.23-1,1.43-.51.78.16h0a.43.43,0,0,1-.2.12.27.27,0,0,1-.08.27h13.66a.67.67,0,0,1,.2-.33.69.69,0,0,1,1.18.33H104a4.71,4.71,0,0,0,4.7-4.71V28.49A3.41,3.41,0,0,0,108.68,28ZM31.74,117.51a.18.18,0,0,0-.1,0h-.18l0,0a.25.25,0,0,1,.06-.41l.21.1-.05,0a.27.27,0,0,1,.16.11Zm.49-88.59,0,0a.39.39,0,0,1-.6,0h0c-.58-.56.49-1.44.8-.6A.45.45,0,0,1,32.23,28.92Zm4.29,97.68-.15.14a.07.07,0,0,0,0,0l-.14.12C35.64,126.67,36.42,125.69,36.52,126.6Zm-.85-90.82c0-.12.27-.28.42-.17l-.1.17s0,0,.06,0-.14.16-.22.24h0l-.09.16A.3.3,0,0,1,35.67,35.78Zm0,74.84h.19c0,.07.07.14.12.21V111C35.6,111.27,35.45,110.82,35.63,110.62Zm-.56,11.6c0-.26.62-.29.65.07S34.94,122.68,35.07,122.22Zm-.49-6.42,0-.15C35,114.87,35.28,116.12,34.58,115.8Zm0,.8c0-.26.33-.4.37-.1S34.62,116.9,34.58,116.6Zm1,7.36c-.38,0-.77-.39-.61-.79C35.53,122,36.78,123.68,35.61,124Zm.49,5.39a.36.36,0,0,1,.41-.58A.36.36,0,0,1,36.1,129.35Zm.55-81.84-.11-.31a.31.31,0,0,0,0,.07h0a.49.49,0,0,1-.05-.26l.29-.15c.06,0,.08.06.14.06l.17.18A.36.36,0,0,1,36.65,47.51Zm.85-8.73c-.17-.17-.09-.28-.09-.44l.28-.19C38.14,38.26,38,39.06,37.5,38.78Zm.58-2a.34.34,0,0,1-.57-.05l.14-.27,0,.06a.45.45,0,0,1,.14-.2l.28.1a.25.25,0,0,0,.05.13Zm0-10c-.11.09-.34,0-.45,0h0l-.06-.05h0c-1.1-.65.75-1.82.83-.41a.38.38,0,0,1,0,.57C38.35,26.82,38.18,26.84,38.12,26.7Zm.24,101.05-.07-.11a.35.35,0,0,1,.11-.22l.15,0c.1.06.12.18.16.26A.25.25,0,0,1,38.36,127.75Zm1-95.81.08-.19c.31.13.23.78-.16.63l.08-.18s0,0-.07,0S39.24,31.85,39.38,31.94Zm.09,87.43,0,.09c-.14.09-.25,0-.29-.08h0l0,0v-.18a.22.22,0,0,1,.36,0l0,.21Zm-.24-84.55.1-.27h0c.14-.06.31.06.43.11Zm1-8.28.27,0a0,0,0,0,0,0,0l.12,0c.12.21-.07.32-.14.4l-.23,0h0A.29.29,0,0,1,40.23,26.54ZM40.58,123c-.09-.06-.11-.17-.16-.26s.37-.16.44,0S40.7,123,40.58,123Zm-.35-2.66c-.26-.55.85-.86.72-.16h0C41,120.56,40.42,120.68,40.23,120.34Zm21.61.4.17.36-.21,0C61.74,121,61.82,120.83,61.84,120.74ZM59.33,25.43l.17-.17.2,0,.13.15c0,.25-.12.3-.2.44l-.26,0C59.27,25.74,59.36,25.61,59.33,25.43Zm-5,1.22.11-.19s0,0-.06,0,.13-.08.18-.17,0,0,0,0l.11-.19a.28.28,0,0,1,.08.41.3.3,0,0,1-.43.16Zm.12,3.24,0-.05.25.05c.2.29.14.47.3.77l-.17.27-.49,0-.15-.28a.47.47,0,0,0,0-.26.62.62,0,0,1,0-.24C53.27,30.22,54.1,29.05,54.42,29.89Zm-1.89.4a.48.48,0,0,1,.54.78A.48.48,0,0,1,52.53,30.29Zm-5.18-3.22c.48.5-.05,1.19-.63.78S46.88,26.84,47.35,27.07Zm-2.13,89.82v-.19l.24.27h-.19a.28.28,0,0,1-.05-.09Zm-3.36,6.16a.38.38,0,0,1-.32,0l-.12-.13a.26.26,0,0,1,.23-.28.28.28,0,0,1,.31.32Zm.88-97.32a.5.5,0,0,1-.67.51C41.21,25.57,42.57,24.79,42.74,25.73Zm-.12,85.36-.19,0s0,0,0,0l-.17,0C42.1,110.45,43.26,110.54,42.62,111.09Zm1-80.58c.51.43-.19,1.16-.61.74S43.2,30.1,43.62,30.51Zm.07,94.26c-.13.4-.79.2-.64-.21h0C43,124,43.89,124.31,43.69,124.77Zm0-7.78.17-.13.15,0h0l.11,0,.11.16C44.11,117.59,43.64,117.3,43.67,117ZM44,31.52h0l.12-.09.31.06C44.7,32.19,43.51,32.1,44,31.52Zm.7,92.37a.32.32,0,1,1,.6-.23C45.44,124.07,44.8,124.26,44.69,123.89Zm.76,4.89V129c-.28,0-.4-.56,0-.55v.17h.07S45.58,128.82,45.45,128.78Zm-.05-.61-.16-.2,0-.17a.51.51,0,0,1,.39-.3C46.29,127.45,46.07,128.46,45.4,128.17Zm.69-9.42.06-.23.13-.11c.77-.16.59,1.2-.11.55C46.13,118.93,46.1,118.79,46.09,118.75Zm.41,3.64-.13-.11c-.18-.4.34-.73.43-.24A.31.31,0,0,1,46.5,122.39ZM47,41.6l-.22-.19v-.24L47,41a.59.59,0,0,1,.45.14l.1.06.06.32C47.4,41.64,47.23,41.54,47,41.6Zm.77-9.55c0-.1.11-.18.15-.28l.19-.09h0c.52.18.12.67-.22.59Zm.52,81.3-.14,0-.06,0a.5.5,0,0,1-.08-.21l0-.16C48.35,112.69,48.64,113.19,48.3,113.35Zm.1-73.14a.37.37,0,0,1-.24-.16,1,1,0,0,0-.18-.16v-.27l.17-.15h.22c.2.18.16.32.21.49Zm.15-6.45h0l.27-.06c.21.19.14.41.16.63C48.63,34.61,48.41,34,48.55,33.76Zm1.12,90.29c.91-.21.94,1.41,0,1.26A.65.65,0,0,1,49.67,124.05Zm.49,3.49c-.4-.27,0-.83.45-.53S50.51,127.78,50.16,127.54Zm1-11h0l0,0v-.16C51.75,115.73,51.79,117,51.14,116.58Zm.4,4.53c-.23-.15,0-.55.25-.45S51.79,121.22,51.54,121.11Zm1,7.94c-1.06-.94.79-1.94,1-.49A.72.72,0,0,1,52.53,129.05Zm.86-103.67c-.18-.62.54-.56.7-.18l-.13.26c-.12,0-.24,0-.36,0ZM54,112a.23.23,0,0,1-.3,0,.32.32,0,0,1,.11-.45l.19.07a1.82,1.82,0,0,1,.07.25Zm.34-76.35-.17.12c-.45-.05-.28-.73.14-.6l.12.13h0A.49.49,0,0,1,54.31,35.66Zm.57,86.68c-.63-.3.13-1.39.53-.67h0C55.72,122,55.3,122.51,54.88,122.34Zm.68.64a.46.46,0,0,1,.79-.35h0a.35.35,0,0,1,0,.4h0C56.28,123.44,55.66,123.39,55.56,123Zm1.14,1.79-.21.14c-.16-.06-.15-.21-.17-.31s0,0,0,0l-.2-.2h0c.15-.29.34-.12.5,0l.09.23S56.7,124.73,56.7,124.77Zm.25-9.12a.23.23,0,0,1-.11,0l-.14-.18.42.07Zm.53-73.75.14.19s0,0,0,0l.11.17C57.41,42.9,56.45,41.86,57.48,41.9Zm1-7.92h0c-.11-.07-.15-.21-.21-.3l0-.3c.07,0,.09,0,.11-.09l.28,0c.14.15.06.3,0,.41s0,0,0,0l.1.31A.26.26,0,0,1,58.48,34Zm.75,94.29h0a.36.36,0,0,1,.41-.58A.36.36,0,0,1,59.23,128.27Zm1.09-89.92-.29,0-.28-.34.09-.27h0c.24-.1.39-.42.68-.32l.13.2C60.58,38,60.42,38.05,60.32,38.35Zm.41-6.15h0l-.25.15h-.2c-.82-.5.47-1.56.55-.4A.66.66,0,0,1,60.73,32.2ZM62,121.94a.4.4,0,0,1-.79,0,.4.4,0,0,1,.79,0Zm.28,6.84h0V129a.24.24,0,0,1-.22-.29c0-.15.1-.3.27-.28v.19s0,0,.06,0S62.33,128.7,62.32,128.78Zm6-99.92a.42.42,0,0,1,0,.68v0C67.45,30.25,67.4,28.31,68.31,28.86Zm-.64-1.58h0c0,.42-.43.29-.66.31C66.7,27.19,67.5,26.83,67.67,27.28Zm-.44,97.65a.45.45,0,0,1,.85,0A.43.43,0,1,1,67.23,124.93Zm-.11,2.36c-.32-.13-.06-.54.21-.5h0C67.64,126.91,67.38,127.33,67.12,127.29ZM67.3,37.6a.26.26,0,0,1-.22-.05A.31.31,0,0,1,67,37.3l.2-.16h0l.08-.07c.23,0,.19.25.2.36ZM63,28.18c-.09-.76,1.25-.7.9.08C63.66,28.65,63,28.67,63,28.18Zm1,92.7c-.16,0-.2-.13-.26-.21l-.1-.21c.17-.35.56,0,.54.28Zm-.06-94.07-.23,0c-.4-.26.07-.85.43-.51l0,.18A.49.49,0,0,1,63.91,26.81Zm1.42,87.82c-.16-.29.22-.64.4-.29S65.52,115,65.33,114.63Zm1.17,9.27-.23,0c-.19-.24-.15-.4-.31-.65l.12-.25h.43l.15.23C66.59,123.44,66.75,123.74,66.5,123.9Zm.42,5.11c-.57-.51.21-1.35.9-1C68.58,128.51,67.56,129.52,66.92,129Zm1.52-96.48c-.25.14-.39.08-.65.19l-.21-.16.06-.4.23-.1c.21.1.52,0,.63.26Zm.15,88.67c-.06-.34.62-.64.83-.23C69.61,121.55,68.65,121.81,68.59,121.2Zm3.49-86,.1-.18c-.13,0-.11-.36,0-.25l.1-.17c.29.15.13.78-.23.6Zm0,77.85.21.15v.21l-.13.16a.5.5,0,0,1-.4-.08h0l-.09,0-.08-.26C71.72,113,71.88,113.11,72.07,113.05Zm-.37,11.81h0a.44.44,0,0,1,.08-.66C72.72,123.92,72.51,125.47,71.7,124.86Zm.67-79.1-.1-.27a.32.32,0,0,0,0,.06.37.37,0,0,1-.05-.22l.25-.14c.05,0,.07.05.12.05l.16.15A.33.33,0,0,1,72.37,45.76ZM82.64,28.7h0a.44.44,0,0,1-.13.65C81.55,29.57,81.87,28,82.64,28.7ZM80.45,38.76l0,.17a.05.05,0,0,1,0,0c0,.14-.07.17-.1.26a0,0,0,0,0,0,0l0,.16c-.14,0-.2-.17-.18-.32A.28.28,0,0,1,80.45,38.76ZM79.59,31c-.26.27-.44-.12-.6-.26a.26.26,0,0,1,.09-.17h0A.35.35,0,0,1,79.59,31Zm-.32-4,.13.11a.47.47,0,0,1-.06.31l-.17.11c-.15,0-.21-.18-.3-.27A.32.32,0,0,1,79.27,27Zm0,93.15a.29.29,0,0,1,0,.42l-.13-.13s0,0,0,0-.1-.17-.16-.26h0l-.13-.13A.29.29,0,0,1,79.23,120.13ZM78.05,30.67a.45.45,0,0,1-.11.89A.45.45,0,0,1,78.05,30.67Zm-4.94,84v-.17s0,0-.05,0,.05-.18.08-.27a0,0,0,0,0,0,0v-.16c.14,0,.21.16.2.3S73.28,114.67,73.11,114.66Zm.21-76.56c-.3.19-.48-.15-.4-.38l.24-.17C73.32,37.61,73.57,37.9,73.32,38.1Zm1.54-13.4a.68.68,0,0,1,.3-.24h0l.08-.06c.77-.4,1.14,1,.29,1.2C74.93,26.69,73.66,25,74.86,24.7Zm.31,8.23c-.12.11-.29,0-.4-.09a.31.31,0,0,1,0-.43l.12.15s0,0,.05,0,.09.18.14.27h0Zm-.6,89.46c.23-.29.45.08.62.21a.25.25,0,0,1-.08.18h0C74.87,123,74.44,122.7,74.57,122.39Zm.62,3.93-.13-.1a.38.38,0,0,1,0-.31l.16-.13c.15,0,.23.16.32.25S75.39,126.33,75.19,126.32Zm.12-7c0-.27.36-.37.54-.21h0c.13.2-.09.34-.22.45S75.4,119.37,75.31,119.29Zm.81,3.26a.45.45,0,0,1,0-.9A.45.45,0,0,1,76.12,122.55ZM76.35,29h0c-.8-.33.2-1.22.56-.53C77.08,28.8,76.68,29.1,76.35,29Zm1.09,95.69c-.2-.33.17-.67.51-.57h0C78.77,124.37,77.84,125.33,77.44,124.67Zm.62-90.52h0c-.12-.21.12-.34.25-.43s.22.17.3.26C78.62,34.25,78.22,34.32,78.06,34.15Zm1.7,94.1a.72.72,0,0,1-.28.27v0l-.07.07c-.74.46-1.22-.93-.39-1.17C79.54,126.27,80.94,127.83,79.76,128.25Zm.71-12.94c-.17,0-.43-.31-.19-.53s.48.11.42.34Zm.08-7.67a.19.19,0,0,0-.12,0l-.17-.14a.33.33,0,0,1,.38-.4l.11.26,0,0a.5.5,0,0,1,.07.22Zm.62-67.35v-.22l.15-.15a.5.5,0,0,1,.39.12l.09.05.06.27c-.16.12-.31,0-.5.09ZM81.63,118l-.08.18c-.3-.13-.2-.77.18-.61h0l-.08.18C81.77,117.71,81.79,118.1,81.63,118Zm.44,10.8c-.65-.43-.22-1.58.57-1.26C83.67,127.83,83.26,129.54,82.07,128.81ZM102.07,26c1,1-.94,1.88-1.07.41C101.07,25.91,101.68,25.78,102.07,26Zm-2.59,90.23-.13-.12h0a.51.51,0,0,1,.06-.35l.16-.13C100,115.63,99.91,116.33,99.48,116.22Zm.15-73.29h0a.33.33,0,0,1-.14.44l-.19-.09a1.87,1.87,0,0,1,0-.25l.07-.16A.22.22,0,0,1,99.63,42.93ZM99.22,32.5c.61.35-.24,1.38-.58.63h0C98.35,32.79,98.81,32.3,99.22,32.5ZM99,25c.08.1,0,.23.07.34C98.62,25.7,98.34,24.84,99,25Zm-3.65,1.24h0a.36.36,0,0,1-.45.55A.36.36,0,0,1,95.33,26.26Zm-3-.75h0l0-.19a.25.25,0,0,1,.2.31.27.27,0,0,1-.3.26l0-.19s0,0-.06,0S92.28,25.59,92.29,25.51ZM92,32.35a.4.4,0,0,1,.79.06.4.4,0,0,1-.79-.06Zm.18.91c0,.1,0,.22-.07.3L92,33.19Zm-4.5-8.33c.53.55-.31,1.32-1,.95C86,25.3,87.12,24.37,87.72,24.93Zm-.61,4a.46.46,0,0,1-.86-.06A.44.44,0,1,1,87.11,29Zm-2.49,3.78c-.15-.59.82-.78.84-.16C85.49,32.93,84.79,33.18,84.62,32.75Zm.91,87.41,0-.2c.25-.17.39-.11.64-.24l.22.14,0,.4-.24.12C86,120.3,85.65,120.41,85.53,120.16ZM86,123.6a.41.41,0,0,1,0-.67v0C86.73,122.15,86.93,124.09,86,123.6Zm.5-8.34h0l-.08.08c-.23,0-.21-.24-.22-.34l.12-.19a.28.28,0,0,1,.22,0,.32.32,0,0,1,.12.24Zm.26,9.87h0c-.06-.41.41-.32.64-.36C87.71,125.15,86.94,125.57,86.73,125.13Zm.42-98h0c-.31-.15,0-.54.25-.48S87.41,27.18,87.15,27.11Zm.63,12.54c-.14-.3.26-.62.42-.26S87.94,40,87.78,39.65ZM88.09,31h-.42l-.13-.25c.08-.23-.05-.54.21-.68l.23,0c.17.25.12.4.26.66Zm1.76,2.39.2-.13c.15.05.18.15.23.23l.09.22C90.18,34,89.81,33.63,89.85,33.39Zm.5,92.42-.06-.18c0-.21.15-.24.23-.32l.22,0C91.16,125.49,90.74,126.12,90.35,125.81Zm.11-2c.17-.4.81-.47.91,0C91.52,124.63,90.18,124.67,90.46,123.86Zm1.71,5a.81.81,0,0,1-.32-1.38C93.11,126.83,93.61,128.83,92.17,128.91Zm.77-14.68c0-.32.2-.39.27-.7l.29-.07.31.31-.07.28c-.23.12-.36.45-.66.37ZM93.2,120s0-.21.08-.26h0l.23-.16.2,0C94.57,119.94,93.37,121.1,93.2,120Zm1.22,8.87c-.43-.51-.2-1.06.32-1.09C95.51,127.92,95.13,129.16,94.42,128.82Zm.62-2.3h-.2l-.15-.14c0-.25.1-.31.17-.45l.26,0c.11.15,0,.29.07.47Zm.58-8.19c-.06,0-.08,0-.1.09l-.28.07c-.15-.14-.08-.29-.07-.41a.07.07,0,0,0,0,0l-.13-.3a.25.25,0,0,1,.3-.08c.12,0,.17.19.24.28Zm.15-8.56-.15-.18s0,0,0,0l-.12-.16C95.77,108.77,96.81,109.73,95.77,109.77Zm.69-70.62.18-.14a.23.23,0,0,1,.11.06l.12.18ZM97.53,30s.06-.06.06-.1l.21-.13c.16.08.14.22.16.33s0,0,0,0l.18.22h0c-.17.28-.35.09-.49,0Zm.24,2.06a.36.36,0,0,1,0-.4h0c.11-.39.73-.3.79.12A.46.46,0,0,1,97.77,32.1Zm1.32,95.65a.72.72,0,0,1-.39,0v0c-1-.1-.31-1.64.53-1.13a.73.73,0,0,1,.56,0C100.48,127.08,99.86,128.2,99.09,127.75Zm1-3-.1.2s0,0,.06,0-.12.09-.16.18,0,0,0,0l-.09.2a.3.3,0,0,1-.12-.41.32.32,0,0,1,.43-.19Zm-.38-3.21,0,0-.26,0c-.22-.27-.17-.45-.35-.74l.15-.28h.49l.16.27a.46.46,0,0,0,0,.26.64.64,0,0,1,0,.24C100.87,121.1,100.13,122.33,99.74,121.52Zm.69,4.65.11-.27c.12,0,.24,0,.36-.07l.22.1C101.34,126.53,100.62,126.53,100.43,126.17Zm1.17-5.2a.47.47,0,0,1-.59-.73A.47.47,0,0,1,101.6,121Zm.9-82.25c-.67.61-.61-.69,0-.19h0v0Zm-.33-4.3c-.22-.17,0-.56.28-.44S102.41,34.53,102.17,34.42Zm5.4-1.32.13.11c.14.41-.4.7-.45.21A.3.3,0,0,1,107.57,33.1Zm.07,3.44s.06.17.07.22l-.09.22-.12.1C106.71,37.18,107,35.84,107.64,36.54ZM105.23,42l0,.06a.47.47,0,0,1,.07.21l0,.16c-.31.2-.56-.33-.21-.46Zm-.91-14.32c.38.3,0,.83-.49.49C103.53,27.85,104,27.41,104.32,27.68Zm.31,2.26a.65.65,0,0,1-.08,1.26C103.62,31.34,103.71,29.72,104.63,29.94Zm.67,87.26h0l-.26.08c-.23-.16-.18-.39-.21-.61C105.16,116.37,105.42,116.94,105.3,117.2Zm0-5.72h-.23c-.21-.17-.18-.31-.25-.48l.16-.25a.44.44,0,0,1,.25.14,1,1,0,0,0,.19.15l0,.27Zm.79,7.66-.18.11h0c-.53-.15-.17-.66.18-.61l.14.21C106.17,119,106.11,119,106.07,119.14Zm.25-9.27a.6.6,0,0,1-.46-.1.19.19,0,0,0-.1,0l-.09-.31c.17-.15.36-.07.56-.14l.24.17v.25Zm.69,13.92c-.52-.47,0-1.2.57-.83S107.49,124,107,123.79Zm1.42-85.11v.19l-.22-.3h.19a.16.16,0,0,1,0,.1Z"></path><polygon class="cls-1" points="99.88 125.01 99.69 124.92 99.88 125.01 99.88 125.01"></polygon><path class="cls-2" d="M103.66,119.5v-.07h-.13Z"></path><path class="cls-2" d="M103.54,67.44l.12,0h0l-.12,0Z"></path><path class="cls-2" d="M103.47,123.15l-.23-.06c0-.09-.1-.13-.09-.28s0-.24.08-.29a.43.43,0,0,1,.43,0V120.8a.29.29,0,0,1-.22-.25l.11-.28.11,0V120a.27.27,0,0,1-.27.17.37.37,0,0,1-.26-.44.34.34,0,0,1,.29-.32l0,0-.15-.21a.32.32,0,0,1,.34-.3V106.68a.32.32,0,0,1-.3-.21H101.9l1.35-.31v0c0-.11.06-.24.17-.29a.49.49,0,0,1,.19-.07h0l0,0h0v-2l-.19-.11c0-.05-.06-.23,0-.27a.42.42,0,0,1,0-.19l0-.18h0l.16,0,.07,0V91l-.09,0a.31.31,0,1,1,.09-.61V87c-.28.14-.64.13-.74-.17a.52.52,0,0,1-.13.32c-.11,0-.21.12-.32.15l-.26-.06c-.33-.35-.07-.61.13-.88a2.56,2.56,0,0,1,.39,0l.07.09a1.05,1.05,0,0,1,.07-.11v-.53l.18.36a.69.69,0,0,1,.61,0V86a.41.41,0,0,1-.24-.19.36.36,0,0,1,0-.21l0-.11.21-.14V84.8l-.26-.14v-.11a.3.3,0,0,1,.27-.31V82.72a.32.32,0,0,1-.28-.31l.11-.23a.49.49,0,0,1,.17,0V79.6a.33.33,0,0,1-.13.07.37.37,0,0,1-.56,0l-.07-.28a1.29,1.29,0,0,0,.09-.16l0-.08.29-.32.21,0a.48.48,0,0,1,.2-.24v-11a.69.69,0,0,1-.18.16h-.19c-.1-.07-.21-.14-.21-.27h0c-.06-.14.07-.26,0-.39a1.84,1.84,0,0,0,.41,0l.12.12v-.5a.36.36,0,0,1,0-.69V57.33a.51.51,0,0,1-.5-.14c-.2-.53.19-.77.5-.66V51.76h0l0-.2v.2a.69.69,0,0,1-.53-.18l-.1-.25a.56.56,0,0,1,.68-.51V48.24a1.92,1.92,0,0,0-.21.16,1,1,0,0,1-.3,0l0,0H103l-.11-.13h0a.56.56,0,0,1,0-.62s.06-.11.06-.14l.12,0a.46.46,0,0,1,.72,0V45.72a.54.54,0,0,1-.58.13.43.43,0,0,1,0-.49.39.39,0,0,1,.62,0v-12a1.24,1.24,0,0,0-1.24-1.24H99.15a.38.38,0,0,1-.63,0H94.73c.1.06.19.12.21.23a.47.47,0,0,1-.15.41l-.24.08a.36.36,0,0,1-.31-.47.85.85,0,0,1,.25-.25H40.31a.35.35,0,0,1-.66,0H37.58a1.28,1.28,0,0,0-.44.09.3.3,0,0,1-.37.23,1.21,1.21,0,0,0-.43.92V47.61l.16.12a.53.53,0,0,1,.32-.12l.2.12c0,.05.06.23,0,.28a.36.36,0,0,1,0,.18l0,.18h0l-.16,0-.13.1,0,0h0c-.17,0-.25-.14-.34-.24l0-.1a.31.31,0,0,1,0-.21v0l-.09-.22V59.93l0,0,0,.17a.46.46,0,0,1-.07.14v.1a.47.47,0,0,1,.15.24l.06.12-.21.28v9.78a.32.32,0,0,1,.2-.07l.18.09a.91.91,0,0,1,.09.35l-.13.2a.44.44,0,0,1-.34,0v.54l.18.25h.11V72l0-.06v0a.51.51,0,0,1,.29-.23.37.37,0,0,1,.56,0l.07.27a.91.91,0,0,0-.09.17l0,.07-.29.33a.52.52,0,0,0-.21,0c-.06.17-.21.21-.3.34a.43.43,0,0,1-.39,0v12a.52.52,0,0,1,.38-.24.37.37,0,1,1-.31.56l-.07-.3v22.85h0l.07.06-.1.17.12-.15a.35.35,0,0,1,.05.5l-.08.1-.11,0v2.44c.17,0,.3.14.24.42a.35.35,0,0,1-.24.37v11.15a1.25,1.25,0,0,0,1.24,1.24h60a1.48,1.48,0,0,0-.39-.25.61.61,0,0,1,.24-.76v0a1.9,1.9,0,0,1,.53-.09l0,.11a.47.47,0,0,1,.23.48.46.46,0,0,1,.21.54h4a1.21,1.21,0,0,0,1.18-1A.36.36,0,0,1,103.47,123.15Zm0-10.18c0,.21,0,.46-.24.54a.43.43,0,0,1-.36-.17.44.44,0,0,1,0-.23l0-.11h0l.25-.22.08,0h.06Zm-1-5.75a.29.29,0,0,1,.16,0l0-.15a1.83,1.83,0,0,1,.45-.32c.28.16.49.44.21.75h0a.44.44,0,0,1-.35.13.29.29,0,0,1-.26.24l-.19-.06a1.11,1.11,0,0,1-.15-.34Zm.45-14.42a5.81,5.81,0,0,0,.5.49H103a.76.76,0,0,1-.17.13l-.26-.06C102.31,93.07,102.53,92.65,102.89,92.8Zm-.53,4.51a.49.49,0,0,1,.44-.2l.06.08a.35.35,0,0,1,.18.16l.28.06h0l-.21.07a.54.54,0,0,1-.08.33l-.2.1c-.09,0-.34-.14-.38-.24l-.13,0,.06-.11S102.37,97.35,102.36,97.31Zm-.18,7.19.36.52c-.14.08-.2.26-.36.32l0,0a1.13,1.13,0,0,1,0,.32L102,106h-.34c-.22-.21-.35-.47-.1-.74l.1,0h0a.59.59,0,0,1,.14-.5l.26-.08h0Zm-.81-20.73c-.15.23-.43.52-.72.38h0l-.24-.22,0,0-.06-.11,0-.08a1.17,1.17,0,0,0-.08-.36l.18,0c.13-.2.36-.1.55-.12l0,0a.36.36,0,0,1,.22.12l.39-.22-.32.34A.7.7,0,0,1,101.37,83.77Zm-.25,5.35L101,89c-.13,0-.38.12-.49,0l.11-.16-.12.15c-.09,0-.2-.31-.22-.42l0,0h0c.09-.38.49-.6.74-.2l.12.07C101.22,88.6,101.08,88.88,101.12,89.12Zm-.71-49.94c.09,0,.23,0,.31,0l0,0-.11.17.12-.15c.22.15.09.37.09.57C100.36,40.11,99.82,39.41,100.41,39.18Zm-.1-2a1,1,0,0,1,.32-.41l.11-.09a1.79,1.79,0,0,0,.23,0l.22.1a.62.62,0,0,1,0,.78c-.3.19-.82.08-.81-.31Zm.51,19a.43.43,0,0,1-.81.21c-.05-.08,0-.23,0-.32a.52.52,0,0,1,.67-.12Zm.36-12.6a.4.4,0,0,1,.6,0l.1.27a.41.41,0,0,1-.71.14l-.06-.29,0-.06.18.09Zm.22-.91a.35.35,0,0,1,.24-.47l.36,0a2.39,2.39,0,0,1,.12.22l.17.13.1.28a1.39,1.39,0,0,0-.12.32.52.52,0,0,1-.75,0l-.15-.28s0-.1,0-.14Zm.89,20.67a1.14,1.14,0,0,1,0,.33l-.09.08c-.18.21-.47.12-.65-.08a1.06,1.06,0,0,1,0-.43A.51.51,0,0,1,102.29,63.29Zm.55,9.38c-.15.06-.35,0-.5,0l-.06-.07a.4.4,0,0,1-.2-.26h0l.07-.38a.65.65,0,0,0,.23-.21l.3,0,.21.16V72A.45.45,0,0,1,102.84,72.67ZM103,52.35l.56.17c-.06.16,0,.34-.1.48l-.08.1-.41,0a.56.56,0,0,1-.19-.44A1.86,1.86,0,0,0,103,52.35Zm-.2,3.1c.22,0,.28.28.27.45-.22.68-.57.62-1.09.26a.88.88,0,0,0,0-.32l.18-.42C102.35,55.38,102.53,55.27,102.78,55.45ZM102,34.66c.32-.23.54,0,.6.34l0,.06v0a.41.41,0,0,1-.65,0l0-.29Zm-.14,6.87c0,.32-.24.48-.53.53a.56.56,0,0,1-.41-.74l.14-.07.07-.13.12,0C101.52,41.05,101.77,41.31,101.86,41.53Zm-.44-8.14c0,.28,0,.61-.23.78h-.31l0,0a.47.47,0,0,1-.25-.16l0-.22v0l0-.15.1-.14h0c.12-.2.35-.18.54-.23Zm-2.07-.45a.53.53,0,0,1,.6-.19c.08-.12.2-.21.26-.29l.26-.07c.24.09.53.34.41.63l0,.15-.17.1a.46.46,0,0,1-.33.2,1.8,1.8,0,0,1-.22-.06.51.51,0,0,1-.86.06,1.24,1.24,0,0,1,0-.33v0Zm.05,10.41a.46.46,0,0,1,0-.48C100.09,42.25,100.33,43.77,99.4,43.35Zm-.23,2.4a.63.63,0,0,1,.21-.12,1.31,1.31,0,0,0,.11-.12l.29-.07h.07c.16-.08.33.07.48.05l.14.44,0,0v0l-.09.2a.82.82,0,0,1-.53.2h0c-.22.23-.47,0-.64-.16A.55.55,0,0,1,99.17,45.75Zm-.23,5a.47.47,0,0,1,.27-.2l0,0,.43.11v0l.15.07-.07.14s0,.09,0,.12a1.58,1.58,0,0,1-.2.36.76.76,0,0,1-.39-.1h-.06L99,51.09A1.15,1.15,0,0,1,98.94,50.77Zm0,3.87.1,0,0-.05.33,0a.84.84,0,0,1,.16.24.37.37,0,0,1,.09.48.54.54,0,0,1-.47.13.59.59,0,0,1-.17-.25L98.91,55Zm.08,8c0-.06.22,0,.28-.06.29.17.66.27.55.66l0,0a.41.41,0,0,1-.23.29c0,.11-.25.14-.34.18A.59.59,0,0,1,99,62.65Zm-1,5a1.23,1.23,0,0,0,0-.19c-.1.08-.28,0-.38-.06l0-.06.1-.17-.14.15s-.14-.18-.16-.21,0-.28,0-.35a.46.46,0,0,1,.24-.3l.13-.17,0,0v0c.29.07.62.17.68.53.11-.1.37.07.56.09a2.57,2.57,0,0,1,.16.62C99,68.09,98.24,68.36,98.06,67.69Zm.69,7.46a1.21,1.21,0,0,1,.07.34,4.37,4.37,0,0,1-.26.38l-.25,0a.72.72,0,0,1-.43-.73A.65.65,0,0,1,98.75,75.15ZM96.24,84l.1,0v0a1.18,1.18,0,0,0,.22-.17l0,0,.12-.08h0c.21,0,.3.19.41.31l0,.16a.41.41,0,0,1,0,.22.34.34,0,0,1-.06.15s0,.21-.06.23a.69.69,0,0,1-.43.2,1.2,1.2,0,0,1-.31-.13,1.08,1.08,0,0,1,0-.75Zm-.06-12.61a.92.92,0,0,0,.23-.25l.31,0,.2.16.06.27,0,.06a.41.41,0,0,1-.69.18A1.28,1.28,0,0,1,96.18,71.34Zm.29-11.76-.1,0a2.64,2.64,0,0,1-.12-.4.83.83,0,0,1,.63-.33c.13.06.27,0,.44.16s.12.19.14.23C97.41,59.75,96.78,60.11,96.47,59.58Zm.93-6.14.13-.16.38,0a.56.56,0,0,1,0,.56,1.22,1.22,0,0,1-.36.14C97.37,53.9,97.23,53.68,97.4,53.44ZM98.73,41v.14a.48.48,0,0,1-.6,0L98,41s0-.07,0-.09l0-.06c.07-.26.36-.47.6-.29h0A.37.37,0,0,1,98.73,41Zm-.11-3.16a2,2,0,0,1,.16.23,1.22,1.22,0,0,1,0,.27.36.36,0,1,1-.6-.4l.15-.15Zm-1-2.13a.8.8,0,0,1,.42-.41l.28,0,0,.06a.48.48,0,0,1,.1.43v.07a.55.55,0,0,1-.14.23v0l-.35.18-.35-.26,0-.32,0,0ZM97.21,42h0a.4.4,0,0,1,.33,0l-.09.18.1-.17c.11,0,.17.2.22.28-.06.42-.48.39-.72.2V42Zm-.32,5.55,0,.24a1.41,1.41,0,0,1-.48.28.44.44,0,0,1,.09-.88.79.79,0,0,1,.39.23ZM95.88,36h.05a1.7,1.7,0,0,1,.19-.19h0c.41-.25.74,0,.73.45a1.92,1.92,0,0,1-.08.3.63.63,0,0,1-.7.19.71.71,0,0,1-.23-.33l-.06,0ZM43.43,46.75l.19-.13c.24,0,.35.1.49.21a.52.52,0,0,1,0,.33l.05.18-.31.31-.1,0-.07,0-.3-.21a.68.68,0,0,1,0-.32A.4.4,0,0,1,43.43,46.75ZM44,60.92l.06.14a1,1,0,0,1,.13.19h0l.08.13a.61.61,0,0,1-.58.51l0,0a2,2,0,0,1-.5-.18l0-.12a.46.46,0,0,1,.05-.51C42.91,60.48,44.07,60.15,44,60.92Zm-1.56,49.63c-.07.26-.36.48-.6.29h0a.36.36,0,0,1-.08-.51v-.14a.5.5,0,0,1,.6,0l.11.24s0,.07,0,.1Zm-.15,2.84-.14.15-.31-.05c-.07-.08-.11-.18-.16-.24a2.26,2.26,0,0,1,0-.26A.36.36,0,1,1,42.32,113.39Zm-1.2-7.66s-.1.1-.12.11l-.29.08h-.07c-.16.07-.33-.07-.48-.06l-.14-.43,0,0v0l.09-.2a.82.82,0,0,1,.53-.21h0c.23-.22.47,0,.65.16a.55.55,0,0,1,0,.47A.57.57,0,0,1,41.12,105.73Zm0,2.75c-.71.63-.94-.89,0-.48C41.17,108.16,41.22,108.37,41.11,108.48Zm-1.24,9.44h0c-.12.2-.35.17-.54.23l-.26-.18c0-.28,0-.62.23-.78a1.07,1.07,0,0,1,.31,0l0,0a.44.44,0,0,1,.24.16l.06.23h0l0,.16-.1.13Zm0-3.33-.11.09-.23,0-.22-.1a.62.62,0,0,1,0-.78c.3-.19.82-.07.81.32l.06.09A.93.93,0,0,1,39.86,114.59Zm.22-2.42a1.5,1.5,0,0,1-.3,0l-.05,0,.1-.16-.12.15c-.21-.16-.09-.38-.09-.58C40.13,111.24,40.67,111.94,40.08,112.17Zm-.76-4.35a.4.4,0,0,1-.6,0l-.1-.28a.4.4,0,0,1,.7-.13l.06.28-.05.07-.18-.09Zm-.23.92a.35.35,0,0,1-.24.47l-.36,0a2.25,2.25,0,0,1-.12-.21l-.17-.14-.1-.28a1.51,1.51,0,0,0,.12-.31.52.52,0,0,1,.75,0l.16.28-.06.14Zm-1-54.7c-.09.17-.27.19-.43.21l-.07-.08a.46.46,0,0,1-.18-.16L37.18,54h0l.2-.07a.57.57,0,0,1,.08-.34l.21-.09c.08,0,.33.14.37.23l.13,0-.06.11A1.23,1.23,0,0,1,38.13,54Zm-.53,4.52a4.64,4.64,0,0,0-.5-.49h.44a.7.7,0,0,1,.17-.13L38,58C38.18,58.29,38,58.71,37.6,58.56ZM38,46.34c.14-.08.2-.27.36-.32l0,0a1.13,1.13,0,0,1,0-.32l.24-.27h.34c.22.22.35.48.1.75l-.1,0h0a.65.65,0,0,1-.13.51l-.27.08h0l-.15.08Zm.95,41.39a1.24,1.24,0,0,1,0,.43.51.51,0,0,1-.66-.09.93.93,0,0,1,0-.33l.08-.09C38.42,87.44,38.71,87.53,38.9,87.73ZM39.18,68l-.39.22.32-.35c0-.09,0-.21,0-.32.16-.22.43-.51.72-.37h0l.23.23,0,0,.07.1,0,.08a1.45,1.45,0,0,0,.08.36l-.18.06c-.13.19-.36.1-.54.11l0,0A.36.36,0,0,1,39.18,68Zm1.3,27c.06.07,0,.23,0,.31a.52.52,0,0,1-.67.12l-.14-.22A.43.43,0,0,1,40.48,95Zm.8,5.76,0,0-.43-.11v0l-.15-.06.07-.14s0-.09,0-.13a1.75,1.75,0,0,1,.2-.35.67.67,0,0,1,.39.1h.06l.19.2a1.1,1.1,0,0,1,0,.31A.43.43,0,0,1,41.28,100.78Zm.25-4.06-.1,0,0,0-.34,0a.76.76,0,0,1-.16-.25.37.37,0,0,1-.09-.48.62.62,0,0,1,.48-.13.52.52,0,0,1,.16.26l.13.09Zm-.08-8c0,.05-.22.05-.28.06-.28-.18-.66-.28-.55-.67l.05,0a.37.37,0,0,1,.22-.28c0-.11.25-.15.34-.18A.59.59,0,0,1,41.45,88.71ZM42,84.49c-.11.09-.37-.08-.56-.09a2.83,2.83,0,0,1-.16-.62c.22-.51.94-.78,1.12-.11a1.37,1.37,0,0,0,0,.19c.1-.09.28,0,.38,0l.05.06-.1.18.14-.15s.14.17.16.21,0,.28,0,.34a.45.45,0,0,1-.24.31l-.12.16,0,0h0C42.42,85,42.1,84.85,42,84.49Zm-.29-8.28a1.28,1.28,0,0,1-.07-.34,2.58,2.58,0,0,1,.26-.38l.25,0a.72.72,0,0,1,.43.73A.66.66,0,0,1,41.74,76.21Zm.82,21.25a1.58,1.58,0,0,1,.36-.14c.2.14.34.36.17.6l-.13.15-.38,0A.61.61,0,0,1,42.56,97.46ZM43,92.15c0-.55.68-.91,1-.38l.1,0a2.64,2.64,0,0,1,.12.4.86.86,0,0,1-.63.33c-.13-.06-.27,0-.44-.16S43.05,92.18,43,92.15Zm1.22-24.74-.1,0,0,0a1,1,0,0,0-.23.18l0,0-.13.09h0a.7.7,0,0,1-.42-.32l0-.16a.33.33,0,0,1,0-.22.47.47,0,0,1,.06-.15s0-.21.06-.23a.74.74,0,0,1,.43-.2,2.22,2.22,0,0,1,.32.14,1.11,1.11,0,0,1,0,.74Zm-.17,12.85-.3,0-.21-.17,0-.26,0-.07a.4.4,0,0,1,.69-.17,1.23,1.23,0,0,1,.08.39A1.09,1.09,0,0,0,44.08,80.26ZM42,35.85a.52.52,0,0,1,.75-.54v0l.11.07v.09a1.44,1.44,0,0,0,.27.28L43,36c0,.24-.27.28-.43.38h0a.43.43,0,0,1-.25,0l-.21.4.09-.46c-.14-.12-.12-.22-.17-.31l0-.1Zm0,5.65a.75.75,0,0,1,.37-.14,1.27,1.27,0,0,1,.31.2c0,.2-.06.34-.08.51-.24.29-.51.18-.74,0a2.53,2.53,0,0,0-.29-.76Zm-.33,40.11h0c.08,0,.27.17.27.28h0a1.16,1.16,0,0,1,.08.32c0,.07-.17.18-.21.24l-.34.2-.05-.05a.56.56,0,0,1-.4-.34h0l0-.33A.57.57,0,0,1,41.73,81.61Zm-1.07-25a1,1,0,0,1-.19-.47,1.11,1.11,0,0,1,.25-.32,1.72,1.72,0,0,1,.67.09C41.63,56.51,41.22,57,40.66,56.65Zm-.34-5.95c0-.05.07-.08.07-.14a1.86,1.86,0,0,1,.41-.17h0c.11.08.26.24.26.35h0a1.23,1.23,0,0,1,.08.33l-.2.29a.53.53,0,0,1-.39,0h0a2.63,2.63,0,0,1-.29-.37l0,0-.09-.15ZM40,62.38l-.11.16.13-.15c.08,0,.19.3.21.41l0,.06h0c-.09.39-.49.61-.74.2L39.3,63c0-.24.11-.51.07-.75h0l.09.14C39.59,62.33,39.84,62.26,40,62.38Zm-1.82-28c.14-.33.59-.55.85-.29a.5.5,0,0,1-.08-.39c.08-.09.12-.21.21-.3l.25-.09c.48.13.4.51.36.86-.11.07-.26.12-.37.18l-.12-.05a.66.66,0,0,1-.67.73l-.22-.11a1,1,0,0,1-.24-.48l0-.06Zm.19,6.82h0l.08,0,0,.25a.76.76,0,0,1,0,.37L38,42,37.87,42l-.1,0-.07,0,0-.11h0l-.06.1a.76.76,0,0,1-.35-.47l.07-.26A.58.58,0,0,1,38,41,.44.44,0,0,1,38.32,41.2Zm-.68-2.85h0l-.25.22-.08,0h-.05L37,38.38c0-.2,0-.45.24-.53a.43.43,0,0,1,.36.17.41.41,0,0,1,0,.22Zm-.43,5.54h0a.46.46,0,0,1,.35-.14.31.31,0,0,1,.27-.24l.19.07a1.22,1.22,0,0,1,.14.34l-.11.22-.15,0,0,.14a1.71,1.71,0,0,1-.44.32C37.14,44.48,36.94,44.2,37.21,43.89Zm.63-4.54c.06.24-.17.39-.4.39l-.21-.24a.49.49,0,0,1,.31-.37l.28.12Zm-.64-3.88c.12.16.35.24.45.43l0,.1h0l-.15.26h-.13l0,0-.15-.05a.3.3,0,0,1-.14-.11C36.71,36,36.79,35.42,37.2,35.47Zm-.31,10.11h0l0,0c-.09,0-.29-.13-.37-.18s0-.25,0-.38,0-.25.12-.35a.34.34,0,0,1,.47.19h1.46l-1.35.3,0,0c0,.1-.06.23-.18.28A.28.28,0,0,1,36.89,45.58Zm-.2,14.82h0l.23-.09a.31.31,0,1,1-.23.54l-.09-.21Zm-.1,5a.35.35,0,0,1,.49.16.8.8,0,0,1,0,.21v.11l-.28.18-.08,0h0l-.19-.19A.92.92,0,0,1,36.59,65.36Zm-.11,1.51a.47.47,0,0,1,.35-.32l.26.15v.1c0,.24-.22.35-.45.33l-.17-.26ZM37,69.18a.35.35,0,0,1-.47-.23h0a.33.33,0,0,0,0-.14l0,0c.14-.28.49-.21.55.15Zm.44-4a.67.67,0,0,1-.66,0h0l-.12-.2a.42.42,0,0,0,0-.16c-.06-.09,0-.26,0-.35.27-.22.77-.25.88.09a.55.55,0,0,1,.13-.32c.11,0,.21-.11.32-.14l.26,0c.33.35.08.61-.13.89l-.39,0-.07-.09-.06.1v.54Zm.21,13.49c.15-.07.35,0,.5,0l.06.07a.4.4,0,0,1,.21.25h0l-.06.38a.81.81,0,0,0-.24.21l-.3,0-.2-.17,0-.07A.44.44,0,0,1,37.65,78.69Zm.88,16.5a.85.85,0,0,0,0,.32l-.18.43c-.25,0-.43.14-.68,0s-.28-.29-.27-.45C37.66,94.78,38,94.83,38.53,95.19Zm-.8,3.47a1.25,1.25,0,0,0-.21.35L37,98.83c.07-.15,0-.34.1-.47l.08-.11.41,0A.56.56,0,0,1,37.73,98.66ZM37,84.3l-.22-.22,0-.09,0,0,0-.09h0v0s.12,0,.14,0h0l-.18-.06a.47.47,0,0,1,.24-.27.67.67,0,0,1,.2,0c.09.06.2.14.2.27h0c.06.14-.07.25,0,.39A1.18,1.18,0,0,0,37,84.3Zm-.36,9.87a.51.51,0,0,1,.74,0c.31.84-.84,1-.82.11Zm.09,6.4-.09-.24a.71.71,0,0,1-.2-.25,1.56,1.56,0,0,1,.15-.39h.16l.06-.08h.09l0,.19,0-.19a.71.71,0,0,1,.54.17l.09.25a.56.56,0,0,1-.73.51Zm.77,5.42a.39.39,0,0,1-.63,0,1.51,1.51,0,0,1,0-.3.56.56,0,0,1,.61-.16C37.51,105.66,37.56,105.87,37.45,106Zm.28-2.27h0s0,.11-.06.15l-.11,0a.47.47,0,0,1-.76,0,1,1,0,0,1,0-.24h0v-.09h0a1.41,1.41,0,0,1,0-.41A1.78,1.78,0,0,0,37,103a1.48,1.48,0,0,1,.3,0l0,0h.15l.1.12,0,0A.55.55,0,0,1,37.73,103.72Zm.76,13c-.32.22-.53,0-.6-.34l0-.07v0a.41.41,0,0,1,.65,0l0,.3Zm.14-6.87a.5.5,0,1,1,.94.2l-.14.07-.07.14-.12,0C39,110.31,38.72,110,38.63,109.83Zm1.08,11.24c-.48.58-1.18-.48-.43-.59C39.7,120.48,39.76,120.7,39.71,121.07Zm1.44-2.65a.58.58,0,0,1-.61.19c-.08.11-.19.2-.26.29L40,119c-.24-.09-.53-.33-.41-.63l0-.15.17-.1a.57.57,0,0,1,.33-.2l.22.07a.52.52,0,0,1,.86-.07,1.27,1.27,0,0,1,0,.34l0,0Zm.8,1.18c-.21.17-.47.22-.64,0l-.05-.27a.4.4,0,0,1,.71-.12,1.62,1.62,0,0,1,0,.38Zm.18-3.68a.49.49,0,0,1-.1-.42v-.07a.49.49,0,0,1,.14-.23v0l.35-.18.36.25,0,.33h0v0a.82.82,0,0,1-.41.41l-.29,0Zm.87,4.39a.34.34,0,0,1-.24.2v0a.7.7,0,0,0-.29,0l0,0h-.06a.41.41,0,0,1,0-.65l0-.58.18.49A.39.39,0,0,1,43,120.31Zm.29-10.91h0a.41.41,0,0,1-.34,0l.09-.17-.1.17c-.11,0-.17-.2-.22-.29.06-.41.48-.39.72-.2v.43Zm.31-5.55,0-.24a1.75,1.75,0,0,1,.48-.29.45.45,0,0,1-.09.89.87.87,0,0,1-.39-.24Zm1,11.55h0s-.16.17-.19.2h0c-.41.25-.74,0-.72-.44a1.63,1.63,0,0,1,.07-.3.64.64,0,0,1,.71-.19.74.74,0,0,1,.23.33l.06,0ZM44.42,50l-.21,0-.3-.29a.64.64,0,0,1,.4-.52l.37.14h0C44.76,49.58,44.73,49.86,44.42,50Zm1.84,69a1.56,1.56,0,0,1-.36.32c-.13-.06-.31-.15-.34-.31s0-.3.14-.41l.25-.07A.37.37,0,0,1,46.26,119Zm.21-85.84h0c0,.07-.06.2-.09.27h0l-.08.15h0v0a.68.68,0,0,1-.53-.07l-.07-.15a.37.37,0,0,1-.17-.35.4.4,0,0,1-.06-.28c0-.19.18-.25.29-.38h0l.32,0a1.21,1.21,0,0,1,.43.65l.05.05-.05.07Zm.82,87.13h0l0,0-.17.1a.5.5,0,0,1-.43-.18l0-.28.18-.25.3,0C47.28,119.82,47.45,120,47.29,120.27ZM94.78,119l-.33,0a1.2,1.2,0,0,1-.43-.66l0-.05,0-.06v0h0c0-.08.06-.2.09-.28h0l.08-.15h0a.74.74,0,0,1,.53.06l.06.16a.35.35,0,0,1,.17.34.4.4,0,0,1,.06.28C95,118.82,94.88,118.88,94.78,119Zm1-17h0a.44.44,0,0,1,.26-.61l.22-.06.29.29a.67.67,0,0,1-.4.53Zm1.3,2.23a.39.39,0,0,1,0,.35l-.19.14a.62.62,0,0,1-.49-.21.56.56,0,0,1,0-.34l0-.17.31-.31.11,0,.06,0,.31.21A.8.8,0,0,1,97.11,104.25Zm-.65-13.81-.06-.15a.7.7,0,0,1-.13-.18h0L96.2,90a.61.61,0,0,1,.57-.52l0,0a2.34,2.34,0,0,1,.5.19l0,.11a.46.46,0,0,1,0,.51C97.58,90.88,96.43,91.2,96.46,90.44Zm2,25.06a.53.53,0,0,1-.76.55l0-.06-.12-.06v-.1a1.43,1.43,0,0,0-.27-.28l.14-.14c0-.24.26-.28.42-.39l0,0a.37.37,0,0,1,.25,0l.22-.39-.1.46c.14.11.12.22.17.3v.11Zm0-5.64a.75.75,0,0,1-.37.14,1.3,1.3,0,0,1-.31-.21c0-.2.06-.34.08-.51.24-.29.51-.17.75,0a2.41,2.41,0,0,0,.28.76Zm.34-40.11h0c-.09,0-.28-.18-.27-.28h0a1,1,0,0,1-.07-.31,2.54,2.54,0,0,1,.2-.24l.35-.2,0,.05a.5.5,0,0,1,.4.34h0l0,.34A.57.57,0,0,1,98.77,69.75Zm1.06,25a1,1,0,0,1,.19.47.93.93,0,0,1-.25.31,1.55,1.55,0,0,1-.67-.08C98.86,94.85,99.28,94.39,99.83,94.71ZM99.69,101h0c-.1-.07-.26-.24-.26-.34l0,0a1.14,1.14,0,0,1-.08-.33l.2-.28a.49.49,0,0,1,.39,0h0a2.72,2.72,0,0,1,.29.38l0,0,.09.16-.15.07s-.07.08-.07.14A1.48,1.48,0,0,1,99.69,101Zm1.08,19.57h0s-.15.06-.19,0v-.2l0,.2c-.09,0-.33-.17-.41-.26-.09-.28-.07-.65.26-.69l-.11,0-.12-.16c-.13-.69,1-.5.6.13a.61.61,0,0,1-.25.06.47.47,0,0,1,.15.06h.15c.16.18.13.41.18.62Zm1.59-3.55c-.14.33-.59.54-.84.28a.52.52,0,0,1,.07.4c-.08.08-.12.21-.21.3l-.25.08c-.48-.13-.39-.5-.36-.86l.37-.17.12,0a.66.66,0,0,1,.67-.73l.22.11a.92.92,0,0,1,.24.47l0,.07Zm-.19-6.82-.08,0,0-.24a1.18,1.18,0,0,1,0-.38l.36-.19.14.08.1,0,.07,0,0,.1s0,0,0,0l.06-.1a.77.77,0,0,1,.35.46l-.06.27a.6.6,0,0,1-.58.22A.43.43,0,0,1,102.17,110.16Zm.48,1.84h0c-.05-.23.18-.38.4-.38l.21.23a.5.5,0,0,1-.31.38l-.28-.13Zm.19,3.46,0-.1h0l.15-.26h.13l0,0,.15,0a.24.24,0,0,1,.14.1c.3.19.22.73-.19.69C103.17,115.73,102.94,115.65,102.84,115.46Z"></path><path class="cls-3" d="M59.5,64.23H43.7V48.44H59.5Z"></path><path class="cls-3" d="M59.5,87.18H43.7V71.38H59.5Z"></path><path class="cls-3" d="M59.5,110.13H43.7V94.33H59.5Z"></path><polygon class="cls-4" points="47.1 57.08 49.14 55.71 52.18 58.8 63.59 50.41 64.45 50.65 52.1 61.02 47.1 57.08"></polygon><path class="cls-5" d="M52.1,61.23l-5.29-4.16,2.35-1.57,3,3.08,11.36-8.35,1.24.34Z"></path><path class="cls-5" d="M52.1,83l-5.29-4.17,2.35-1.57,3,3.09L63.56,72l1.24.34Z"></path><path class="cls-5" d="M52.1,105.84l-5.29-4.17,2.35-1.57,3,3.09,11.36-8.36,1.24.34Z"></path><path class="cls-5" d="M91.38,21.16H79.87V19.51a9.09,9.09,0,0,0-9.09-9.09h-.19a9.09,9.09,0,0,0-9.09,9.09v1.65H50a1.08,1.08,0,0,0-1.08,1.07V33.85A1.08,1.08,0,0,0,50,34.93H91.38a1.08,1.08,0,0,0,1.08-1.08V22.23A1.08,1.08,0,0,0,91.38,21.16ZM70.69,20.08a3,3,0,1,1,3-3A3,3,0,0,1,70.69,20.08Z"></path><rect class="cls-6" x="48.91" y="31.22" width="43.54" height="1.82"></rect><path class="cls-5" d="M92.26,34.32H49.15a.24.24,0,0,1-.24-.24v-.56H92.46v.6A.2.2,0,0,1,92.26,34.32Z"></path><line class="cls-3" x1="68.17" y1="53.17" x2="95.53" y2="53.17"></line><line class="cls-3" x1="68.17" y1="59.36" x2="95.53" y2="59.36"></line><line class="cls-3" x1="68.17" y1="75.48" x2="95.53" y2="75.48"></line><line class="cls-3" x1="68.17" y1="81.67" x2="95.53" y2="81.67"></line><line class="cls-3" x1="68.17" y1="97.96" x2="95.53" y2="97.96"></line><line class="cls-3" x1="68.17" y1="104.15" x2="95.53" y2="104.15"></line></g></svg> 