<?xml version="1.0" encoding="UTF-8"?> <svg xmlns="http://www.w3.org/2000/svg" viewBox="0 0 140 140"><defs><style>.cls-1{fill:#352476;}.cls-2{fill:#675de8;}.cls-3{fill:#f93168;}.cls-4{fill:#c60e47;}</style></defs><g id="Layer_3" data-name="Layer 3"><path class="cls-1" d="M95.07,91l.11-.13-.12.12Z"></path><polygon class="cls-1" points="115.84 95.78 115.65 95.69 115.84 95.78 115.84 95.78"></polygon><path class="cls-1" d="M33.44,92.24h0Z"></path><path class="cls-1" d="M15.66,100.45h31a.44.44,0,0,1,.2-.53.57.57,0,0,1,.94.53h11a.67.67,0,0,1,1.19-.23h0a.61.61,0,0,1,.09.23H71.6c0-.08,0-.16,0-.23a.25.25,0,0,1,.43.23H98.85l-.14-.06c0-.42.6-.75,1-.69l0,.33a2.82,2.82,0,0,0-.62.42h3c-.22-.19-.26-.54,0-.65-.23-1,1.43-.51.79.16h0a.45.45,0,0,1-.21.12.33.33,0,0,1-.19.37h13.75a.75.75,0,0,1,.22-.43.7.7,0,0,1,1.2.43h5.13c.09-.14.26-.18.45,0h1.07V26.23H15.66Zm86.26-6.08a.41.41,0,0,1,0-.67l0,0C102.68,92.92,102.88,94.86,101.92,94.37ZM116,95.74c0,.12-.13.09-.17.18s0,0,0,0l-.09.2a.28.28,0,0,1-.12-.41.31.31,0,0,1,.42-.19l-.1.2S116,95.71,116,95.74ZM121.25,88l-.26.09c-.22-.17-.17-.4-.21-.62C121.11,87.14,121.38,87.71,121.25,88Zm1.83,11.8h0a.41.41,0,0,1,.48-.22v0a.49.49,0,0,1,.24,0C124.62,100.27,122.75,100.86,123.08,99.77Zm.45-6c.52.43-.08,1-.56.83C122.45,94.09,122.93,93.36,123.53,93.73ZM122.19,80l.23.17v.25l-.15.18a.59.59,0,0,1-.46-.1.18.18,0,0,0-.11-.05l-.08-.31C121.8,80,122,80.11,122.19,80ZM122,89.41l.14.21c0,.11-.1.19-.13.29l-.18.11h0C121.31,89.87,121.67,89.36,122,89.41Zm-1.11-7.88a.47.47,0,0,1,.26.14,1,1,0,0,0,.18.15l0,.27-.16.16H121c-.22-.17-.19-.31-.25-.48ZM117,91a.47.47,0,0,1,.59.73A.47.47,0,0,1,117,91Zm-.47,5.66c.12,0,.24,0,.36-.07l.23.1c.21.6-.51.6-.69.24Zm-1.12-10.15.16-.13c.45,0,.34.71-.1.6l-.12-.12h0A.43.43,0,0,1,115.37,86.52Zm-.18,4.76h.49l.17.27a.39.39,0,0,0,0,.26.63.63,0,0,1,0,.24c1-.17.26,1.06-.13.25l0,0-.25,0c-.23-.28-.17-.46-.36-.75Zm0,6.06a.73.73,0,0,1,.56,0c.69.5.07,1.62-.69,1.17a.76.76,0,0,1-.4,0v0C113.65,98.37,114.34,96.84,115.18,97.34Zm-3.45-16.8-.15-.18a.11.11,0,0,0,0,0l-.13-.17C111.72,79.54,112.76,80.5,111.73,80.54Zm-.39,8c.12,0,.16.19.23.28v.3c-.06,0-.08.05-.1.09l-.28.07c-.14-.14-.08-.29-.06-.41a.09.09,0,0,0,0,.05l-.13-.3A.26.26,0,0,1,111.34,88.52Zm-.53,8.17.26,0c.11.15,0,.29.08.47l-.16.18h-.2l-.14-.14C110.63,96.89,110.74,96.83,110.81,96.69Zm-.12,1.81c.77.19.39,1.43-.32,1.09C110,99.08,110.18,98.53,110.69,98.5Zm-1.54-7.78s.06-.21.08-.26h0l.24-.16.19,0C110.52,90.71,109.32,91.87,109.15,90.72Zm0-6.42.28-.07.31.31-.07.28c-.23.12-.36.45-.65.37l-.15-.19C108.94,84.68,109.09,84.61,109.17,84.3Zm-1.37,14c1.27-.7,1.76,1.3.32,1.38A.81.81,0,0,1,107.8,98.3Zm-1.38-3.67c.16-.4.81-.47.9,0C107.47,95.4,106.13,95.44,106.42,94.63Zm0,1.45.23,0c.42.23,0,.86-.39.55l-.07-.18C106.29,96.19,106.39,96.16,106.47,96.08Zm-3.15-.54c.35.38-.42.8-.63.36h0C102.62,95.49,103.09,95.58,103.32,95.54Zm-1-10a.27.27,0,0,1,.22,0,.29.29,0,0,1,.12.24l-.18.18s0,0,0,0l-.09.08c-.23,0-.21-.24-.22-.34Zm-.75,5.15c.24-.17.38-.11.63-.24l.22.14,0,.4-.23.12c-.22-.08-.51,0-.64-.22ZM61.4,99.55v.17c-.28,0-.39-.56,0-.55v.17a.11.11,0,0,1,.06,0S61.54,99.59,61.4,99.55Zm37.19-1.23c1,.28.62,2-.56,1.26C97.37,99.15,97.8,98,98.59,98.32Zm-.91-10h0l-.08.18c.13,0,.14.34,0,.25L97.5,89C97.2,88.83,97.31,88.19,97.68,88.35ZM96.59,77.83l.12.26,0,0a.33.33,0,0,1,.07.22l-.24.15a.22.22,0,0,0-.13,0l-.16-.14A.32.32,0,0,1,96.59,77.83Zm-.36,7.72c.28-.21.49.11.42.34l-.22.19C96.26,86,96,85.77,96.23,85.55Zm-1,5.35a.28.28,0,0,1,0,.42l-.13-.13s0,0,0,0-.1-.17-.15-.26h0l-.12-.13C94.89,90.73,95.06,90.78,95.18,90.9ZM95,98.17c.54-1.13,1.93.43.75.85a.77.77,0,0,1-.27.27v0l-.08.07C94.61,99.8,94.14,98.41,95,98.17Zm-1-3.3h0c.81.27-.11,1.24-.52.57C93.19,95.11,93.56,94.77,93.91,94.87Zm-1.83-1.55a.45.45,0,0,1,0-.9A.45.45,0,0,1,92.08,93.32Zm-.28-3.47h0c.14.2-.09.34-.22.45s-.22-.16-.32-.24C91.23,89.79,91.63,89.69,91.8,89.85Zm-.28,7c0,.19-.18.3-.38.29L91,97a.49.49,0,0,1,0-.31l.17-.13C91.35,96.58,91.43,96.71,91.52,96.8Zm-1-3.64c.24-.29.45.08.62.21a.25.25,0,0,1-.08.18h0C90.83,93.74,90.39,93.47,90.52,93.16ZM89.1,85a0,0,0,0,1,0,0v-.16c.14,0,.21.16.21.3h0c0,.15-.1.3-.26.29v-.17H89C89,85.12,89.08,85.08,89.1,85ZM87.65,95.63h0a.46.46,0,0,1,.08-.66C88.67,94.69,88.47,96.24,87.65,95.63ZM88,83.82l.21.15v.21l-.14.16a.51.51,0,0,1-.4-.08l-.09-.05L87.53,84C87.68,83.81,87.84,83.89,88,83.82Zm-2.65,7.92c.2.58-.76.84-.83.23C84.49,91.63,85.16,91.33,85.37,91.74ZM84,95.7a.43.43,0,1,1-.85,0A.45.45,0,0,1,84,95.7Zm-.75,1.86h0c.32.12.06.54-.21.5S83,97.52,83.28,97.56Zm.49,1.2c.76.52-.25,1.53-.9,1S83.09,98.43,83.77,98.76Zm-1.73-5h.42l.15.23c-.06.24.09.54-.16.7l-.22,0c-.2-.24-.16-.4-.32-.65Zm-.35-8.64c.16.29-.21.64-.4.29S81.5,84.76,81.69,85.11Zm-1.59,6.4-.18.14c-.16,0-.19-.13-.26-.21l-.1-.21C79.73,90.88,80.12,91.26,80.1,91.51Zm-1.8,7.65v.19s0,0,.06,0-.07.11-.07.19h0v.19a.25.25,0,0,1-.22-.29C78,99.29,78.14,99.14,78.3,99.16Zm-.51-7.65.17.36-.2-.05C77.7,91.73,77.77,91.6,77.79,91.51Zm.21,1.2h0a.4.4,0,0,1-.8,0A.4.4,0,0,1,78,92.71Zm-2.41,5.75a.36.36,0,0,1-.41.58h0A.36.36,0,0,1,75.59,98.46ZM73.07,86.27l-.17.15a.23.23,0,0,1-.11,0l-.14-.18Zm-.37,9.16s0,.07,0,.11l-.2.14c-.16-.06-.16-.2-.18-.31s0,0,0,0l-.2-.2h0c.16-.29.34-.12.5,0Zm-.39-2a.35.35,0,0,1,0,.4h0a.42.42,0,0,1-.8-.06A.46.46,0,0,1,72.31,93.4Zm-1-1h0c.3.32-.11.84-.54.67C70.2,92.81,71,91.72,71.36,92.44ZM69.73,82.3l.2.07c0,.08,0,.16.06.25l-.06.16a.25.25,0,0,1-.31,0A.33.33,0,0,1,69.73,82.3Zm-.21,17c0,.49-.63.67-1,.49C67.42,98.88,69.28,97.88,69.52,99.33Zm-2-7.45c-.24-.15,0-.55.24-.45S67.74,92,67.5,91.88Zm-.42-4.71c.62-.67.67.64,0,.18h0l0,0Zm-1,11.14c-.41-.27,0-.83.44-.52C66.89,98.08,66.46,98.55,66.12,98.31Zm-.5-3.49c.91-.21.95,1.41,0,1.26A.65.65,0,0,1,65.62,94.82ZM64,83.68c.29-.22.58.28.25.44l-.15,0s0,0,0,0a.42.42,0,0,1-.09-.21Zm-1.55,9.48-.14-.11c-.17-.4.34-.73.44-.24A.32.32,0,0,1,62.46,93.16Zm-.35-3.87.12-.11c.77-.16.59,1.2-.1.55-.05,0-.08-.17-.09-.21Zm-.76,9.65-.16-.2,0-.17a.48.48,0,0,1,.39-.3C62.25,98.23,62,99.23,61.35,98.94Zm-.18-11.28v-.19l.25.27h-.2a.28.28,0,0,1,0-.09Zm.07,6.77c.15.41-.49.6-.6.23S61.13,94,61.24,94.43Zm-1.45-6.8.16.05h0l.1,0,.11.16c-.09.48-.56.19-.54-.12Zm-.15,7.91c-.13.4-.79.2-.64-.2h0C59,94.74,59.84,95.08,59.64,95.54ZM34.88,97.47a.3.3,0,0,1-.16.29l0,0-.09.07h-.22c-.54-.28.17-1.19.5-.66A.32.32,0,0,1,34.88,97.47Zm3-1.72c0-.24.29-.18.4-.06l0,.22C38.19,96,37.86,96,37.89,95.75Zm7.85,3.32,0-.1s0,0,0,0-.11-.11,0-.11l0-.1C45.8,98.74,45.94,99,45.74,99.07Zm4.8-11.7c0-.26.33-.4.36-.1S50.57,87.67,50.54,87.37Zm6,6.4c-.1-.06-.12-.17-.17-.26s.37-.16.45,0S56.66,93.73,56.54,93.77Zm2-11.91-.18,0s0,0,0,0l-.16,0C58.06,81.22,59.22,81.31,58.57,81.86Zm-1,11.52a.28.28,0,0,1,.3.32l-.1.12a.37.37,0,0,1-.31,0l-.13-.13A.26.26,0,0,1,57.61,93.38ZM56.9,91h0c0,.38-.54.5-.73.16C55.92,90.56,57,90.25,56.9,91Zm-1.47-1,0,.21h0v.09c-.14.09-.26,0-.3-.08h0s0,0,0,0l0-.18A.23.23,0,0,1,55.43,89.94Zm-.15,9.78a.49.49,0,0,1-.73.6C54.08,99.77,54.74,99,55.28,99.72Zm-.92-1.53.15,0c.1.06.11.18.16.26a.26.26,0,0,1-.36.11l-.07-.11A.35.35,0,0,1,54.36,98.19Zm-2.31,1.93a.36.36,0,0,1,.41-.58A.36.36,0,0,1,52.05,100.12Zm.42-2.75-.15.14s0,0,0,0l-.14.12C51.59,97.44,52.37,96.46,52.47,97.37Zm-.89-16h.19a1.13,1.13,0,0,1,.12.21v.16C51.56,82,51.4,81.59,51.58,81.39ZM51,93c.06-.26.63-.29.66.07S50.89,93.45,51,93Zm.54,1.74c-.38,0-.77-.39-.61-.79C51.48,92.78,52.73,94.45,51.56,94.73Zm-1-8.16,0-.15C50.92,85.64,51.24,86.89,50.54,86.57Zm-2.11,11c.5.32,0,1-.48.83C47.2,98.12,47.72,97.17,48.43,97.52Zm-1-9.65.2.1,0,0a.29.29,0,0,1,.15.11l-.07.22c-.05,0-.07,0-.1,0h-.18l0,0A.26.26,0,0,1,47.46,87.87Zm-.27-3.42-.13,0a.09.09,0,0,1-.06,0c-.09,0-.1-.1-.14-.16v-.15C47.06,83.85,47.45,84.23,47.19,84.45Zm-.47,5c.64-.35.84.91.05.51h0s-.11-.13-.13-.16v-.22Zm-.66,1.91c.24.31-.25.64-.44.36S45.86,91.1,46.06,91.4Zm-.15,4.1a.33.33,0,0,1-.21.61.29.29,0,0,1-.24-.3h0C45.32,95.53,45.68,95.33,45.91,95.5Zm-.91.6h.21l.12.13h0v.17c-.15.17-.26.13-.39.17l-.19-.13C44.78,96.27,44.92,96.23,45,96.1Zm-.6-10.42-.16.06a.23.23,0,0,1-.07-.06h0l-.05-.16Zm-2,12.48c-.38.23-.72-.19-.65-.55C41.94,97,43,97.64,42.37,98.16Zm-.44-3.69c.13.16,0,.47-.19.54l-.11-.12a1.85,1.85,0,0,0,.15-.39Zm-.39-10.53h-.29a.18.18,0,0,1-.07-.19h0C41.31,83.37,41.86,83.46,41.54,83.94Zm-.1,5.68h0c.15.39-.51.62-.65.21S41.39,89.08,41.44,89.62ZM40.87,92l0,.2s0,0,0,0v.08c-.09.12-.23,0-.28,0l0,0-.06-.15A.21.21,0,0,1,40.87,92Zm.39,7.94c.14.5-.61.73-.82.27A.43.43,0,1,1,41.26,99.89Zm-1.34-1.73.07,0a.27.27,0,0,1,0,.2l-.08.08A.17.17,0,1,1,39.92,98.16Zm-1.64-5.54-.08-.05a.27.27,0,0,1,0-.2l.1-.08c.09,0,.14.09.2.14S38.4,92.62,38.28,92.62Zm.14-4.38h0c0,.09-.1.15-.16.2s-.14-.08-.2-.13C38,88.11,38.38,88,38.42,88.24Zm-1,5.11c.93-.46,1.11,1.33,0,.88A.53.53,0,0,1,37.43,93.35Zm.28,5c0,.44-.57.23-.51-.09S37.72,98.18,37.71,98.37Zm-1.17-2.64h0c.17-.18.37.06.34.28a.27.27,0,0,1-.53-.06A.24.24,0,0,1,36.54,95.73Zm-1.68-8.1-.07-.11C34.93,86.74,35.54,87.71,34.86,87.63Zm-.35-4.71c.06,0,.1.1.16.14l0,.14c-.14.21-.27.14-.35,0a.31.31,0,0,1,0-.25Zm-.14,6.56c.39.14,0,.67-.28.43S34.08,89.45,34.37,89.48Zm-.41,5c-.46.65-1.25-.35-.35-.54A.35.35,0,0,1,34,94.47Zm-.73-2.27.17,0a.35.35,0,0,1,.16.06v.22s0,0-.07.06l-.17,0A.25.25,0,0,1,33.23,92.2Zm.37,4.49h0c.09.33-.45.5-.54.15h0C32.76,96.45,33.52,96.28,33.6,96.69Zm-1.19-5.55c.23-.25.7,0,.57.29,0,.14-.39.23-.54,0l-.06-.18ZM32,85.68c.11.17-.11.4-.24.2S31.85,85.47,32,85.68Zm-.54,1.06-.11.06a.29.29,0,0,1-.19-.09l0,0-.06-.13C31.17,86.27,31.6,86.48,31.45,86.74ZM30.67,97c.13,0,.23.22.07.24v-.07s-.12-.09-.05-.09ZM30,90.49a.24.24,0,0,1-.48,0A.24.24,0,0,1,30,90.49ZM29.49,96c.31.28-.12.78-.41.51h0C28.66,96.3,29.07,95.71,29.49,96Zm-1.61-1h0a.18.18,0,0,1,.24-.17l.08.16h0l0,.06c-.07.15-.2.09-.27.08L27.88,95Zm-.19-1.44.12,0c.1.14,0,.38-.16.44l-.08-.1A1.17,1.17,0,0,0,27.69,93.54Zm-.93-6.79-.1.1-.07,0-.09-.1Zm-.35.74c.05,0,.2.11.11.35l-.15.06s0,0,0,0l-.13,0C26,87.83,26.24,87.44,26.41,87.49Zm-.21,9a.18.18,0,0,1,0,.15l-.06.06a.13.13,0,1,1,0-.26ZM26,90.6h0c.25.23-.15.62-.4.37h0C25.34,90.73,25.74,90.23,26,90.6ZM25,88.65a.12.12,0,0,1-.08,0h0l-.08-.07C24.9,88.24,25.36,88.48,25,88.65Zm.1,3.17c0,.1-.08.16-.18.15l-.07,0a.27.27,0,0,1,0-.16l.08-.06C25.05,91.72,25.09,91.78,25.14,91.82Zm0,3.08a.44.44,0,0,1-.72.28C23.93,94.57,25,94.13,25.13,94.9Zm-1,1.38c.25.08.3.31.13.43S23.85,96.33,24.15,96.28Zm-.64-1.87h0c.46-.24.23.77-.13.27C23.34,94.57,23.34,94.47,23.51,94.41Zm-1.59-5c.31.12,0,.54-.23.34h0C21.56,89.58,21.69,89.36,21.92,89.39Zm.25,6.11h0a.27.27,0,0,1,0,.25A.23.23,0,0,1,22,96h0l-.08.05h-.17C21.33,95.77,21.92,95.07,22.17,95.5Zm-.77-2.57c.38.24-.09.75-.42.52S21.06,92.79,21.4,92.93Zm-.87-1.88h0c.23,0,.24.36,0,.37l-.09-.06c0-.13,0-.26.08-.31Zm-.28,4h0s-.12,0-.15,0l-.1-.11,0-.11C20.14,94.29,20.85,94.85,20.25,95Zm-.14-8.7c.09.14-.09.32-.19.15S20,86.16,20.11,86.32Zm-1.43,1.82.16,0,.07.09c0,.19-.14.19-.25.12h0a.23.23,0,0,1-.08-.17ZM18.36,90a.19.19,0,0,1-.17.33C18,90.16,18.17,89.83,18.36,90Zm-.78,1.81a.17.17,0,0,1,.2.18l-.06.08a.25.25,0,0,1-.19,0l-.09-.07A.16.16,0,0,1,17.58,91.76Zm.1,2.64a.27.27,0,0,1,.19.49C17.55,95.07,17.17,94.52,17.68,94.4Zm-1.74-7.33-.08.07a.08.08,0,0,1-.06,0h0L15.73,87Z"></path><rect class="cls-2" x="16.45" y="48.8" width="107.33" height="21.47"></rect><rect class="cls-2" x="48.44" y="34.71" width="43.02" height="1.34"></rect><rect class="cls-2" x="59.18" y="40.08" width="21.56" height="1.34"></rect><rect class="cls-2" x="27.02" y="89.72" width="16.09" height="1.34"></rect><rect class="cls-2" x="27.02" y="93.74" width="9.94" height="1.34"></rect><rect class="cls-2" x="61.91" y="89.72" width="16.09" height="1.34"></rect><rect class="cls-2" x="61.91" y="93.74" width="9.94" height="1.34"></rect><rect class="cls-2" x="96.84" y="89.72" width="16.09" height="1.34"></rect><rect class="cls-2" x="96.84" y="93.74" width="9.94" height="1.34"></rect><rect class="cls-2" x="27.07" y="78.31" width="16.1" height="8.55"></rect><rect class="cls-3" x="61.95" y="79.42" width="16.1" height="7.45"></rect><rect class="cls-4" x="96.83" y="79.42" width="16.1" height="8.55"></rect><path class="cls-3" d="M20.25,99.51l.09.15V100c-.05,0-.08.06-.09.09v12.13h5.13a.86.86,0,0,1-.11-1.3c.74-.7,1.72.43.94,1.28l-.05,0h3.75a.67.67,0,0,1,0-.2.49.49,0,0,1,1,.1.3.3,0,0,1,0,.1h23V96.64H20.25ZM32,111.93l-.22,0c-.47-.33-.11-1,.33-.56h0A.4.4,0,0,1,32,111.93ZM53.37,98.21h0l.06.07,0,.3c-.05,0-.07.06-.08.11l-.28.1c-.16-.13-.12-.29-.12-.41l0,.05-.16-.29C53.09,97.89,53.25,98.05,53.37,98.21Zm-4,8a.33.33,0,0,1,.19.43.34.34,0,0,1-.52.17l-.09-.17a.53.53,0,0,1,.2-.35ZM49,100.83a.5.5,0,0,1-.62.78A.5.5,0,0,1,49,100.83Zm-2.3,1.57,0,0a.4.4,0,0,1,.6-.08h0c.61.51-.39,1.47-.76.66A.44.44,0,0,1,46.67,102.4Zm-3.89,5.23a1.07,1.07,0,0,1,.64.61.46.46,0,1,1-.25.88C41.79,110,41.11,107.18,42.78,107.63ZM40.62,105c.11-.06.28-.08.35,0,.1-.1.33,0,.45,0h0l.07,0h0c1.15.58-.61,1.89-.79.48A.37.37,0,0,1,40.62,105ZM39.37,99.7s.08.32-.06.24l-.06.19c-.32-.09-.29-.75.1-.64l-.06.2S39.33,99.67,39.37,99.7Zm-.13-2.64-.08.28h0c-.14.07-.32,0-.43-.08ZM38.61,105l.23,0a.29.29,0,0,1,0,.46l-.27,0s0,0,0,0h-.11C38.37,105.18,38.55,105.05,38.61,105Zm0,2.42c.63-1.27,2.19.51.84,1a.76.76,0,0,1-.32.3v0l-.09.07C38.22,109.25,37.7,107.66,38.65,107.39Zm-1.59-1.56c.92.6-.38,1.49-.62.56A.49.49,0,0,1,37.06,105.83Zm-1.31-4.93c.55.38-.11,1.17-.55.79S35.29,100.52,35.75,100.9Zm-1-.19h0l-.11.1-.31,0C34,100.1,35.18,100.1,34.74,100.71Zm-2.88,9.92h0a.4.4,0,0,1,.47-.23v0a.5.5,0,0,1,.24,0C33.39,111.12,31.52,111.72,31.86,110.63Zm.44-6c.52.43-.08,1-.56.83C31.22,105,31.7,104.21,32.3,104.58Zm-1.51-4.31.14.21c0,.1-.1.18-.13.28l-.18.11h0C30.08,100.73,30.44,100.22,30.79,100.27ZM30,98.83h0l-.25.08c-.23-.17-.18-.39-.22-.62C29.88,98,30.15,98.57,30,98.83Zm-5.18,7.52-.09.21s0,0,.06,0-.13.09-.17.18h0l-.09.2a.28.28,0,0,1-.12-.41.33.33,0,0,1,.42-.2Zm.89-4.49a.47.47,0,0,1,.59.73C25.76,102.88,25.36,102.31,25.73,101.86Zm-.46,5.66c.12,0,.23,0,.35-.06l.23.1c.22.6-.51.6-.69.23ZM24.14,97.37l.16-.13a.31.31,0,1,1-.09.61l-.13-.12h0A.48.48,0,0,1,24.14,97.37ZM24,102.14h.48l.17.26a.49.49,0,0,0,0,.27.88.88,0,0,1,0,.23c1-.17.25,1.06-.13.25l0,0-.25,0c-.22-.28-.17-.45-.35-.74Zm0,6a.77.77,0,0,1,.56,0c.69.5.08,1.61-.69,1.16a.89.89,0,0,1-.4,0v0C22.42,109.22,23.11,107.69,24,108.19Z"></path><polygon class="cls-3" points="24.61 106.64 24.42 106.55 24.61 106.64 24.61 106.64"></polygon><path class="cls-2" d="M104.66,115.74l-3.53-3.53,5-5-8.24-3.56c-.18.14-.32.39-.58.31l-.14-.18a1.11,1.11,0,0,1,.13-.39L81.66,96.64,90.91,118c.3.07.56.35.29.68l1,2.4,3.58-3.58a.77.77,0,0,1,.24-.43.9.9,0,0,1,.32-.12l.85-.86,1.34,1.34a.59.59,0,0,1,.39-.17.58.58,0,0,1,.32.88l3.19,3.2.85-.85a.41.41,0,0,1,.29-.29l.82-.81.08-.09a.72.72,0,0,1,.24-.52.69.69,0,0,1,.48-.2l1.15-1.15-1.57-1.57A.4.4,0,0,1,104.66,115.74Zm-14.92-6,0-.21c.24-.16.38-.11.63-.24l.22.14,0,.4-.23.12C90.16,109.85,89.87,110,89.74,109.72Zm.45,3.44a.42.42,0,0,1,0-.68l0,0C90.94,111.71,91.14,113.64,90.19,113.16Zm.5-8.34h0l-.09.07c-.23,0-.2-.24-.22-.34l.12-.18a.21.21,0,0,1,.22,0,.31.31,0,0,1,.13.24Zm.26,9.86h0c-.07-.41.4-.32.63-.36C91.93,114.7,91.16,115.12,91,114.68Zm3.62.68-.07-.18a.52.52,0,0,1,.24-.32l.22,0A.34.34,0,1,1,94.57,115.36Zm.11-2c.16-.4.81-.47.91,0C95.73,114.18,94.39,114.22,94.68,113.41Zm2.73-3.9c0-.06.06-.21.08-.27h0l.24-.16h.19C98.78,109.5,97.58,110.66,97.41,109.51Zm1.84,6.57-.2,0-.14-.13c0-.25.09-.31.16-.46l.27,0c.11.15,0,.3.07.47Zm.58-8.2c-.06,0-.08.05-.1.1l-.28.06c-.14-.14-.08-.29-.06-.41a.09.09,0,0,0,0,.05l-.13-.3a.28.28,0,0,1,.31-.08.65.65,0,0,1,.23.29Zm3.48,9.42a.77.77,0,0,1-.4,0v0c-1-.1-.32-1.63.52-1.13a.68.68,0,0,1,.56,0h0C104.69,116.64,104.08,117.75,103.31,117.3Z"></path><path class="cls-4" d="M70,111l.11-.14L70,111Z"></path><path class="cls-4" d="M72.56,108.48c.12,0,.14.35,0,.25l-.09.18a.37.37,0,0,1-.06-.58H44.45v10.85l0,.1a.15.15,0,0,1,0,.07v4.51h5.22a.46.46,0,0,1-.07-.31c.18-.71,1-.2.84.31h4a.33.33,0,0,1,.19-.26.43.43,0,0,1,.52.26h3.94c-1.16-.33.28-2.14.91-.92a.72.72,0,0,1-.33.8.48.48,0,0,1,.26.12H74.32s0,0-.06,0a.51.51,0,0,1,.63-.71.49.49,0,0,1,.09.76h4.47V108.33H72.63ZM45.78,123l-.11-.12a.5.5,0,0,1,.09-.33l.16-.1A.29.29,0,1,1,45.78,123Zm0-10c-.63-.3.13-1.39.53-.67h0C46.63,112.72,46.21,113.24,45.79,113.07Zm1.47.29a.35.35,0,0,1,0,.4h0a.42.42,0,0,1-.8-.06A.45.45,0,0,1,47.26,113.36Zm-.67,7.15c-.08-.1-.06-.23-.08-.34C46.9,119.8,47.26,120.64,46.59,120.51Zm1-5-.21.14c-.16-.07-.15-.21-.17-.31a0,0,0,0,0,0,0l-.2-.2h0c.15-.29.34-.12.5,0l.09.24S47.61,115.46,47.61,115.5Zm5.14-4,.17.36-.21,0C52.65,111.68,52.73,111.55,52.75,111.47ZM50.14,119h0a.36.36,0,0,1,.41-.58A.36.36,0,0,1,50.14,119Zm1.19,3.44c-.66.34-1.41-.82-.35-1h0A.57.57,0,0,1,51.33,122.43ZM53,112.67a.4.4,0,0,1-.79,0,.4.4,0,0,1,.79,0Zm.28,6.84h0a0,0,0,0,1,0,0v.19a.24.24,0,0,1-.22-.29c0-.15.11-.31.27-.29v.2s0,0,.06,0S53.24,119.42,53.23,119.51Zm1.65-7.9c-.16,0-.2-.14-.26-.21l-.1-.21c.17-.35.56,0,.54.28Zm4.11,4a.43.43,0,1,1-.85,0A.45.45,0,0,1,59,115.65Zm-.75,1.87h0c.31.12,0,.54-.21.49S58,117.47,58.24,117.52Zm-.83-2.9-.23,0c-.19-.24-.15-.39-.31-.64l.12-.25.43,0,.15.24C57.5,114.16,57.66,114.47,57.41,114.62Zm.42,5.12c-.57-.52.21-1.35.9-1C59.49,119.24,58.47,120.24,57.83,119.74Zm13.74.74.25,0a.41.41,0,0,1,0,.38h0a.82.82,0,0,1-.4.5l-.17-.22A2.2,2.2,0,0,0,71.57,120.48Zm-1.43-9.63a.3.3,0,0,1,0,.43l-.13-.13s0,0,0,0-.1-.17-.15-.26,0,0,0,0l-.13-.13C69.85,110.68,70,110.74,70.14,110.85Zm-7.45,4.08c.94-.29.73,1.26-.08.65h0A.43.43,0,0,1,62.69,114.93Zm-3.19-3c-.06-.33.62-.64.83-.22C60.52,112.28,59.56,112.54,59.5,111.92Zm4.86,11.18c-.38.43-1.29.26-1.19-.39a.37.37,0,0,1-.18,0c-.77.49-.93-1.15-.08-.82h0c.23-.22.52,0,.53.34A.63.63,0,0,1,64.36,123.1Zm1.12-10c.23-.3.45.07.62.2a.23.23,0,0,1-.08.18h0C65.78,113.7,65.35,113.43,65.48,113.12Zm.62,3.93L66,117a.41.41,0,0,1,0-.32l.16-.12c.15,0,.23.16.32.25S66.3,117.06,66.1,117.05Zm.12-7c0-.28.36-.38.54-.21h0c.13.2-.09.34-.22.44S66.31,110.1,66.22,110Zm.81,3.26a.45.45,0,0,1,0-.9A.45.45,0,0,1,67,113.28Zm1.46,10.2c-.23.14-.42,0-.63,0-.15-.4.45-.44.64-.24h0Zm-.14-8.08c-.2-.34.17-.67.51-.57h0C69.68,115.09,68.76,116.06,68.35,115.4Zm2,3.84h0l-.07.07c-.74.46-1.22-.93-.39-1.17.53-1.13,1.93.43.75.85A.63.63,0,0,1,70.39,119.24Zm.79,3.69a.72.72,0,0,1-.22-.28h0c-.38-.49.26-1,.82-.72a.75.75,0,0,1,.25.38C73.06,122.9,71.47,124.07,71.18,122.93Zm6.69-3a.53.53,0,0,1-.2.12c.07.27-.25.45-.46.47s-.49-.61-.12-.75c-.23-1,1.43-.52.78.16Zm.41-4.42c.34.37-.43.8-.63.35h0C77.58,115.44,78.05,115.54,78.28,115.5Zm-1.4-1.17a.42.42,0,0,1,0-.68v0C77.64,112.88,77.84,114.81,76.88,114.33Zm-.4-3.65c.24-.16.38-.1.63-.24l.22.15,0,.4-.23.12c-.22-.09-.52,0-.64-.22Zm-1.86,9,0,.34a3,3,0,0,0-.7.48l-.29-.12C73.64,119.93,74.27,119.59,74.62,119.65Zm-1.07-1.37c1,.28.62,2-.57,1.26C72.33,119.11,72.76,118,73.55,118.28Z"></path><polygon class="cls-3" points="86.43 22.45 86.62 22.54 86.43 22.45 86.43 22.45"></polygon><path class="cls-3" d="M40.77,26.24l-.12.13.13-.12A0,0,0,0,1,40.77,26.24Z"></path><polygon class="cls-3" points="20.25 20.52 20.43 20.61 20.25 20.52 20.25 20.52"></polygon><path class="cls-3" d="M122.9,16.3a.41.41,0,0,1-.44-.16h-3.63c.25.6-.86,1.59-1.33.56h0a.63.63,0,0,1,.14-.56h-3.81a.54.54,0,0,1,.52.65.28.28,0,0,1,.18,0c.79-.46.88,1.19,0,.82h0c-.25.21-.52,0-.52-.36a.62.62,0,0,1-.84-.89.67.67,0,0,1,.42-.2h-4.08a.61.61,0,0,1-.27,0h-2.92s0,0,0,.05a.72.72,0,0,1,.21.29h0c.36.5-.31,1-.85.68a.71.71,0,0,1-.23-.4.52.52,0,0,1-.28-.63H87.51c.12.4-.19,1-.86.52a.42.42,0,0,1-.09-.52H79.45l0,.07a1.86,1.86,0,0,0-.31.26.51.51,0,0,1,.4.39c.31.27.18.7-.08.71a.33.33,0,0,1-.07.16.58.58,0,0,1,0,.38h0a.41.41,0,0,1-.48.2v0a.49.49,0,0,1-.24,0c-.25-.24-.22-.46-.09-.61a.45.45,0,0,1,0-.59.64.64,0,0,1,.06-.31h0c0-.1.14-.29.24-.31a.4.4,0,0,1,.19-.36h-9.7a.7.7,0,0,1-.21.47c-.3.23-.72-.11-.76-.47h-7.6c.06.25-.05.53-.52.6h0a.57.57,0,0,1-.57-.6H40a2.19,2.19,0,0,0-.28.55l-.25,0a.39.39,0,0,1,0-.38h0a.72.72,0,0,1,.11-.19H19.89a1.09,1.09,0,0,1-.1.11.67.67,0,0,1-1-.11H16.29v11H61.82a.5.5,0,0,1,.66-.75.49.49,0,0,1,0,.75h5.62c-.15-.17.07-.5.29-.4a.25.25,0,0,1,0,.4h6.58a.46.46,0,0,1,.73-.21.59.59,0,0,1,.16.21h8.74a.44.44,0,0,1-.07-.57.27.27,0,0,1-.24-.26c0-.45.77-.35.65.09a.45.45,0,0,1,.27.74h38.49V16.14h-.55A.33.33,0,0,1,122.9,16.3ZM33.35,17a.61.61,0,0,1,.21-.11c-.06-.27.27-.44.49-.45s.46.64.08.76c.18,1.05-1.46.45-.78-.2ZM20,20.79l.11-.2s0,0-.06,0,.13-.08.17-.17a0,0,0,0,1,0,0l.11-.19a.29.29,0,0,1,.09.41.32.32,0,0,1-.43.18Zm-1.1,4.44a.47.47,0,0,1-.55-.76A.47.47,0,0,1,18.9,25.23Zm.15-5.69h0c-.18-.61.54-.58.7-.2l-.12.26c-.12,0-.23,0-.35,0ZM20.68,25h-.49L20,24.75a.45.45,0,0,0,0-.26.58.58,0,0,1,0-.23c-1,.12-.21-1.07.14-.24a.1.1,0,0,1,0-.05l.26,0c.2.29.14.46.31.76Zm.3-6a.78.78,0,0,1-.56-.05h0c-.66-.53,0-1.62.75-1.13a.72.72,0,0,1,.39.05v0C22.56,18,21.79,19.53,21,19Zm4.33.85-.26,0c-.11-.15,0-.29-.06-.47l.17-.17.2,0,.14.14C25.5,19.65,25.39,19.71,25.31,19.85ZM25.89,17c.4.53.14,1.07-.38,1.07C24.76,17.82,25.2,16.59,25.89,17Zm.71,9.17h0l-.25.16h-.19c-.84-.47.41-1.57.53-.42C26.71,25.94,26.62,26.09,26.6,26.14Zm1.8-7.76C27.1,19,26.7,17,28.14,17A.82.82,0,0,1,28.4,18.38Zm1.2,3.73c-.18.4-.83.43-.9-.05C28.59,21.3,29.93,21.32,29.6,22.11Zm0-1.45-.22,0c-.41-.25,0-.86.42-.53l.05.19C29.8,20.55,29.7,20.58,29.61,20.66Zm3.13.69c-.33-.39.46-.78.65-.33h0C33.43,21.43,33,21.32,32.74,21.35Zm1.34,1.23a.42.42,0,0,1,0,.68l0,0C33.26,24,33.15,22.05,34.08,22.58Zm.23,3.66c-.25.15-.39.09-.64.21l-.22-.15,0-.4.23-.11c.21.09.52,0,.63.25Zm2.28-8.87,0-.34a2.77,2.77,0,0,0,.73-.45l.28.14C37.58,17.14,36.94,17.45,36.59,17.37Zm1,1.42c-1-.32-.53-2,.62-1.23C38.85,18,38.37,19.15,37.6,18.79Zm3,7.58a.3.3,0,0,1,0-.43l.13.14s0,0,0,0,.1.18.15.27,0,0,0,0l.12.13C40.93,26.56,40.76,26.49,40.65,26.37Zm.56-7.25c-.58,1.1-1.9-.53-.71-.89a.75.75,0,0,1,.29-.25h0l.08-.06C41.64,17.51,42.05,18.91,41.21,19.12Zm.9,3.34h0c-.8-.3.17-1.23.54-.54C42.83,22.26,42.45,22.57,42.11,22.46ZM43.78,25a.45.45,0,0,1,.09-.89A.45.45,0,0,1,43.78,25Zm.8-4.34a.32.32,0,0,1,.4-.27l.12.1a.41.41,0,0,1,0,.31l-.17.12C44.74,20.88,44.67,20.74,44.58,20.65Zm.83,3.68c-.25.28-.45-.1-.61-.23a.28.28,0,0,1,.09-.18h0C45.13,23.74,45.55,24,45.41,24.33Zm2.88-1.68c-1,.24-.68-1.29.11-.65h0A.46.46,0,0,1,48.29,22.65ZM50.49,26c-.17-.58.8-.8.84-.18C51.37,26.15,50.68,26.42,50.49,26ZM52,22.11a.44.44,0,1,1,.86,0A.46.46,0,0,1,52,22.11Zm.84-1.83h0c-.31-.14,0-.55.24-.49S53.11,20.33,52.85,20.28Zm-.43-1.22c-.74-.56.32-1.52.95-1S53.09,19.41,52.42,19.06Zm1.49,5.08h-.42l-.14-.24c.08-.23-.06-.54.2-.68l.22,0c.18.25.13.4.29.66Zm1.83,2.33.19-.13c.16,0,.19.14.25.22l.09.22C56.08,27.12,55.71,26.72,55.74,26.47Zm2.12-7.76c0-.1.07-.1.09-.19h0a0,0,0,0,0,0,0l0-.18c.16,0,.22.16.21.3a.28.28,0,0,1-.29.27l0-.19A.07.07,0,0,1,57.86,18.71Zm.19,7.87-.15-.37.2.06C58.15,26.37,58.07,26.5,58.05,26.58Zm-.15-1.21h0a.4.4,0,0,1,.79,0A.4.4,0,0,1,57.9,25.37Zm2.67-5.62a.36.36,0,0,1,.44-.57h0A.36.36,0,0,1,60.57,19.75Zm1.32,1.93-.22.07a.34.34,0,0,1-.18-.44h0a.35.35,0,0,1,.53-.14l.08.17C62.07,21.55,62,21.59,61.89,21.68Zm12.93-1.74.16.2v.18a.53.53,0,0,1-.41.28C73.89,20.61,74.17,19.61,74.82,19.94Zm0-.41s-.12-.25,0-.2l0-.17c.28,0,.37.57,0,.54l0-.17A.06.06,0,0,1,74.79,19.53ZM70,20.34c.39.29,0,.83-.47.5C69.25,20.53,69.7,20.08,70,20.34Zm-5.41-2.5c.08.1.06.23.08.34C64.28,18.53,64,17.68,64.62,17.84Zm-1.3,5.06s0-.06,0-.1l.21-.14c.16.08.15.22.17.32l0,0,.19.21h0c-.17.28-.35.1-.5,0Zm.89,2.76a.39.39,0,0,1-.6.06h0a.51.51,0,0,1,0-.77.35.35,0,0,1,0-.4h0c.11-.39.73-.32.8.1a.36.36,0,0,1-.12.31.42.42,0,0,1-.1.68Zm.3.29h0c-.29-.34.15-.84.57-.65C65.69,25.64,64.88,26.69,64.51,26Zm3.81-5.35a1.1,1.1,0,0,1-.6-.65.35.35,0,0,1-.12-.07c-.37.13-.84,0-.92-.72a.72.72,0,0,1,1.06-.45,1.27,1.27,0,0,1,.25.37h0C69.43,18.3,70,21.12,68.32,20.6Zm2.05,3.25a.55.55,0,0,1-.67-.6l-.14,0h0l-.06-.05h0c-1.08-.61.56-1.76.79-.58a.48.48,0,0,1,.12,0A.65.65,0,0,1,70.37,23.85Zm2-.4-.22,0c-.19-.1-.13-.36,0-.46l.27,0v0l.11,0C72.62,23.25,72.44,23.37,72.36,23.45ZM72.44,21c-.69,1.24-2.16-.6-.79-1a.79.79,0,0,1,.33-.28l0,0,.08-.07C73,19.19,73.4,20.81,72.44,21Zm.69,5a.3.3,0,0,1,.32-.33l.13.11C73.73,26.18,73.2,26.48,73.13,26ZM74,22.66c-.89-.64.45-1.47.65-.53A.49.49,0,0,1,74,22.66Zm.76,1.79c-.13-.42.51-.58.61-.21S74.81,24.84,74.72,24.45Zm0-7.3a.49.49,0,0,1,.21-.88C76.07,16.11,75.83,17.85,74.73,17.15ZM77,23.66c0,.59-.87.2-.65-.25s.8-.16.63.24Zm-.82-4.94h0c-.41-.68.67-1.2,1.08-.62S76.79,19.4,76.2,18.72Zm2.1,6.94a.28.28,0,0,1-.29-.33l.11-.12a.41.41,0,0,1,.31.05l.12.14A.26.26,0,0,1,78.3,25.66Zm.35-1.53c-.5-.45.13-1,.6-.8C79.75,23.82,79.24,24.53,78.65,24.13Zm.44,1.44c0-.18.18-.21.3-.24s.11.18.15.26S79.17,25.74,79.09,25.57Zm24.38-7.06.29.14c0,.42-.64.72-1,.65l0-.34A2.72,2.72,0,0,0,103.47,18.51Zm-7.7,1.19a.43.43,0,1,1-.83.24C94.82,19.43,95.58,19.24,95.77,19.7Zm-5.35.84,0,.1h0s.11.12,0,.12v.1C90.35,20.87,90.22,20.57,90.42,20.54Zm-4.19,1.94c0-.12.13-.09.18-.17s0,0,0,0l.1-.19a.29.29,0,0,1,.1.41.31.31,0,0,1-.43.17h0l.1-.2A.06.06,0,0,1,86.23,22.48Zm-5.81-5.76a.5.5,0,1,1,1,.15A.49.49,0,0,1,80.42,16.72Zm.51,2.72a.48.48,0,0,1,.75-.56C82.12,19.45,81.43,20.17,80.93,19.44ZM81.78,21l-.16,0c-.09-.06-.11-.18-.14-.27a.24.24,0,0,1,.35-.09l.07.11A.34.34,0,0,1,81.78,21ZM83.58,17a.48.48,0,1,1-.12.95A.48.48,0,0,1,83.58,17Zm.58,2.24a.35.35,0,0,1-.43.56A.35.35,0,0,1,84.16,19.2Zm-.54,2.72h0l.15-.13a.07.07,0,0,0,0,0l.14-.11C84.5,21.9,83.68,22.83,83.62,21.92ZM85,25.42c-.59,1.14-1.76-.6-.58-.82C84.78,24.64,85.15,25,85,25.42Zm.12-8.56c.82-.57,1.57.76.88,1.32S84.28,17.67,85.1,16.86Zm.14,4.61h0c-.19-.62.53-.58.7-.2l-.12.26c-.12,0-.24,0-.36,0ZM86.86,27h-.48l-.16-.28a.39.39,0,0,0,0-.26h0a.9.9,0,0,1,0-.24c-1,.13-.21-1.07.14-.24l0,0,.25,0c.21.29.15.46.32.76Zm.3-6a.73.73,0,0,1-.56,0c-.66-.53,0-1.62.75-1.13a.88.88,0,0,1,.4,0v0C88.74,20,88,21.46,87.16,20.92Zm.5,1c-.48-.34,0-1,.52-.8C88.92,21.42,88.35,22.35,87.66,22Zm1.65-2.32c-.65.49-1.49-.55-.49-.93C89.38,18.52,89.87,19.32,89.31,19.64Zm.78,4.46a.33.33,0,0,1,.24-.6.3.3,0,0,1,.22.31h0C90.68,24.1,90.3,24.29,90.09,24.1Zm.93-.55h-.21l-.11-.14h0v-.17c.15-.16.26-.12.39-.15l.18.14C91.25,23.38,91.11,23.41,91,23.55Zm.47-1.78-.26,0c-.1-.15,0-.29,0-.47l.16-.18.2,0,.14.15C91.69,21.58,91.57,21.64,91.49,21.77ZM91.7,20c-.76-.23-.32-1.45.37-1.07C92.47,19.43,92.21,20,91.7,20Zm2.47,5.33-.16,0c-.12-.17.06-.47.22-.54h0l.11.13A1.25,1.25,0,0,0,94.17,25.3Zm.2-3.11c-.25.57-1.27-.08-.63-.57C94.14,21.4,94.45,21.84,94.37,22.19Zm.21-1.89c-1.3.64-1.7-1.37-.26-1.39A.81.81,0,0,1,94.58,20.3ZM95.79,24c-.19.39-.83.43-.91-.05C94.77,23.22,96.11,23.25,95.79,24Zm0-1.45-.23,0c-.41-.26,0-.86.42-.53l.05.18C96,22.48,95.89,22.51,95.8,22.59Zm.4-.86-.08-.06a.23.23,0,0,1,0-.19l.08-.08A.17.17,0,1,1,96.2,21.73Zm1.5,2.32c.12-.1.45-.09.41.18s-.3.16-.4,0Zm.76,2.6c-1,.42-1-1.39,0-.88A.54.54,0,0,1,98.46,26.65Zm0-5c0-.44.58-.21.51.11S98.4,21.81,98.41,21.62ZM99.57,23h0c.05.41-.42.3-.65.33C98.6,22.88,99.38,22.5,99.57,23Zm-.12,1.36c-.18.17-.37-.09-.33-.3a.27.27,0,0,1,.53.08.23.23,0,0,1-.19.22Zm.78.87v0c-.8.71-.91-1.23,0-.7A.41.41,0,0,1,100.23,25.18Zm.08-6.11c.18,1.05-1.45.45-.77-.19h0a.47.47,0,0,1,.21-.11c-.06-.27.26-.44.48-.45S100.69,19,100.31,19.07Zm.86,3.9a.35.35,0,0,1,0-.32.3.3,0,0,1,.17-.27h0l.1-.06h.22C102.23,22.65,101.47,23.52,101.17,23Zm1.13,3.28a.34.34,0,0,1-.32-.55C102.47,25.06,103.2,26.1,102.3,26.25Zm.14-2.76h0c-.08-.33.47-.47.54-.13h0C103.27,23.77,102.5,23.9,102.44,23.49Zm1.34-2.77c-1-.33-.53-2,.62-1.23C105,20,104.55,21.08,103.78,20.72Zm1.6,2.59c-.13,0-.22-.22-.06-.24v.07s.11.09,0,.09Zm.48-4.69-.25,0a.45.45,0,0,1,0-.38h0a.77.77,0,0,1,.43-.47l.16.22A2.08,2.08,0,0,0,105.86,18.62Zm.65,5.74c-.3-.28.15-.77.43-.49h0C107.36,24.12,106.92,24.68,106.51,24.36Zm.88-3.32c-.58,1.1-1.9-.52-.7-.88a.6.6,0,0,1,.28-.25h0l.07-.06C107.82,19.43,108.23,20.84,107.39,21Zm.43,4.59-.07-.17v0l0-.07c.07-.14.2-.08.27-.06l.08.12A.19.19,0,0,1,107.82,25.63Zm.37,1.29-.12,0c-.1-.14.05-.38.18-.43l.08.11A.91.91,0,0,0,108.19,26.92Zm.1-2.53h0c-.8-.3.17-1.23.55-.55C109,24.19,108.63,24.5,108.29,24.39Zm1.54-.46.07-.06a.13.13,0,1,1,0,.26l-.06,0A.27.27,0,0,1,109.83,23.93Zm.13,3a.45.45,0,0,1,.09-.89A.45.45,0,0,1,110,26.92Zm1.2-4.62.13.11a.42.42,0,0,1-.05.31l-.17.12c-.14,0-.22-.17-.3-.26S111,22.28,111.16,22.3Zm.44,4c-.25.28-.45-.1-.61-.24h0a.47.47,0,0,1-.18-.34.44.44,0,0,1,.73-.24.39.39,0,0,1,0,.53A.28.28,0,0,1,111.6,26.26Zm.25-1.91c-.24-.09-.27-.33-.11-.44S112.16,24.32,111.85,24.35Zm.56,1.9h0c-.48.21-.19-.78.14-.26C112.58,26.09,112.58,26.19,112.41,26.25Zm1.39-1h0a.27.27,0,0,1,0-.25.25.25,0,0,1,.15-.21h0l.08,0h.17C114.65,25,114,25.67,113.8,25.22Zm.67-.64c-1,.24-.68-1.3.11-.65h0A.45.45,0,0,1,114.47,24.58Zm1.22,1.21h0s.12,0,.15,0l.1.11,0,.11C115.77,26.52,115.08,25.94,115.69,25.79Zm2.54.74a.28.28,0,0,1-.17-.5C118.39,25.87,118.75,26.43,118.23,26.53Zm0-2.5a.43.43,0,1,1,.85,0A.45.45,0,0,1,118.2,24ZM119,22.2h0c-.3-.14,0-.55.24-.49S119.3,22.26,119,22.2ZM118.6,21c-.73-.56.33-1.52,1-1S119.27,21.34,118.6,21Zm1.5,5.08h-.43l-.14-.24c.08-.23-.06-.54.2-.69l.22,0c.19.24.14.4.29.65Zm1.21.59.09-.09s0,0,0,0l.09-.07C121.85,26.61,121.38,27.22,121.31,26.66Z"></path></g></svg> 