<?xml version="1.0" encoding="utf-8"?>
<!-- Generator: Adobe Illustrator 24.3.0, SVG Export Plug-In . SVG Version: 6.00 Build 0)  -->
<svg version="1.1" id="Warstwa_1" xmlns="http://www.w3.org/2000/svg" xmlns:xlink="http://www.w3.org/1999/xlink" x="0px" y="0px"
	 viewBox="0 0 479 479" style="enable-background:new 0 0 479 479;" xml:space="preserve">
<style type="text/css">
	.st0{fill:#FFFFFF;}
	.st1{fill:#FCFCFC;}
</style>
<path class="st0" d="M233.8,355.4c1.2,1.9,3.3,3,5.5,3c2.2,0,4.3-1.1,5.5-3c0.3-0.4,28.8-43.7,55.1-91.8
	c30.4-55.7,45.8-95.5,45.8-118.1C345.8,86.7,298.1,39,239.4,39S132.9,86.7,132.9,145.5c0,22.6,15.4,62.4,45.8,118.1
	C205,311.7,233.5,355,233.8,355.4z M239.4,52.3c51.4,0.1,93.1,41.7,93.2,93.2c0,14-7.7,44.8-44.2,111.7c-19.1,35-39.4,67.4-49,82.3
	c-9.5-14.9-29.8-47.3-49-82.3c-36.5-66.9-44.2-97.7-44.2-111.7C146.3,94,187.9,52.4,239.4,52.3z"/>
<path class="st1" d="M239.4,185.4c22,0,39.9-17.9,39.9-39.9s-17.9-39.9-39.9-39.9c-22,0-39.9,17.9-39.9,39.9
	C199.5,167.5,217.3,185.4,239.4,185.4z M239.4,118.8c14.7,0,26.6,11.9,26.6,26.6c0,14.7-11.9,26.6-26.6,26.6
	c-14.7,0-26.6-11.9-26.6-26.6C212.7,130.8,224.7,118.8,239.4,118.8z"/>
<path class="st1" d="M382.6,313l-66.1-45.3c-3-2.1-7.2-1.3-9.3,1.7c-2.1,3-1.3,7.2,1.7,9.2l58.8,40.3L239.4,422.8L110.9,318.9
	l59.2-40.6c3-2.1,3.8-6.2,1.7-9.2c-2.1-3-6.2-3.8-9.3-1.7L96.1,313c-1.7,1.2-2.8,3.1-2.9,5.2c-0.1,2.1,0.8,4.1,2.5,5.4l139.5,112.9
	c2.4,2,5.9,2,8.4,0l139.5-112.9c1.6-1.3,2.5-3.3,2.4-5.4C385.4,316.1,384.4,314.2,382.6,313L382.6,313z"/>
</svg>
