<?xml version="1.0" encoding="utf-8"?>
<!-- Generator: Adobe Illustrator 24.3.0, SVG Export Plug-In . SVG Version: 6.00 Build 0)  -->
<svg version="1.1" id="Capa_1" xmlns="http://www.w3.org/2000/svg" xmlns:xlink="http://www.w3.org/1999/xlink" x="0px" y="0px"
	 viewBox="0 0 487.3 487.3" style="enable-background:new 0 0 487.3 487.3;" xml:space="preserve">
<style type="text/css">
	.st0{fill:#FFFFFF;}
</style>
<g>
	<g>
		<path class="st0" d="M233.9,72.8C134.7,73.2,54,154.3,54,253.5c0,30.1,7.6,59.8,21.8,86.1v-47.8c0-8.8,3.1-17,8.6-24
			c-0.5-4.8-0.7-9.6-0.7-14.4c0-82.9,67.4-150.6,150.2-151c82.9,0.4,150.3,68.1,150.3,151c0,5.3-0.3,10.6-0.9,15.9
			c4.8,6.7,7.5,14.3,7.5,22.5v50.2c15.1-26.9,23.2-57.5,23.2-88.6C414,154.3,333.3,73.2,233.9,72.8z"/>
		<path class="st0" d="M86.9,284.2c-0.8,2.5-1.2,5.1-1.2,7.7V338v21.4c0,20.8,24.8,37.7,55.4,37.7h23.3V254.2h-23.3
			C114.5,254.2,92.2,267.1,86.9,284.2z"/>
		<path class="st0" d="M380.9,359.4v-22.2v-45.3c0-1.6-0.2-3.2-0.5-4.8c-3.5-18.6-26.7-32.9-55-32.9h-23.3v142.9h23.3
			C356.1,397.1,380.9,380.2,380.9,359.4z"/>
	</g>
</g>
</svg>
