<svg width="20" height="22" fill="none" xmlns="http://www.w3.org/2000/svg"><path d="M16.2 10.1V5.4l-.1-.1L10.3.2c-.1-.2-.2-.2-.3-.2H.5C.2 0 0 .2 0 .5v18c0 .3.2.5.5.5h8.2c1.1 1.5 2.9 2.5 4.9 2.5 3.3 0 6-2.7 6-6 0-2.3-1.4-4.4-3.4-5.4zm-5.7-8.5l3.9 3.5h-3.9V1.6zM1 18V1h8.5v4.6c0 .3.2.5.5.5h5.2v3.6c-.5-.2-1.1-.2-1.7-.2-1.8 0-3.4.8-4.5 2H4.8c-.3 0-.5.2-.5.5s.2.5.5.5h3.5c-.5.9-.8 1.9-.8 3 0 .9.2 1.7.6 2.5H1zm12.6 2.5c-2.8 0-5-2.2-5-5s2.2-5 5-5 5 2.2 5 5-2.3 5-5 5z" fill="#fff"/><path d="M15.6 15.1L14 16.7V13c0-.3-.2-.5-.5-.5s-.5.2-.5.5v3.8l-1.6-1.6c-.2-.2-.5-.2-.7 0-.2.2-.2.5 0 .7l2.4 2.4c.1.1.2.1.4.1s.3-.1.4-.1l2.4-2.4c.2-.2.2-.5 0-.7-.2-.2-.5-.2-.7-.1zM4.898 9h6.5c.3 0 .5-.2.5-.5s-.3-.5-.5-.5h-6.5c-.3 0-.5.2-.5.5s.2.5.5.5z" fill="#fff"/></svg>