<svg xmlns="http://www.w3.org/2000/svg" width="8" height="12" fill="none"><path fill="#fff" d="M2.73 8.04c-.06-.21-.1-.44-.1-.7 0-.48.12-.87.36-1.19.24-.3.59-.65 1.05-1.02.44-.36.76-.67.97-.95.22-.29.33-.63.33-1.05 0-.41-.15-.75-.44-1-.28-.28-.68-.42-1.2-.42-.3 0-.57.07-.8.2-.24.12-.42.27-.56.44-.14.16-.22.3-.26.44L.57 2.03c.16-.28.33-.54.5-.77a3 3 0 01.96-.7A3.8 3.8 0 013.8.18c.64 0 1.22.13 1.72.38.51.24.91.58 1.2 1a2.85 2.85 0 01-.4 3.49 9.5 9.5 0 01-.9.76c-.4.31-.69.57-.87.79-.18.2-.27.47-.27.78 0 .2.01.42.03.65H2.73zm.94 3.58c-.32 0-.58-.1-.79-.3-.2-.21-.3-.47-.3-.77 0-.32.1-.57.3-.77.21-.21.47-.32.79-.32.3 0 .55.1.77.32.2.2.31.45.31.77a1.05 1.05 0 01-1.08 1.07z"/></svg>