<svg width="15" height="24" fill="none" xmlns="http://www.w3.org/2000/svg"><path d="M10.2 21h-6c-.3 0-.5.2-.5.5s.3.5.5.5h6c.3 0 .5-.2.5-.5s-.2-.5-.5-.5z" fill="#fff"/><path d="M14.5 1.7c0-1-.8-1.7-1.7-1.7h-11C1.3 0 .8.2.5.5.2.8 0 1.3 0 1.7v20.5c0 1 .8 1.7 1.7 1.7h11c1 0 1.7-.8 1.7-1.7l.1-20.5zm-5.3.4c0 .3-.2.5-.5.5h-3c-.3 0-.5-.2-.5-.5s.2-.5.5-.5h3c.3 0 .5.2.5.5zM12.8 23h-11c-.5 0-.8-.3-.8-.7V1.7c0-.2.1-.4.2-.5.1-.1.3-.2.5-.2h1.6v1.9c0 .6.5 1.1 1.1 1.1h5.7c.6 0 1.1-.5 1.1-1.1V1h1.6c.4 0 .7.3.7.7v20.5c0 .5-.3.8-.7.8z" fill="#fff"/></svg>