<svg width="8" height="14" fill="none" xmlns="http://www.w3.org/2000/svg"><path d="M2.781 9.367a2.743 2.743 0 01-.098-.752c0-.523.125-.954.375-1.291.262-.338.643-.709 1.145-1.112.469-.382.817-.725 1.046-1.03.239-.305.36-.681.36-1.128 0-.447-.159-.812-.475-1.095-.305-.294-.735-.442-1.292-.442-.338 0-.632.07-.882.213-.25.13-.453.289-.605.474a1.487 1.487 0 00-.279.474L.441 2.861a8.41 8.41 0 01.54-.834c.196-.25.544-.507 1.046-.769.5-.262 1.139-.392 1.912-.392.697 0 1.318.137 1.863.408.555.262.986.627 1.292 1.095.305.458.458.965.458 1.52 0 .512-.088.954-.262 1.324-.175.37-.387.681-.638.933-.24.239-.556.512-.949.817-.436.338-.751.621-.948.85a1.26 1.26 0 00-.295.85c0 .217.011.452.033.703H2.78zm1.014 3.874c-.338 0-.622-.11-.85-.327a1.165 1.165 0 01-.327-.834c0-.338.109-.616.327-.834.228-.228.512-.343.85-.343.327 0 .605.115.833.343.229.218.344.496.344.834 0 .327-.115.605-.344.834a1.165 1.165 0 01-.833.327z" fill="#000"/></svg>