<?xml version="1.0" encoding="utf-8"?>
<!-- Generator: Adobe Illustrator 24.3.0, SVG Export Plug-In . SVG Version: 6.00 Build 0)  -->
<svg version="1.1" id="Capa_1" xmlns="http://www.w3.org/2000/svg" xmlns:xlink="http://www.w3.org/1999/xlink" x="0px" y="0px"
	 viewBox="0 0 297 297" style="enable-background:new 0 0 297 297;" xml:space="preserve">
<style type="text/css">
	.st0{fill:#FFFFFF;}
</style>
<g>
	<path class="st0" d="M152.7,98.2c3.1,0,5.7-2.5,5.7-5.7v-7.3c0-3.1-2.5-5.7-5.7-5.7s-5.7,2.5-5.7,5.7v7.3
		C147,95.7,149.6,98.2,152.7,98.2z"/>
	<path class="st0" d="M119.9,99.6c1.1,1.1,2.6,1.7,4,1.7s2.9-0.6,4-1.7c2.2-2.2,2.2-5.8,0-8l-5.1-5.1c-2.2-2.2-5.8-2.2-8,0
		c-2.2,2.2-2.2,5.8,0,8L119.9,99.6z"/>
	<path class="st0" d="M180.3,107c1.4,0,2.9-0.6,4-1.7l5.1-5.1c2.2-2.2,2.2-5.8,0-8c-2.2-2.2-5.8-2.2-8,0l-5.1,5.1
		c-2.2,2.2-2.2,5.8,0,8C177.4,106.5,178.8,107,180.3,107z"/>
	<path class="st0" d="M30.5,199.6c0,4.5,3.6,8.1,8.1,8.1h17v27.5c0,4.5,3.6,8.1,8.1,8.1h200.2c4.5,0,8.1-3.6,8.1-8.1V101.7
		c0-4.5-3.6-8.1-8.1-8.1h-17V66.1c0-4.5-3.6-8.1-8.1-8.1H38.6c-4.5,0-8.1,3.6-8.1,8.1V199.6z M46.7,162.9l40.1-40.1
		c2.9-2.9,7.5-2.9,10.4,0l32.6,32.6c-25,0.3-53.5,2.4-83.1,7.7C46.7,163.1,46.7,162.9,46.7,162.9z M124.8,127.5
		c4.8-6.5,12.4-10.5,20.6-10.5c10.8,0,20.4,6.9,24,16.8l-22.9,15.3L124.8,127.5z M182.5,144.5c2.2-1.5,5-1.6,7.4-0.5l36.5,18.2
		c-10.8-1.8-27.3-4.1-47.9-5.6c-4.1-0.3-8.5-0.6-13.1-0.8L182.5,144.5z M230.7,74.2v72.3l-33.7-16.8c-4-2-8.5-2.8-12.9-2.3
		c-6.2-15.7-21.5-26.4-38.8-26.4c-12.5,0-24.3,5.7-32.1,15.1l-4.6-4.6c-9.2-9.2-24.1-9.2-33.3,0L46.7,140V74.2H230.7z M46.7,179.5
		c83.9-15.8,161.8-4.1,184,0v11.9h-184V179.5z M246.9,109.8h8.9v117.3h-184v-19.4h167c4.5,0,8.1-3.6,8.1-8.1V109.8z"/>
</g>
</svg>
