<?xml version="1.0" encoding="UTF-8"?> <svg xmlns="http://www.w3.org/2000/svg" viewBox="0 0 140 140"><defs><style>.cls-1{fill:#492f90;}.cls-2{fill:#372870;}.cls-3{fill:#675de8;stroke:#675de8;stroke-miterlimit:10;stroke-width:0.35px;}.cls-4{fill:#fff;}.cls-5{fill:#0f0140;}.cls-6{fill:#e6e7e8;}.cls-7{fill:#21144f;}.cls-8{fill:#f93168;}.cls-9{fill:#2b1f66;}.cls-10{fill:#c60e47;}</style></defs><g id="Layer_3" data-name="Layer 3"><path class="cls-1" d="M75.91,32.28h0Z"></path><path class="cls-1" d="M108.21,28.65V26.21a.25.25,0,0,1,0-.44V25.6H96.77l.07,0a.31.31,0,0,1-.18.42l0,1.34-.26-1.24h0c-.09,0-.21-.06-.25-.16a.25.25,0,0,1-.06-.18h0l0,0s.06-.13.1-.21h-2a.8.8,0,0,1,0,.15l-.11.18a.74.74,0,0,1-.25,0,.43.43,0,0,1-.17,0l-.17,0h0l0-.14-.09-.13,0,0h0v0H82.47l0,.06a.28.28,0,1,1-.56-.06H78.77c.08.24,0,.52-.2.6a.49.49,0,0,1,.29.12c0,.1.11.2.13.3l-.06.24c-.32.3-.56.06-.81-.13a3.6,3.6,0,0,1,0-.36l.08-.07-.1-.06h-.49l.34-.17a.55.55,0,0,1,0-.47h-.14a.4.4,0,0,1-.13.13.53.53,0,0,1-.19-.05h-.11l-.06-.09H76.7l-.08.13h-.09a.26.26,0,0,1-.25-.13h-1.5a.42.42,0,0,1-.22.12l-.22-.11H72.08a.34.34,0,0,1-.09.45l-.26.06a.44.44,0,0,0-.15-.08l-.07,0-.29-.27a1,1,0,0,0,0-.18H61.1c-.06.08-.13.18-.25.18h0c-.13,0-.23-.06-.35-.05s0-.09,0-.13H47.65v.1a.5.5,0,0,1-.41.16,1.73,1.73,0,0,0-.32-.2l0-.06h-.83l-.12,0a.37.37,0,0,1-.14,0H43.3v0l-.12.09v.05a.52.52,0,0,1-.57,0s-.1-.05-.13-.06l0-.1,0,0H30.13V27l.08.08a1.41,1.41,0,0,1,0,.29l0,0a.36.36,0,0,1,0,.09v4.83H75.87l0-.08,0,0a.83.83,0,0,0-.16-.21l0,0-.08-.12h0v0c0-.2.18-.28.3-.38l.14,0a.24.24,0,0,1,.2,0,.35.35,0,0,1,.14.06s.19,0,.21,0a.66.66,0,0,1,.18.4,1.51,1.51,0,0,1-.13.29.9.9,0,0,1-.16,0h4.66a.45.45,0,0,1-.2-.39v0a2,2,0,0,1,.17-.46l.11,0a.43.43,0,0,1,.47.05c.58-.32.86.75.15.71l-.13.05-.06,0H92.09l0,0a.48.48,0,0,1,.18,0h1.82l-.1-.1,0-.1L94,32l.2-.27a.58.58,0,0,1,.3,0,.37.37,0,0,1,.32,0h0L95,32a.43.43,0,0,1-.06.27h13.29V29.09A.35.35,0,0,1,108.21,28.65ZM30.83,26.42l-.16-.11c-.2-.3,0-.49.32-.55l.06,0h0a.38.38,0,0,1,0,.6Zm.4,3.54,0-.26.06,0a.45.45,0,0,1,.39-.08h.06a.5.5,0,0,1,.22.13h0l.16.33-.24.32H31.6A.71.71,0,0,1,31.23,30Zm1.23,1.81a.78.78,0,0,1-.31.21l0,.05L31.77,32v0s-.15-.16-.18-.18v0c-.22-.38,0-.68.42-.66a1.54,1.54,0,0,1,.27.07A.58.58,0,0,1,32.46,31.77ZM33,27.84l-.08.05a.85.85,0,0,1-.37-.29l-.08-.11a1.36,1.36,0,0,0,0-.2l.1-.2a.55.55,0,0,1,.71,0C33.5,27.38,33.39,27.86,33,27.84Zm.62,2-.13-.14,0-.28c.07-.06.16-.1.22-.15l.24,0A.33.33,0,0,1,33.65,29.88Zm1.15-2.05a2.62,2.62,0,0,1,0-.28l0,0,.15.1-.13-.12c.14-.19.34-.07.53-.07C35.66,27.89,35,28.38,34.8,27.83ZM36.62,30l-.22.1-.09,0-.05,0c-.24-.07-.43-.34-.26-.56v0a.32.32,0,0,1,.47-.06h.13A.45.45,0,0,1,36.62,30Zm.16-2.56s-.05-.11-.07-.14l-.12-.06,0-.11c-.09-.25.16-.48.36-.55s.44.23.48.48A.51.51,0,0,1,36.78,27.4Zm1,3.57h-.4l-.06-.15h0a.38.38,0,0,1,0-.31l.17.08-.16-.09c0-.1.18-.16.26-.2C38,30.36,38,30.75,37.77,31Zm.2-4a.32.32,0,0,1-.43-.23l0-.32a1.28,1.28,0,0,1,.2-.11,1.67,1.67,0,0,0,.12-.16l.26-.09a1.19,1.19,0,0,0,.29.12.48.48,0,0,1,0,.69l-.26.14A.35.35,0,0,0,38,27Zm.65,1.85c-.15.07-.34.11-.44,0C37.61,28.17,39,28,38.62,28.82Zm.53-1.62-.26.05-.06,0,.09-.17-.11.15a.37.37,0,0,1,0-.55l.26-.09A.37.37,0,0,1,39.15,27.2Zm2.1,1.88a.5.5,0,0,1-.43,0,.37.37,0,0,1-.11-.19s-.09-.08-.11-.1l-.06-.27h0s0-.05,0-.06.07-.31.06-.45l.4-.12,0,0h0l.19.09a.76.76,0,0,1,.18.48h0C41.61,28.7,41.41,28.92,41.25,29.08Zm.81,2.48a.77.77,0,0,1,.22-.36l.12,0,.22,0a1.18,1.18,0,0,1,.25.44A.41.41,0,0,1,42.06,31.56Zm3.84-2.39-.18.17a.94.94,0,0,1-.29,0,.4.4,0,0,1-.18-.25l0,0,.11-.4h0l.07-.14.13.06s.08,0,.11,0a1.29,1.29,0,0,1,.32.19.54.54,0,0,1-.09.35Zm2,1.63-.15-.12,0-.35a.53.53,0,0,1,.52,0,1,1,0,0,1,.12.33C48.28,30.83,48.07,31,47.86,30.8Zm1.81-1.63a.69.69,0,0,1-.24.15l-.08.11L49,29.38l0-.09-.05,0V29a.62.62,0,0,1,.22-.15.34.34,0,0,1,.44-.07A.5.5,0,0,1,49.67,29.17Zm.11-3.29c0-.2.27-.25.41-.23.63.2.57.52.23,1a1,1,0,0,0-.29,0l-.39-.17C49.71,26.28,49.61,26.11,49.78,25.88Zm.78,2.56c-.07,0-.21,0-.29,0a.48.48,0,0,1-.1-.62l.21-.13A.39.39,0,0,1,50.56,28.44Zm2.93,3.3,0,.09a2.15,2.15,0,0,1-.36.11.76.76,0,0,1-.3-.59c.06-.12,0-.24.16-.4s.17-.11.21-.12C53.66,30.88,54,31.47,53.49,31.74Zm2.85-2.31c-.05,0,0-.21-.05-.26.16-.26.26-.6.62-.5l0,0a.35.35,0,0,1,.26.21c.1,0,.13.23.16.32A.55.55,0,0,1,56.34,29.43Zm.93-2.34a1,1,0,0,1-.39,0,.47.47,0,0,1,.1-.61,1,1,0,0,1,.3,0l.08.08C57.55,26.66,57.46,26.93,57.27,27.09ZM61,30.4c-.06,0-.12,0-.18,0s0,.26-.05.35l-.06,0-.16-.09.14.13s-.17.13-.2.15a1.77,1.77,0,0,0-.32,0,.38.38,0,0,1-.27-.22l-.15-.12,0,0h0c.06-.27.16-.56.49-.62-.09-.1.07-.34.09-.51a2.79,2.79,0,0,1,.57-.14C61.34,29.57,61.58,30.24,61,30.4Zm1.9-.62c0,.07-.16.25-.26.24h0a1.24,1.24,0,0,1-.29.06c-.06,0-.16-.15-.21-.19l-.19-.32.05,0a.5.5,0,0,1,.32-.37h0l.3-.05a.53.53,0,0,1,.28.66Zm1.78,2.34a1.93,1.93,0,0,1-.36.06.77.77,0,0,0-.22-.22l0-.28.16-.19.25,0,0,0A.37.37,0,0,1,64.64,32.12Zm.94-5.53a.36.36,0,0,1-.24.18l0,0L65,26.73a.66.66,0,0,0-.19-.22l0-.27.16-.19H65a.4.4,0,0,1,.62,0c.06.13,0,.32,0,.46Zm2.26,4.08a.61.61,0,0,1,0-.8.81.81,0,0,1,.31-.06,2.19,2.19,0,0,1,.35.24l0,.23A.68.68,0,0,1,67.84,30.67Zm8.28-2.41-.21.22,0,0-.1,0-.07,0a1.3,1.3,0,0,0-.33.07l-.05-.17c-.17-.12-.08-.33-.09-.5l0,0a.39.39,0,0,1,.11-.2l-.2-.36.32.3c.08,0,.19,0,.29,0s.47.4.34.67Zm4.43.16-.15-.11.14.12c0,.07-.28.17-.38.19l0,0h0c-.35-.08-.54-.46-.17-.68l.07-.11c.22,0,.47.11.69.08l-.13.08C80.6,28.09,80.66,28.32,80.55,28.42Zm4-1.76c-.27.19-.65,0-.5-.35.09-.06.37-.37.45-.45l0,.4a.61.61,0,0,1,.12.16Zm1.84,3.17c-.52.21-.94-.17-.63-.68a.8.8,0,0,1,.43-.17c.08,0,.23.18.29.23A1.64,1.64,0,0,1,86.44,29.83Zm2.13-3,0,.11-.1,0h-.18a.44.44,0,0,1-.19-.4l.08-.06a.33.33,0,0,1,.15-.16l.06-.25.06.19a.45.45,0,0,1,.3.07l.09.19C88.74,26.52,88.65,26.75,88.57,26.79Zm3,2.58c-.07.09-.23.23-.32.23v0a1.16,1.16,0,0,1-.31.07l-.26-.19a.44.44,0,0,1,0-.35v0a2.33,2.33,0,0,1,.35-.27l0,0,.15-.07.06.13s.08.06.13.07a1.26,1.26,0,0,1,.15.38Zm4.61-1.72c-.2.19-.44.31-.68.08l0-.09h0a.53.53,0,0,1-.46-.13l-.07-.24h0l-.07-.14.49-.33c.07.13.24.19.29.34l0,0a.75.75,0,0,1,.3,0l.24.23Zm8.43-1.44a.23.23,0,0,1,.1-.12c.17-.28.67-.19.62.18-.15.11-.22.32-.4.41l-.09-.05h0l-.24-.14v-.12l0,0Zm-6.74.69a.87.87,0,0,1-.32.13l-.2-.1a.36.36,0,0,1,0-.15l-.13,0a1.46,1.46,0,0,1-.29-.41c.14-.26.41-.45.69-.19h0a.48.48,0,0,1,.12.33.25.25,0,0,1,.21.24Zm1.86,3.75a.73.73,0,0,1,.12.34,1.15,1.15,0,0,1-.2.29c-.18,0-.31-.07-.46-.08-.27-.24-.16-.48,0-.69a2.35,2.35,0,0,0,.7-.25l-.18.39Zm.33-3.44h0l0,.08-.22-.05a.82.82,0,0,1-.35,0l-.17-.33s.07-.12.07-.13l0-.09,0-.06.1,0h0l-.09-.06a.71.71,0,0,1,.43-.31l.25.06a.52.52,0,0,1,.19.53A.37.37,0,0,1,100,27.21Zm1.79-.42h-.1c-.21.05-.35-.16-.34-.37l.21-.19a.43.43,0,0,1,.34.29Zm1.13-.16a.34.34,0,0,1-.2,0l-.1,0-.2-.23,0-.07v0l.16-.2c.19,0,.42,0,.48.22A.38.38,0,0,1,103,26.63Zm2.42,4.76,0,0-.06.11h-.09a1.48,1.48,0,0,0-.26.24l-.13-.12c-.22,0-.25-.25-.35-.4l0,0a.37.37,0,0,1,0-.23l-.36-.21.42.09c.11-.12.2-.1.28-.15l.1,0h0A.48.48,0,0,1,105.38,31.39Zm1.09-2.79c-.06-.1-.1-.24-.16-.34l0-.11a.6.6,0,0,1-.66-.63l.1-.19a.84.84,0,0,1,.44-.22l.06,0h0c.3.13.49.55.25.78a.52.52,0,0,1,.36-.07c.08.08.2.12.28.2l.07.24C107.13,28.73,106.79,28.64,106.47,28.6Z"></path><path class="cls-2" d="M121.92,106.64a0,0,0,0,1,0,0h0s-.08.06-.11.1l-.31-.07c-.18-.44.23-.56.43-.45V44.69a3.51,3.51,0,0,0-3.51-3.51H19.93a3.54,3.54,0,0,0-.73.07h0a.94.94,0,0,1,.13.32l-.09.2a.27.27,0,0,1-.15,0l0,.13a1.55,1.55,0,0,1-.41.3c-.26-.14-.45-.4-.2-.68h0a.4.4,0,0,1,.32-.13.43.43,0,0,1,0-.07,3.5,3.5,0,0,0-2.45,3.33V95.51c.05-.05.12-.07.17,0s-.08.27-.17.16v15.18H8a3.51,3.51,0,0,0,3.52,3.52H52.31a.55.55,0,0,1-.23-.82c-.16-1,1.51-.6.9.23a.59.59,0,0,1-.06.31h0a.51.51,0,0,1-.21.29h3.22c-.16-.42.2-1,.91-.54a.45.45,0,0,1,.17.54H93.43l-.08-.05c-.63-.47-.11-1.59.65-1.22a.78.78,0,0,1,.33,1.27h3.22a.52.52,0,0,1,.56,0h4.78a.75.75,0,0,1,.3-.62c.73-.34,1.16.13,1.15.62h1.24a.58.58,0,0,1,.48-.22.49.49,0,0,1,.28.22h3.59c-.84-.25-.08-1.6.69-1.06a.71.71,0,0,1,.55.06.7.7,0,0,1,.09,1h13.53a.69.69,0,0,1,.54-.8c.62-1,1.76.19,1.19.8h1.73l.24,0c.13-.27.44-.43.95-.25l.06,0a3.51,3.51,0,0,0,2.27-3.28h-9.85Zm-73.85,2.24-.16.13,0,0-.15.11C47.18,108.88,48,108,48.07,108.88Zm-.49-4.36c0,.47-.81.33-.65-.12C47,104.15,47.58,104.16,47.58,104.52ZM46.91,98l0-.15C47.36,97.06,47.59,98.33,46.91,98Zm.32.73c0,.26-.36.38-.38.07S47.21,98.39,47.23,98.69Zm-3.18.56-.09.22a.15.15,0,0,0-.1,0l-.19,0,0,0a.26.26,0,0,1,.09-.41l.2.12,0,0A.35.35,0,0,1,44.05,99.25Zm-.64-4c.23-.25.59.15.32.35l-.14,0-.06,0a.36.36,0,0,1-.12-.17Zm-.6,5.47.08-.13c.67-.3.78,1,0,.52h0s-.1-.14-.12-.17Zm-.71,1.73a.29.29,0,0,1-.47.33C41.4,102.46,41.92,102.15,42.1,102.46Zm-1.25-5.82-.16,0a.13.13,0,0,1-.06-.07h0l0-.16Zm-3.42,9a1.3,1.3,0,0,0,.17-.38l.16,0c.12.18-.07.48-.23.54h0Zm-8.18-3.29.16,0a.26.26,0,0,1,.16.06l0,.22-.08,0-.17,0A.25.25,0,0,1,29.25,102.34Zm-1.39-5.57-.11,0a.27.27,0,0,1-.19-.1l0,0,0-.14C27.62,96.28,28,96.52,27.86,96.77ZM25.38,46.53h0c.07.23.05.49-.24.57l-.19,0-.27-.27a.61.61,0,0,1,.37-.48ZM24.19,62.78a.42.42,0,0,1,.06-.14s.05-.19.05-.21a.64.64,0,0,1,.4-.18,1,1,0,0,1,.29.12,1,1,0,0,1,0,.68l0,.09-.09,0v0a1.56,1.56,0,0,0-.2.16l0,0-.12.08h0c-.2,0-.28-.18-.39-.29l0-.15A.34.34,0,0,1,24.19,62.78Zm.26,11.75a.37.37,0,0,1,.64-.16,1.35,1.35,0,0,1,.07.36.77.77,0,0,0-.22.22l-.28,0-.19-.16,0-.24Zm-.23-30.36L24.4,44a.61.61,0,0,1,.46.19.54.54,0,0,1,0,.31l.05.16-.28.28-.1,0h-.06l-.28-.19a.61.61,0,0,1,0-.3A.38.38,0,0,1,24.22,44.17Zm.61,13,.05.13a.57.57,0,0,1,.12.17h0l.06.12a.53.53,0,0,1-.52.47l0,0a1.79,1.79,0,0,1-.46-.16v-.11a.43.43,0,0,1,.05-.47C23.8,56.78,24.86,56.48,24.83,57.18Zm-1,21.19-.09.16.12-.14c.05,0,.14.16.16.19a1.73,1.73,0,0,0,0,.32.42.42,0,0,1-.22.28l-.11.15,0,0h0c-.27-.06-.57-.15-.63-.48-.1.09-.34-.07-.51-.08a2.28,2.28,0,0,1-.15-.57c.19-.47.86-.72,1-.1h0s0,.11,0,.17.26,0,.36,0Zm-.29,25.31-.08-.1a1.2,1.2,0,0,0,.15-.3l.12,0C23.84,103.4,23.69,103.64,23.56,103.68Zm.4.9.07.17v0l0,.07c-.08.14-.2.07-.27.06l-.08-.13h0A.2.2,0,0,1,24,104.58Zm-1.35-7c-.23-.11,0-.48.18-.43a.25.25,0,0,1,.07.36l-.15,0,0,0Zm-.86,3s0,0-.05,0c-.22-.26.22-.73.42-.34h0a.22.22,0,0,1,.06.2.52.52,0,0,1,.11,0c.07.14.11.34,0,.44C21.92,101.24,21.68,100.87,21.75,100.61Zm.16,5.62-.07.06c-.19,0-.16-.3,0-.27l.06,0C22,106.15,21.92,106.18,21.91,106.23Zm.39-7.87s-.08.09-.1.11l-.27.07h-.06c-.15.07-.31-.07-.45-.05l-.09-.28h0a.16.16,0,0,1-.08,0h0l-.07-.07c0-.13.11-.15.18-.13l.06-.11a.68.68,0,0,1,.48-.19h0c.21-.21.43,0,.59.14a.52.52,0,0,1,0,.44A.62.62,0,0,1,22.3,98.36Zm-1.1,11.2c-.11.19-.32.17-.49.22l-.24-.16c0-.26,0-.57.2-.72a.94.94,0,0,1,.29,0l0,0a.4.4,0,0,1,.23.15l.05.2h0l0,.15a.94.94,0,0,1-.09.12Zm0-3-.1.08a1.48,1.48,0,0,0-.21,0l-.2-.09a.56.56,0,0,1,0-.72c.28-.18.76-.07.75.29l0,.08A.92.92,0,0,1,21.18,106.51Zm.19-2.22a2.72,2.72,0,0,1-.28,0l0,0,.1-.15-.12.14c-.19-.14-.08-.35-.08-.53C21.42,103.43,21.92,104.07,21.37,104.29ZM18.29,56.64a.29.29,0,1,1-.21.5L18,57l.08-.22h0Zm2.37,43.65a.36.36,0,0,1-.55,0l-.1-.25a.37.37,0,0,1,.65-.13l.06.26,0,.06-.16-.08Zm-.49-18.06a.46.46,0,0,1-.61-.09,1,1,0,0,1,0-.3l.08-.08c.16-.19.43-.11.6.08A1,1,0,0,1,20.17,82.23Zm-.48-8.09a.55.55,0,0,0-.21.19l-.28,0L19,74.21v-.06a.41.41,0,0,1,0-.62c.13-.06.32,0,.46,0l.05.06a.41.41,0,0,1,.19.24h0ZM19.44,61l-.36,0L19,60.88,19,61v.49l-.17-.33a.63.63,0,0,1-.61,0h0L18.07,61a.71.71,0,0,0,0-.15c-.06-.08,0-.24,0-.32.24-.21.7-.24.81.08a.42.42,0,0,1,.11-.29c.1,0,.2-.11.3-.14l.24,0C19.86,60.5,19.63,60.74,19.44,61ZM18,64.46l0,0c.13-.26.45-.19.51.13l-.11.22a.31.31,0,0,1-.43-.2A.28.28,0,0,0,18,64.46Zm0-1.79a.43.43,0,0,1,.32-.29l.24.13v.1c0,.22-.21.32-.41.3Zm1.47-11.79c-.08.16-.24.18-.4.19L18.92,51a.33.33,0,0,1-.16-.15l-.26-.05.19-.07a.45.45,0,0,1,.07-.3l.19-.09c.08,0,.31.12.35.21l.12,0-.05.11S19.38,50.85,19.38,50.88Zm-.53,3.71a.61.61,0,0,1,.16-.12l.24.05c.19.26,0,.65-.34.51a4.78,4.78,0,0,0-.46-.44ZM18,61.29a.31.31,0,0,1,.44.14.58.58,0,0,1,0,.19v.1l-.25.17-.08,0h0l-.18-.18A.77.77,0,0,1,18,61.29Zm0,4.92.16.08a.87.87,0,0,1,.09.32l-.12.19a.43.43,0,0,1-.37-.07l-.08-.2C17.7,66.35,17.79,66.21,18,66.21Zm-.27.92.25.35a.4.4,0,0,1,.11,0v-.07l.05,0v0a.48.48,0,0,1,.27-.21.33.33,0,0,1,.51,0l.07.26a.36.36,0,0,0-.08.15l0,.07-.27.3a.41.41,0,0,0-.19,0c-.05.16-.19.2-.27.31-.32.12-.47-.09-.57-.34A2.41,2.41,0,0,0,17.71,67.13Zm1.07,11.51a1.14,1.14,0,0,0-.37,0l-.21-.2,0-.08v0l0-.09h0s.11,0,.13,0h0l-.17,0a.44.44,0,0,1,.23-.26h.17c.09.06.2.13.19.25h0C18.88,78.41,18.76,78.51,18.78,78.64ZM18,87.85l.08-.1a.47.47,0,0,1,.68,0C19.07,88.52,18,88.64,18,87.85ZM18.2,79a.34.34,0,1,1-.29.52l-.07-.3A.5.5,0,0,1,18.2,79Zm-.12,13.83h.15l.05-.07h.08l.05.18,0-.18a.67.67,0,0,1,.49.16l.09.23a.51.51,0,0,1-.67.47l-.09,0-.09-.22a.84.84,0,0,1-.18-.23A1.22,1.22,0,0,1,18.08,92.83ZM19,92.2,18.45,92c.06-.14,0-.31.1-.44l.07-.09.38,0a.54.54,0,0,1,.17.41A1.07,1.07,0,0,0,19,92.2Zm.17-2.85c-.2,0-.26-.26-.25-.41.2-.63.52-.58,1-.25a1,1,0,0,0,0,.3l-.16.39C19.54,89.41,19.37,89.51,19.14,89.35Zm.51,11.38a.47.47,0,0,1,.69,0l.14.25a.93.93,0,0,0,0,.13l0,0a.33.33,0,0,1-.23.44l-.32,0a1.06,1.06,0,0,1-.12-.2l-.15-.12-.1-.26A1.15,1.15,0,0,0,19.65,100.73Zm.87.91a.52.52,0,0,1,.38.68l-.13.07-.06.12-.12,0c-.25.1-.48-.15-.55-.34S20.26,101.69,20.52,101.64Zm.55-12.72-.13-.2a.39.39,0,0,1,.74-.2c.05.07,0,.21,0,.29A.46.46,0,0,1,21.07,88.92Zm.13,12.47c0,.09-.09.14-.19.13l-.06,0a.22.22,0,0,1,0-.15l.08-.06A.32.32,0,0,1,21.2,101.39Zm.71-8a1.06,1.06,0,0,1,.18-.33.56.56,0,0,1,.35.09h.06l.18.17a1.41,1.41,0,0,1,0,.29.46.46,0,0,1-.25.19l0,0-.4-.1v0l-.14-.06.06-.13S21.93,93.44,21.91,93.41Zm.74-3.33-.09,0,0,0-.31,0a.62.62,0,0,1-.15-.22.34.34,0,0,1-.08-.44c.16-.15.27-.12.44-.12a.57.57,0,0,1,.15.23l.12.08Zm-.09-7.36s-.21,0-.26.06c-.27-.16-.61-.25-.51-.61l0,0a.35.35,0,0,1,.21-.26c0-.1.22-.13.31-.16A.54.54,0,0,1,22.56,82.72Zm.35,19.86v-.13a.48.48,0,0,1,.56,0l.1.22s0,.07,0,.09l0,.05c-.07.24-.34.44-.56.27h0A.34.34,0,0,1,22.91,102.58Zm0-6.18.26,0-.1.09-.07,0Zm0,8.63a.33.33,0,0,1,.56.36l-.14.14-.28,0c-.06-.08-.1-.16-.15-.22S22.88,105.08,22.88,105Zm.75-13.75a.51.51,0,0,1,0-.52,1.27,1.27,0,0,1,.32-.13c.18.12.32.33.16.55l-.12.14Zm-.69-20.71.24,0a.66.66,0,0,1,.4.67.61.61,0,0,1-.8,0,1.07,1.07,0,0,1-.07-.32A3.43,3.43,0,0,1,22.94,70.57Zm-.16,5.63h0c.08,0,.25.16.25.25h0a.88.88,0,0,1,.06.29c0,.06-.14.16-.18.22l-.32.19,0,0a.49.49,0,0,1-.37-.31h0l-.05-.3A.52.52,0,0,1,22.78,76.2ZM21.71,53.27a.93.93,0,0,1-.17-.43,1,1,0,0,1,.23-.3,1.61,1.61,0,0,1,.61.08C22.6,53.13,22.23,53.56,21.71,53.27Zm-.33-5.46c0-.05.06-.08.07-.13a1.34,1.34,0,0,1,.37-.16h0a.63.63,0,0,1,.25.32h0a1,1,0,0,1,.08.3l-.19.26a.43.43,0,0,1-.35,0h0a3.1,3.1,0,0,1-.27-.34l0,0-.08-.15Zm-.83,10.6.08.13c.12,0,.35-.11.46,0l-.11.15.12-.14c.07,0,.17.28.19.38l0,0h0c-.07.35-.44.55-.67.19l-.11-.07C20.46,58.88,20.59,58.63,20.55,58.41Zm-.21,4.91c.14-.21.39-.48.66-.35h0l.22.2,0,0,.06.1,0,.07a1,1,0,0,0,.08.33l-.17,0c-.12.18-.33.1-.5.11l0,0a.42.42,0,0,1-.21-.11l-.35.2.29-.32C20.29,63.53,20.33,63.42,20.34,63.32ZM20,42.94c.21.2.33.43.1.68l-.09.05h0a.51.51,0,0,1-.12.46l-.24.07h0l-.14.07-.33-.48c.13-.07.18-.24.33-.29l0,0h0a1,1,0,0,1,0-.29l.22-.25Zm-2.12-.31a.35.35,0,0,1,.11-.32.3.3,0,0,1,.43.16h1.34l-1.24.28,0,0c0,.09-.06.21-.16.26a.3.3,0,0,1-.18.06h0l0,0L17.85,43C17.88,42.87,17.81,42.74,17.89,42.63Zm0,2.46c.07-.09.2-.09.29-.11l.19.11s.06.21,0,.25a.32.32,0,0,1,0,.17l0,.17h0l-.15,0-.12.09,0,0h0c-.16,0-.23-.13-.31-.22l0-.09a.25.25,0,0,1,0-.19,0,0,0,0,1,0,0L17.69,45Zm-.6,11.66.11-.07a.3.3,0,0,1,0-.39l.15-.09a.38.38,0,0,1,.29.12l0,.17a.76.76,0,0,1-.09.18.33.33,0,0,1,.16.25A.6.6,0,0,1,18,57l-.25.34a.54.54,0,0,1-.47-.31A1.05,1.05,0,0,1,17.26,56.75Zm.15,23,.27.22-.09.4-.12,0,0,0-.29,0-.06-.06.09-.15-.12.13C16.79,80.15,17,79.66,17.41,79.73Zm-.77,20.92-.08-.07c0-.12,0-.25.1-.3S16.88,100.66,16.64,100.65Zm.75,1.57c.37.27-.14.75-.45.49S17.07,102.06,17.39,102.22Zm.41,9.61a.43.43,0,0,1-.23.21.33.33,0,0,1-.49,0l-.07-.23a.75.75,0,0,0,.06-.13l0-.07.24-.3c.17,0,.34,0,.51.19l0,.26,0,0Zm.15-6.74a.25.25,0,0,1-.15.21v0l-.09,0h-.17c-.41-.27.23-.93.45-.48h0A.3.3,0,0,1,18,105.09Zm-.19-1.21h0a.31.31,0,0,1-.26-.54v-.09c.27-.19.74-.22.64.26A.35.35,0,0,1,17.76,103.88Zm.34-3.12-.07.09a1.18,1.18,0,0,1-.27.06l-.27-.19.07-.38.11,0,0,0,.27,0,.07,0-.09.16.11-.14A.32.32,0,0,1,18.1,100.76Zm-.19-1.71h0c-.11-.16,0-.36.26-.32S18.13,99.26,17.91,99.05Zm1-.43a.36.36,0,0,1-.58,0,.74.74,0,0,1,0-.26.48.48,0,0,1,.55-.15A.38.38,0,0,1,18.94,98.62Zm.19-2-.1,0a.43.43,0,0,1-.7,0,1.62,1.62,0,0,1,0-.22h0V96.4h0a1,1,0,0,1,0-.38,1.44,1.44,0,0,0,.25-.18,1.18,1.18,0,0,1,.27,0l0,0H19a1,1,0,0,1,.1.11h.05a.5.5,0,0,1,0,.57S19.14,96.63,19.13,96.66Zm.13,7.45c-.05-.11,0-.21.13-.27h0C19.88,103.65,19.58,104.63,19.26,104.11Zm.67,4.34c-.3.21-.49,0-.55-.31l0-.06v0a.38.38,0,0,1,.59,0l0,.27ZM20,106.2c-.3.08-.41-.42-.1-.44S20.17,106.09,20,106.2Zm1-1.75a.43.43,0,0,1-.73.23C19.8,104,20.89,103.68,21,104.45Zm.1,8c-.44.54-1.09-.44-.41-.53C21.05,111.92,21.11,112.13,21.07,112.46ZM22.38,110h0a.52.52,0,0,1-.56.18,3.2,3.2,0,0,1-.24.26l-.24.07c-.22-.09-.49-.31-.37-.58l0-.14.15-.09a.5.5,0,0,1,.3-.19,1.17,1.17,0,0,1,.2.06.48.48,0,0,1,.8-.06,2.91,2.91,0,0,1,0,.31v0Zm.73,1.08c-.19.16-.42.21-.58,0l-.05-.25a.36.36,0,0,1,.65-.11.79.79,0,0,1,0,.34Zm.16-3.38a.42.42,0,0,1-.09-.39l0-.06a.57.57,0,0,1,.13-.21v0l.33-.17.32.23,0,.3,0,0v0a.74.74,0,0,1-.38.38l-.26,0Zm.82,4a.33.33,0,0,1-.23.18v0a.57.57,0,0,0-.26,0l0,0h0a.38.38,0,0,1,0-.6l0-.54.17.45A.38.38,0,0,1,24.09,111.76Zm.22-10h0a.35.35,0,0,1-.31,0l.08-.16-.09.16c-.1,0-.16-.18-.2-.26.05-.38.44-.36.66-.19v.4Zm-.16-15.63s-.12-.18-.13-.21c0-.5.62-.84.9-.35l.09,0a2.29,2.29,0,0,1,.12.37.76.76,0,0,1-.58.3C24.43,86.18,24.31,86.21,24.15,86.09Zm.43,10.54,0-.22a1.21,1.21,0,0,1,.44-.27A.41.41,0,0,1,25,97a.77.77,0,0,1-.36-.22Zm.66,9.25c.29.29-.17.76-.44.48h0C24.39,106.1,24.84,105.55,25.24,105.88Zm.3,1.36h0l-.18.18h0c-.37.23-.68,0-.67-.41a1.43,1.43,0,0,1,.07-.28.58.58,0,0,1,.65-.17.69.69,0,0,1,.21.3l.05,0Zm.16-6.83a.25.25,0,0,1,.49,0A.25.25,0,0,1,25.7,100.41Zm.7,6.72s-.12-.1,0-.09V107c.12,0,.21.23,0,.24Zm.67,3.39a1.52,1.52,0,0,1-.32.3c-.13-.06-.29-.14-.32-.29a.41.41,0,0,1,.13-.37l.23-.07A.33.33,0,0,1,27.07,110.52ZM28,111.7h0l0,0-.16.09a.51.51,0,0,1-.4-.16l0-.26.17-.23.27,0C28,111.28,28.17,111.47,28,111.7Zm.21-15.77c-.11-.18.13-.4.24-.18S28.34,96.14,28.23,95.93Zm.23,5.43.05-.13c.24-.23.69,0,.55.33,0,.14-.42.2-.55,0Zm.28,5.6h0c-.25-.42.52-.53.57-.12h0A.28.28,0,0,1,28.74,107Zm.76-2.87a.35.35,0,0,1,.31.56C29.3,105.28,28.59,104.22,29.5,104.09Zm1,3.63a.34.34,0,0,1-.18.27l0,0-.1.06H30c-.52-.32.26-1.17.55-.62A.34.34,0,0,1,30.52,107.72Zm-.25-7.61c-.15-.19,0-.45.31-.4S30.55,100.38,30.27,100.11ZM31,93.45a.29.29,0,0,1,0-.24l.16,0a1.06,1.06,0,0,1,.15.15l0,.14C31.2,93.67,31.08,93.59,31,93.45Zm.19,4.45-.06-.12C31.33,97,31.87,98,31.2,97.9Zm.9,8.42a.23.23,0,0,1,.19-.22h0c.19-.17.37.09.33.3A.27.27,0,0,1,32.1,106.32Zm.67,2.37c.11-.36.52-.07.5.13C33.23,109.25,32.69,109,32.77,108.69Zm.86-2.48c.07-.23.31-.15.41,0v.23C33.92,106.51,33.59,106.48,33.63,106.21Zm-.31-1.54a.54.54,0,0,1,0-.88C34.31,103.39,34.36,105.2,33.32,104.67Zm.93-1.54-.08-.07c0-.09,0-.13,0-.19l.1-.07c.09,0,.14.1.2.15S34.38,103.13,34.25,103.13Zm.45-4.37c0,.1-.1.14-.16.2s-.14-.1-.2-.15c0-.2.34-.25.36,0ZM35.54,109l-.08.07c-.24,0-.22-.36,0-.33l.07.06A.26.26,0,0,1,35.54,109Zm.32,1.78a.43.43,0,1,1,.84-.21C36.81,111.1,36,111.27,35.86,110.8Zm.78-7.91,0,0,0-.16a.21.21,0,0,1,.32-.07l0,.2s0,0,0,0v.09C36.81,103,36.68,102.92,36.64,102.89Zm.33-2.37c-.11-.41.64-.71.65-.16h0C37.75,100.76,37.08,100.94,37,100.52Zm1,8.42c-.4.2-.71-.24-.61-.59C37.59,107.78,38.59,108.46,37.94,108.94Zm.19-14.24h-.3a.21.21,0,0,1,0-.2h0C37.94,94.11,38.48,94.25,38.13,94.7ZM41,107.39c-.15.15-.26.11-.39.14l-.18-.14c0-.16.18-.19.27-.32h.21l.1.14h0Zm.22,2.7V110s0,0,0,0-.1-.12,0-.12v-.09C41.31,109.77,41.43,110.07,41.23,110.09Zm.17-3a.3.3,0,0,1-.21-.32h0c-.11-.29.27-.47.48-.28A.33.33,0,0,1,41.4,107.14ZM42.79,112c-.57.18-1-.63-.47-.94C43,110.54,43.79,111.61,42.79,112Zm.7-2.43c-.73-.28-.14-1.19.54-.79C44.5,109.1,44,109.74,43.49,109.53ZM46.21,113a.32.32,0,0,1-.57-.23c0-.19.07-.33.36-.3h0C46.31,112.39,46.37,112.78,46.21,113Zm.58-7.65c.62-1.12,1.75.64.56.83A.63.63,0,0,1,46.79,105.35ZM47.9,111a.36.36,0,0,1-.45.55A.36.36,0,0,1,47.9,111Zm.08,2.8a.48.48,0,1,1,.14-1A.48.48,0,0,1,48,113.84Zm.62-20.56c-.35.24-.47-.22-.27-.4l.19,0c0,.07.06.15.1.22Zm1.29,16.55.15,0c.1.07.1.19.14.28a.24.24,0,0,1-.36.07l-.06-.11C49.78,109.91,49.84,109.89,49.89,109.83Zm0,2.14c-.43-.58.28-1.29.77-.55A.49.49,0,0,1,49.93,112Zm1.6-10.09,0,.08c-.15.09-.25,0-.29-.09h0l0,0v-.18a.22.22,0,0,1,.36,0l0,.21Zm.85,3.7c-.09-.06-.1-.18-.15-.27s.38-.14.45,0S52.5,105.55,52.38,105.58Zm.58-2.79c0,.38-.58.47-.74.11-.22-.57.91-.8.73-.11Zm2.3-8.94-.18,0h.05L55,93.74C54.8,93.17,56,93.34,55.26,93.85Zm-.56,13.46c0-.59.88-.18.65.26s-.8.14-.63-.25Zm-1.05-1.59a.39.39,0,0,1-.31,0l-.12-.14a.25.25,0,0,1,.26-.26.27.27,0,0,1,.27.34Zm.66,7.14c-.46-.66.52-1.29,1.1-.59h0C55.8,113,54.7,113.44,54.31,112.86Zm36.82-7.37a.28.28,0,0,1,0,.42l-.12-.14s0,0,0,0-.09-.18-.14-.27,0,0,0,0l-.12-.14C90.85,105.29,91,105.36,91.13,105.49Zm-12.35,5.79h0c.31.14,0,.54-.24.48S78.52,111.21,78.78,111.28ZM55.89,99.8l.18-.12.15.07h0a.31.31,0,0,0,.1,0l.1.16C56.29,100.43,55.84,100.11,55.89,99.8Zm.52,7c-.13-.43.53-.58.61-.19A.32.32,0,0,1,56.41,106.76Zm.41,4.93,0,.17c-.28,0-.36-.58,0-.55l0,.17s0,0,.06,0S57,111.74,56.82,111.69Zm0-.61-.15-.21v-.17a.5.5,0,0,1,.42-.27C57.76,110.43,57.46,111.42,56.81,111.08Zm.67-11.17a.63.63,0,0,1,0-.09h0l0-.19.22.29Zm.85,5.48-.13-.11c-.14-.41.39-.7.45-.21A.3.3,0,0,1,58.33,105.39ZM58.25,102s-.07-.17-.07-.22l.08-.22.13-.1C59.17,101.3,58.89,102.65,58.25,102Zm2.38-5.47-.05-.06a.37.37,0,0,1-.07-.21l.05-.16c.31-.2.55.32.21.45Zm.73,10.8c.93-.15.85,1.47-.07,1.25A.65.65,0,0,1,61.36,107.28Zm.25,3.52c-.38-.31,0-.83.48-.5C62.4,110.62,61.93,111.06,61.61,110.8Zm1.76-11c.67-.62.62.68,0,.19h0l0,0Zm.35,4.3c.23.16,0,.55-.27.43S63.49,103.93,63.72,104.05Zm.15,8.42c-1-1,.92-1.88,1.07-.42A.72.72,0,0,1,63.87,112.47Zm2.35-17a.33.33,0,0,1,.14-.44l.19.08a2.38,2.38,0,0,1,0,.26l-.08.16A.23.23,0,0,1,66.22,95.52ZM66.69,106c-.61-.35.23-1.38.57-.63h0C67.55,105.66,67.1,106.15,66.69,106Zm.27,7.47c-.08-.1,0-.23-.07-.33C67.31,112.74,67.61,113.6,67,113.42Zm.36-6.79a.47.47,0,0,1,.82-.29.35.35,0,0,1,0,.4h0C68,107.14,67.39,107.05,67.32,106.63Zm1,1.87-.22.13c-.15-.08-.13-.22-.15-.32a0,0,0,0,0,0,0l-.19-.22h0c.18-.27.35-.09.5,0l.07.24A.12.12,0,0,0,68.33,108.5Zm.9-9.08a.23.23,0,0,1-.11,0L69,99.19l.41.1Zm1.37,12.75h0a.36.36,0,0,1,.45-.55A.36.36,0,0,1,70.6,112.17Zm3.05.74h0l0,.18a.24.24,0,0,1-.2-.3.28.28,0,0,1,.3-.27l0,.19a.07.07,0,0,1,.06,0C73.74,112.82,73.66,112.82,73.65,112.91Zm.21-6.85a.4.4,0,0,1-.79-.06.4.4,0,0,1,.79.06Zm-.18-.9c-.05-.1,0-.23.06-.31l.14.37Zm2.18,0c-.16-.05-.19-.16-.24-.24l-.1-.22c.2-.33.57.08.53.32Zm2.23-6.41c.14.3-.26.63-.42.27S77.92,98.38,78.09,98.74Zm-.42,8.89.15-.24.42,0,.13.24c-.08.23,0,.54-.21.68l-.22,0C77.76,108,77.82,107.89,77.67,107.63Zm.55,5.83c-.53-.55.31-1.32,1-1C79.91,113.08,78.82,114,78.22,113.46Zm.6-4a.45.45,0,0,1,.85,0A.43.43,0,1,1,78.82,109.42Zm1.62-3.63c0-.34.67-.6.84-.16S80.46,106.41,80.44,105.79Zm2.84,3.87h0a.44.44,0,0,1,.13-.65C84.37,108.8,84.05,110.33,83.28,109.66Zm1.4-11.37-.14.15a.51.51,0,0,1-.39-.11l-.09,0L84,98c.15-.12.31,0,.49-.09l.2.16Zm.75,1.3,0-.17s0,0-.06,0,.07-.17.1-.26a0,0,0,0,1,0,0l0-.16c.14,0,.2.17.18.32S85.59,99.61,85.43,99.59Zm.89,7.82c.26-.28.45.11.61.25a.27.27,0,0,1-.1.17h0C86.58,108,86.17,107.71,86.32,107.41Zm.34,4-.13-.11a.47.47,0,0,1,.06-.31l.17-.11c.14,0,.21.18.3.27A.32.32,0,0,1,86.66,111.37Zm.62-7c0-.28.39-.35.56-.17h0c.11.21-.12.33-.26.43S87.37,104.46,87.28,104.37Zm.58,3.31a.45.45,0,0,1,.11-.89A.45.45,0,0,1,87.86,107.68ZM89,109.89c-.17-.35.22-.65.56-.54h0C90.37,109.68,89.38,110.58,89,109.89Zm2.06,3.74a.72.72,0,0,1-.29.24h0l-.07.06c-.78.4-1.15-1-.31-1.2C91,111.64,92.29,113.29,91.08,113.63Zm1.88-13-.24.17c-.17-.06-.41-.34-.16-.55S93,100.37,93,100.6Zm.27-7.52-.16-.15c0-.28.15-.41.4-.37l.1.26,0-.06a.41.41,0,0,1,0,.23l-.25.14A.16.16,0,0,0,93.23,93.08Zm.58,10-.1.17c.13,0,.12.36,0,.25l-.09.18c-.29-.16-.14-.79.22-.6Zm4.77-2.43a.26.26,0,0,1,.22,0,.31.31,0,0,1,.11.25l-.2.16h0l-.09.07c-.23,0-.19-.25-.2-.35Zm-1.12,5.08c.26-.15.39-.08.65-.2l.21.16,0,.4-.24.1c-.21-.09-.51,0-.62-.26Zm.15,3.67a.42.42,0,0,1,0-.68l0,0C98.47,108,98.53,110,97.61,109.44Zm.65,1.57h0c0-.41.43-.29.66-.31C99.23,111.1,98.44,111.47,98.26,111Zm3.56.94,0-.19c.06-.19.16-.22.25-.3l.23,0C102.65,111.69,102.19,112.29,101.82,112Zm.25-1.94c.19-.39.84-.41.9.08C103.07,110.85,101.72,110.8,102.07,110Zm3-3.7s.07-.2.09-.25h0l.25-.15h.2C106.45,106.4,105.16,107.47,105.08,106.31Zm1-5.84c-.24.1-.39.42-.68.32l-.13-.2c.07-.32.23-.38.32-.68l.29-.06.29.34Zm.57,12.36-.17.17-.2,0-.13-.15c0-.25.12-.3.2-.44l.26,0C106.67,112.51,106.58,112.65,106.61,112.83Zm1-8c-.07,0-.09,0-.11.08l-.28,0c-.14-.15-.06-.3,0-.41l0,0-.11-.32a.27.27,0,0,1,.31,0c.12.06.16.2.22.3Zm.77-8.53-.14-.19a.11.11,0,0,0,.05,0l-.12-.18C108.44,95.34,109.41,96.38,108.38,96.34Zm3.2,6.22.17-.11c.44,0,.29.73-.14.59l-.12-.13h0A.53.53,0,0,1,111.58,102.56Zm0,9-.1.2s0,0,0,0-.12.08-.17.17,0,0,0,0l-.1.19a.28.28,0,0,1-.09-.41.32.32,0,0,1,.44-.17Zm-.14-3.23,0,0-.25,0c-.2-.29-.13-.47-.3-.77l.17-.27.49,0,.15.28a.38.38,0,0,0,0,.26.86.86,0,0,1,0,.23C112.65,108,111.82,109.18,111.49,108.34Zm.36,4.69.13-.26c.12,0,.23,0,.36,0l.21.11C112.73,113.46,112,113.41,111.85,113Zm1.53-5.1a.47.47,0,0,1-.54-.77A.47.47,0,0,1,113.38,107.93Zm4-3.49h0l-.26.06c-.21-.18-.15-.4-.17-.63C117.27,103.59,117.49,104.19,117.34,104.44Zm0-6.21.17-.24c.11,0,.17.09.24.16a1,1,0,0,0,.18.16v.27l-.17.14h-.22C117.3,98.54,117.35,98.4,117.3,98.23Zm.68,8.19-.19.1h0c-.53-.18-.13-.67.22-.59l.12.22C118.09,106.25,118,106.32,118,106.42Zm.3-9.73c.18-.14.35,0,.57-.1l.22.19V97l-.17.17a.59.59,0,0,1-.45-.14l-.1-.06Zm.3,14.44c-.48-.5,0-1.2.62-.79S119.05,111.35,118.58,111.13Zm8.88.25c.12,0,.29-.07.35.07.12-.09.34,0,.46,0h0l0,.05h0c1.1.65-.74,1.83-.83.42A.38.38,0,0,1,127.46,111.38Zm-2-.2.23,0a.29.29,0,0,1,0,.46l-.27,0s0,0,0,0l-.12,0C125.21,111.37,125.4,111.26,125.47,111.18Zm-1.61.74c.87.67-.49,1.46-.66.52A.5.5,0,0,1,123.86,111.92Z"></path><path class="cls-2" d="M91,105.61l.12-.12-.13.11A0,0,0,0,1,91,105.61Z"></path><polygon class="cls-2" points="111.38 111.84 111.2 111.74 111.38 111.84 111.38 111.84"></polygon><polygon class="cls-2" points="85.55 99.32 85.7 99.33 85.55 99.31 85.55 99.32"></polygon><path class="cls-2" d="M29.45,102.4h0Z"></path><polygon class="cls-3" points="96.18 104 95.99 103.9 96.18 104 96.18 104"></polygon><path class="cls-3" d="M75.64,98.35l.11-.12-.13.11Z"></path><path class="cls-3" d="M22,94.42a.27.27,0,0,1,.08.21h0a.29.29,0,0,1-.09.31v11h5a.48.48,0,0,1,.06-.8c.59-.45,1.32.36.71.8h7.06l-.14-.07c-.44-.57.25-1.29.75-.57a.47.47,0,0,1-.28.64h4a.68.68,0,0,1,1,0h8.51c-.93-1,.91-1.85,1.1-.41a.58.58,0,0,1-.3.41h8.81a.24.24,0,0,1,.27-.2l0,.19H63a.79.79,0,0,1,1.06-.37.54.54,0,0,1,.23.37H74.79a.57.57,0,0,1,.43-.47c.45-.84,1.32-.09,1.18.47h1.71a.58.58,0,0,1,.73-.16.76.76,0,0,1,.28.16H94.45a.66.66,0,0,1,1-.43.78.78,0,0,1,.56,0,.71.71,0,0,1,.25.38h13.39a.66.66,0,0,1,.52-.59c.54-1,1.56-.06,1.32.59h1.93c.15-.21.43-.31.87-.17a1.15,1.15,0,0,1,.28.17h1.72V47.57H22ZM114.35,94c.05-.16.14-.16.21-.25v0l.08-.17c.14.07.17.24.08.42s-.25.28-.41.18l.09-.17S114.37,94,114.35,94Zm-1-11.67.11.3a.31.31,0,0,0,0-.07.47.47,0,0,1,.06.26l-.29.16a.18.18,0,0,0-.13,0l-.19-.18A.37.37,0,0,1,113.37,82.3Zm-.56,8.75c.17.16.09.27.1.43l-.27.2C112.18,91.59,112.29,90.78,112.81,91.05Zm-.52,2.06a.34.34,0,0,1,.57,0l-.13.27s0-.06,0-.06a.57.57,0,0,1-.14.21l-.29-.09c0-.07,0-.09,0-.13Zm-.05,10c.12,0,.28-.07.35.06.11-.09.34,0,.46,0h0l.06,0h0c1.12.62-.69,1.85-.82.44A.38.38,0,0,1,112.24,103.08Zm-1-5.37s.07.33-.06.24l-.07.19c-.32-.11-.26-.77.13-.64l-.07.19A.07.07,0,0,1,111.22,97.71Zm0-2.65-.1.28h0c-.13.07-.31-.06-.42-.1Zm-1,7.88.23,0a.29.29,0,0,1,0,.46l-.27,0s0,0,0,0h-.11C110,103.14,110.17,103,110.24,102.94Zm-13.86,1c0,.12-.13.08-.17.17l0,0-.1.2a.3.3,0,0,1-.1-.42c.09-.15.26-.27.43-.17h0l-.1.2S96.36,103.94,96.38,104Zm12.27-.24c.89.65-.44,1.48-.64.54A.49.49,0,0,1,108.65,103.73Zm-1.1-5c.54.41-.15,1.17-.58.77S107.11,98.35,107.55,98.75Zm-1-.23h0l-.12.1-.3-.06C105.83,97.87,107,97.93,106.56,98.52ZM104,102.28c.5.45-.12,1-.6.8C102.86,102.6,103.37,101.89,104,102.28Zm-.75-13.73.23.18V89l-.16.17a.64.64,0,0,1-.46-.12l-.1-.06-.07-.31C102.81,88.52,103,88.61,103.2,88.55Zm-.44,9.57c0,.1-.1.18-.14.28l-.19.1h0c-.53-.17-.14-.66.2-.6ZM101.87,90a.33.33,0,0,1,.24.15l.18.15,0,.27-.17.15h-.22c-.21-.18-.17-.31-.23-.48Zm.06,6.44h0l-.27.07c-.21-.17-.15-.4-.18-.62C101.82,95.59,102.06,96.18,101.93,96.43Zm-4.42,2.85a.47.47,0,0,1,.56.76A.47.47,0,0,1,97.51,99.28ZM97.38,105c.19.61-.53.58-.7.21l.12-.27c.12,0,.23,0,.36,0ZM96.11,94.73l.17-.13a.31.31,0,1,1-.12.6L96,95.08h0A.48.48,0,0,1,96.11,94.73Zm-.38,4.75h.49l.15.27a.46.46,0,0,0,0,.26.92.92,0,0,1,0,.24c1-.13.21,1.07-.14.24l0,0-.25,0c-.21-.29-.15-.46-.32-.76ZM82.34,102a.42.42,0,0,1,0-.68v0C83.16,100.57,83.27,102.51,82.34,102Zm7.38-3.33c0-.06.06-.21.09-.26h0l.24-.16h.2C91.09,98.71,89.84,99.81,89.72,98.66Zm3-10.07-.14-.18a.11.11,0,0,0,0,0l-.12-.18C92.77,87.6,93.77,88.6,92.73,88.59Zm-.73,8c.11.06.16.2.22.29v.3c-.07,0-.09,0-.11.09l-.28,0c-.14-.14-.07-.29,0-.41a.09.09,0,0,0,0,0l-.11-.31A.26.26,0,0,1,92,96.55Zm-.88,8.14.26,0c.11.16,0,.3.06.47l-.17.18-.2,0-.13-.14C90.93,104.89,91,104.83,91.12,104.69ZM90,92.24l.29-.06.3.33-.09.28c-.23.1-.37.43-.67.34l-.13-.2C89.77,92.61,89.92,92.54,90,92.24Zm-3.19,10.2c.18-.39.83-.43.9,0C87.84,103.25,86.49,103.24,86.82,102.44Zm0,1.45.23,0c.41.25,0,.86-.42.53l-.05-.18C86.62,104,86.72,104,86.81,103.89ZM83,103.55h0c-.05-.42.42-.3.65-.33C84,103.61,83.23,104,83,103.55Zm0-10.33a.33.33,0,0,1,.22,0,.37.37,0,0,1,.11.25l-.2.17h0l-.08.07c-.23,0-.2-.25-.21-.35Zm-1,5.11c.25-.15.39-.09.64-.21l.22.15,0,.4-.24.11c-.21-.09-.51,0-.63-.24Zm-3.73-2.54h0l-.09.17c.13,0,.13.36,0,.25l-.09.18C77.87,96.24,78,95.61,78.36,95.79Zm-.63-10.55.1.26,0-.06a.46.46,0,0,1,.06.23l-.25.14a.19.19,0,0,0-.12,0l-.17-.15A.33.33,0,0,1,77.73,85.24ZM77,92.93c.29-.2.48.13.41.36l-.23.18C77,93.41,76.79,93.14,77,92.93Zm-1.28,5.3a.29.29,0,0,1,0,.42l-.13-.14a.08.08,0,0,1-.05,0c-.12-.1-.09-.18-.14-.27s0,0,0,0l-.12-.14C75.47,98,75.64,98.1,75.75,98.23Zm-1.44,3.91h0c.8.3-.16,1.23-.54.55C73.59,102.34,74,102,74.31,102.14Zm-1.76-1.63a.45.45,0,0,1,.08-.89A.45.45,0,0,1,72.55,100.51ZM72.42,97h0c.13.21-.1.34-.24.44s-.21-.16-.31-.25C71.86,97,72.25,96.86,72.42,97ZM71.84,104c0,.2-.19.3-.39.28l-.13-.11a.42.42,0,0,1,.05-.31l.17-.12C71.68,103.73,71.76,103.87,71.84,104ZM71,100.28c.25-.28.45.1.61.24a.22.22,0,0,1-.09.17h0A.35.35,0,0,1,71,100.28Zm-1.06-8.22h0l0-.16c.14,0,.21.17.19.31a.27.27,0,0,1-.27.28l0-.17s0,0-.06,0S69.91,92.15,69.94,92.06Zm-1-1.22.21.16v.21l-.14.16a.48.48,0,0,1-.4-.1l-.09,0L68.41,91C68.56,90.82,68.72,90.9,68.9,90.84ZM68.13,102c1-.24.69,1.3-.1.66h0A.45.45,0,0,1,68.13,102Zm-2.21-3.32c.17.58-.8.8-.84.18C65,98.49,65.73,98.22,65.92,98.65Zm-1.51,3.89a.43.43,0,1,1-.85,0A.45.45,0,0,1,64.41,102.54Zm-.83,1.83h0c.31.14,0,.54-.24.48S63.31,104.31,63.58,104.37Zm-.52-3.62c-.07.23.07.54-.19.69l-.22,0c-.19-.25-.14-.4-.29-.66l.14-.24h.42Zm-.54-8.89c.16.29-.23.63-.41.27S62.35,91.5,62.52,91.86Zm-1.86,6.32-.19.14c-.15,0-.18-.14-.24-.22l-.1-.22C60.32,97.54,60.69,97.94,60.66,98.18Zm-2.3-.09.15.36-.21-.06C58.25,98.3,58.33,98.17,58.36,98.09Zm.15,1.2h0a.4.4,0,0,1-.79,0A.4.4,0,0,1,58.51,99.29Zm-2.65,5.64a.36.36,0,0,1-.44.56h0A.36.36,0,0,1,55.86,104.93Zm-2-12.28-.17.14a.23.23,0,0,1-.11-.05l-.13-.18Zm-.76,9.14a.12.12,0,0,0-.05.1l-.21.13c-.16-.07-.15-.21-.17-.31a0,0,0,0,0,0,0l-.19-.21h0c.17-.28.35-.1.5,0Zm-.31-2.05c.1.09.06.3,0,.4h0c-.1.4-.73.33-.8-.09A.46.46,0,0,1,52.79,99.74Zm-.9-1h0c.29.33-.15.83-.57.65C50.71,99.06,51.53,98,51.89,98.74ZM50.7,88.54l.19.07a2.21,2.21,0,0,1,0,.25l-.07.16a.23.23,0,0,1-.3,0A.31.31,0,0,1,50.7,88.54ZM37,99.42c-.09-.06-.11-.18-.15-.26s.37-.15.44,0S37.14,99.39,37,99.42Zm4.61,6v.17c-.29,0-.38-.58,0-.55l0,.17s0,0,.07,0S41.77,105.45,41.63,105.41ZM43,99.07,42.83,99c-.16-.4.37-.71.45-.21A.32.32,0,0,1,43,99.07ZM48.05,98c-.22-.16,0-.55.27-.44S48.29,98.13,48.05,98Zm-.21-4.73c.65-.64.64.67,0,.19h0v-.19Zm-1.45,11.1c-.39-.3,0-.84.48-.51C47.18,104.18,46.73,104.63,46.39,104.38Zm-.34-3.51c.92-.18.89,1.44,0,1.25A.64.64,0,0,1,46.05,100.87ZM44.92,89.66a.25.25,0,1,1,.23.45l-.14,0L45,90a.57.57,0,0,1-.07-.21Zm-2.14,5.53.13-.1c.78-.13.54,1.22-.13.54,0,0-.06-.17-.08-.22Zm-.86-1.67v-.19l.23.28H42a.19.19,0,0,1,0-.1Zm-.31,11.27-.16-.2v-.17a.47.47,0,0,1,.4-.28C42.53,104.12,42.26,105.12,41.61,104.79Zm.08-4.51a.32.32,0,0,1-.61.21C40.94,100.06,41.6,99.89,41.69,100.28Zm-1.15-6.85a.39.39,0,0,1,.15.06h0l.11,0,.1.16c-.12.48-.58.17-.54-.14Zm-.49,7.9c-.15.39-.8.16-.64-.24h0C39.41,100.49,40.26,100.88,40.05,101.33Zm-.48-13.72-.18,0h0l-.16,0C39.08,87,40.24,87.09,39.57,87.61ZM38.11,99.08a.28.28,0,0,1,.29.34l-.11.11a.46.46,0,0,1-.31,0l-.12-.14A.26.26,0,0,1,38.11,99.08Zm-.6-2.46h0c0,.38-.56.48-.74.13C36.55,96.19,37.67,95.92,37.51,96.62Zm-1.43-1.07,0,.21h0l0,.09a.21.21,0,0,1-.28-.1h0l0,0v-.17A.22.22,0,0,1,36.08,95.55Zm-3.81,10a.35.35,0,0,1,.43-.56A.35.35,0,0,1,32.27,105.57Zm.26-2.52c-.61-.18.21-1.12.27-.21l-.15.14,0,0Zm2.12.69.15,0c.1.06.11.18.15.27a.25.25,0,0,1-.36.09l-.06-.11A.35.35,0,0,1,34.65,103.74Zm-2-16.9.19,0a2.12,2.12,0,0,1,.11.21l0,.16C32.55,87.49,32.42,87,32.61,86.84ZM32,100.16c-.38,0-.75-.42-.58-.8C32,98.21,33.19,99.94,32,100.16Zm.19-1.65c0,.46-.8.35-.66-.11C31.61,98.15,32.18,98.15,32.2,98.51ZM31.34,92l0-.15C31.76,91.05,32,92.32,31.34,92Zm.34.72c0,.25-.35.38-.38.08S31.65,92.38,31.68,92.69Zm-3.43,10.94c-.74-.26-.18-1.19.51-.81C29.25,103.16,28.75,103.82,28.25,103.63Zm.11-10.41a.4.4,0,0,1,.15.11l-.08.23c-.05,0-.07,0-.1,0h-.18l0,0a.27.27,0,0,1,.08-.42l.21.12Zm-.27-3.51-.13,0-.07,0a.34.34,0,0,1-.12-.16v-.16C28,89.1,28.35,89.49,28.09,89.71Zm-.78,5.14.09-.13c.66-.32.8,1,0,.51h0c-.05,0-.1-.13-.13-.16Zm-5.07,4.66.15,0c.13.17-.05.48-.21.55l-.1-.13A1.88,1.88,0,0,0,22.24,99.51ZM26,104.25v-.1s0,0,0,0-.1-.12,0-.11V104C26.08,103.92,26.2,104.22,26,104.25Zm.66-7.65c.23.32-.28.63-.46.34S26.47,96.29,26.66,96.6Zm-.33,4.09a.33.33,0,0,1-.24.6.28.28,0,0,1-.22-.31h0C25.73,100.7,26.11,100.51,26.33,100.69Zm-.72.56.11.13h0v.18c-.15.15-.26.12-.39.15l-.18-.14c0-.16.17-.19.26-.32Zm-.36-10.43-.17.05A.19.19,0,0,1,25,90.8h0L25,90.64Zm-2.57,12.37c-.39.22-.71-.22-.63-.57C22.3,102.05,23.32,102.7,22.68,103.19Zm-.57-14.44c.15-.38.69-.26.35.2h-.29a.18.18,0,0,1-.06-.19Z"></path><polygon class="cls-3" points="70 92.22 70.15 92.22 70 92.21 70 92.22"></polygon><polygon class="cls-4" points="65.13 51.36 64.97 51.37 65.13 51.37 65.13 51.36"></polygon><path class="cls-4" d="M59.13,45.58l-.11.13.12-.12A0,0,0,0,0,59.13,45.58Z"></path><path class="cls-4" d="M108.13,44.37a.25.25,0,0,1,.08-.41V40.27a.33.33,0,0,1,0-.59v-7.4h-29a.51.51,0,0,1,.13.39c-.17.73-1,.19-.84-.35l0,0H74.47a.34.34,0,0,1-.19.42.44.44,0,0,1-.57-.42H69.86a.61.61,0,0,1-.19.2c1.43.2-.08,2.23-.75,1a.71.71,0,0,1,.32-.8.46.46,0,0,1-.41-.37H30.13V37c.27-.34,1.06-.39.84.36h0a.41.41,0,0,1-.47.23v0a.65.65,0,0,1-.24,0l-.12-.13v56.4h78.08V44.45A.2.2,0,0,1,108.13,44.37ZM63,39.45l.14.1a.53.53,0,0,1,0,.32L62.9,40c-.15,0-.23-.16-.32-.24A.32.32,0,0,1,63,39.45ZM51.13,36.78a.62.62,0,0,1,.2-.12c-.07-.27.24-.46.46-.48s.5.61.13.75c.24,1-1.42.54-.79-.15ZM38.24,34.64h0c1-.54,1,1.45-.11.76A.43.43,0,0,1,38.24,34.64ZM33,49.08h0l.26-.08c.23.16.18.39.22.61C33.16,49.92,32.88,49.34,33,49.08ZM30.73,36.61a.4.4,0,0,1,.1-.6l.22,0C31.52,36.36,31.17,37.08,30.73,36.61Zm-.1,6.76c-.53-.42.06-1,.55-.84C31.7,43,31.24,43.72,30.63,43.37ZM32.2,57,32,56.86v-.24l.15-.19a.61.61,0,0,1,.46.1l.1,0,.09.3C32.6,57,32.41,57,32.2,57Zm-.13-9.58c0-.11.09-.19.12-.29l.19-.11h0c.53.13.18.65-.17.61Zm-.15-11.59a.49.49,0,1,1,1,.08A.49.49,0,0,1,31.92,35.86Zm1.53,19.66a.44.44,0,0,1-.25-.14.72.72,0,0,0-.19-.14L33,55l.15-.16.22,0c.23.17.2.31.26.47ZM37.24,46a.47.47,0,0,1-.6-.73A.47.47,0,0,1,37.24,46Zm.37-5.67c-.12,0-.23,0-.35.07l-.23-.1c-.23-.59.49-.6.69-.24Zm0-3.35c-.73.71-1.73-.4-1-1.26C37.37,35.07,38.21,36.35,37.56,37Zm1.35,13.48-.16.13c-.44,0-.35-.71.09-.61l.13.12h0A.48.48,0,0,1,38.91,50.44ZM39,45.67l-.48,0-.17-.26a.42.42,0,0,0,0-.27,1,1,0,0,1,0-.24c-1,.2-.27-1.05.13-.24a.1.1,0,0,1,0,0l.26,0c.22.28.17.45.36.74Zm-.91-4.44c0-.12.12-.09.16-.18a0,0,0,0,1,0,0l.09-.2a.28.28,0,0,1,.12.41.32.32,0,0,1-.41.2h0l.09-.21S38.11,41.26,38.09,41.23Zm.83-1.61a.77.77,0,0,1-.56,0c-.7-.49-.11-1.61.67-1.17a.73.73,0,0,1,.39,0v0C40.43,38.56,39.76,40.1,38.92,39.62Zm3.74,16.73.15.18s0,0-.05,0l.12.16C42.68,57.35,41.62,56.41,42.66,56.35Zm.25-8h0c-.12-.06-.17-.19-.24-.28v-.3c.06,0,.08,0,.1-.1l.28-.07c.15.14.09.29.07.41s0,0,0,0l.13.3A.27.27,0,0,1,42.91,48.37Zm.38-8.18-.26.05c-.11-.14,0-.29-.08-.46l.15-.19h.2l.15.13C43.47,40,43.36,40.05,43.29,40.19Zm.09-1.81c-.77-.18-.41-1.43.31-1.1C44.12,37.79,43.9,38.34,43.38,38.38Zm1.67,7.74c0,.06,0,.22-.07.27h0l-.23.17h-.2C43.68,46.16,44.87,45,45.05,46.12Zm.1,6.43-.28.08-.32-.32.07-.28c.22-.12.35-.45.64-.37l.15.18C45.37,52.16,45.22,52.24,45.15,52.55Zm1.13-14c-1.26.73-1.79-1.26-.35-1.37A.81.81,0,0,1,46.28,38.52Zm1.44,3.65c-.16.41-.8.49-.9,0C46.66,41.42,48,41.36,47.72,42.17Zm-.08-1.44-.22.05a.34.34,0,1,1,.38-.55l.07.17C47.82,40.61,47.72,40.64,47.64,40.73Zm3.16.48c-.35-.37.41-.81.63-.37h0C51.5,41.25,51,41.17,50.8,41.21Zm1.42,1.14a.42.42,0,0,1,0,.68v0C51.49,43.82,51.25,41.89,52.22,42.35Zm-.2,8.8a.28.28,0,0,1-.22,0,.32.32,0,0,1-.13-.24l.19-.18h0l.08-.08c.23,0,.21.24.23.34ZM52.69,46c-.24.17-.38.12-.63.25l-.22-.14v-.4l.23-.12c.22.08.51,0,.64.2Zm1.37-12.44c-.62-.51.13-1.27.62-.72A.51.51,0,0,1,54.06,33.55ZM54.39,37l0-.33a2.88,2.88,0,0,0,.7-.5l.29.12C55.37,36.7,54.74,37.05,54.39,37Zm1.1,1.36c-1-.26-.66-2,.54-1.27C56.69,37.49,56.28,38.65,55.49,38.35Zm1.07,10h0l.08-.18c-.12,0-.14-.35,0-.26l.08-.18C57,47.82,56.94,48.46,56.56,48.31Zm1.21-14.65a.72.72,0,0,1,.23.27h0c.39.49-.25,1.05-.81.74h0a.69.69,0,0,1-.25-.38C55.9,33.72,57.46,32.52,57.77,33.66Zm-.59,2.49a.42.42,0,0,1,0-.37h0a.79.79,0,0,1,.4-.5l.17.21a2.29,2.29,0,0,0-.27.62Zm.68,14.4c.17.05.44.31.2.53s-.48-.1-.43-.34Zm0,8.25-.13-.26,0,.06a.33.33,0,0,1-.07-.22l.24-.16a.14.14,0,0,0,.12,0l.17.15C58.23,58.67,58.09,58.81,57.84,58.8ZM59,45.71a.29.29,0,0,1-.05-.42l.14.13s0,0,0-.05.11.18.16.26h0l.13.12C59.32,45.88,59.14,45.83,59,45.71Zm.09-7.27c-.51,1.13-1.93-.4-.76-.84a.7.7,0,0,1,.27-.27h0l.07-.06C59.44,36.8,59.94,38.18,59.11,38.44Zm1.12,3.28h0c-.82-.25.08-1.24.5-.58C60.94,41.47,60.57,41.81,60.23,41.72Zm.21-8.4h0l0-.26c.22-.15.41,0,.62,0C61.24,33.47,60.64,33.52,60.44,33.32Zm1.61,10.82a.45.45,0,0,1,0-.9A.45.45,0,0,1,62.05,44.14Zm.37,2.56h0c-.14-.19.08-.34.21-.45s.23.15.32.23C63,46.76,62.6,46.86,62.42,46.7Zm.6-3.52A.23.23,0,0,1,63.1,43h0c.23-.19.66.07.54.38S63.19,43.3,63,43.18Zm2.18,8.33h0v.16c-.15,0-.22-.15-.22-.29s.09-.3.26-.29v.17s0,0,.06,0S65.23,51.42,65.2,51.51Zm.29-17.31a.62.62,0,0,1-.9-.83c.37-.44,1.28-.29,1.19.37a.37.37,0,0,1,.18,0c.76-.51,1,1.13.1.82h0C65.8,34.76,65.51,34.53,65.49,34.2Zm1,6.66h0a.44.44,0,0,1-.07.65C65.46,41.81,65.64,40.26,66.47,40.86ZM66.3,52.67l-.21-.15v-.21l.13-.17a.55.55,0,0,1,.4.08h0l.1.05.08.26C66.64,52.67,66.48,52.6,66.3,52.67Zm2.52-8c-.21-.57.75-.85.82-.24C69.7,44.8,69,45.11,68.82,44.7Zm1.26-4a.44.44,0,1,1,.86,0A.46.46,0,0,1,70.08,40.73Zm.72-1.88h0c-.31-.12-.06-.54.21-.5S71.07,38.89,70.8,38.85Zm-.51-1.19c-.77-.51.23-1.53.89-1S71,38,70.29,37.66Zm1.82,5-.42,0-.16-.23c.07-.24-.09-.54.16-.7h.22c.2.24.16.39.33.64Zm.5,8.64c-.17-.29.2-.64.4-.3S72.81,51.61,72.61,51.27Zm1.48-6.43.18-.14c.16,0,.19.13.26.21l.11.21C74.47,45.46,74.07,45.09,74.09,44.84Zm1.66-7.67V37H75.7c0-.11.07-.12.08-.2h0v-.19a.25.25,0,0,1,.22.29A.27.27,0,0,1,75.75,37.17Zm.65,7.63-.18-.35.21,0C76.49,44.58,76.42,44.72,76.4,44.8Zm-.23-1.19h0a.4.4,0,0,1,.79,0A.4.4,0,0,1,76.17,43.61ZM78,34.84h0a.56.56,0,0,1-.37-1C78.29,33.47,79.05,34.61,78,34.84Zm.48,3a.36.36,0,0,1,.4-.59h0A.36.36,0,0,1,78.48,37.82ZM106.59,35c.55-.23,1.1.54.56.9C106.53,36.4,105.63,35.42,106.59,35Zm-3.5-.73a.33.33,0,0,1,.6.18c0,.19,0,.34-.33.33h0C103.05,34.86,103,34.47,103.09,34.24Zm.63,14.24c0,.25-.32.4-.37.1S103.68,48.18,103.72,48.48Zm-6.11-6.3c.1.06.12.17.17.25s-.36.18-.45,0S97.49,42.22,97.61,42.18Zm-5-8.75c1.11-.23,1,1.51-.15.89A.49.49,0,0,1,92.59,33.43Zm.06,3.26s-.14-.24,0-.2v-.17c.28,0,.41.54.06.54v-.17S92.69,36.71,92.65,36.69Zm-9.48-3.56.11.12a.49.49,0,0,1-.08.33l-.17.11A.29.29,0,1,1,83.17,33.13Zm-.77,2.53c.08.09.07.23.09.33C82.1,36.37,81.73,35.54,82.4,35.66ZM81.21,50l.16-.15a.28.28,0,0,1,.12,0l.14.17Zm.3-8.93-.09-.24s0-.07,0-.11l.2-.14c.16.06.16.21.18.31s0,0,0,0l.2.2h0C81.86,41.31,81.67,41.14,81.51,41Zm.34,1.79a.35.35,0,0,1,0-.4h0c.08-.4.7-.37.8.05A.46.46,0,0,1,81.85,42.82Zm1,.94h0c-.31-.31.1-.84.53-.68C84,43.37,83.22,44.48,82.81,43.76Zm1.8,10.11-.19-.06a1.82,1.82,0,0,1-.07-.25l.06-.16a.24.24,0,0,1,.31,0A.32.32,0,0,1,84.61,53.87Zm-.08-17a.72.72,0,0,1,1-.52C86.64,37.26,84.8,38.29,84.53,36.85Zm1.76-3.63c.65-.29,1,.48.56.92S85.66,33.66,86.29,33.22Zm.16,11.49c-.24-.14,0-.55.23-.46S86.69,44.81,86.45,44.71ZM87.18,49c-.61.68-.67-.63,0-.18h0l0,0ZM88,37.8c.41.27,0,.83-.43.54S87.61,37.57,88,37.8Zm.56,3.48c-.91.23-1-1.38,0-1.25A.64.64,0,0,1,88.51,41.28Zm1.8,11.12c-.29.22-.58-.28-.25-.43h.14l.06.05a.43.43,0,0,1,.09.2Zm1.1-9.16a.31.31,0,0,1,.29-.35l.14.11C92,43.39,91.51,43.73,91.41,43.24Zm.71,3.51-.12.11c-.77.18-.62-1.18.09-.54,0,0,.08.16.09.21Zm.39-9c-.69,0-.48-1,.2-.67l.16.19,0,.17A.49.49,0,0,1,92.51,37.77Zm.32,10.52H93a.28.28,0,0,1,0,.09h0v.19Zm.07-6.69a.32.32,0,0,1,.59-.24C93.66,41.78,93,42,92.9,41.6Zm1.56,6.78-.16-.05h0l-.1,0-.11-.16c.08-.48.56-.2.54.11Zm0-7.92c.12-.4.78-.21.64.2h0C95.17,41.26,94.29,40.92,94.48,40.46ZM94,35.79h0c-.45-.65.6-1.23,1-.69S94.63,36.43,94,35.79Zm1.78,18.33.19,0h0l.16,0C96.31,54.75,95.14,54.69,95.78,54.12Zm.77-11.53a.29.29,0,0,1-.31-.32l.1-.12a.41.41,0,0,1,.31,0l.13.14A.26.26,0,0,1,96.55,42.59ZM96.28,34a.63.63,0,0,1,0-.31h0a.51.51,0,0,1,.21-.32c-.05-.25.29-.52.5-.52l.07.2a1.1,1.1,0,0,0-.29.28.55.55,0,0,1,.38.82C97.45,35.17,95.75,34.92,96.28,34Zm1,11h0a.39.39,0,0,1,.73-.17C98.28,45.38,97.18,45.71,97.29,45Zm1.49,1,0-.21h0V45.7a.21.21,0,0,1,.29.08h0l0,0,0,.18A.23.23,0,0,1,98.78,46Zm0-9.78a.49.49,0,0,1,.72-.61C100,36.14,99.32,36.9,98.77,36.21Zm1,1.51-.15.05c-.1-.06-.12-.18-.17-.26a.24.24,0,0,1,.35-.11l.07.11A.32.32,0,0,1,99.72,37.72Zm1.54-4.16a.48.48,0,1,1-.06,1A.48.48,0,0,1,101.26,33.56Zm.72,2.2a.35.35,0,0,1-.39.59A.35.35,0,0,1,102,35.76Zm-.36,2.75h0l.14-.14a.07.07,0,0,0,0,0l.13-.12C102.49,38.43,101.73,39.42,101.62,38.51Zm1.15,16h-.19c0-.07-.07-.14-.12-.21V54.1C102.79,53.82,103,54.27,102.77,54.47Zm.37-11.6c0,.26-.62.29-.66-.06S103.26,42.41,103.14,42.87Zm0-1c-.51,1.18-1.79-.48-.62-.77C103,41.15,103.35,41.51,103.19,41.91Zm.54,7.37,0,.15C103.37,50.22,103,49,103.73,49.28Zm1.92-11c-.51-.31-.05-1,.46-.84C106.87,37.67,106.36,38.63,105.65,38.29Zm1.14,9.64-.21-.1,0,0a.27.27,0,0,1-.16-.11l.07-.22s.07,0,.1,0h.18l0,0A.26.26,0,0,1,106.79,47.93Zm.33,3.41.12,0,.07,0a.37.37,0,0,1,.13.16l0,.16C107.26,51.94,106.86,51.57,107.12,51.34Zm.38-5.05c-.64.36-.86-.89-.06-.51h0s.11.13.13.16v.22Z"></path><polygon class="cls-4" points="38.28 41.18 38.47 41.27 38.28 41.18 38.28 41.18"></polygon><path class="cls-5" d="M59.33,110.82a.91.91,0,0,0,0,.17,2.29,2.29,0,0,0,2.28,2.29H77.43A2.3,2.3,0,0,0,79.72,111c0-.06,0-.12,0-.17Z"></path><circle class="cls-6" cx="103.28" cy="29.12" r="1.41"></circle><circle class="cls-6" cx="99.76" cy="29.12" r="1.41"></circle><circle class="cls-6" cx="96.25" cy="29.12" r="1.41"></circle><path class="cls-6" d="M80.66,29.12a1,1,0,0,1-1,1.05h-45a1.06,1.06,0,0,1-1.06-1.05h0a1.06,1.06,0,0,1,1.06-1.06h45a1.05,1.05,0,0,1,1,1.06Z"></path><rect class="cls-6" x="39.97" y="38.01" width="58.03" height="3.17"></rect><rect class="cls-6" x="39.97" y="46.45" width="35.17" height="1.41"></rect><rect class="cls-6" x="39.6" y="49.97" width="29.91" height="1.41"></rect><rect class="cls-6" x="39.97" y="53.49" width="18.99" height="1.41"></rect><rect class="cls-6" x="39.97" y="60.52" width="35.17" height="1.41"></rect><rect class="cls-6" x="40.03" y="64.04" width="29.49" height="1.41"></rect><rect class="cls-6" x="39.97" y="67.56" width="18.99" height="1.41"></rect><rect class="cls-6" x="39.97" y="74.59" width="35.17" height="1.41"></rect><rect class="cls-6" x="40.03" y="78.11" width="29.49" height="1.41"></rect><rect class="cls-6" x="39.97" y="81.62" width="18.99" height="1.41"></rect><rect class="cls-6" x="82.88" y="46.1" width="7.03" height="7.03"></rect><rect class="cls-6" x="90.97" y="46.1" width="7.03" height="7.03"></rect><rect class="cls-6" x="82.88" y="54.19" width="7.03" height="7.03"></rect><rect class="cls-6" x="90.97" y="54.19" width="7.03" height="7.03"></rect><rect class="cls-2" x="30.05" y="85.32" width="4.4" height="13.81"></rect><path class="cls-7" d="M38.24,100.21h-4v-16h4Zm-3.59-.4h3.18V84.63H34.65Z"></path><path class="cls-8" d="M55.56,99H37.9l-.07-13.6H41a5.07,5.07,0,0,1,.94-2.88l0,0,2.49-3.64.87-3.15a1.8,1.8,0,0,1,3.56.36v0l-1,7.51h8.65a2.07,2.07,0,0,1,1.2,3.77,2.08,2.08,0,0,1,.15,4.09A2.07,2.07,0,0,1,57,95.25l0,.13A2.08,2.08,0,0,1,55.56,99Z"></path><rect class="cls-9" x="34.25" y="84.23" width="3.72" height="15.98"></rect><path class="cls-8" d="M110.68,79.92l.11-.13-.13.12Z"></path><polygon class="cls-8" points="104.7 74.12 104.86 74.11 104.7 74.1 104.7 74.12"></polygon><polygon class="cls-8" points="131.5 84.4 131.31 84.31 131.5 84.4 131.5 84.4"></polygon><path class="cls-8" d="M112.59,89.35a0,0,0,0,1,0,0H132a.9.9,0,0,1,0-.46V59.83H90.18V89.37h22.3Zm6-.6a.53.53,0,0,1-.2.12c.07.27-.24.46-.46.48s-.5-.61-.13-.75c-.24-1,1.43-.54.79.15Zm13.06-4.4c0,.13-.12.09-.16.18a0,0,0,0,1,0,0l-.09.2a.28.28,0,0,1-.12-.41.32.32,0,0,1,.41-.2l-.09.21S131.68,84.32,131.7,84.35Zm-.79-9.21.16-.13a.31.31,0,1,1-.08.61l-.13-.12h0A.48.48,0,0,1,130.91,75.14Zm-.11,4.77.49,0,.17.26a.5.5,0,0,0,0,.27h0a.65.65,0,0,1,0,.24c1-.19.27,1-.12.24l0,0-.25,0c-.23-.28-.18-.45-.36-.74Zm.07,6a.73.73,0,0,1,.56,0c.69.49.09,1.62-.68,1.17a.77.77,0,0,1-.4,0v0C129.35,87,130,85.47,130.87,86Zm-3.68-16.75L127,69l0,0L127,68.9C127.17,68.21,128.23,69.16,127.19,69.21Zm-.28,8c.12,0,.17.18.24.28v.29c-.06,0-.08,0-.09.1l-.29.07c-.14-.14-.08-.29-.07-.41a.09.09,0,0,0,0,0l-.14-.3A.25.25,0,0,1,126.91,77.2Zm-.42,8.17.26-.05c.12.15,0,.29.08.47l-.15.18h-.2l-.15-.13C126.31,85.58,126.43,85.52,126.49,85.37Zm-.09,1.81c.77.18.4,1.43-.31,1.1C125.66,87.77,125.88,87.22,126.4,87.18Zm-1.64-7.75c0-.06,0-.21.07-.27h0l.23-.17.2,0C126.12,79.4,124.94,80.58,124.76,79.43ZM124.68,73l.29-.08.31.31-.07.28c-.22.12-.35.45-.64.38l-.15-.19C124.46,73.39,124.61,73.31,124.68,73ZM123.5,87c1.26-.72,1.78,1.26.34,1.37A.81.81,0,0,1,123.5,87Zm-1.43-3.66c.16-.41.8-.48.91,0C123.13,84.12,121.79,84.18,122.07,83.37Zm.08,1.45.22,0c.42.22,0,.86-.38.55l-.07-.18A.51.51,0,0,1,122.15,84.82Zm-3.79-.13h0c-.07-.41.4-.33.63-.37.35.37-.42.81-.63.37Zm-.78-1.52a.41.41,0,0,1,0-.67l0,0C118.31,81.71,118.54,83.64,117.58,83.17Zm.22-8.79a.26.26,0,0,1,.23,0,.29.29,0,0,1,.12.23l-.18.19h0l-.09.07c-.23,0-.21-.24-.22-.34Zm-.68,5.15c.24-.16.38-.11.63-.25l.22.14v.4l-.23.13c-.22-.08-.52,0-.65-.21Zm-1.74,9,.05.34h0a3,3,0,0,0-.7.49l-.29-.12C114.41,88.81,115,88.47,115.38,88.52Zm-1.09-1.36c1,.27.65,2-.54,1.27C113.09,88,113.5,86.86,114.29,87.16Zm-1-10h0l-.09.18c.13,0,.15.35,0,.25l-.09.19C112.78,77.69,112.88,77.05,113.26,77.2ZM112,66.71l.12.25,0,0a.46.46,0,0,1,.07.22l-.24.16s-.08-.05-.12,0l-.18-.14A.32.32,0,0,1,112,66.71Zm-1.23,13.08a.29.29,0,0,1,0,.42l-.13-.13s0,0,0,0-.1-.17-.16-.26h0l-.13-.12C110.49,79.62,110.67,79.67,110.79,79.79ZM99.7,84.73a.43.43,0,1,1-.85,0A.45.45,0,0,1,99.7,84.73ZM99,86.6h0c.31.12.06.55-.21.5S98.71,86.56,99,86.6Zm-5.57-6,.17.35-.21,0C93.32,80.84,93.39,80.71,93.41,80.63ZM90.9,88.19h0a.36.36,0,0,1,.4-.59A.36.36,0,0,1,90.9,88.19Zm2.73-6.37a.4.4,0,0,1-.79,0,.4.4,0,0,1,.79,0ZM94,88.66h0v.19a.24.24,0,0,1-.22-.28c0-.16.1-.31.27-.29v.19s0,0,.06,0S94,88.58,94,88.66Zm1.54-7.92c-.16,0-.2-.13-.26-.21l-.11-.21c.17-.35.56,0,.55.28Zm1.28-6.27c-.17-.29.21-.64.4-.3S97,74.82,96.82,74.47Zm1.29,9.25-.23,0c-.2-.23-.16-.39-.32-.64l.12-.25.43,0,.15.23C98.2,83.26,98.35,83.56,98.11,83.72Zm.49,5.11c-.58-.51.19-1.35.88-1C100.25,88.31,99.25,89.33,98.6,88.83ZM100.16,81c-.06-.33.62-.64.83-.23C101.19,81.33,100.23,81.61,100.16,81Zm2.89-8.06c.14-.13.3-.06.48-.13l.21.15v.21l-.13.17a.56.56,0,0,1-.4-.08l-.09,0Zm.27,11.68h0a.44.44,0,0,1,.07-.65C104.33,83.66,104.14,85.21,103.32,84.61ZM104.6,74.4v-.17h-.06c0-.15,0-.18.08-.27a0,0,0,0,1,0,0v-.16c.14,0,.21.15.21.3S104.77,74.4,104.6,74.4Zm1.56,7.71c.23-.3.45.07.62.2a.25.25,0,0,1-.08.18h0C106.47,82.69,106,82.42,106.16,82.11Zm.67,3.92-.13-.1a.44.44,0,0,1,0-.31l.17-.13c.14,0,.22.16.32.24S107,86,106.83,86Zm.35-6.8c-.14,0-.23-.15-.32-.23,0-.27.36-.38.53-.22h0C107.53,79,107.31,79.12,107.18,79.23Zm.53,3a.45.45,0,0,1,0-.9A.45.45,0,0,1,107.71,82.25Zm1.35,2.1c-.21-.33.16-.67.51-.58h0C110.38,84,109.47,85,109.06,84.35Zm2.36,3.55a.59.59,0,0,1-.27.27h0l-.07.06c-.74.47-1.23-.91-.4-1.16C111.18,85.93,112.6,87.47,111.42,87.9Zm.34-13.48c.28-.21.49.11.43.34L112,75C111.8,74.91,111.53,74.65,111.76,74.42Z"></path><polygon class="cls-4" points="106.71 69.72 117.26 74.65 106.71 80.28 106.71 69.72"></polygon><circle class="cls-1" cx="88.56" cy="68.17" r="12.66"></circle><circle class="cls-6" cx="88.56" cy="68.17" r="9.85"></circle><circle class="cls-4" cx="92.7" cy="65.24" r="2.46"></circle><rect class="cls-10" x="87.18" y="80.83" width="3.52" height="1.76" transform="matrix(1, -0.03, 0.03, 1, -2.28, 2.55)"></rect><rect class="cls-1" x="87.12" y="82.58" width="4.22" height="18.64" transform="translate(-2.57 2.57) rotate(-1.62)"></rect><rect class="cls-10" x="87.24" y="95.24" width="4.22" height="1.76" transform="translate(-2.69 2.57) rotate(-1.62)"></rect><text></text></g></svg> 