<?xml version="1.0" encoding="utf-8"?>
<!-- Generator: Adobe Illustrator 24.1.2, SVG Export Plug-In . SVG Version: 6.00 Build 0)  -->
<svg version="1.1" xmlns="http://www.w3.org/2000/svg" xmlns:xlink="http://www.w3.org/1999/xlink" x="0px" y="0px"
	 viewBox="0 0 50 50" style="enable-background:new 0 0 50 50;" xml:space="preserve">
<style type="text/css">
	.st0{fill:#F1D624;}
	.st1{fill:#020202;}
	.st2{fill:#FFFFFF;}
</style>
<g id="Warstwa_2">
	<rect class="st0" width="50" height="50"/>
</g>
<g id="Warstwa_1">
	<g>
		<path class="st1" d="M41.35,44.4H7.05V8.88h34.3V44.4z M10.39,41.06h25.19V12.22H10.39V41.06z"/>
	</g>
	<g>
		<rect x="11.45" y="7.21" class="st2" width="30.96" height="33.08"/>
		<path class="st1" d="M43.63,41.51H10.24V6h33.39V41.51z M12.67,39.08H41.2V8.43H12.67V39.08z"/>
	</g>
	<g>
		<path d="M20.99,12.82h5.48c2.1,0,3.71,0.43,4.82,1.29c1.11,0.86,1.67,2.33,1.67,4.41c0,1.35-0.27,2.41-0.82,3.16
			c-0.55,0.76-1.34,1.22-2.38,1.38c2.56,0.49,3.83,2.32,3.83,5.48c0,2.14-0.52,3.75-1.56,4.83C30.99,34.46,29.45,35,27.4,35h-6.41
			V12.82z M26.42,21.88c1.17,0,1.97-0.26,2.4-0.78c0.43-0.52,0.64-1.36,0.64-2.53c0-1.13-0.28-1.9-0.84-2.31
			c-0.56-0.41-1.48-0.62-2.78-0.62h-0.82v6.24H26.42z M26.58,32.15c1.19,0,2.01-0.28,2.46-0.85c0.46-0.57,0.68-1.5,0.68-2.79
			c0-1.33-0.25-2.31-0.75-2.92c-0.5-0.61-1.35-0.92-2.53-0.92h-1.42v7.48H26.58z"/>
	</g>
</g>
</svg>
