<svg xmlns="http://www.w3.org/2000/svg" width="29" height="29" fill="none"><rect width="5" height="5" x="28.414" fill="#000" rx="2.5" transform="rotate(90 28.414 0)"/><rect width="5" height="5" x="16.707" fill="#000" rx="2.5" transform="rotate(90 16.707 0)"/><rect width="5" height="5" x="5" fill="#000" rx="2.5" transform="rotate(90 5 0)"/><rect width="5" height="5" x="28.414" y="11.707" fill="#000" rx="2.5" transform="rotate(90 28.414 11.707)"/><rect width="5" height="5" x="16.707" y="11.707" fill="#000" rx="2.5" transform="rotate(90 16.707 11.707)"/><rect width="5" height="5" x="5" y="11.707" fill="#000" rx="2.5" transform="rotate(90 5 11.707)"/><rect width="5" height="5" x="28.414" y="23.414" fill="#000" rx="2.5" transform="rotate(90 28.414 23.414)"/><rect width="5" height="5" x="16.707" y="23.414" fill="#000" rx="2.5" transform="rotate(90 16.707 23.414)"/><rect width="5" height="5" x="5" y="23.414" fill="#000" rx="2.5" transform="rotate(90 5 23.414)"/></svg>