<?xml version="1.0" encoding="UTF-8"?> <!-- Generator: Adobe Illustrator 24.3.0, SVG Export Plug-In . SVG Version: 6.00 Build 0) --> <svg xmlns="http://www.w3.org/2000/svg" xmlns:xlink="http://www.w3.org/1999/xlink" version="1.1" id="Layer_1" x="0px" y="0px" viewBox="0 0 646 587" style="enable-background:new 0 0 646 587;" xml:space="preserve"> <style type="text/css"> .st0{fill-rule:evenodd;clip-rule:evenodd;fill:#675DE8;} .st1{fill:#FFFFFF;} .st2{fill:#C60E47;} </style> <g id="Page-1"> <g id="remarketing"> <g id="user-3" transform="translate(24.000000, 21.000000)"> </g> <g id="Group-394" transform="translate(24.000000, 21.000000)"> <g id="Combined-Shape"> <path id="path-1_1_" class="st0" d="M301.8,125c6.3,0,12.5,0.6,18.5,1.7c-1.1,0.1-2.1,1-1.8,2.2l0,0l0,0.3 c0,0.6,0.3,1.4,0.9,1.6c2,1.1,4.1-1.6,3.1-3.2c-0.2-0.3-0.4-0.5-0.7-0.7c14.7,2.9,28.6,9.1,40.8,18.2 c96.2,71.9-13.5,200,60,218.7c-25.6,15.1-58.4,5-69-12.5c-3.5,7.5-3.8,14.7-1.5,21.5l0,0.1c-0.6,0.3-0.9,0.9-0.8,1.9l0,0 l0.9,0.7l0.2,0c0.1,0,0.2,0.1,0.4,0.2l0,0l0.3-0.2c10.4,23.6,51,41.3,86,49.1c17,3.8,28.2,10,35.5,17.5 c-14.4,14-30.5,26.3-48,36.6c-0.4,0.1-0.7,0.3-1,0.6c-36.5,21.1-78.8,33.2-124,33.2c-2,0-4,0-6-0.1c0.1-0.2,0.1-0.5,0.1-0.7 c1.1-1.3,0.2-4-1.8-4.2c1.4-1,2.2-2.5,1.7-4.1c-3.5-6.5-11.3,3.9-3.9,5c-1,0.7-1.9,2.3-1.7,3.8c-6.6-0.3-13.2-0.9-19.7-1.7 c1.5-1.2-0.4-4.1-2.4-3.3c-1.3,0.6-1.3,2-0.6,2.9c-7.5-1-14.9-2.4-22.2-4.1c-0.6-0.4-1.3-0.6-1.9-0.5 c-43.4-10.5-82.4-32.5-113.6-62.5c7.3-7.8,18.6-14.3,36.1-18.3c45.9-10.7,102-38,85.5-73.4c-10.6,17-43.4,27.6-69,12.5 c73.6-18.7-36.2-146.9,60-218.8C259.2,131.9,280.2,124.9,301.8,125z M339,504.1c-1.2-0.8-3.8-0.4-3.1,1.5l0,0l0.4,0.1l0.8,0.2 c0.6,0.2,1.3,0.2,2-0.2l0,0l0.1-1.3L339,504.1z M313.1,499.7c-0.1-1.7-1.6-2.9-2.8-1.7l0,0l-0.1,0l0,0c-4.4-1.6-3.5,6.8,0.4,4.2 c0.3,0.1,0.6,0,0.9-0.1c-0.5,3.4,4.2,4.2,6.1,2C319.6,501.1,316.1,497.5,313.1,499.7z M356.1,497.4c-2.9-1.6-6.2,1.3-4.2,3.8 l0,0l-0.1,0.1l0.2,0.4c0.2,0.4,0.6,0.8,1,1c1.6,5.9,9.7-0.3,4.4-3.3C357.3,498.7,356.7,497.7,356.1,497.4z M248.5,496.1 c-5.4,1.2-1.5,7.1,1.9,5.3C252.9,499.7,251.5,496,248.5,496.1z M356.1,489.8l-1.3,0.2l-0.3,0.8c-0.3,0.8-0.7,1.7-1.2,2.4l0,0 l0.9,1.1l0.4-0.2c0.7-0.5,1.4-1.4,1.7-2.4C356.6,490.9,356.5,490.3,356.1,489.8L356.1,489.8z M225.8,491.8 c3.4,0.6,1.5-3.7-0.5-1.7C225.5,490.6,225.4,491.3,225.8,491.8z M370.1,485.5l-0.4,0c-1.8,0.2-4.2,1.8-4,3.7l0,0l1.5,0.6 l0.7-0.6c0.9-0.8,1.9-1.5,2.9-2l0,0l-0.3-1.7L370.1,485.5z M387.4,486.6c3.3-3.5-5.3-6.1-4.1-0.8c-1.9,0.7-1.2,3.3,0.7,3.9 c1.1-0.1,2.7-1.1,2.3-2.5C386.6,487.2,387,487,387.4,486.6z M214.8,485.6c-1.4-7.5-10.9-2.2-5.3,2.7 C211.6,489.1,214.7,488.2,214.8,485.6z M288.4,481.7c-3.6-1.6-7.5,2.7-4.6,5.4C287.2,489.6,292.4,484.4,288.4,481.7z M260.2,484.1c-0.9-0.1-1.4,0.7-1.4,1.5c0,0.7,0.3,1.4,1.2,1.5l0,0l0.1-1l0.1,0l0.1-0.2c0.1-0.2,0.4-0.3,0.3-0.8 c-0.1-0.1-0.2-0.1-0.3-0.1l0,0L260.2,484.1z M364.9,478.4c-4.1-1.6-6.2,4.4-2.8,6.6C368.3,488.7,370.3,479.8,364.9,478.4z M414.2,484.8c7.4-0.5,4.7-10.8-1.8-7.1C410.2,479.7,411,484.4,414.2,484.8z M350.1,482.3c6.1-2.3-1.3-10.2-3.9-4.4 c-4.3,1.3-1.7,8.4,2.1,6l0,0l0.4-0.3l0.1,0.1l0.4-0.2C349.5,483.1,349.8,482.7,350.1,482.3z M246.1,480.7 c-2.1-1.2-3.9,1.6-2.1,3C246.1,484.9,248,482.1,246.1,480.7z M199.4,477.9c-2.5-1.5-4.4,1.4-2.3,2.8 C198.9,481.8,201.1,479.4,199.4,477.9z M285.5,475.5l-0.3,0.1c-1.1,0.3-1.9,2-0.5,2.5c1.4,0.2,2.7-2,1.1-2.6l0,0L285.5,475.5z M326.6,469.8l-0.8,0.6l-0.1,0.3c-0.1,0.4-0.3,0.7-0.1,1.3l0,0l0.7,0.5l0.4,0c0.9-0.1,1.6-0.6,1.6-1.5 C327.8,470.6,327.4,469.9,326.6,469.8L326.6,469.8z M429.3,468.9l-1.3,0.3l-0.2,0.3c-0.3,0.6-0.8,1-0.7,2.1l0,0l0.7,0.7l1,0 l0.8-1l-0.1-0.5C429.6,470.1,429.7,469.5,429.3,468.9L429.3,468.9z M406.6,466.1l-1.1,0.3l-0.2,0.2c-0.4,0.3-0.8,0.6-0.9,1.5 l0,0l0.3,0.9l0.3,0.2C406.9,470.1,408.7,467.2,406.6,466.1L406.6,466.1z M194.5,469.1c4.8,0.7,4.5-7.7-0.2-6.5 C190.9,463.8,191.2,468,194.5,469.1z M289.5,465.9c-0.8-2-3.8-2-4.4,0.1C284.8,469.4,289.7,469.5,289.5,465.9z M163.5,466.7 c1-2.4-3.5-4.1-3.4-1.1l0,0l0.1,0l-0.1,0.4C159.9,467.9,162.9,468.7,163.5,466.7z M389.2,463.8c-1.2,0.2-3.6-0.2-3.3,1.9 C387,467.9,391,465.7,389.2,463.8z M230.2,463.9c-0.8-0.6-1.6-1.1-2.3,0.2l0,0l1,1l-0.1,0c-0.1,0-0.1-0.1-0.1-0.1 c0.1,0.5,0.1,1.3,0.9,1.6l0,0l1.1-0.7l0-0.2c0-0.1,0.1-0.2,0.2-0.4l0,0l-0.5-1.2L230.2,463.9z M308.2,465.3 c4.3,3.1,5.2-4.9,0.4-3.4C307.5,462.7,307.3,464.3,308.2,465.3z M340.5,460.9c-1.8-0.5-3.7,1.3-2.6,3 C340,467.3,344.7,462.3,340.5,460.9z M171.7,460.9c-0.6-2-3.9-0.9-3.1,1.2C169.2,464,172.5,463,171.7,460.9z M409.8,458.8 c-0.5-2.5-3.9-2.1-4.7,0C403.7,463,410.6,462.7,409.8,458.8z M281.3,455.9l-2.2,0.1l-0.7,1.3l0.4,0.6c0.5,1,0.5,1.7,1.3,2.7l0,0 l1.2,0.1l0.4-0.3c0.8-0.9,0.2-2.2,0.4-3.3l0,0L281.3,455.9z M228.8,454.8c-1.4-1.7-4.4-0.1-4.1,1.8c0.5,2.1,3.7,2.3,4.1,0.2l0,0 l0.2-0.3C229.2,456,229.2,455.2,228.8,454.8z M381.9,457.8c5,2.4,3.8-7.5-0.1-3.6l0,0l0.1,0.1l-0.3,0.3 C380.6,455.5,380.9,457.1,381.9,457.8z M153.2,455.7l-0.3,0c-0.7,0.1-1.2,0.7-1.2,1.5l0,0l0.7,0.7l0.3,0.1 c0.4,0.1,0.9,0.2,1.4,0l0,0l0.5-0.6l0-0.3c-0.1-0.8-0.8-1.4-1.6-1.3L153.2,455.7z M148.8,456.4c-0.4-0.9-2-1-2.3,0 c0.2,0.4,0.4,1,0.9,1.3C148,457.6,149,457.4,148.8,456.4z M326.1,453.4c-0.9-0.7-2-2.5-3.2-1c-0.6,1.6,1.6,3,2.8,2l0,0l0.2-0.3 C326,453.8,326.1,453.6,326.1,453.4z M179.4,452.4c-0.5-2.5-3.2-0.8-2.3,1.3l0,0l0.7,0.5l0.4,0C179,454,179.5,453.2,179.4,452.4 z M223.6,449.5c-2.1-2.9-5.6,2.4-2.4,3.9c2.2,0.9,4.3-1.9,2.7-3.5l0,0L223.6,449.5z M331.1,448.4c-2.8,0.5-3.1,3.9-0.2,4.6 C333.7,452.6,334.1,449.1,331.1,448.4z M258.1,450.9c-0.5-2.4-3.6-2.5-4.1,0.1C254.6,453.4,257.7,453.5,258.1,450.9z M296.2,445.4c-1.1-2.1-4.6-0.5-4.3,1.2C292.3,449.8,297.2,448.3,296.2,445.4z M452.7,440.9l-2.5,0.1l-0.8,1.5l0.4,0.7 c0.5,1.1,0.5,1.9,1.5,3.1l0,0l1.3,0.1l0.1-0.1l0,0l0.1-0.1c2,4.2,5.8-2.2,0.6-1.3c0.1-0.4,0.1-0.8,0-1.2s-0.1-0.9,0.1-1.4l0,0 L452.7,440.9z M204.8,444.9l-0.3,0c-1,0.2-1.7,1.8-0.7,2.4c1.3,0.5,2.5-1.6,1.2-2.4l0,0L204.8,444.9z M268.9,444.3 c-0.2-1.3-2-2.8-2.8-1.2l0,0l0.6,1.1l0.2,0.3c0.2,0.3,0.5,0.7,1.1,0.8l0,0l0.9-0.8L268.9,444.3z M149.1,442.7 c0-3-5.1-1.3-3.8,1.4c1,1.8,3.9,1.1,3.7-0.9l0,0L149.1,442.7z M462.4,443.2c1.8-2.3-0.3-5.2-3.1-3.7 C457.4,441.7,459.5,444.7,462.4,443.2z M346.5,440.1c-0.6-0.4-1.3-0.5-1.8,0l0,0l0.6,0.6l0,0c0.2,0.5,0.1,0.9,0.8,1.4 c0.2,0,0.2-0.2,0.2-0.2l0,0l0.7,0.7l0.2-0.3c0.3-0.5,0.1-1.1-0.2-1.6l0,0l-0.2-0.3L346.5,440.1z M382.8,437.7 c-1.3,0.7-2,0.4-3.2,1.3l0,0l-0.2,1.1l0.3,0.4c0.8,0.8,2.1,0.3,3.1,0.7l0,0l1.2-0.6l0.1-2.1L382.8,437.7z M421.6,436.2l-1,0.1 l-1.2,0.9l-0.1,0.2c-0.1,0.4-0.4,0.9-0.3,1.1C419.9,444.4,426,438.3,421.6,436.2L421.6,436.2z M141.2,437.9 c-0.5-0.4-1.3-0.5-1.7,0.2l0,0l0.1,0.9l0.1,0.1l0,0l0.1,0.1c0.2,0.2,0.8,0.9,1.5,0.4l0,0l0.1-0.5l0,0l0,0l0,0l0.1-1.1 L141.2,437.9z M329.3,435.1c-0.9-0.8-2.9-0.3-2.8,1.1c0.5,0.4,0.9,1.1,1.7,1.2C328.8,436.9,330,436.2,329.3,435.1z M176,436.5 c3.6,3.3,4.5-3.7,0.5-2.8l0,0l-0.6,0.6l-0.3,1.2l0.1,0.2C175.7,436,175.8,436.4,176,436.5z M430.1,427c-0.2-0.1-0.9-0.3-1.6,0.4 l0,0l0.7,1.6l-0.1-0.1c0-0.1-0.1-0.1-0.1-0.2c-0.1,0.6-0.4,1.4,0.4,2.1l0,0l1.5-0.4l0.1-0.2c0.1-0.1,0.2-0.2,0.4-0.3l0,0l0-1.5 l-0.2-0.3C430.8,427.7,430.6,427.2,430.1,427z M359.2,426.9c-1.6-0.3-2,2.7-0.5,3.3l0,0l0.4-0.9l0.2,0.1c0.5,0,0.4-1.6-0.2-1.4 l0,0l0.4-0.9v0L359.2,426.9z M163.8,425.8l-0.9,0.7l0,0.3c0.2,1.5,2.4,2.6,2.8,0.3l0,0l-0.6-0.8l-0.3-0.1l0,0l-0.3-0.1 C164.3,426,164.1,425.9,163.8,425.8L163.8,425.8z M201.9,424.2c2.9,1.5,2.5-4.5-0.5-1.2l0,0l-0.1,0.8l0.1,0.1h0L201.9,424.2z M354.1,414.1c0.1-1.2-0.9-2.5-2.3-1.5c-1.2,1.2,0.2,2.5,1.1,2.8l0,0l1.2-1L354.1,414.1z M384.2,412.5c-0.3-0.2-0.7-0.3-1.2-0.1 l0,0l-0.6,0.9l0,0.2c0.1,0.6,0.1,1.4,1.2,1.5l0,0l0.4-0.4l-0.1,0l0,0l-0.1,0l1-0.9l0-0.2C384.7,413.2,384.6,412.8,384.2,412.5z M276.7,411.3c-1-1.8-2.9,0-2,1.5C275.6,414.7,277.6,412.8,276.7,411.3z M315.1,409.5l0,0.8l0,0l-0.1,0.2 c-0.2,0.3-0.4,0.5-0.3,1.1c0,0,0.1,0,0.1,0l0.2,0l0,0.9l0.3,0c0.5-0.1,0.8-0.6,0.9-1.1l0,0l0-0.3l0-0.3 C316.1,410,315.7,409.5,315.1,409.5L315.1,409.5z M309.3,404.3c-0.9,0.4-1.8,0-2.5,0.7l0,0l0.4,1.4l0.2,0.1l0,0l0.3,0.1 c0.4,0.3,1,0.6,2.1,0.4l0,0l0.7-0.9l-0.1-1.1L309.3,404.3z M234.7,250.6l-0.2,0.1c-0.1,0-0.3,0-0.5,0l0,0l-0.9,1.2l0.2,0.4 c0.2,0.3,0.4,0.5,0.6,0.6l0,0l-0.1-0.1c0,0-0.1-0.1-0.1-0.1l0,0l1.1,1c1.2-0.4,1.7-1.4,1-2.6l0,0L234.7,250.6z M219.3,213.9 l-0.3,0l-0.7,1.4l0.1,0.3c0.4,1.1,1.8,2,2.6,0.5c0.7-1.5-1.1-2.3-2-2.2L219.3,213.9z M264.3,205.2c-0.5-0.1-1.2-0.2-2.1,0.4l0,0 l-0.3,1l0.5,1l1.3,0.3c0.7-0.7,1.6-0.7,2.1-1.6l0,0l-0.9-1.1l-0.2,0l0,0L264.3,205.2z M208.2,202.4l0,1l-0.2,0 c-0.5,0.2,0.2,1.6,0.7,1.2l0,0l0,1l0,0l0.4,0C210.6,205.3,209.8,202.4,208.2,202.4L208.2,202.4z M255.4,202.3l-0.3,0.2 c-0.4,0.3-0.5,0.9-0.4,1.4l0,0l0.1,0.3l0.1,0.3c0.3,0.6,0.9,1,1.5,0.7l0,0l-0.3-0.8l0.1,0l0-0.3c0-0.3,0.2-0.6-0.1-1.1 c-0.2,0-0.2,0.1-0.3,0.1l0,0L255.4,202.3z M292.6,186.9c-1.6-1.3-2.7,1.2-1.3,2.2C292.8,190.4,293.9,188,292.6,186.9z M214.3,186.6l-0.1,0.4c-0.1,0.6,0.3,1.1,0.8,1.4l0,0l0.3,0.2l0.3,0.1c0.7,0.2,1.4,0,1.7-0.7l0,0l-0.8-0.4l0,0 c-0.4-0.3-0.4-0.8-1.2-1c0,0-0.1,0.1-0.1,0.1l0,0.2L214.3,186.6z M234.2,184.1l-0.4,0c-0.4,0.8-1.2,1.9-0.1,2.6 c1.2,0.4,2.8-0.8,2.1-2.1c-0.6-0.2-1.3-0.6-2-0.5L234.2,184.1z M353.4,176.3c-0.2-0.1-0.9-0.3-1.5,0.5l0,0l0,0.9l0.3,0.4 c0.2,0.2,0.3,0.5,0.5,0.7l0,0l1.1-0.1C354.3,177.9,354.2,176.7,353.4,176.3z M225.8,170.7l-0.5,0c-2.5,1.4-1.5,4.8,1.6,4.4 c2.4-1.5,1.4-4.8-1.6-4.4L225.8,170.7z M233.1,168.4c0-1.7-2.6-2.2-3.3-0.8l0,0l-0.1,0.3c0,0.2,0,0.5,0.1,0.7 C230.7,169,232.5,170.3,233.1,168.4z M263.9,162.2c-1.5-2.8-5.6,0.4-3.5,2.7C262.3,166.5,264.9,163.7,263.9,162.2z M377,158.8 l-0.7,0.2l-0.2,0.3c-0.8,1.3,1.4,2.9,2.3,1.3l0,0l-0.2-0.9l-0.2-0.2c-0.1-0.2-0.3-0.4-0.7-0.6 C377.2,158.9,377.1,158.8,377,158.8L377,158.8z M287,154.4l-0.4,0l-0.6,1.1l0.1,0.3c0.6,1.1,2.9,1.8,3,0l0,0l-0.9-0.8l-0.3-0.2 c-0.4-0.2-0.7-0.5-1.4-0.4L287,154.4z M241.8,150.9c-5.1-1.3-3,6.5,0.9,3.3C243.4,153.1,243,151.5,241.8,150.9z M355.8,149.2 c-3.4-0.3-0.7,5.2,0.9,0.9l0,0l-0.3-0.8l-0.2-0.1l0,0L355.8,149.2z M269.6,144.8l-1.1,0.3l-0.2,0.4c-0.4,1.1,0.7,2.1,0.8,3.2 l0,0l1.2,0.8l2-0.9l0.1-1.4l-0.6-0.4C271.1,146.1,270.8,145.4,269.6,144.8L269.6,144.8z M297.4,143.9c-1.4-2.1-4.3-1.1-3.8,1.6 C295,147.5,297.9,146.5,297.4,143.9z M263,141.6c-1-3.3-5.6-1.6-4.1,1.7C260.4,145,263.1,143.8,263,141.6z M326.9,129.3 c-2.4,0-3.3,3.4-1.2,4.3l0,0l0.4,0.3C329.2,135.7,330.4,129.5,326.9,129.3z"></path> </g> </g> <path id="Combined-Shape_1_" class="st1" d="M283.3,518.3c6.5,1.3,10.8,7.5,9.7,14c-0.9,5.8-5.8,10.2-11.6,10.6l-0.8,0h-2 c-6.7-1.4-11-7.9-9.9-14.6C270,521.6,276.5,517.1,283.3,518.3z M237.2,504.8l0.8,0.3l-0.1,0.1c5.1,2.6,7.8,8.3,6.6,13.9 c-1.2,5.6-6.1,9.7-11.8,10c-1.6,0.1-3.1-0.1-4.6-0.7c-6.3-2.9-9.2-10.3-6.6-16.7C224.2,505.7,231,502.7,237.2,504.8z M196.6,482.4 c5.3,4.1,6.9,11.5,3.8,17.4c-2.5,3.2-6.3,5.1-10.3,5.2c-2.6,0.1-5.1-0.6-7.2-2c-2.8-1.8-4.7-4.7-5.4-7.9c-0.6-3.3,0.1-6.6,2-9.4 c1.7-2.8,4.6-4.8,7.8-5.4C190.6,479.7,194,480.5,196.6,482.4z M151.5,448.1c3.3,0.1,6.4,1.7,8.4,4.4c2.5,2.3,4,5.6,4,9 s-1.4,6.7-4,9c-2.4,2.1-5.4,3.3-8.5,3.4c-3.5,0-6.8-1.5-9.2-4c-4.8-5.1-4.5-13.2,0.7-17.9C145,449.4,148.2,448,151.5,448.1z M123.8,409.1c1.1,0.3,2.1,0.6,3,1.2c-0.4,0.5-0.6,1.1-0.6,1.7l0,0l1.5,0.6l0.7-0.6c0.1-0.1,0.3-0.2,0.4-0.4 c1,0.8,1.8,1.8,2.5,2.9c2.1,3.4,2.5,7.7,1,11.4c-2.1-0.4-3.9,1.9-2.8,3.9c0.1,0.1,0.1,0.1,0.2,0.2c-2.3,2.3-5.4,3.7-8.7,3.8 c-4.2-0.1-8.1-2.4-10.3-6c-1.8-2.8-2.4-6.2-1.7-9.5c0.8-3.3,2.8-6.1,5.7-7.8C117.3,408.9,120.6,408.3,123.8,409.1z M116.6,420.2 c-2.9-1.6-6.2,1.3-4.2,3.8l0,0l-0.1,0.1l0.2,0.4c0.2,0.4,0.6,0.8,1,1c1.6,5.9,9.7-0.3,4.4-3.3 C117.8,421.5,117.2,420.6,116.6,420.2z M116.6,412.6l-1.3,0.2l-0.3,0.8c-0.3,0.8-0.7,1.7-1.2,2.4l0,0l0.9,1.1l0.4-0.2 c0.7-0.5,1.4-1.4,1.7-2.4C117.1,413.8,117,413.1,116.6,412.6L116.6,412.6z M104.4,365c2.9,1.4,5.2,3.9,6.2,7 c2.6,6.3-0.4,13.5-6.6,16.2c-1.5,0.5-3,0.7-4.6,0.7c-6.2,0.4-11.7-4-12.9-10.1c-0.1-0.6-0.2-1.2-0.2-1.8c0.1-0.2,0.2-0.4,0.2-0.7 c-0.1-0.1-0.1-0.1-0.2-0.2c0.2-5.1,3.6-9.7,8.7-11.3C98.1,363.5,101.5,363.7,104.4,365z M101,383.8c-1.8-0.5-3.7,1.3-2.6,3 C100.5,390.2,105.2,385.1,101,383.8z M91.6,371.3c-2.8,0.5-3.1,3.9-0.2,4.6C94.3,375.5,94.6,372,91.6,371.3z M562.2,211.1 c2.2,6.5-1.2,13.6-7.6,16c-1.2,0.5-2.6,0.8-3.9,0.7c-6.1-0.1-11.3-4.6-12.2-10.7c-1-6,2.5-11.9,8.3-13.9 C553.2,201.1,560.1,204.6,562.2,211.1z M540.5,163.2c3.4,6.1,1.3,13.7-4.6,17.3c-2.8,1.9-6.3,2.5-9.6,1.6c-3.3-0.9-6-3.2-7.5-6.3 c-3.3-6.1-1.3-13.6,4.6-17.3C529.5,155.2,537.1,157.3,540.5,163.2z M500.3,116.8c3.3,0.1,6.5,1.6,8.7,4.1 c3.5,3.8,4.3,9.2,2.4,13.7c-1.5,0-2.8,1.1-2.2,3.3c-0.1,0.2-0.2,0.3-0.3,0.5l-0.4,0.5l0,0c-2.4,2.1-5.4,3.3-8.6,3.4 c-3.7,0-7.1-1.6-9.5-4.3c-0.1-0.7-0.5-1.2-1.1-1.6c-0.4-0.7-0.8-1.4-1.1-2.2c-1.9-4.8-0.6-10.4,3.2-13.9 C493.7,117.9,497,116.7,500.3,116.8z M501,127.3c-2.8-3.6-6.2,0.4-3.7,3.1C499.5,131.9,502.2,129.7,501,127.3z M497,119.3 l-0.8,0.2l-0.1,0.2c-0.2,0.2-0.4,0.4-0.4,1l0,0l0.4,0.6l0.3,0.1c0.6,0.2,1.3,0,1.5-0.7C497.6,120.2,497.5,119.5,497,119.3 L497,119.3z M470.2,86.1c5.5,4.1,6.6,11.9,2.6,17.4c-2.2,3.3-5.9,5.3-9.9,5.2c-2.6-0.2-5.1-1.1-7.2-2.6c-2.8-1.8-4.7-4.7-5.2-8.1 c-0.5-3.3,0.4-6.7,2.6-9.3C457.1,83.3,464.7,82.1,470.2,86.1z M425,60.2c3.1,1.3,5.5,3.8,6.7,6.9c1.2,3.1,1.1,6.6-0.3,9.6 c-1.9,4.5-6.3,7.4-11.2,7.3c-1.8-0.1-3.6-0.5-5.2-1.3c-4-1.8-6.8-5.5-7.3-9.9c-0.5-4.4,1.4-8.7,4.9-11.3 C416.3,58.9,421,58.4,425,60.2z M428.8,75.7c-0.6-2.2-3.9-0.4-3.2,1.5c0.8,2.1,4.2,0.9,3.3-1.1l0,0L428.8,75.7z M375.2,43.5 c3.3,0.6,6.2,2.5,8.1,5.2c1.9,2.8,2.5,6.2,1.8,9.4c-0.8,5.6-5.5,9.7-11,9.9l-3.4,0c-3.3-0.6-6.2-2.4-8.1-5.2 c-1.9-2.8-2.5-6.2-1.8-9.4c0.5-3.3,2.3-6.2,5.1-8.1C368.5,43.5,371.9,42.8,375.2,43.5z M377.2,61.6c0.4-1.2-1.6-2-2.1-0.6l0,0 l0.3,0.7l0.1,0.1l0.2,0.2c0.2,0.2,0.5,0.3,0.8,0.3l0,0l0.5-0.3L377.2,61.6z"></path> <path id="Combined-Shape_2_" class="st2" d="M568.7,253.9l0.7,0.6l42,42.4c2.4,2.5,3.7,5.9,3.4,9.4c-0.2,3.5-2,6.7-4.7,8.8 c-2.1,2.5-5.2,4-8.5,4c-2.9-0.2-5.7-1.3-7.8-3.3l-0.7-0.7l-20.4-20.7c0,25.4-3.7,50-10.6,73.2c0-0.6,0.1-1.1-0.3-1.7l0,0l-1.3,0.3 l-0.2,0.3c-0.3,0.6-0.8,1-0.7,2.1l0,0l0.7,0.7l1,0l0.3-0.4c-0.7,2.2-1.4,4.5-2.1,6.7c-2.2,0.4-3.2,2.7-1.7,5 c-35,97.9-127.9,167.9-236.5,167.9c-3.4,0.1-6.6-1.2-9-3.6c-2.4-2.4-3.6-5.7-3.5-9c0-3.3,1.3-6.6,3.6-8.9c2.3-2.4,5.5-3.7,8.9-3.7 c102.4,0,189.3-69.7,217-164.6c1.6,0.8,4.4-0.2,3.9-2.8c-0.3-1.4-1.5-1.9-2.6-1.6c4.9-18.2,7.7-37.2,8-56.8l0-3.8L527,314.8 c-2.2,2.6-5.4,4.1-8.8,4c-3.3-0.2-6.3-1.6-8.5-4c-4.4-4.8-4.6-12.1-0.6-17.2l0.6-0.7l42-42.4C556.5,250.1,563.7,249.9,568.7,253.9 z M546.7,381.9c7.4-0.5,4.7-10.8-1.8-7.1C542.7,376.7,543.5,381.4,546.7,381.9z M539.1,363.1l-1.1,0.3l-0.2,0.2 c-0.4,0.3-0.8,0.6-0.9,1.5l0,0l0.3,0.9l0.3,0.2C539.4,367.2,541.2,364.2,539.1,363.1L539.1,363.1z M554.1,333.2l-1,0.1l-1.2,0.9 l-0.1,0.2c-0.1,0.4-0.4,0.9-0.3,1.1C552.4,341.4,558.5,335.3,554.1,333.2L554.1,333.2z M324,37.6c3.3,0,6.6,1.3,8.9,3.7 s3.7,5.6,3.6,8.9c0.2,1.1-0.1,2.3-0.7,3.3c-1.3,5.5-6.2,9.4-11.9,9.3c-123.5,0-224.4,101-226.4,225.6l0,3.8l21-21.3 c5-4.7,12.7-4.7,17.7,0c4.5,4.9,4.5,12.5,0,17.3l-0.6,0.6l-42,42.6c-2.2,2.4-5.3,3.8-8.5,4c-3,0-5.8-1.2-7.9-3.3l-0.7-0.7 l-42.2-42.6c-4.6-5.1-4.6-12.8,0-17.9c4.8-4.5,12-4.7,17-0.6l0.7,0.6l20.4,20.7c0-50.6,14.7-97.8,40-137.4 c0.8,0.3,1.8,0.1,2.5-1.2c0.3-0.8,0.2-1.6-0.2-2.2c1.1-1.7,2.3-3.4,3.5-5.1c0.4,0,0.9-0.1,1.3-0.3c1.1-0.8,1.4-2,1.1-3.1 C166.4,78.8,240.6,37.6,324,37.6z M562.6,324c-0.2-0.1-0.9-0.3-1.6,0.4l0,0l0.7,1.6l-0.1-0.1c0-0.1-0.1-0.1-0.1-0.2 c-0.1,0.6-0.4,1.4,0.4,2.1l0,0l1.5-0.4l0.1-0.2c0.1-0.1,0.2-0.2,0.4-0.3l0,0l0-1.5l-0.2-0.3C563.3,324.7,563.1,324.2,562.6,324z M515.9,309.4l-0.3,0.1l-0.6,0.9l0,0.2c0.1,0.6,0.1,1.4,1.2,1.5l0,0l0.4-0.4l-0.1,0l0,0l-0.1,0l1-0.9l0-0.2 c-0.1-0.3-0.2-0.8-0.6-1c-0.3-0.2-0.7-0.3-1.2-0.1L515.9,309.4z M552.5,301.9l-1.5,0.4l-0.2,0.7c-0.4,1-1,1.5-1.1,2.9l0,0l0.7,1 l0.5,0.1c1.2,0,1.8-1.5,2.9-2l0,0l0.4-1.4L552.5,301.9z M564.6,282.7c4.4-0.6-0.7-5-1.7-1.6l0,0l0.7,0.9l-0.1,0l0,0l-0.1-0.1 l0.8,0.9L564.6,282.7z M137.7,154.9c3.6-0.3,1.4-4.7-1-3.8C134.7,152,135.7,154.9,137.7,154.9z M157.4,125.6 c-3.6-1.6-7.5,2.7-4.6,5.4C156.2,133.5,161.4,128.2,157.4,125.6z M154.5,119.4l-0.3,0.1c-1.1,0.3-1.9,2-0.5,2.5 c1.4,0.2,2.7-2,1.1-2.6l0,0L154.5,119.4z M158.5,109.7c-0.8-2-3.8-2-4.4,0.1C153.8,113.2,158.7,113.4,158.5,109.7z M177.2,109.1 c4.3,3.1,5.2-4.9,0.4-3.4C176.5,106.6,176.3,108.1,177.2,109.1z M195.1,97.2c-0.9-0.7-2-2.5-3.2-1c-0.6,1.6,1.6,3,2.8,2l0,0 l0.2-0.3C195,97.7,195.1,97.5,195.1,97.2z M200.1,92.3c-2.8,0.5-3.1,3.9-0.2,4.6C202.8,96.5,203.1,93,200.1,92.3z M215.5,84 c-0.6-0.4-1.3-0.5-1.8,0l0,0l0.6,0.6l0,0c0.2,0.5,0.1,0.9,0.8,1.4c0.2,0,0.2-0.2,0.2-0.2l0,0l0.7,0.7l0.2-0.3 c0.3-0.5,0.1-1.1-0.2-1.6l0,0l-0.2-0.3L215.5,84z M198.3,79c-0.9-0.8-2.9-0.3-2.8,1.1c0.5,0.4,0.9,1.1,1.7,1.2 C197.8,80.8,199,80,198.3,79z M228.2,70.7c-1.6-0.3-2,2.7-0.5,3.3l0,0l0.4-0.9l0.2,0.1c0.5,0,0.4-1.6-0.2-1.4l0,0l0.4-0.9v0 L228.2,70.7z M320.6,59.5l-0.8,0.7l-0.1,0.3c-0.2,0.4-0.3,1-0.2,1.5l0,0l0.7,0.6l0.4,0.1C322.5,62.7,322.8,59.6,320.6,59.5 L320.6,59.5z M252.4,56.2l-0.3,0.1l-0.6,0.9l0,0.2c0.1,0.6,0.1,1.4,1.2,1.5l0,0l0.4-0.4l-0.1,0l0,0l-0.1,0l1-0.9l0-0.2 c-0.1-0.3-0.2-0.8-0.6-1c-0.3-0.2-0.7-0.3-1.2-0.1L252.4,56.2z M289.1,48.8l-1.5,0.4l-0.2,0.7c-0.4,1-1,1.5-1.1,2.9l0,0l0.7,1 l0.5,0.1c1.2,0,1.8-1.5,2.9-2l0,0l0.4-1.4L289.1,48.8z"></path> </g> </g> </svg> 