<svg version="1.1" id="レイヤー_1" xmlns="http://www.w3.org/2000/svg" x="0" y="0" viewBox="0 0 522 522" xml:space="preserve"><style>.st0{fill:#c33c50}.st1{fill:#1e1e1e}</style><path class="st0" d="M521.2 261c.1-71.8-29-137-76.1-184.3C398 29.4 332.9.1 261 0l-.1 79.4c50 .1 95.3 20.5 128 53.3 32.7 32.9 53 78.2 52.9 128.2l79.4.1z"/><path class="st1" d="M332.6 332.6c19.9-19.9 29.8-46 29.8-72H158.8c0 26 10 52.1 29.9 72s46 29.8 72 29.8V260.6v101.8c25.9 0 52-10 71.9-29.8z"/><path d="M444.8 444.8l-56.1-56.1c-35.3 35.3-81.7 53-128.1 53-23 0-46-4.4-67.7-13l-1.5-.6c-.7-.3-1.3-.5-2-.8l-3.3-1.5c-20.1-9.1-38.2-21.7-53.6-37.1-32.8-32.8-53.1-78.1-53.1-128.1H0c0 71.8 29.2 137 76.4 184.2l-.1.1c24.3 24.3 52.2 42.7 82 55.4.9.4 1.8.8 2.7 1.1.7.3 1.5.6 2.2.9 30.1 12.2 62.9 18.9 97.3 18.9v-.2c66.8 0 133.5-25.4 184.3-76.2z" fill="#fabe00"/><path class="st0" d="M332.1 427.1c20.6-8.8 39.9-21.6 56.6-38.4 35.3-35.3 53-81.7 53-128.1h-79.3c0 26-9.8 51.9-29.5 71.7-8.6 8.7-18.7 15.8-30 21-.1 0-.1 0-.2.1-.6.3-1.3.6-1.9.9-.3.2-.7.3-1.1.4-.3.1-.7.3-1 .4-.7.3-1.3.5-2 .8 0 0-.1 0-.1.1-11.6 4.4-23.8 6.5-36 6.5-28 0-53.3-11.3-71.7-29.5l-55.8 56.3c32.9 32.7 78.4 52.8 128.3 52.6 23.7-.1 46.4-4.8 67.1-13.2.6-.2 1.2-.5 1.8-.8.6-.3 1.2-.6 1.8-.8z"/><path class="st1" d="M388.8 132.5c-35.3-35.4-81.7-53-128.1-53.1-46.4 0-92.8 17.7-128.1 53s-53 81.7-53.1 128.1h79.3c0-26 10-52.1 29.9-72s46-29.8 72-29.8 52.1 10 72 29.9 29.8 46 29.8 72h79.3c0-46.4-17.7-92.7-53-128.1z"/></svg>