<svg version="1.1" id="レイヤー_1" xmlns="http://www.w3.org/2000/svg" x="0" y="0" viewBox="0 0 522 522" xml:space="preserve"><style>.st0{fill:#3c78aa}.st1{fill:#c33c50}.st2{fill:#1e1e1e}</style><path class="st0" d="M388.7 132.5c-32.8-32.8-78.1-53.1-128.1-53.1s-95.3 20.3-128.1 53.1l56.1 56.1c18.4-18.4 43.9-29.8 72-29.8s53.6 11.4 72 29.8l56.1-56.1z"/><path class="st1" d="M388.7 132.5l-56.1 56.1c18.4 18.4 29.8 43.9 29.8 72s-11.4 53.6-29.8 72l56.1 56.1c32.8-32.8 53.1-78.1 53.1-128.1s-20.3-95.3-53.1-128.1z"/><path class="st2" d="M260.6 0c-71.8 0-137 29.2-184.2 76.4C29.2 123.6 0 188.7 0 260.6h79.4c0-50 20.3-95.3 53.1-128.1s78.1-53.1 128.1-53.1V0z"/><path class="st0" d="M132.5 388.7l-56.1 56.1c47.2 47.2 112.3 76.4 184.2 76.4v-79.4c-50 0-95.3-20.3-128.1-53.1z"/><path class="st1" d="M260.6 260.6l-72-72c-18.4 18.4-29.8 43.9-29.8 72s11.4 53.6 29.8 72l72-72-72 72c18.4 18.4 43.9 29.8 72 29.8s53.6-11.4 72-29.8l-72-72z"/><path class="st2" d="M507.4 344.1c.2-.6.4-1.3.6-1.9.5-1.4.9-2.8 1.4-4.2.5-1.5.9-3 1.3-4.5.2-.6.3-1.1.5-1.7 6.4-22.7 9.9-46.6 9.9-71.3 0-71.8-29.2-137-76.4-184.2l-56.1 56.1c32.8 32.8 53.1 78.1 53.1 128.1 0 15.6-2 30.8-5.7 45.2-8.2 31.8-24.9 60.3-47.4 82.8-32.8 32.8-78.1 53.1-128.1 53.1V521c71.8 0 137-29.2 184.2-76.4 28.1-27.9 49.7-62.2 62.7-100.5z"/></svg>