<svg version="1.1" id="レイヤー_1" xmlns="http://www.w3.org/2000/svg" x="0" y="0" viewBox="0 0 522 522" xml:space="preserve"><style>.st0{fill:#d9a600}.st2{fill:#1e1e1e}</style><path class="st0" d="M521.2 260.5c0-71.8-29.2-136.9-76.4-184.2C397.6 29.2 332.4 0 260.5 0v79.4c50 0 95.3 20.3 128.1 53.1s53.1 78.1 53.1 128.1l79.5-.1z"/><path d="M260.6 0c-71.8 0-137 29.2-184.2 76.4C29.2 123.6 0 188.7 0 260.6h79.4c0-50 20.3-95.3 53.1-128.1s78.1-53.1 128.1-53.1V0z" fill="#3c78aa"/><path class="st0" d="M158.7 260.6c0-28.1 11.4-53.6 29.8-72l-56.1-56.1c-32.8 32.8-53.1 78.1-53.1 128.1s20.3 95.3 53.1 128.1l56.1-56.1c-18.4-18.4-29.8-43.9-29.8-72z"/><path class="st2" d="M76.3 444.8C127 495.6 193.8 521 260.5 521c66.8 0 133.4-25.4 184.3-76.2l-56.1-56.2c-35.4 35.4-81.7 53-128.1 53-46.4 0-92.8-17.7-128.1-53l-56.2 56.2z"/><path class="st2" d="M441.8 260.6c.1-50-20.3-95.2-53.1-128.1-32.8-32.8-78.1-53.1-128.1-53.1-49.9 0-95.2 20.3-128.1 53.1l56.1 56.1c18.4-18.4 43.9-29.8 72-29.8s53.6 11.4 72 29.8 29.8 43.9 29.8 72-11.4 53.6-29.8 72l56.1 56.1c32.8-32.8 53-78.1 53.1-128.1z"/></svg>