<svg version="1.1" id="レイヤー_1" xmlns="http://www.w3.org/2000/svg" x="0" y="0" viewBox="0 0 522 522" xml:space="preserve"><style>.st0{fill:#1e1e1e}.st1{fill:#c33c50}.st2{fill:#d9a600}</style><path class="st0" d="M444.7 76.4C397.6 29.2 332.4 0 260.6 0v79.4c50 0 95.3 20.3 128.1 53.1s53.1 78.1 53.1 128.1h79.4c0-71.9-29.3-137-76.5-184.2z"/><path class="st1" d="M260.6 0c-71.8 0-137 29.2-184.2 76.4C29.2 123.6 0 188.7 0 260.6h79.4c0-50 20.3-95.3 53.1-128.1s78.1-53.1 128.1-53.1V0z"/><path class="st2" d="M441.8 260.6c0-50-20.3-95.3-53.1-128.1s-78.1-53.1-128.1-53.1v79.4c28.1 0 53.6 11.4 72 29.8s29.8 43.9 29.8 72h79.4z"/><path class="st0" d="M132.4 388.7c35.3 35.3 81.7 53 128.1 53 46.4 0 92.8-17.7 128.1-53s53-81.7 53-128.1h-79.3c0 26.1-9.9 52.1-29.8 72s-45.9 29.8-72 29.8-52.1-9.9-72-29.8l-56.1 56.1z"/><path class="st2" d="M444.8 444.8l-56.1-56.1c-35.3 35.3-81.7 53-128.1 53-23 0-46-4.3-67.7-13-.5-.2-1-.4-1.6-.6-.6-.3-1.2-.5-1.9-.8-21.4-9.2-40.7-22.3-57-38.6-32.8-32.8-53.1-78.1-53.1-128.1H0c0 71.8 29.2 137 76.4 184.2l-.1.1c24.3 24.3 52.2 42.7 82 55.4.9.4 1.7.7 2.6 1.1.8.3 1.5.6 2.3.9 30.1 12.2 62.9 18.9 97.3 18.9v-.2c66.8 0 133.5-25.4 184.3-76.2z"/><path class="st1" d="M332.6 188.6c-18.4-18.4-43.9-29.8-72-29.8v203.6c28.1 0 53.6-11.4 72-29.8s29.8-43.9 29.8-72-11.4-53.6-29.8-72z"/></svg>