<svg xmlns="http://www.w3.org/2000/svg" xmlns:xlink="http://www.w3.org/1999/xlink" width="216" height="48" viewBox="0 0 216 48">
    <defs>
        <path id="ksj1eps2ga" d="M0 0.048L106.559 0.048 106.559 24.775 0 24.775z"/>
        <path id="h6yoknix7c" d="M0 47L215.351 47 215.351 0.018 0 0.018z"/>
    </defs>
    <g fill="none" fill-rule="evenodd">
        <path fill="#F1D624" d="M48.193 0L25 47 50.808 47 74 0z"/>
        <g transform="translate(0 11.097)">
            <mask id="oowgofnd8b" fill="#fff">
                <use xlink:href="#ksj1eps2ga"/>
            </mask>
            <path fill="#000" d="M95.167 6.313h-4.822v5.81h4.822c2.37 0 3.7-1.278 3.7-2.926 0-1.69-1.33-2.884-3.7-2.884zM82.861 24.28V.543c0-.248.249-.495.498-.495h12.473c6.154 0 10.518 3.627 10.518 9.15 0 3.503-1.912 6.016-4.822 7.417v.083s.54.742.998 1.442l3.741 5.729c.208.329.292.453.292.618 0 .165-.125.288-.416.288h-7.65c-.208 0-.457-.082-.582-.288l-4.2-6.512h-3.366v6.306c0 .247-.25.494-.5.494H83.36c-.25 0-.498-.247-.498-.494zM63.154 6.313h-3.825V18.51h3.866c4.366 0 6.486-2.349 6.486-6.099 0-3.874-2.66-6.1-6.527-6.1zm.083 18.462H52.344c-.25 0-.499-.247-.499-.494V.543c0-.248.25-.495.5-.495h10.809c8.19 0 14.01 4.822 14.01 12.364 0 7.418-4.905 12.363-13.927 12.363zM32.263.543v21.1h13.72c.249 0 .581.33.581.577v1.978c0 .247-.332.577-.582.577H29.103c-.25 0-.499-.247-.499-.494V.543c0-.248.25-.495.5-.495h2.66c.25 0 .499.247.499.495zM12.099 3.18h-8.44v7.047h9.271c3.367 0 4.075-1.525 4.075-3.545 0-1.978-1.206-3.502-4.906-3.502zm-8.44 18.462h8.648c3.99 0 5.737-1.4 5.737-4.162 0-2.72-1.788-4.121-5.737-4.121H3.659v8.283zm8.73 3.132H.5c-.25 0-.5-.247-.5-.494V.543C0 .295.25.048.5.048h11.683c5.57 0 8.48 2.803 8.48 6.635 0 2.143-.83 3.71-2.285 4.822v.083c2.078 1.195 3.325 3.214 3.325 5.893 0 4.74-3.45 7.294-9.312 7.294z" mask="url(#oowgofnd8b)"/>
        </g>
        <mask id="7mms0leiod" fill="#fff">
            <use xlink:href="#h6yoknix7c"/>
        </mask>
        <path fill="#020202" d="M123.322 41.75h85.937V10.745h-85.937V41.75zm-3.624 3.593h93.185V7.153h-93.185v38.19z" mask="url(#7mms0leiod)"/>
        <path fill="#FFF" d="M124.473 40.935L214.034 40.935 214.034 5.359 124.473 5.359z" mask="url(#7mms0leiod)"/>
        <path fill="#020202" d="M125.79 39.63h86.927V6.663H125.79V39.63zm-2.634 2.61h92.195V4.054h-92.195v38.188z" mask="url(#7mms0leiod)"/>
        <path fill="#000" d="M138.02 30.386c1.009 0 1.708-.239 2.096-.716.387-.476.581-1.26.581-2.352 0-1.123-.213-1.942-.64-2.458-.427-.515-1.145-.772-2.153-.772h-1.21v6.298h1.327zm-.139-8.652c.993 0 1.672-.219 2.037-.658.364-.438.547-1.15.547-2.134 0-.953-.237-1.603-.71-1.95-.474-.345-1.26-.518-2.362-.518h-.7v5.26h1.188zm-4.608-7.636h4.654c1.785 0 3.15.361 4.097 1.084.946.722 1.42 1.96 1.42 3.714 0 1.139-.233 2.027-.698 2.665-.466.638-1.14 1.027-2.025 1.165 2.172.415 3.258 1.954 3.258 4.614 0 1.8-.442 3.157-1.327 4.072-.884.916-2.195 1.373-3.933 1.373h-5.446V14.098zM152.916 29.809c.264-.476.397-1.169.397-2.077v-8.605c0-.908-.129-1.592-.384-2.053-.257-.462-.773-.692-1.548-.692-.777 0-1.296.234-1.56.703-.265.47-.396 1.15-.396 2.042v8.605c0 .908.131 1.6.396 2.077.264.476.783.715 1.56.715.76 0 1.272-.239 1.535-.715m-5.725 1.673c-.838-1.038-1.257-2.557-1.257-4.557V19.91c0-1.984.419-3.484 1.257-4.499.838-1.015 2.234-1.523 4.19-1.523 1.939 0 3.328.508 4.166 1.523.838 1.015 1.256 2.515 1.256 4.5v7.013c0 1.984-.422 3.5-1.268 4.545-.846 1.046-2.23 1.569-4.154 1.569-1.956 0-3.352-.52-4.19-1.557M165.16 26.302l-1.281-7.844-1.28 7.844h2.56zm-3.143-12.204h3.677l3.77 18.687h-3.188l-.745-4.314h-3.281l-.768 4.314h-3.236l3.771-18.687zM175.865 22.103c.978 0 1.672-.222 2.083-.669.411-.446.617-1.177.617-2.192 0-.984-.183-1.7-.547-2.146-.365-.445-1.02-.669-1.967-.669h-1.28v5.676h1.094zm-4.515-8.005h4.538c1.987 0 3.468.372 4.446 1.118.978.747 1.466 2.027 1.466 3.841 0 1.185-.174 2.15-.523 2.896-.35.746-.951 1.289-1.804 1.627l2.63 9.205h-3.445l-2.258-8.56h-1.628v8.56h-3.422V14.098zM188.899 30.409c.76 0 1.31-.13 1.652-.393.34-.26.559-.626.652-1.095.093-.47.14-1.165.14-2.088V19.68c0-.83-.055-1.46-.163-1.892-.109-.43-.338-.749-.687-.957-.349-.207-.896-.31-1.64-.31h-1.025v13.888h1.07zm-4.492-16.311h4.445c1.52 0 2.716.203 3.585.61.868.409 1.485 1.031 1.85 1.87.364.838.547 1.949.547 3.333v6.807c0 1.415-.183 2.56-.547 3.437-.365.876-.974 1.534-1.827 1.973-.854.438-2.01.657-3.468.657h-4.585V14.098zM198.29 31.608c-.846-.953-1.307-2.376-1.385-4.268l2.956-.577c.047 1.185.236 2.088.57 2.711.334.624.858.935 1.572.935.527 0 .918-.158 1.174-.474.258-.314.385-.74.385-1.28 0-.737-.167-1.364-.5-1.88-.335-.515-.859-1.08-1.572-1.696l-2.374-2.053c-.73-.615-1.277-1.277-1.64-1.984-.365-.708-.547-1.553-.547-2.538 0-1.461.43-2.596 1.292-3.403.86-.808 2.05-1.212 3.571-1.212 1.631 0 2.797.459 3.504 1.373.706.916 1.113 2.15 1.221 3.703l-2.955.508c-.046-1.016-.19-1.78-.43-2.296-.242-.515-.71-.772-1.409-.772-.497 0-.885.165-1.164.496-.28.33-.418.75-.418 1.257 0 .6.12 1.104.36 1.511.241.407.632.842 1.176 1.304l2.35 2.053c.886.754 1.575 1.561 2.072 2.422.496.862.745 1.862.745 3 0 .892-.198 1.684-.594 2.376-.395.692-.95 1.234-1.664 1.626-.714.393-1.536.589-2.468.589-1.706 0-2.983-.476-3.828-1.43" mask="url(#7mms0leiod)"/>
    </g>
</svg>
