<?xml version="1.0" encoding="utf-8"?>
<!-- Generator: Adobe Illustrator 24.3.0, SVG Export Plug-In . SVG Version: 6.00 Build 0)  -->
<svg version="1.1" id="Warstwa_1" xmlns="http://www.w3.org/2000/svg" xmlns:xlink="http://www.w3.org/1999/xlink" x="0px" y="0px"
	 viewBox="0 0 227 149" style="enable-background:new 0 0 227 149;" xml:space="preserve">
<style type="text/css">
	.st0{fill-rule:evenodd;clip-rule:evenodd;fill:#AAC5DA;}
	.st1{filter:url(#Adobe_OpacityMaskFilter);}
	.st2{fill-rule:evenodd;clip-rule:evenodd;fill:#FFFFFF;}
	.st3{mask:url(#ppjs6exu4b_1_);fill-rule:evenodd;clip-rule:evenodd;}
	.st4{filter:url(#Adobe_OpacityMaskFilter_1_);}
	.st5{mask:url(#_x32_6zkdqdmsd_1_);fill-rule:evenodd;clip-rule:evenodd;}
</style>
<g transform="rotate(22 11.65 72.981)">
	<path class="st0" d="M177.8,72L36.2,72C16.8,72,1,56,1,36.5C1,17,16.8,1,36.2,1l141.7,0C197.2,1,213,17,213,36.5
		C213,56,197.2,72,177.8,72"/>
	<defs>
		<filter id="Adobe_OpacityMaskFilter" filterUnits="userSpaceOnUse" x="36.1" y="-60" width="141.8" height="193">
			<feColorMatrix  type="matrix" values="1 0 0 0 0  0 1 0 0 0  0 0 1 0 0  0 0 0 1 0"/>
		</filter>
	</defs>
	<mask maskUnits="userSpaceOnUse" x="36.1" y="-60" width="141.8" height="193" id="ppjs6exu4b_1_">
		<g class="st1">
			<path id="_x38_sl8l3t0sa_1_" class="st2" d="M0,0.1l214,0l0,72.9L0,73L0,0.1z"/>
		</g>
	</mask>
	<path class="st3" d="M36.4,2.7c-9,0-17.4,3.5-23.8,9.9C6.1,19,2.6,27.5,2.6,36.5S6.1,54,12.5,60.4s14.9,9.9,23.8,9.9l141.3,0
		c9,0,17.4-3.5,23.8-9.9c6.4-6.4,9.9-14.9,9.9-23.9s-3.5-17.5-9.9-23.9s-14.9-9.9-23.8-9.9C177.6,2.7,36.4,2.7,36.4,2.7z M177.6,73
		L36.4,73c-9.7,0-18.8-3.8-25.7-10.7C3.8,55.4,0,46.2,0,36.5c0-9.7,3.8-18.9,10.7-25.8c6.9-6.9,16-10.7,25.7-10.7l141.3,0
		c9.7,0,18.8,3.8,25.7,10.7c6.9,6.9,10.7,16.1,10.7,25.8c0,9.7-3.8,18.8-10.7,25.8C196.4,69.2,187.3,73,177.6,73L177.6,73z"/>
	<defs>
		<filter id="Adobe_OpacityMaskFilter_1_" filterUnits="userSpaceOnUse" x="41.9" y="-48" width="131.1" height="169">
			<feColorMatrix  type="matrix" values="1 0 0 0 0  0 1 0 0 0  0 0 1 0 0  0 0 0 1 0"/>
		</filter>
	</defs>
	<mask maskUnits="userSpaceOnUse" x="41.9" y="-48" width="131.1" height="169" id="_x32_6zkdqdmsd_1_">
		<g class="st4">
			<path id="_x35_a5wi4zghc_1_" class="st2" d="M0,73l214,0l0-73L0,0L0,73z"/>
		</g>
	</mask>
	<path class="st5" d="M37.2,11.8l6.5,0V9l-6.5,0V11.8z M50.2,11.8l6.5,0V9l-6.5,0C50.2,9,50.2,11.8,50.2,11.8z M63.3,11.8l6.5,0V9
		l-6.5,0L63.3,11.8L63.3,11.8z M76.3,11.8l6.5,0l0-2.8l-6.5,0V11.8z M89.4,11.8l6.5,0V9l-6.5,0V11.8z M102.4,11.8l6.5,0l0-2.8
		l-6.5,0V11.8z M115.5,11.8l6.5,0V9l-6.5,0V11.8z M128.5,11.8l6.5,0V9l-6.5,0V11.8z M141.6,11.8l6.5,0V9l-6.5,0V11.8z M154.6,11.8
		l6.5,0V9l-6.5,0V11.8z M167.7,11.8l6.5,0V9l-6.5,0V11.8z M186.5,13.4c-1.9-0.7-3.9-1.2-6-1.5l0.3-2.8c2.3,0.3,4.5,0.8,6.7,1.6
		L186.5,13.4z M25.4,14.9L24,12.5c2-1.1,4.1-2,6.4-2.6l0.7,2.7C29.1,13.1,27.2,13.9,25.4,14.9z M196.5,20.6c-1.3-1.6-2.9-3-4.5-4.2
		l1.6-2.3c1.9,1.3,3.6,2.9,5,4.7L196.5,20.6L196.5,20.6z M16.5,23.4l-2.3-1.5c1.2-2,2.7-3.7,4.3-5.3l1.9,2
		C18.9,20,17.6,21.6,16.5,23.4z M201.8,31.7c-0.4-2-1.1-4-2-5.9l2.5-1.2c1,2.1,1.7,4.3,2.2,6.6L201.8,31.7L201.8,31.7z M12.8,35.1
		L10,34.9c0.1-2.3,0.5-4.6,1.2-6.8l2.6,0.8C13.2,31,12.9,33,12.8,35.1z M203.8,44.8l-2.6-0.8c0.6-2,1-4,1.1-6.1L205,38
		C204.9,40.3,204.5,42.6,203.8,44.8z M12.7,48.4c-1-2.1-1.7-4.3-2.2-6.6l2.7-0.5c0.4,2,1.1,4,2,5.9L12.7,48.4L12.7,48.4z
		 M196.5,56.4l-1.9-2c1.5-1.4,2.8-3,3.9-4.8l2.3,1.5C199.6,53,198.2,54.8,196.5,56.4L196.5,56.4z M21.4,58.9c-1.9-1.3-3.6-2.9-5-4.7
		l2.1-1.8c1.3,1.6,2.9,3,4.5,4.2L21.4,58.9L21.4,58.9z M184.6,63.1l-0.7-2.7c2-0.5,3.9-1.3,5.7-2.3l1.3,2.4
		C189,61.7,186.9,62.5,184.6,63.1z M34.1,63.8c-2.3-0.3-4.5-0.8-6.7-1.7l1-2.6c1.9,0.8,3.9,1.2,6,1.5L34.1,63.8z M40.8,64l6.5,0
		v-2.8l-6.5,0C40.8,61.2,40.8,64,40.8,64z M53.8,64l6.5,0v-2.8l-6.5,0C53.8,61.2,53.8,64,53.8,64z M66.9,64h6.5v-2.8l-6.5,0
		C66.9,61.2,66.9,64,66.9,64z M79.9,64h6.5v-2.8h-6.5C79.9,61.2,79.9,64,79.9,64z M93,64l6.5,0v-2.8H93C93,61.2,93,64,93,64z
		 M106,64l6.5,0v-2.8H106C106,61.2,106,64,106,64z M119.1,64l6.5,0v-2.8l-6.5,0C119.1,61.2,119.1,64,119.1,64z M132.1,64l6.5,0v-2.8
		l-6.5,0C132.1,61.2,132.1,64,132.1,64z M145.2,64h6.5v-2.8l-6.5,0C145.2,61.2,145.2,64,145.2,64z M158.2,64h6.5v-2.8h-6.5
		C158.2,61.2,158.2,64,158.2,64z M171.3,64h6.6v-2.8h-6.6C171.3,61.2,171.3,64,171.3,64z"/>
</g>
</svg>
